<?xml version="1.0" standalone="no"?>
 <!DOCTYPE svg PUBLIC "-//W3C//DTD SVG 1.1//EN" 
 "http://www.w3.org/Graphics/SVG/1.1/DTD/svg11.dtd"> 
<svg xmlns="http://www.w3.org/2000/svg" version="1.1" 
    width="29.7002cm" height="21.0007cm" viewBox="0 0 116930 82680 ">
<title>SVG Picture created as Striduino-F_Fab.svg date 2019/11/24 23:38:58 </title>
  <desc>Picture generated by PCBNEW </desc>
<g style="fill:#000000; fill-opacity:1;stroke:#000000; stroke-opacity:1;
stroke-linecap:round; stroke-linejoin:round; "
 transform="translate(0 0) scale(1 1)">
</g>
<g style="fill:#000000; fill-opacity:0.0; 
stroke:#000000; stroke-width:-0.000393701; stroke-opacity:1; 
stroke-linecap:round; stroke-linejoin:round;">
</g>
<g style="fill:#000000; fill-opacity:0.0; 
stroke:#000000; stroke-width:39.3701; stroke-opacity:1; 
stroke-linecap:round; stroke-linejoin:round;">
<path d="M23326 44783
L22932 45176
" />
<path d="M22932 45176
L22539 44783
" />
<path d="M22539 44783
L19783 44783
" />
<path d="M23326 44783
L51279 44783
" />
<path d="M51279 44783
L51279 58956
" />
<path d="M51279 58956
L19783 58956
" />
<path d="M19783 58956
L19783 44783
" />
<path d="M54271 48917
L53877 48523
" />
<path d="M53877 45374
L53877 48523
" />
<path d="M53877 45374
L59586 45374
" />
<path d="M59586 45374
L59586 48917
" />
<path d="M59586 48917
L54271 48917
" />
</g>
<g style="fill:#000000; fill-opacity:0.0; 
stroke:#000000; stroke-width:47.2441; stroke-opacity:1; 
stroke-linecap:round; stroke-linejoin:round;">
<path d="M56102 51968
L53740 51968
" />
<path d="M54921 53149
L54921 50787
" />
<path d="M57519 53976
L57125 54409
" />
<path d="M57519 49527
L57519 53976
" />
<path d="M52322 49527
L57519 49527
" />
<path d="M52322 54409
L52322 49527
" />
<path d="M57125 54409
L52322 54409
" />
<circle cx="54921.3" cy="51968.5" r="1181.1" /> 
</g>
<g style="fill:#000000; fill-opacity:0.0; 
stroke:#000000; stroke-width:39.3701; stroke-opacity:1; 
stroke-linecap:round; stroke-linejoin:round;">
<path d="M51181 47244
L51574 46850
" />
<path d="M51181 46850
L53149 46850
" />
<path d="M53149 46850
L53149 48818
" />
<path d="M53149 48818
L51181 48818
" />
<path d="M51181 48818
L51181 46850
" />
<circle cx="52165.4" cy="47834.6" r="787.402" /> 
<path d="M51173.2 46444.8 A1141.73 1141.73 0.0 1 0 51173.2 45287.5 " />
<circle cx="52157.5" cy="45866.1" r="984.252" /> 
<path d="M51173 45287
L51173 46444
" />
<g >
</g>
<g >
</g>
<g >
</g>
<g >
</g>
<g >
</g>
<g >
</g>
<g >
</g>
<g >
</g>
<g >
</g>
<g >
</g>
<g >
</g>
<g >
</g>
<g >
</g>
<g >
</g>
<g >
</g>
<g >
</g>
<g >
</g>
<g >
</g>
<g >
</g>
<g >
</g>
<g >
</g>
<g >
</g>
<g >
</g>
<g >
</g>
<g >
</g>
<g >
</g>
<g >
</g>
<g >
</g>
<g >
</g>
<g >
</g>
<g >
</g>
<g >
</g>
<g >
</g>
<g >
</g>
<g >
</g>
<g >
</g>
<g >
</g>
<g >
</g>
<g >
</g>
<g >
</g>
<g >
</g>
<g >
</g>
<g >
</g>
<g >
</g>
<g >
</g>
<g >
</g>
<g >
</g>
<g >
</g>
<g >
</g>
<g >
</g>
<g >
</g>
<g >
</g>
<g >
</g>
<g >
</g>
<g >
</g>
<g >
</g>
</g>
<g style="fill:#000000; fill-opacity:0.0; 
stroke:#000000; stroke-width:39.3701; stroke-opacity:1; 
stroke-linecap:round; stroke-linejoin:round;">
</g>
<g style="fill:#000000; fill-opacity:0.0; 
stroke:#000000; stroke-width:59.0551; stroke-opacity:1; 
stroke-linecap:round; stroke-linejoin:round;">
<path d="M19951 59197
L20045 59591
L20120 59309
L20195 59591
L20289 59197
" />
<path d="M20664 59553
L20645 59572
L20589 59591
L20551 59591
L20495 59572
L20457 59534
L20439 59497
L20420 59422
L20420 59366
L20439 59291
L20457 59253
L20495 59216
L20551 59197
L20589 59197
L20645 59216
L20664 59235
" />
<path d="M21039 59591
L20814 59591
" />
<path d="M20926 59591
L20926 59197
L20889 59253
L20851 59291
L20814 59309
" />
<path d="M21376 59197
L21301 59197
L21263 59216
L21245 59235
L21207 59291
L21188 59366
L21188 59516
L21207 59553
L21226 59572
L21263 59591
L21338 59591
L21376 59572
L21395 59553
L21413 59516
L21413 59422
L21395 59384
L21376 59366
L21338 59347
L21263 59347
L21226 59366
L21207 59384
L21188 59422
" />
<path d="M21657 59197
L21695 59197
L21732 59216
L21751 59235
L21770 59272
L21788 59347
L21788 59441
L21770 59516
L21751 59553
L21732 59572
L21695 59591
L21657 59591
L21620 59572
L21601 59553
L21582 59516
L21563 59441
L21563 59347
L21582 59272
L21601 59235
L21620 59216
L21657 59197
" />
<path d="M21938 59235
L21957 59216
L21995 59197
L22088 59197
L22126 59216
L22145 59235
L22163 59272
L22163 59309
L22145 59366
L21920 59591
L22163 59591
" />
<path d="M22313 59478
L22501 59478
" />
<path d="M22276 59591
L22407 59197
L22538 59591
" />
</g>
<g style="fill:#000000; fill-opacity:0.0; 
stroke:#000000; stroke-width:39.3701; stroke-opacity:1; 
stroke-linecap:round; stroke-linejoin:round;">
<path d="M21648 45552
L21648 45870
L21667 45908
L21686 45927
L21723 45945
L21798 45945
L21836 45927
L21855 45908
L21873 45870
L21873 45552
" />
<path d="M22267 45945
L22042 45945
" />
<path d="M22155 45945
L22155 45552
L22117 45608
L22080 45645
L22042 45664
" />
</g>
<g style="fill:#000000; fill-opacity:0.0; 
stroke:#000000; stroke-width:59.0551; stroke-opacity:1; 
stroke-linecap:round; stroke-linejoin:round;">
<path d="M60306 48617
L60325 48561
L60344 48542
L60381 48523
L60437 48523
L60475 48542
L60494 48561
L60512 48598
L60512 48748
L60119 48748
L60119 48617
L60137 48579
L60156 48561
L60194 48542
L60231 48542
L60269 48561
L60287 48579
L60306 48617
L60306 48748
" />
<path d="M60512 48186
L60306 48186
L60269 48204
L60250 48242
L60250 48317
L60269 48354
" />
<path d="M60494 48186
L60512 48223
L60512 48317
L60494 48354
L60456 48373
L60419 48373
L60381 48354
L60362 48317
L60362 48223
L60344 48186
" />
<path d="M60512 47998
L60250 47998
" />
<path d="M60325 47998
L60287 47979
L60269 47961
L60250 47923
L60250 47886
" />
<path d="M60512 47754
L60250 47754
" />
<path d="M60325 47754
L60287 47736
L60269 47717
L60250 47679
L60250 47642
" />
<path d="M60494 47361
L60512 47398
L60512 47473
L60494 47511
L60456 47529
L60306 47529
L60269 47511
L60250 47473
L60250 47398
L60269 47361
L60306 47342
L60344 47342
L60381 47529
" />
<path d="M60512 47117
L60494 47155
L60456 47173
L60119 47173
" />
<path d="M60550 47061
L60550 46761
" />
<path d="M60119 46555
L60400 46555
L60456 46573
L60494 46611
L60512 46667
L60512 46705
" />
<path d="M60512 46198
L60306 46198
L60269 46217
L60250 46255
L60250 46330
L60269 46367
" />
<path d="M60494 46198
L60512 46236
L60512 46330
L60494 46367
L60456 46386
L60419 46386
L60381 46367
L60362 46330
L60362 46236
L60344 46198
" />
<path d="M60494 45842
L60512 45880
L60512 45955
L60494 45992
L60475 46011
L60437 46030
L60325 46030
L60287 46011
L60269 45992
L60250 45955
L60250 45880
L60269 45842
" />
<path d="M60512 45673
L60119 45673
" />
<path d="M60362 45636
L60512 45523
" />
<path d="M60250 45523
L60400 45673
" />
<path d="M56969 47276
L57250 47276
L57306 47295
L57344 47333
L57363 47389
L57363 47426
" />
<path d="M56969 47126
L56969 46864
L57363 47033
" />
<path d="M51884 49036
L51752 48848
" />
<path d="M51659 49036
L51659 48642
L51809 48642
L51846 48661
L51865 48680
L51884 48717
L51884 48773
L51865 48811
L51846 48830
L51809 48848
L51659 48848
" />
<path d="M52109 49036
L52071 49017
L52052 48998
L52034 48961
L52034 48848
L52052 48811
L52071 48792
L52109 48773
L52165 48773
L52202 48792
L52221 48811
L52240 48848
L52240 48961
L52221 48998
L52202 49017
L52165 49036
L52109 49036
" />
<path d="M52352 48773
L52502 48773
" />
<path d="M52409 48642
L52409 48980
L52427 49017
L52465 49036
L52502 49036
" />
<path d="M52802 49036
L52802 48830
L52784 48792
L52746 48773
L52671 48773
L52634 48792
" />
<path d="M52802 49017
L52765 49036
L52671 49036
L52634 49017
L52615 48980
L52615 48942
L52634 48905
L52671 48886
L52765 48886
L52802 48867
" />
<path d="M52990 49036
L52990 48773
" />
<path d="M52990 48848
L53008 48811
L53027 48792
L53065 48773
L53102 48773
" />
<path d="M53196 48773
L53290 49036
" />
<path d="M53383 48773
L53290 49036
L53252 49130
L53233 49148
L53196 49167
" />
<path d="M53440 49073
L53740 49073
" />
<path d="M53833 48830
L53965 48830
" />
<path d="M54021 49036
L53833 49036
L53833 48642
L54021 48642
" />
<path d="M54190 48773
L54190 49036
" />
<path d="M54190 48811
L54208 48792
L54246 48773
L54302 48773
L54340 48792
L54358 48830
L54358 49036
" />
<path d="M54715 49017
L54677 49036
L54602 49036
L54565 49017
L54546 48998
L54527 48961
L54527 48848
L54546 48811
L54565 48792
L54602 48773
L54677 48773
L54715 48792
" />
<path d="M54940 49036
L54902 49017
L54883 48998
L54865 48961
L54865 48848
L54883 48811
L54902 48792
L54940 48773
L54996 48773
L55033 48792
L55052 48811
L55071 48848
L55071 48961
L55052 48998
L55033 49017
L54996 49036
L54940 49036
" />
<path d="M55408 49036
L55408 48642
" />
<path d="M55408 49017
L55371 49036
L55296 49036
L55258 49017
L55239 48998
L55221 48961
L55221 48848
L55239 48811
L55258 48792
L55296 48773
L55371 48773
L55408 48792
" />
<path d="M55746 49017
L55708 49036
L55633 49036
L55596 49017
L55577 48980
L55577 48830
L55596 48792
L55633 48773
L55708 48773
L55746 48792
L55764 48830
L55764 48867
L55577 48905
" />
<path d="M55933 49036
L55933 48773
" />
<path d="M55933 48848
L55952 48811
L55971 48792
L56008 48773
L56046 48773
" />
<path d="M56083 49073
L56383 49073
" />
<path d="M56458 49017
L56514 49036
L56608 49036
L56646 49017
L56664 48998
L56683 48961
L56683 48923
L56664 48886
L56646 48867
L56608 48848
L56533 48830
L56496 48811
L56477 48792
L56458 48755
L56458 48717
L56477 48680
L56496 48661
L56533 48642
L56627 48642
L56683 48661
" />
<path d="M56814 48773
L56889 49036
L56964 48848
L57039 49036
L57114 48773
" />
<path d="M57264 49036
L57264 48773
" />
<path d="M57264 48642
L57245 48661
L57264 48680
L57283 48661
L57264 48642
L57264 48680
" />
<path d="M57395 48773
L57545 48773
" />
<path d="M57452 48642
L57452 48980
L57470 49017
L57508 49036
L57545 49036
" />
<path d="M57845 49017
L57808 49036
L57733 49036
L57695 49017
L57677 48998
L57658 48961
L57658 48848
L57677 48811
L57695 48792
L57733 48773
L57808 48773
L57845 48792
" />
<path d="M58014 49036
L58014 48642
" />
<path d="M58183 49036
L58183 48830
L58164 48792
L58127 48773
L58070 48773
L58033 48792
L58014 48811
" />
<path d="M51059 49193
L51152 49587
L51227 49306
L51302 49587
L51396 49193
" />
<path d="M51527 49568
L51584 49587
L51677 49587
L51715 49568
L51734 49550
L51752 49512
L51752 49475
L51734 49437
L51715 49418
L51677 49400
L51602 49381
L51565 49362
L51546 49343
L51527 49306
L51527 49268
L51546 49231
L51565 49212
L51602 49193
L51696 49193
L51752 49212
" />
<path d="M51902 49231
L51921 49212
L51959 49193
L52052 49193
L52090 49212
L52109 49231
L52127 49268
L52127 49306
L52109 49362
L51884 49587
L52127 49587
" />
<path d="M52352 49362
L52315 49343
L52296 49325
L52277 49287
L52277 49268
L52296 49231
L52315 49212
L52352 49193
L52427 49193
L52465 49212
L52484 49231
L52502 49268
L52502 49287
L52484 49325
L52465 49343
L52427 49362
L52352 49362
L52315 49381
L52296 49400
L52277 49437
L52277 49512
L52296 49550
L52315 49568
L52352 49587
L52427 49587
L52465 49568
L52484 49550
L52502 49512
L52502 49437
L52484 49400
L52465 49381
L52427 49362
" />
<path d="M52877 49587
L52652 49587
" />
<path d="M52765 49587
L52765 49193
L52727 49250
L52690 49287
L52652 49306
" />
<path d="M53027 49231
L53046 49212
L53083 49193
L53177 49193
L53215 49212
L53233 49231
L53252 49268
L53252 49306
L53233 49362
L53008 49587
L53252 49587
" />
<path d="M51932 47977
L51932 47662
L52007 47662
L52052 47677
L52082 47707
L52097 47737
L52112 47797
L52112 47842
L52097 47902
L52082 47932
L52052 47962
L52007 47977
L51932 47977
" />
<path d="M52412 47977
L52232 47977
" />
<path d="M52322 47977
L52322 47662
L52292 47707
L52262 47737
L52232 47752
" />
<path d="M51904 47603
L51716 47603
L51716 47209
" />
<path d="M52035 47397
L52166 47397
" />
<path d="M52223 47603
L52035 47603
L52035 47209
L52223 47209
" />
<path d="M52391 47603
L52391 47209
L52485 47209
L52541 47228
L52579 47265
L52598 47303
L52616 47378
L52616 47434
L52598 47509
L52579 47547
L52541 47584
L52485 47603
L52391 47603
" />
</g>
<g style="fill:#000000; fill-opacity:0.0; 
stroke:#000000; stroke-width:78.7402; stroke-opacity:1; 
stroke-linecap:round; stroke-linejoin:round;">
<path d="M51917 46008
L51917 45693
L51992 45693
L52037 45708
L52067 45738
L52082 45768
L52097 45828
L52097 45873
L52082 45933
L52067 45963
L52037 45993
L51992 46008
L51917 46008
" />
<path d="M52217 45723
L52232 45708
L52262 45693
L52337 45693
L52367 45708
L52382 45723
L52397 45753
L52397 45783
L52382 45828
L52202 46008
L52397 46008
" />
<g >
</g>
</g> 
</svg>
