<?xml version="1.0" standalone="no"?>
 <!DOCTYPE svg PUBLIC "-//W3C//DTD SVG 1.1//EN" 
 "http://www.w3.org/Graphics/SVG/1.1/DTD/svg11.dtd"> 
<svg xmlns="http://www.w3.org/2000/svg" version="1.1" 
    width="29.7002cm" height="21.0007cm" viewBox="0 0 116930 82680 ">
<title>SVG Picture created as Striduino-F_SilkS.svg date 2019/11/24 23:38:58 </title>
  <desc>Picture generated by PCBNEW </desc>
<g style="fill:#000000; fill-opacity:1;stroke:#000000; stroke-opacity:1;
stroke-linecap:round; stroke-linejoin:round; "
 transform="translate(0 0) scale(1 1)">
</g>
<g style="fill:#000000; fill-opacity:0.0; 
stroke:#000000; stroke-width:-0.000393701; stroke-opacity:1; 
stroke-linecap:round; stroke-linejoin:round;">
</g>
<g style="fill:#000000; fill-opacity:0.0; 
stroke:#000000; stroke-width:39.3701; stroke-opacity:1; 
stroke-linecap:round; stroke-linejoin:round;">
<path d="M30218 49411
L30206 49398
L30182 49362
L30169 49337
L30157 49301
L30145 49240
L30145 49191
L30157 49130
L30169 49094
L30182 49069
L30206 49033
L30218 49021
" />
<path d="M30425 49301
L30401 49313
L30352 49313
L30328 49301
L30316 49289
L30303 49264
L30303 49191
L30316 49167
L30328 49155
L30352 49142
L30401 49142
L30425 49155
" />
<path d="M30511 49411
L30523 49398
L30547 49362
L30559 49337
L30572 49301
L30584 49240
L30584 49191
L30572 49130
L30559 49094
L30547 49069
L30523 49033
L30511 49021
" />
<path d="M30901 49313
L30901 49057
L30986 49240
L31071 49057
L31071 49313
" />
<path d="M31193 49313
L31193 49142
" />
<path d="M31193 49057
L31181 49069
L31193 49082
L31205 49069
L31193 49057
L31193 49082
" />
<path d="M31278 49142
L31376 49142
" />
<path d="M31315 49057
L31315 49277
L31327 49301
L31351 49313
L31376 49313
" />
<path d="M31571 49301
L31546 49313
L31498 49313
L31473 49301
L31461 49289
L31449 49264
L31449 49191
L31461 49167
L31473 49155
L31498 49142
L31546 49142
L31571 49155
" />
<path d="M31681 49313
L31681 49057
" />
<path d="M31790 49313
L31790 49179
L31778 49155
L31754 49142
L31717 49142
L31693 49155
L31681 49167
" />
<path d="M32010 49301
L31985 49313
L31936 49313
L31912 49301
L31900 49277
L31900 49179
L31912 49155
L31936 49142
L31985 49142
L32010 49155
L32022 49179
L32022 49203
L31900 49228
" />
<path d="M32168 49313
L32144 49301
L32131 49277
L32131 49057
" />
<path d="M32302 49313
L32278 49301
L32265 49277
L32265 49057
" />
<path d="M32582 49301
L32619 49313
L32680 49313
L32704 49301
L32716 49289
L32729 49264
L32729 49240
L32716 49216
L32704 49203
L32680 49191
L32631 49179
L32607 49167
L32594 49155
L32582 49130
L32582 49106
L32594 49082
L32607 49069
L32631 49057
L32692 49057
L32729 49069
" />
<path d="M32802 49142
L32899 49142
" />
<path d="M32838 49057
L32838 49277
L32850 49301
L32875 49313
L32899 49313
" />
<path d="M32984 49313
L32984 49142
" />
<path d="M32984 49191
L32997 49167
L33009 49155
L33033 49142
L33058 49142
" />
<path d="M33143 49313
L33143 49142
" />
<path d="M33143 49057
L33131 49069
L33143 49082
L33155 49069
L33143 49057
L33143 49082
" />
<path d="M33374 49313
L33374 49057
" />
<path d="M33374 49301
L33350 49313
L33301 49313
L33277 49301
L33265 49289
L33252 49264
L33252 49191
L33265 49167
L33277 49155
L33301 49142
L33350 49142
L33374 49155
" />
<path d="M33594 49301
L33569 49313
L33521 49313
L33496 49301
L33484 49277
L33484 49179
L33496 49155
L33521 49142
L33569 49142
L33594 49155
L33606 49179
L33606 49203
L33484 49228
" />
<path d="M30133 49724
L30169 49736
L30230 49736
L30255 49724
L30267 49712
L30279 49688
L30279 49663
L30267 49639
L30255 49627
L30230 49614
L30182 49602
L30157 49590
L30145 49578
L30133 49554
L30133 49529
L30145 49505
L30157 49493
L30182 49480
L30243 49480
L30279 49493
" />
<path d="M30352 49566
L30450 49566
" />
<path d="M30389 49480
L30389 49700
L30401 49724
L30425 49736
L30450 49736
" />
<path d="M30535 49736
L30535 49566
" />
<path d="M30535 49614
L30547 49590
L30559 49578
L30584 49566
L30608 49566
" />
<path d="M30693 49736
L30693 49566
" />
<path d="M30693 49480
L30681 49493
L30693 49505
L30706 49493
L30693 49480
L30693 49505
" />
<path d="M30925 49736
L30925 49480
" />
<path d="M30925 49724
L30901 49736
L30852 49736
L30827 49724
L30815 49712
L30803 49688
L30803 49614
L30815 49590
L30827 49578
L30852 49566
L30901 49566
L30925 49578
" />
<path d="M31157 49566
L31157 49736
" />
<path d="M31047 49566
L31047 49700
L31059 49724
L31083 49736
L31120 49736
L31144 49724
L31157 49712
" />
<path d="M31278 49736
L31278 49566
" />
<path d="M31278 49480
L31266 49493
L31278 49505
L31291 49493
L31278 49480
L31278 49505
" />
<path d="M31400 49566
L31400 49736
" />
<path d="M31400 49590
L31412 49578
L31437 49566
L31473 49566
L31498 49578
L31510 49602
L31510 49736
" />
<path d="M31668 49736
L31644 49724
L31632 49712
L31620 49688
L31620 49614
L31632 49590
L31644 49578
L31668 49566
L31705 49566
L31729 49578
L31741 49590
L31754 49614
L31754 49688
L31741 49712
L31729 49724
L31705 49736
L31668 49736
" />
<path d="M30145 50160
L30145 49904
L30243 49904
L30267 49916
L30279 49928
L30291 49952
L30291 49989
L30279 50013
L30267 50026
L30243 50038
L30145 50038
" />
<path d="M30401 50160
L30401 49904
L30547 50160
L30547 49904
" />
<path d="M30669 50135
L30681 50147
L30669 50160
L30657 50147
L30669 50135
L30669 50160
" />
<path d="M30669 50001
L30681 50013
L30669 50026
L30657 50013
L30669 50001
L30669 50026
" />
<path d="M30962 49904
L31120 49904
L31035 50001
L31071 50001
L31096 50013
L31108 50026
L31120 50050
L31120 50111
L31108 50135
L31096 50147
L31071 50160
L30998 50160
L30974 50147
L30962 50135
" />
<path d="M31278 49904
L31303 49904
L31327 49916
L31339 49928
L31351 49952
L31364 50001
L31364 50062
L31351 50111
L31339 50135
L31327 50147
L31303 50160
L31278 50160
L31254 50147
L31242 50135
L31230 50111
L31217 50062
L31217 50001
L31230 49952
L31242 49928
L31254 49916
L31278 49904
" />
<path d="M31473 50062
L31668 50062
" />
<path d="M31778 49928
L31790 49916
L31815 49904
L31875 49904
L31900 49916
L31912 49928
L31924 49952
L31924 49977
L31912 50013
L31766 50160
L31924 50160
" />
<path d="M32083 49904
L32107 49904
L32131 49916
L32144 49928
L32156 49952
L32168 50001
L32168 50062
L32156 50111
L32144 50135
L32131 50147
L32107 50160
L32083 50160
L32058 50147
L32046 50135
L32034 50111
L32022 50062
L32022 50001
L32034 49952
L32046 49928
L32058 49916
L32083 49904
" />
<path d="M32412 50160
L32265 50160
" />
<path d="M32339 50160
L32339 49904
L32314 49940
L32290 49965
L32265 49977
" />
<path d="M32534 50160
L32582 50160
L32607 50147
L32619 50135
L32643 50099
L32655 50050
L32655 49952
L32643 49928
L32631 49916
L32607 49904
L32558 49904
L32534 49916
L32521 49928
L32509 49952
L32509 50013
L32521 50038
L32534 50050
L32558 50062
L32607 50062
L32631 50050
L32643 50038
L32655 50013
" />
<path d="M32765 50062
L32960 50062
" />
<path d="M33131 49904
L33155 49904
L33179 49916
L33192 49928
L33204 49952
L33216 50001
L33216 50062
L33204 50111
L33192 50135
L33179 50147
L33155 50160
L33131 50160
L33106 50147
L33094 50135
L33082 50111
L33070 50062
L33070 50001
L33082 49952
L33094 49928
L33106 49916
L33131 49904
" />
<path d="M33374 49904
L33399 49904
L33423 49916
L33435 49928
L33447 49952
L33460 50001
L33460 50062
L33447 50111
L33435 50135
L33423 50147
L33399 50160
L33374 50160
L33350 50147
L33338 50135
L33326 50111
L33313 50062
L33313 50001
L33326 49952
L33338 49928
L33350 49916
L33374 49904
" />
<path d="M33557 49928
L33569 49916
L33594 49904
L33655 49904
L33679 49916
L33691 49928
L33703 49952
L33703 49977
L33691 50013
L33545 50160
L33703 50160
" />
<path d="M33984 49989
L34045 50160
L34106 49989
" />
<path d="M34337 50160
L34191 50160
" />
<path d="M34264 50160
L34264 49904
L34240 49940
L34215 49965
L34191 49977
" />
<path d="M34447 50135
L34459 50147
L34447 50160
L34435 50147
L34447 50135
L34447 50160
" />
<path d="M34617 49904
L34642 49904
L34666 49916
L34678 49928
L34690 49952
L34703 50001
L34703 50062
L34690 50111
L34678 50135
L34666 50147
L34642 50160
L34617 50160
L34593 50147
L34581 50135
L34569 50111
L34556 50062
L34556 50001
L34569 49952
L34581 49928
L34593 49916
L34617 49904
" />
<path d="M30133 50571
L30169 50583
L30230 50583
L30255 50571
L30267 50558
L30279 50534
L30279 50510
L30267 50485
L30255 50473
L30230 50461
L30182 50449
L30157 50437
L30145 50424
L30133 50400
L30133 50376
L30145 50351
L30157 50339
L30182 50327
L30243 50327
L30279 50339
" />
<path d="M30389 50583
L30389 50327
L30535 50583
L30535 50327
" />
<path d="M30657 50558
L30669 50571
L30657 50583
L30645 50571
L30657 50558
L30657 50583
" />
<path d="M30657 50424
L30669 50437
L30657 50449
L30645 50437
L30657 50424
L30657 50449
" />
</g>
<g style="fill:#000000; fill-opacity:0.0; 
stroke:#000000; stroke-width:47.2441; stroke-opacity:1; 
stroke-linecap:round; stroke-linejoin:round;">
<path d="M19727 59011
L51334 59011
" />
<path d="M51334 59011
L51334 44728
" />
<path d="M51334 44728
L20042 44728
" />
<path d="M19727 44728
L19727 59011
" />
<path d="M19731 44728
L20042 44728
" />
<path d="M56279 45334
L58641 45334
" />
<path d="M58641 48956
L53838 48956
" />
<path d="M53838 46161
L53838 45334
" />
<path d="M53838 45334
L54547 45334
" />
<path d="M53720 48405
L53720 49074
" />
<path d="M53720 49074
L54350 49074
" />
<path d="M53838 48956
L53838 48129
" />
<path d="M55118 51968
L54724 51968
" />
<path d="M54921 52165
L54921 51771
" />
<path d="M52283 50511
L52283 49488
" />
<path d="M52283 52480
L52283 51456
" />
<path d="M52283 54448
L52283 53425
" />
<path d="M57755 53582
L57874 53464
" />
<path d="M57992 53582
L57755 53582
" />
<path d="M57874 53464
L57992 53582
" />
<path d="M57559 54448
L57559 53464
" />
<path d="M55669 54448
L57559 54448
" />
<path d="M57559 49488
L57559 50590
" />
<path d="M55629 49488
L57559 49488
" />
<path d="M52283 49488
L54212 49488
" />
<path d="M54212 54448
L52283 54448
" />
<circle cx="54921.3" cy="51968.5" r="1181.1" /> 
<path d="M58917 58976
L52933 58976
" />
<path d="M52933 58976
L52933 54803
" />
<path d="M52933 54803
L58917 54803
" />
<path d="M58917 54803
L58917 58976
" />
<path d="M50728 48917
L53602 48917
" />
<path d="M50728 47204
L50728 46751
" />
<path d="M50728 46751
L53602 46751
" />
<path d="M53334.6 45866.3 A1177.17 1177.17 0.0 0 0 51149.6 45257.9 " />
<path d="M51149.6 46474.3 A1177.17 1177.17 0.0 0 0 53334.6 45866 " />
<circle cx="52157.5" cy="45866.1" r="984.252" /> 
<path d="M51149 45257
L51149 46474
" />
</g>
<g style="fill:#000000; fill-opacity:1.0; 
stroke:#000000; stroke-width:3.93701; stroke-opacity:1; 
stroke-linecap:round; stroke-linejoin:round;">
<path style="fill:#000000; fill-opacity:1.0; 
stroke:#000000; stroke-width:3.93701; stroke-opacity:1; 
stroke-linecap:round; stroke-linejoin:round;fill-rule:evenodd;"
d="M 23893,56145
23902,56160
23916,56184
23934,56215
23956,56252
23981,56295
24009,56343
24039,56395
24070,56449
24103,56504
24135,56561
24168,56617
24199,56672
24229,56724
24257,56773
24283,56818
24305,56858
24324,56891
24339,56917
24348,56935
24352,56943
24353,56944
24347,56951
24333,56962
24310,56976
24282,56991
24252,57006
24212,57023
24170,57039
24124,57054
24073,57067
24015,57080
23950,57092
23875,57104
23798,57116
23731,57126
23674,57136
23627,57146
23588,57157
23555,57170
23528,57185
23504,57202
23483,57221
23476,57229
23461,57246
23449,57260
23444,57268
23444,57269
23442,57273
23436,57273
23424,57268
23405,57259
23378,57243
23359,57232
23330,57215
23308,57200
23294,57188
23289,57182
23289,57181
23292,57175
23301,57159
23315,57134
23333,57102
23356,57062
23382,57016
23411,56965
23442,56910
23476,56851
23511,56790
23548,56727
23585,56662
23622,56598
23658,56535
23694,56473
23728,56414
23760,56359
23790,56308
23817,56262
23840,56222
23860,56189
23875,56164
23885,56147
23889,56141
23889,56140
23893,56145
Z" /> 
<path style="fill:#000000; fill-opacity:1.0; 
stroke:#000000; stroke-width:3.93701; stroke-opacity:1; 
stroke-linecap:round; stroke-linejoin:round;fill-rule:evenodd;"
d="M 24611,57385
24615,57393
24625,57410
24640,57436
24660,57470
24684,57511
24712,57559
24742,57611
24775,57669
24810,57730
24847,57793
24884,57857
24919,57919
24953,57977
24984,58031
25012,58079
25037,58122
25057,58157
25073,58185
25084,58203
25089,58212
25097,58227
25101,58236
25102,58238
25096,58235
25081,58226
25057,58212
25024,58193
24985,58171
24938,58144
24886,58114
24829,58081
24768,58045
24703,58008
24679,57994
24613,57956
24550,57920
24491,57886
24437,57854
24388,57826
24345,57801
24310,57781
24282,57765
24263,57754
24253,57749
24252,57748
24255,57744
24265,57731
24282,57712
24304,57688
24330,57659
24359,57627
24390,57593
24422,57558
24454,57524
24485,57490
24514,57459
24540,57432
24561,57410
24577,57394
24583,57388
24602,57371
24611,57385
Z" /> 
<path style="fill:#000000; fill-opacity:1.0; 
stroke:#000000; stroke-width:3.93701; stroke-opacity:1; 
stroke-linecap:round; stroke-linejoin:round;fill-rule:evenodd;"
d="M 23168,57407
23180,57412
23200,57422
23228,57438
23230,57439
23256,57454
23278,57467
23293,57476
23301,57482
23301,57482
23299,57489
23291,57506
23277,57531
23258,57563
23234,57602
23206,57646
23199,57657
23181,57687
23167,57713
23160,57732
23159,57736
23160,57753
23163,57780
23170,57815
23179,57856
23190,57902
23202,57951
23216,58002
23230,58052
23244,58100
23258,58144
23271,58182
23283,58213
23291,58232
23301,58252
23310,58270
23311,58271
23326,58291
23348,58303
23374,58310
23400,58309
23423,58300
23436,58289
23455,58258
23469,58219
23476,58177
23477,58153
23473,58108
23460,58071
23439,58039
23432,58032
23412,58013
23411,57875
23409,57737
23444,57684
23461,57660
23477,57639
23490,57622
23495,57617
23511,57602
23532,57613
23546,57622
23553,57628
23554,57629
23559,57634
23568,57638
23576,57641
23589,57647
23607,57657
23632,57671
23665,57690
23706,57714
23729,57727
23756,57743
23773,57754
23783,57762
23787,57768
23786,57774
23785,57775
23779,57783
23766,57798
23748,57819
23725,57843
23706,57863
23661,57912
23626,57954
23600,57990
23584,58021
23578,58036
23576,58050
23574,58073
23571,58103
23570,58137
23569,58159
23567,58196
23567,58224
23567,58243
23568,58257
23571,58266
23575,58274
23578,58279
23595,58299
23618,58312
23642,58318
23659,58316
23675,58307
23695,58290
23717,58270
23737,58247
23752,58226
23758,58216
23766,58203
23782,58182
23803,58155
23828,58124
23856,58092
23885,58058
23914,58026
23941,57996
23966,57970
23985,57951
24007,57933
24025,57919
24038,57911
24042,57910
24048,57914
24064,57923
24089,57937
24122,57955
24161,57977
24206,58003
24257,58032
24311,58063
24368,58096
24428,58130
24489,58166
24551,58201
24611,58236
24671,58270
24727,58303
24781,58334
24830,58362
24874,58388
24912,58410
24943,58428
24966,58441
24979,58450
24983,58452
24978,58453
24961,58453
24933,58454
24894,58454
24846,58455
24788,58455
24721,58455
24646,58456
24564,58456
24474,58456
24378,58457
24276,58457
24168,58457
24056,58457
23939,58457
23819,58457
23769,58457
22548,58457
22635,58307
22654,58275
22677,58233
22706,58184
22738,58129
22772,58069
22809,58004
22848,57938
22887,57871
22925,57804
22935,57787
22970,57725
23004,57666
23036,57612
23065,57561
23091,57517
23113,57479
23131,57448
23145,57426
23153,57413
23155,57409
23160,57407
23168,57407
Z" /> 
</g>
<g style="fill:#000000; fill-opacity:1.0; 
stroke:#000000; stroke-width:59.0551; stroke-opacity:1; 
stroke-linecap:round; stroke-linejoin:round;">
</g>
<g style="fill:#000000; fill-opacity:0.0; 
stroke:#000000; stroke-width:59.0551; stroke-opacity:1; 
stroke-linecap:round; stroke-linejoin:round;">
<path d="M33198 50364
L33198 51545
" />
<path d="M31033 50364
L31033 51545
" />
<path d="M31053 50364
L33179 50364
" />
<path d="M33179 50403
L31053 50403
" />
<path d="M31053 50442
L33179 50442
" />
<path d="M33179 50482
L31053 50482
" />
<path d="M31053 50521
L33179 50521
" />
<path d="M33179 50561
L31053 50561
" />
<path d="M31053 50600
L33179 50600
" />
<path d="M33179 50639
L31053 50639
" />
<path d="M31053 50679
L33179 50679
" />
<path d="M33179 50718
L31053 50718
" />
<path d="M31053 50757
L33179 50757
" />
<path d="M33179 50797
L31053 50797
" />
<path d="M31053 50836
L33179 50836
" />
<path d="M33179 50875
L31053 50875
" />
<path d="M31053 50915
L33179 50915
" />
<path d="M33179 50954
L31053 50954
" />
<path d="M31053 50994
L33179 50994
" />
<path d="M33179 51033
L31053 51033
" />
<path d="M31053 51072
L33179 51072
" />
<path d="M33179 51112
L31053 51112
" />
<path d="M31053 51151
L33179 51151
" />
<path d="M33179 51190
L31053 51190
" />
<path d="M31053 51230
L33179 51230
" />
<path d="M33179 51269
L31053 51269
" />
<path d="M31053 51309
L33179 51309
" />
<path d="M33179 51348
L31053 51348
" />
<path d="M31053 51387
L33179 51387
" />
<path d="M33179 51427
L31053 51427
" />
<path d="M31053 51466
L33179 51466
" />
<path d="M33179 51505
L31053 51505
" />
<path d="M31053 51545
L33179 51545
" />
</g>
<g style="fill:#000000; fill-opacity:1.0; 
stroke:#000000; stroke-width:3.93701; stroke-opacity:1; 
stroke-linecap:round; stroke-linejoin:round;">
<path style="fill:#000000; fill-opacity:1.0; 
stroke:#000000; stroke-width:3.93701; stroke-opacity:1; 
stroke-linecap:round; stroke-linejoin:round;fill-rule:evenodd;"
d="M 52030,56281
52048,56284
52049,56285
52055,56288
52061,56294
52069,56304
52079,56318
52092,56338
52108,56365
52129,56399
52130,56401
52147,56432
52160,56460
52171,56490
52180,56519
52189,56548
52200,56581
52213,56617
52227,56654
52241,56691
52255,56726
52269,56758
52281,56786
52291,56808
52299,56823
52302,56827
52316,56836
52336,56839
52360,56836
52369,56833
52383,56829
52393,56827
52396,56827
52394,56831
52385,56840
52372,56852
52362,56860
52345,56875
52330,56889
52320,56900
52317,56904
52314,56914
52310,56932
52308,56955
52305,56981
52304,57007
52303,57032
52304,57053
52305,57066
52308,57072
52313,57081
52323,57093
52336,57108
52355,57128
52380,57153
52411,57183
52418,57190
52445,57218
52472,57245
52495,57270
52514,57291
52529,57307
52538,57318
52539,57320
52547,57334
52557,57354
52568,57378
52578,57399
52603,57455
52603,57543
52603,57580
52602,57613
52600,57642
52597,57672
52593,57706
52587,57745
52585,57758
52578,57793
52569,57835
52559,57878
52547,57921
52538,57952
52526,57992
52517,58024
52510,58048
52505,58066
52502,58079
52500,58087
52498,58100
52495,58119
52491,58139
52491,58140
52485,58169
52482,58200
52480,58230
52479,58256
52480,58277
52482,58286
52489,58300
52500,58310
52517,58315
52537,58318
52564,58321
52584,58323
52597,58326
52605,58328
52610,58332
52613,58338
52615,58340
52622,58355
52589,58358
52569,58361
52551,58366
52541,58369
52526,58374
52503,58377
52478,58379
52456,58380
52441,58381
52433,58383
52429,58387
52429,58389
52424,58407
52416,58430
52406,58456
52395,58482
52391,58492
52377,58520
52361,58546
52343,58573
52319,58603
52303,58622
52266,58662
52228,58694
52188,58718
52145,58735
52096,58747
52039,58753
52026,58754
52001,58754
51983,58754
51969,58751
51955,58747
51944,58743
51892,58717
51843,58683
51798,58639
51761,58593
51750,58575
51903,58575
51905,58581
51911,58578
51919,58569
51941,58569
51943,58579
51951,58588
51965,58596
51980,58599
51986,58599
51993,58598
51994,58598
52020,58598
52020,58604
52024,58609
52028,58605
52029,58603
52046,58603
52050,58608
52061,58613
52075,58617
52091,58620
52097,58620
52114,58620
52111,58582
52110,58565
52107,58541
52104,58511
52102,58490
52119,58490
52119,58506
52120,58526
52122,58550
52125,58574
52127,58595
52130,58611
52131,58617
52135,58624
52140,58624
52143,58616
52144,58603
52144,58602
52142,58590
52139,58570
52135,58546
52131,58525
52126,58502
52122,58488
52120,58482
52119,58484
52119,58490
52102,58490
52100,58477
52096,58441
52094,58428
52090,58395
52087,58368
52085,58349
52082,58337
52080,58334
52078,58338
52075,58351
52072,58373
52069,58404
52064,58444
52060,58480
52056,58514
52053,58544
52050,58569
52048,58588
52047,58600
52046,58603
52029,58603
52033,58591
52037,58567
52037,58564
52040,58541
52042,58521
52043,58504
52042,58493
52041,58490
52038,58493
52035,58505
52031,58522
52027,58543
52024,58564
52021,58583
52020,58598
51994,58598
51998,58595
52002,58588
52005,58574
52009,58558
52013,58538
52018,58513
52022,58484
52027,58458
52044,58458
52045,58466
52046,58467
52046,58467
52047,58457
52046,58452
52045,58450
52044,58456
52044,58458
52027,58458
52028,58454
52032,58424
52037,58395
52041,58369
52044,58348
52045,58333
52046,58327
52046,58326
52042,58329
52038,58336
52035,58344
52028,58360
52019,58381
52008,58408
51995,58438
51989,58453
51976,58484
51964,58512
51954,58536
51946,58554
51942,58566
51941,58569
51919,58569
51919,58568
51926,58557
51933,58544
51942,58527
51951,58506
51960,58484
51969,58463
51976,58446
51980,58433
51981,58427
51981,58427
51978,58430
51972,58441
51962,58456
51952,58476
51940,58498
51929,58520
51918,58540
51910,58558
51905,58570
51903,58575
51750,58575
51742,58562
51723,58524
51717,58509
51828,58509
51831,58516
51840,58527
51851,58540
51863,58552
51873,58561
51880,58565
51880,58565
51885,58561
51893,58550
51904,58534
51911,58522
51926,58496
51942,58467
51956,58439
51960,58433
51967,58418
51983,58418
51986,58420
51988,58418
51986,58415
51983,58418
51967,58418
51972,58409
51984,58385
51996,58364
51999,58358
52011,58336
52022,58314
52023,58312
52109,58312
52109,58318
52111,58331
52114,58351
52119,58374
52120,58381
52125,58411
52132,58447
52138,58485
52144,58521
52146,58530
52150,58558
52154,58582
52158,58601
52160,58613
52161,58617
52167,58618
52178,58613
52192,58603
52207,58589
52210,58587
52229,58567
52204,58512
52180,58459
52159,58414
52151,58396
52168,58396
52170,58402
52176,58416
52185,58436
52196,58463
52210,58494
52225,58527
52234,58544
52241,58554
52246,58554
52248,58546
52248,58545
52246,58537
52240,58524
52232,58506
52222,58486
52210,58464
52199,58443
52188,58424
52179,58409
52172,58399
52168,58395
52168,58396
52151,58396
52143,58378
52129,58350
52120,58330
52113,58318
52110,58313
52109,58312
52023,58312
52029,58299
52039,58278
52124,58278
52126,58283
52131,58295
52141,58313
52153,58336
52167,58362
52183,58390
52199,58418
52215,58446
52230,58471
52244,58493
52254,58510
52262,58521
52266,58524
52271,58519
52279,58508
52287,58498
52297,58482
52304,58469
52306,58458
52303,58448
52294,58435
52279,58419
52260,58399
52247,58387
52269,58387
52271,58391
52280,58401
52296,58417
52298,58419
52311,58430
52319,58435
52321,58433
52318,58426
52317,58425
52310,58416
52297,58405
52285,58396
52273,58388
52269,58387
52247,58387
52237,58377
52214,58354
52191,58333
52170,58314
52151,58297
52137,58285
52127,58279
52124,58278
52039,58278
52042,58271
52149,58271
52156,58280
52170,58292
52190,58308
52213,58326
52237,58344
52260,58362
52283,58378
52302,58392
52316,58402
52326,58407
52328,58408
52331,58402
52336,58390
52338,58383
52341,58368
52342,58357
52341,58354
52336,58349
52323,58341
52305,58331
52282,58319
52258,58307
52233,58295
52209,58284
52189,58275
52177,58271
52169,58269
52270,58269
52277,58272
52293,58278
52308,58284
52331,58291
52345,58295
52354,58294
52358,58290
52358,58286
52357,58280
52353,58276
52344,58273
52329,58271
52305,58269
52301,58268
52282,58267
52272,58267
52270,58269
52169,58269
52159,58266
52149,58266
52149,58271
52042,58271
52043,58270
52026,58283
52015,58292
52008,58299
52007,58300
52003,58306
51994,58317
51981,58330
51978,58334
51951,58363
51925,58392
51900,58420
51877,58446
51858,58469
51843,58487
51832,58501
51828,58509
51828,58509
51717,58509
51706,58482
51704,58473
51813,58473
51817,58483
51822,58481
51832,58472
51847,58458
51865,58440
51886,58417
51908,58393
51922,58376
51934,58362
51943,58351
51946,58346
51946,58345
51941,58349
51929,58359
51909,58376
51882,58399
51848,58430
51829,58446
51817,58460
51813,58473
51704,58473
51692,58437
51680,58393
51678,58379
51673,58354
51673,58352
51772,58352
51775,58370
51779,58387
51784,58406
51790,58424
51796,58439
51801,58448
51803,58449
51809,58446
51820,58437
51836,58424
51856,58407
51869,58395
51892,58375
51917,58354
51941,58332
51963,58311
51984,58291
52001,58275
52014,58262
52020,58254
52021,58252
52015,58253
52001,58257
51979,58266
51949,58278
51912,58293
51868,58311
51861,58314
51772,58352
51673,58352
51668,58330
51668,58325
51763,58325
51766,58332
51768,58334
51770,58335
51775,58334
51783,58331
51796,58326
51816,58318
51831,58312
51853,58303
51871,58295
51883,58289
51888,58285
51888,58285
51884,58285
51872,58287
51854,58290
51834,58294
51813,58298
51793,58303
51777,58307
51772,58308
51765,58315
51763,58325
51668,58325
51665,58310
51663,58300
51661,58286
51660,58264
51660,58237
51660,58225
51758,58225
51758,58247
51760,58267
51762,58283
51764,58293
51765,58295
51770,58294
51784,58291
51803,58287
51828,58281
51854,58275
51892,58266
51921,58259
51943,58254
51958,58249
51969,58246
51975,58242
51977,58239
51978,58236
51978,58236
51974,58222
51961,58212
51947,58208
52174,58208
52175,58217
52183,58228
52192,58235
52206,58240
52227,58245
52255,58250
52292,58255
52300,58255
52325,58258
52342,58259
52353,58257
52359,58251
52361,58239
52362,58221
52362,58212
52362,58189
52362,58174
52360,58166
52356,58163
52356,58162
52347,58162
52329,58164
52303,58169
52269,58176
52230,58185
52222,58187
52197,58194
52181,58201
52174,58208
51947,58208
51939,58206
51938,58205
51924,58203
51903,58200
51878,58197
51851,58194
51824,58191
51800,58188
51780,58186
51768,58186
51767,58185
51762,58187
51760,58192
51758,58202
51758,58221
51758,58225
51660,58225
51660,58206
51660,58200
51661,58185
52118,58185
52119,58185
52120,58185
52122,58182
52141,58182
52142,58185
52152,58185
52152,58185
52166,58184
52183,58179
52194,58175
52209,58169
52229,58160
52234,58158
52280,58158
52281,58158
52281,58158
52292,58156
52307,58153
52308,58153
52333,58148
52348,58142
52356,58135
52358,58130
52356,58123
52349,58123
52347,58123
52337,58127
52324,58133
52310,58140
52296,58147
52286,58154
52280,58158
52234,58158
52254,58149
52280,58136
52285,58134
52349,58103
52347,58085
52344,58070
52338,58052
52331,58033
52324,58013
52317,57997
52310,57986
52306,57982
52306,57982
52304,57983
52301,57986
52296,57991
52289,57999
52279,58011
52266,58026
52249,58047
52228,58073
52202,58105
52170,58144
52146,58174
52141,58182
52122,58182
52123,58181
52132,58170
52145,58154
52161,58135
52174,58120
52199,58088
52224,58058
52246,58031
52265,58007
52280,57987
52290,57973
52295,57967
52295,57959
52288,57944
52276,57925
52262,57906
52252,57894
52245,57890
52243,57894
52241,57900
52234,57912
52225,57929
52220,57938
52212,57953
52202,57974
52191,57998
52179,58023
52168,58048
52158,58071
52150,58091
52144,58104
52143,58110
52141,58116
52137,58129
52131,58144
52124,58163
52119,58177
52118,58185
51661,58185
51662,58163
51760,58163
51767,58169
51782,58174
51800,58176
51828,58178
51847,58180
51856,58179
51857,58177
51848,58173
51831,58166
51821,58163
51797,58154
51781,58149
51771,58147
51766,58147
51763,58149
51761,58153
51761,58154
51760,58163
51662,58163
51663,58123
51662,58122
51768,58122
51773,58127
51785,58133
51803,58142
51806,58143
51823,58150
51832,58154
51837,58155
51838,58154
51838,58153
51834,58150
51823,58143
51809,58136
51794,58129
51781,58123
51773,58121
51772,58120
51768,58122
51662,58122
51648,58114
51637,58103
51635,58097
51860,58097
51860,58102
51861,58110
51864,58116
51871,58122
51884,58130
51903,58140
51906,58142
51940,58159
51970,58171
51994,58178
52006,58180
52010,58179
52009,58175
51999,58167
51998,58166
51987,58157
51970,58145
51950,58130
51927,58114
51924,58112
51900,58096
51882,58085
51871,58080
51864,58080
51861,58086
51860,58097
51635,58097
51633,58089
51638,58073
51646,58063
51778,58063
51780,58064
51783,58060
51787,58051
51788,58048
51786,58047
51783,58050
51779,58060
51778,58063
51646,58063
51650,58058
51662,58049
51663,58048
51753,58048
51756,58050
51758,58048
51756,58045
51753,58048
51663,58048
51671,58042
51863,58042
51868,58052
51875,58060
51887,58071
51901,58081
51914,58090
51924,58095
51925,58095
51924,58092
51917,58083
51906,58071
51898,58063
51881,58047
51870,58039
51864,58037
51863,58042
51671,58042
51673,58040
51677,58035
51758,58035
51760,58040
51761,58039
51762,58033
51761,58032
51758,58033
51758,58035
51677,58035
51681,58030
51686,58020
51763,58020
51765,58025
51766,58024
51767,58018
51766,58017
51763,58018
51763,58020
51686,58020
51689,58014
51692,58008
51768,58008
51771,58010
51773,58008
51771,58005
51768,58008
51692,58008
51695,58000
51696,57998
51773,57998
51776,58000
51778,57998
51776,57995
51773,57998
51696,57998
51701,57985
51778,57985
51780,57990
51781,57989
51782,57983
51781,57982
51778,57983
51778,57985
51701,57985
51704,57977
51707,57971
51783,57971
51785,57975
51788,57971
51790,57968
51790,57963
51788,57963
51783,57969
51783,57971
51707,57971
51714,57953
51793,57953
51796,57955
51798,57953
51796,57950
51793,57953
51714,57953
51715,57951
51719,57942
51843,57942
51845,57954
51848,57970
51852,57981
51855,57990
51860,58000
51867,58010
51878,58023
51892,58039
51912,58059
51939,58086
51940,58087
51968,58115
51990,58136
52006,58151
52016,58159
52021,58162
52022,58160
52019,58152
52019,58152
52015,58143
52008,58127
52001,58108
51999,58101
51991,58081
51982,58062
51975,58049
51974,58047
51966,58035
51957,58018
51950,58005
51942,57990
51931,57972
51919,57951
51905,57931
51893,57912
51883,57898
51875,57888
51873,57886
51868,57889
51861,57899
51853,57912
51847,57926
51843,57938
51843,57942
51719,57942
51727,57925
51729,57920
51749,57877
51747,57875
51888,57875
51890,57881
51897,57892
51905,57905
51914,57918
51922,57928
51926,57933
51927,57933
51926,57928
51922,57916
51917,57905
51911,57889
51904,57877
51902,57872
51895,57868
51889,57871
51888,57875
51747,57875
51734,57853
51732,57850
51919,57850
51919,57859
51919,57861
51923,57875
51930,57895
51940,57920
51952,57949
51966,57979
51980,58009
51993,58036
52006,58059
52006,58060
52015,58072
52020,58076
52024,58072
52026,58059
52026,58036
52026,58020
52024,57993
52020,57962
52019,57959
52063,57959
52063,57990
52063,58019
52064,58044
52065,58064
52066,58075
52066,58077
52070,58084
52074,58080
52076,58074
52119,58074
52119,58086
52120,58091
52122,58091
52125,58087
52125,58087
52131,58077
52139,58061
52147,58041
52151,58032
52160,58009
52170,57981
52181,57951
52188,57930
52204,57930
52205,57931
52210,57924
52215,57916
52224,57899
52230,57884
52232,57879
52232,57868
52229,57867
52229,57867
52224,57874
52218,57890
52210,57913
52204,57930
52188,57930
52191,57922
52191,57922
52213,57855
52199,57843
52185,57832
52169,57822
52167,57821
52148,57810
52141,57836
52135,57863
52130,57899
52125,57945
52122,58001
52120,58028
52119,58055
52119,58074
52076,58074
52078,58067
52081,58045
52083,58022
52085,57998
52086,57969
52087,57938
52087,57905
52087,57874
52087,57845
52086,57823
52085,57807
52084,57804
52081,57792
52076,57790
52072,57796
52068,57809
52066,57827
52065,57844
52064,57868
52063,57896
52063,57927
52063,57959
52019,57959
52015,57935
52013,57930
52002,57887
51993,57854
51986,57830
51980,57816
51976,57810
51976,57810
51969,57813
51957,57819
51944,57827
51929,57836
51922,57843
51919,57850
51732,57850
51722,57831
51712,57808
52002,57808
52003,57821
52005,57836
52008,57851
52012,57864
52015,57870
52016,57870
52016,57866
52016,57855
52015,57847
52012,57824
52009,57810
52006,57803
52003,57803
52002,57808
51712,57808
51709,57803
51696,57772
51684,57740
51675,57710
51670,57692
51665,57672
51659,57653
51655,57642
51651,57626
51649,57604
51648,57580
51649,57560
51756,57560
51767,57572
51776,57586
51786,57609
51795,57638
51803,57671
51810,57708
51811,57718
51815,57741
51818,57760
51820,57774
51821,57779
51825,57780
51836,57774
51853,57763
51855,57761
51876,57746
51899,57732
51919,57721
51941,57712
51967,57702
51987,57696
52007,57689
52019,57683
52025,57678
52073,57678
52075,57687
52078,57690
52082,57686
52083,57678
52081,57669
52078,57665
52074,57670
52073,57678
52025,57678
52026,57677
52028,57672
52034,57660
52044,57646
52047,57642
52060,57624
52089,57624
52106,57642
52117,57656
52125,57670
52126,57675
52130,57687
52136,57695
52148,57703
52168,57712
52170,57713
52214,57736
52257,57768
52298,57808
52337,57855
52371,57907
52400,57965
52404,57974
52426,58025
52429,57941
52430,57909
52432,57869
52434,57827
52436,57785
52438,57753
52441,57698
52445,57653
52450,57614
52456,57582
52463,57554
52471,57530
52474,57524
52482,57503
52486,57488
52486,57475
52479,57463
52466,57450
52446,57434
52437,57427
52399,57395
52361,57357
52345,57339
52322,57314
52306,57295
52293,57283
52284,57277
52277,57276
52272,57279
52266,57287
52263,57292
52256,57306
52256,57314
52264,57319
52268,57320
52282,57329
52294,57345
52300,57367
52301,57370
52302,57383
52302,57393
52298,57400
52291,57406
52278,57410
52259,57413
52232,57415
52196,57418
52195,57418
52166,57421
52139,57423
52118,57426
52104,57428
52097,57429
52097,57429
52096,57435
52095,57450
52094,57471
52093,57497
52092,57527
52092,57529
52089,57624
52060,57624
52061,57624
52064,57431
51997,57429
51970,57429
51952,57428
51940,57427
51933,57425
51930,57422
51929,57417
51929,57417
51932,57404
51943,57390
51961,57375
51985,57361
52013,57348
52044,57337
52065,57332
52083,57328
52096,57323
52103,57320
52103,57320
52099,57316
52087,57311
52072,57305
52056,57300
52041,57296
52033,57295
52027,57297
52019,57301
52008,57309
51993,57321
51974,57338
51948,57362
51937,57372
51911,57397
51884,57421
51859,57444
51838,57464
51821,57478
51819,57481
51801,57498
51784,57515
51772,57531
51769,57536
51756,57560
51649,57560
51649,57556
51653,57537
51653,57536
51658,57522
51667,57504
51675,57490
51683,57476
51693,57454
51704,57428
51715,57400
51718,57390
51735,57345
51750,57309
51762,57282
51773,57264
51776,57260
51781,57252
51788,57237
51796,57218
51798,57212
51809,57187
51822,57160
51834,57136
51834,57136
51855,57098
51846,57058
51839,57007
51839,56952
51845,56889
51846,56888
51850,56854
51852,56828
51853,56808
51851,56798
51849,56795
51843,56798
51831,56806
51815,56817
51797,56829
51771,56847
51747,56860
51722,56870
51694,56878
51660,56886
51649,56888
51626,56892
51606,56897
51590,56901
51586,56902
51567,56909
51541,56916
51511,56923
51481,56928
51453,56932
51443,56933
51411,56935
51388,56937
51371,56940
51361,56942
51354,56945
51349,56950
51346,56956
51344,56960
51333,56976
51315,56988
51313,56989
51289,56999
51273,57004
51265,57003
51263,56998
51261,56993
51254,56991
51240,56989
51217,56990
51214,56990
51200,56990
51194,56987
51196,56980
51201,56975
51204,56970
51204,56967
51198,56964
51185,56961
51163,56958
51162,56958
51144,56954
51135,56950
51136,56945
51138,56943
51141,56937
51140,56934
51141,56931
51148,56928
51162,56927
51185,56926
51188,56926
51209,56925
51226,56924
51242,56921
51258,56917
51276,56910
51299,56900
51328,56886
51338,56881
51393,56856
51444,56837
51492,56821
51534,56811
51559,56805
51583,56799
51603,56792
51609,56790
51624,56785
51646,56778
51672,56770
51699,56763
51701,56762
51728,56755
51747,56749
51761,56744
51770,56738
51777,56732
51779,56730
51794,56709
51807,56683
51817,56657
51822,56636
51821,56613
51815,56592
51801,56570
51787,56553
51774,56538
51763,56524
51758,56515
51752,56505
51743,56490
51731,56470
51719,56450
51704,56424
51693,56405
51687,56390
51684,56379
51684,56369
51686,56359
51689,56352
51693,56347
51700,56341
51711,56336
51728,56331
51750,56325
51779,56318
51817,56310
51838,56305
51887,56296
51931,56288
51971,56283
52004,56281
52030,56281
Z" /> 
<path style="fill:#000000; fill-opacity:1.0; 
stroke:#000000; stroke-width:3.93701; stroke-opacity:1; 
stroke-linecap:round; stroke-linejoin:round;fill-rule:evenodd;"
d="M 22108,48587
22245,48587
22309,48587
23335,48587
23335,48647
23341,48721
23361,48789
23393,48851
23439,48909
23455,48924
23511,48968
23573,49001
23638,49021
23706,49029
23774,49026
23841,49010
23904,48983
23961,48944
23987,48920
24036,48862
24071,48798
24093,48730
24102,48656
24102,48649
24103,48587
24130,48587
24154,48590
24177,48598
24178,48599
24183,48602
24188,48604
24192,48606
24196,48608
24199,48612
24203,48618
24205,48626
24208,48637
24210,48651
24212,48670
24214,48694
24215,48722
24216,48757
24217,48798
24218,48847
24219,48903
24219,48967
24219,49041
24220,49123
24220,49216
24220,49320
24220,49434
24219,49561
24219,49700
24219,49852
24219,50018
24219,50038
24219,50205
24218,50358
24218,50498
24218,50625
24218,50741
24218,50845
24217,50939
24217,51022
24216,51096
24216,51160
24215,51217
24214,51266
24213,51307
24212,51342
24210,51371
24209,51394
24207,51413
24204,51427
24202,51438
24199,51446
24196,51451
24192,51454
24188,51457
24184,51458
24179,51459
24174,51461
24173,51462
24169,51463
24163,51464
24153,51465
24139,51466
24121,51467
24098,51468
24070,51469
24036,51469
23994,51470
23946,51470
23890,51471
23825,51471
23752,51471
23669,51472
23576,51472
23472,51472
23357,51472
23230,51472
23091,51472
22939,51472
22773,51472
22719,51472
22550,51472
22394,51472
22252,51472
22122,51472
22004,51472
21897,51472
21801,51472
21716,51471
21640,51471
21573,51471
21514,51470
21464,51470
21420,51469
21384,51469
21354,51468
21329,51467
21309,51466
21294,51466
21282,51464
21274,51463
21269,51462
21266,51461
21260,51459
21255,51457
21251,51455
21247,51453
21243,51450
21240,51445
21237,51437
21234,51426
21232,51412
21230,51394
21228,51371
21226,51343
21225,51309
21224,51268
21223,51221
21222,51165
21222,51144
21413,51144
22086,51144
22073,51124
22061,51104
22050,51085
22041,51065
22033,51044
22027,51020
22023,50991
22019,50956
22017,50914
22015,50864
22015,50804
22015,50733
22015,50650
22015,50619
22017,50286
22228,50573
22287,50654
22339,50725
22383,50786
22421,50839
22452,50884
22477,50922
22498,50955
22513,50982
22525,51006
22533,51026
22538,51045
22540,51062
22541,51079
22541,51097
22541,51099
22538,51144
23277,51144
23222,51089
23207,51073
23193,51059
23179,51044
23164,51027
23149,51009
23131,50988
23112,50963
23089,50933
23063,50899
23033,50858
22998,50810
22957,50755
22910,50691
22857,50618
22796,50534
22747,50466
22684,50380
22630,50305
22583,50240
22543,50184
22509,50137
22482,50098
22460,50066
22443,50041
22430,50021
22422,50007
22417,49997
22415,49990
22416,49987
22422,49978
22438,49959
22460,49931
22488,49896
22522,49854
22560,49806
22602,49754
22646,49699
22692,49641
22739,49583
22765,49551
23406,49551
23433,49599
23460,49648
23460,51048
23433,51096
23406,51144
23722,51144
23797,51144
23859,51144
23909,51144
23949,51143
23979,51143
24001,51142
24015,51140
24024,51139
24027,51137
24028,51134
24026,51131
24025,51131
24016,51118
24005,51097
23994,51076
23974,51033
23972,50292
23970,49551
23406,49551
22765,49551
22786,49525
22832,49468
22876,49413
22917,49362
22955,49316
22988,49275
23015,49242
23036,49216
23048,49201
23096,49145
23142,49094
23184,49051
23222,49016
23248,48995
23280,48973
22557,48973
22557,49015
22555,49046
22548,49075
22536,49102
22528,49118
22520,49133
22510,49149
22499,49168
22484,49189
22466,49214
22444,49243
22417,49279
22383,49322
22343,49373
22296,49433
22241,49503
22235,49511
22017,49786
22015,49481
22014,49390
22014,49312
22015,49249
22016,49199
22018,49162
22020,49138
22021,49134
22032,49086
22048,49043
22065,49008
22075,48994
22093,48973
21753,48973
21672,48973
21604,48973
21548,48973
21504,48974
21470,48975
21445,48976
21429,48977
21420,48979
21418,48981
21418,48981
21425,48992
21437,49010
21443,49018
21450,49027
21456,49035
21461,49042
21465,49051
21469,49060
21473,49072
21476,49087
21479,49105
21481,49128
21483,49156
21484,49190
21486,49231
21487,49279
21488,49336
21488,49401
21489,49477
21489,49563
21489,49660
21490,49769
21490,49892
21490,50004
21491,50129
21491,50249
21491,50362
21491,50467
21490,50565
21490,50654
21490,50733
21489,50802
21488,50860
21488,50906
21487,50940
21486,50960
21486,50962
21479,51010
21470,51049
21455,51083
21433,51117
21430,51121
21413,51144
21222,51144
21222,51102
21221,51029
21221,50947
21221,50855
21220,50752
21220,50639
21220,50513
21220,50375
21220,50224
21220,50059
21220,50026
21220,49860
21221,49707
21221,49568
21221,49441
21221,49326
21221,49222
21221,49129
21221,49046
21222,48973
21222,48909
21223,48853
21223,48805
21224,48764
21224,48730
21225,48702
21226,48680
21227,48662
21228,48649
21229,48640
21230,48633
21231,48630
21231,48629
21234,48624
21236,48618
21239,48614
21242,48609
21247,48606
21254,48602
21265,48599
21279,48597
21297,48595
21320,48593
21350,48591
21385,48590
21428,48589
21478,48588
21537,48588
21605,48587
21683,48587
21772,48587
21872,48587
21983,48587
22108,48587
Z" /> 
<path style="fill:#000000; fill-opacity:1.0; 
stroke:#000000; stroke-width:3.93701; stroke-opacity:1; 
stroke-linecap:round; stroke-linejoin:round;fill-rule:evenodd;"
d="M 25435,48944
25512,48953
25587,48968
25662,48990
25741,49021
25827,49061
25842,49068
25877,49086
25911,49102
25939,49114
25958,49122
25961,49123
25990,49131
25862,49318
25830,49364
25802,49405
25777,49442
25756,49471
25741,49493
25733,49504
25732,49506
25727,49502
25713,49491
25694,49473
25684,49463
25625,49417
25559,49381
25503,49362
25469,49356
25426,49352
25380,49351
25335,49352
25296,49356
25281,49359
25212,49382
25150,49419
25094,49467
25046,49528
25005,49602
24970,49687
24943,49785
24927,49869
24922,49906
24919,49954
24918,50009
24918,50068
24919,50127
24921,50184
24924,50234
24929,50275
24930,50281
24952,50381
24982,50470
25021,50548
25067,50615
25100,50651
25160,50700
25225,50737
25295,50760
25369,50771
25445,50768
25522,50751
25568,50735
25632,50703
25697,50657
25733,50626
25754,50608
25770,50594
25779,50588
25780,50588
25784,50594
25795,50611
25811,50638
25832,50672
25857,50713
25885,50758
25900,50783
26018,50977
25871,51049
25818,51075
25775,51096
25739,51112
25709,51124
25680,51134
25651,51143
25619,51151
25588,51159
25561,51164
25533,51169
25500,51172
25460,51174
25411,51176
25378,51176
25330,51177
25285,51176
25244,51176
25211,51174
25190,51172
25188,51172
25076,51148
24971,51111
24872,51062
24781,51000
24696,50926
24619,50839
24562,50762
24503,50661
24454,50554
24417,50441
24391,50321
24375,50192
24371,50062
24375,49935
24387,49819
24409,49710
24439,49607
24480,49508
24485,49498
24538,49402
24603,49310
24679,49226
24763,49149
24854,49083
24939,49035
25024,48997
25110,48969
25199,48952
25295,48943
25353,48942
25435,48944
Z" /> 
<path style="fill:#000000; fill-opacity:1.0; 
stroke:#000000; stroke-width:3.93701; stroke-opacity:1; 
stroke-linecap:round; stroke-linejoin:round;fill-rule:evenodd;"
d="M 26854,49518
26889,49521
26991,49534
27080,49556
27159,49586
27227,49624
27284,49671
27332,49728
27370,49794
27398,49865
27405,49888
27412,49909
27417,49931
27421,49952
27425,49976
27429,50003
27431,50035
27433,50071
27435,50115
27437,50166
27438,50226
27439,50296
27440,50377
27441,50471
27441,50544
27445,51048
27472,51096
27485,51119
27494,51137
27499,51147
27499,51148
27492,51148
27473,51149
27442,51150
27401,51150
27353,51151
27298,51151
27238,51151
27231,51151
26963,51151
26963,51090
26963,51063
26962,51042
26960,51031
26959,51030
26952,51034
26937,51045
26918,51062
26918,51062
26883,51088
26840,51114
26792,51137
26745,51155
26724,51162
26683,51170
26632,51175
26577,51177
26521,51176
26470,51172
26435,51166
26347,51141
26269,51104
26199,51057
26140,51000
26090,50933
26051,50858
26035,50812
26024,50767
26017,50714
26014,50656
26014,50648
26497,50648
26501,50690
26515,50726
26539,50759
26549,50769
26582,50795
26621,50812
26668,50820
26717,50820
26764,50816
26799,50809
26815,50803
26843,50787
26872,50765
26899,50740
26919,50716
26925,50707
26929,50695
26932,50675
26934,50647
26935,50607
26935,50569
26935,50525
26934,50493
26933,50471
26931,50458
26928,50450
26924,50446
26922,50445
26911,50444
26888,50442
26857,50441
26821,50441
26813,50441
26765,50441
26728,50444
26699,50448
26674,50454
26614,50477
26566,50505
26532,50538
26509,50578
26498,50625
26497,50648
26014,50648
26015,50599
26020,50549
26023,50528
26047,50452
26084,50382
26132,50318
26192,50263
26262,50215
26342,50176
26410,50152
26455,50140
26498,50130
26543,50123
26591,50118
26645,50114
26708,50113
26766,50112
26936,50112
26933,50061
26924,50005
26904,49957
26875,49918
26837,49890
26803,49876
26755,49867
26698,49866
26634,49872
26567,49884
26498,49903
26431,49927
26382,49949
26359,49960
26341,49968
26332,49971
26331,49971
26328,49964
26320,49946
26309,49918
26294,49882
26276,49840
26258,49797
26187,49624
26238,49616
26260,49612
26293,49605
26334,49596
26380,49585
26429,49573
26449,49568
26534,49549
26608,49534
26674,49524
26735,49518
26794,49516
26854,49518
Z" /> 
<path style="fill:#000000; fill-opacity:1.0; 
stroke:#000000; stroke-width:3.93701; stroke-opacity:1; 
stroke-linecap:round; stroke-linejoin:round;fill-rule:evenodd;"
d="M 28766,48838
28827,48838
28847,48838
29131,48840
29135,49930
29135,50077
29136,50211
29136,50333
29136,50442
29137,50539
29137,50626
29138,50702
29139,50770
29139,50828
29140,50878
29141,50921
29143,50958
29144,50988
29146,51013
29148,51034
29151,51051
29154,51064
29157,51075
29161,51084
29165,51092
29169,51100
29174,51108
29180,51117
29181,51119
29200,51151
28653,51148
28649,51087
28647,51059
28645,51042
28642,51035
28638,51037
28635,51040
28620,51054
28595,51072
28565,51092
28532,51111
28499,51128
28475,51139
28417,51158
28350,51171
28280,51178
28211,51179
28149,51173
28148,51172
28062,51151
27982,51117
27908,51070
27841,51013
27782,50945
27731,50867
27690,50780
27668,50715
27653,50661
27642,50609
27634,50556
27630,50497
27629,50431
27629,50377
28156,50377
28159,50468
28167,50546
28180,50612
28200,50666
28225,50710
28257,50744
28293,50769
28313,50778
28329,50783
28348,50786
28372,50786
28399,50785
28452,50780
28493,50771
28506,50767
28536,50753
28567,50736
28581,50728
28617,50704
28617,49962
28578,49938
28523,49912
28467,49896
28412,49891
28360,49897
28312,49913
28272,49940
28259,49953
28228,49995
28202,50046
28183,50107
28169,50178
28160,50261
28156,50357
28156,50377
27629,50377
27630,50355
27636,50237
27648,50131
27666,50035
27691,49947
27724,49867
27735,49843
27782,49765
27838,49695
27902,49636
27974,49587
28051,49550
28097,49535
28142,49526
28197,49521
28256,49519
28316,49521
28371,49527
28415,49536
28467,49553
28518,49575
28562,49599
28586,49616
28602,49628
28614,49636
28616,49637
28617,49630
28618,49610
28619,49579
28619,49537
28620,49487
28620,49430
28620,49367
28620,49302
28620,49220
28620,49150
28620,49092
28619,49044
28617,49006
28615,48975
28613,48950
28609,48930
28604,48914
28598,48900
28591,48887
28583,48874
28582,48872
28571,48855
28564,48843
28563,48840
28570,48840
28590,48839
28621,48839
28661,48838
28710,48838
28766,48838
Z" /> 
<path style="fill:#000000; fill-opacity:1.0; 
stroke:#000000; stroke-width:3.93701; stroke-opacity:1; 
stroke-linecap:round; stroke-linejoin:round;fill-rule:evenodd;"
d="M 23788,48359
23842,48378
23892,48407
23936,48447
23974,48498
23991,48530
24005,48574
24012,48626
24012,48679
24003,48727
23979,48785
23945,48836
23901,48878
23850,48911
23794,48932
23734,48942
23672,48939
23642,48932
23583,48909
23530,48874
23485,48828
23449,48772
23446,48765
23436,48742
23429,48723
23426,48702
23424,48676
23424,48648
23424,48613
23426,48588
23430,48568
23438,48548
23447,48528
23480,48472
23522,48427
23569,48392
23621,48368
23676,48354
23732,48351
23788,48359
Z" /> 
<path style="fill:#000000; fill-opacity:1.0; 
stroke:#000000; stroke-width:3.93701; stroke-opacity:1; 
stroke-linecap:round; stroke-linejoin:round;fill-rule:evenodd;"
d="M 28540,51717
28556,51729
28571,51744
28571,51906
28571,51954
28571,51992
28570,52021
28570,52042
28568,52057
28567,52068
28564,52075
28561,52080
28559,52084
28543,52097
28524,52098
28507,52090
28502,52085
28498,52079
28496,52069
28494,52053
28494,52029
28494,52010
28494,51939
28234,51939
28234,52004
28233,52033
28232,52053
28230,52067
28226,52077
28221,52084
28205,52096
28187,52098
28169,52089
28165,52084
28161,52078
28159,52068
28158,52052
28157,52030
28157,51997
28157,51990
28156,51929
28156,51879
28156,51838
28157,51806
28157,51781
28158,51763
28159,51749
28161,51740
28163,51734
28166,51730
28169,51726
28185,51716
28203,51717
28219,51729
28226,51737
28230,51745
28232,51757
28233,51775
28234,51802
28234,51863
28494,51863
28494,51800
28494,51772
28495,51752
28498,51740
28502,51732
28506,51726
28523,51716
28540,51717
Z" /> 
<path style="fill:#000000; fill-opacity:1.0; 
stroke:#000000; stroke-width:3.93701; stroke-opacity:1; 
stroke-linecap:round; stroke-linejoin:round;fill-rule:evenodd;"
d="M 27877,51715
27918,51715
27950,51715
27974,51716
27991,51717
28003,51719
28012,51720
28017,51723
28020,51725
28033,51742
28035,51760
28026,51776
28021,51782
28015,51787
28007,51789
27993,51791
27973,51791
27943,51792
27937,51792
27861,51792
27861,51934
27861,51978
27861,52013
27860,52038
27859,52057
27858,52069
27856,52078
27853,52083
27849,52087
27832,52098
27814,52097
27797,52085
27796,52084
27792,52078
27789,52072
27787,52063
27786,52049
27785,52031
27784,52004
27784,51970
27784,51930
27784,51792
27711,51792
27680,51791
27658,51791
27644,51789
27635,51786
27629,51781
27628,51781
27620,51763
27620,51744
27630,51726
27634,51723
27639,51720
27646,51718
27657,51717
27673,51716
27696,51715
27726,51715
27765,51715
27814,51715
27825,51715
27877,51715
Z" /> 
<path style="fill:#000000; fill-opacity:1.0; 
stroke:#000000; stroke-width:3.93701; stroke-opacity:1; 
stroke-linecap:round; stroke-linejoin:round;fill-rule:evenodd;"
d="M 27471,51718
27483,51726
27497,51737
27497,51906
27497,51955
27497,51994
27496,52024
27496,52046
27494,52061
27493,52072
27491,52079
27488,52084
27486,52087
27469,52098
27450,52097
27434,52088
27420,52077
27420,51737
27434,51726
27448,51718
27459,51715
27471,51718
Z" /> 
<path style="fill:#000000; fill-opacity:1.0; 
stroke:#000000; stroke-width:3.93701; stroke-opacity:1; 
stroke-linecap:round; stroke-linejoin:round;fill-rule:evenodd;"
d="M 27238,51716
27248,51719
27249,51720
27263,51730
27270,51741
27272,51746
27272,51753
27270,51763
27265,51777
27257,51796
27246,51821
27231,51855
27212,51897
27201,51920
27182,51961
27164,51999
27148,52033
27135,52060
27124,52080
27118,52090
27117,52092
27100,52098
27082,52098
27067,52090
27067,52089
27061,52080
27051,52063
27038,52039
27024,52012
27019,52002
26981,51925
26939,52008
26924,52037
26910,52062
26899,52081
26890,52093
26887,52096
26866,52099
26848,52092
26842,52084
26833,52068
26821,52044
26806,52014
26790,51979
26773,51942
26755,51904
26738,51867
26723,51832
26710,51802
26700,51776
26693,51758
26690,51749
26690,51748
26696,51737
26708,51725
26709,51724
26723,51716
26736,51716
26741,51718
26747,51721
26753,51728
26761,51739
26770,51755
26782,51779
26798,51812
26812,51842
26828,51877
26842,51908
26854,51934
26863,51953
26868,51964
26869,51966
26872,51963
26879,51952
26890,51933
26903,51908
26908,51898
26925,51864
26939,51839
26949,51822
26958,51812
26966,51806
26974,51804
26980,51803
26989,51804
26998,51808
27006,51816
27016,51829
27028,51849
27043,51878
27051,51895
27065,51921
27077,51943
27086,51958
27091,51966
27092,51966
27095,51960
27103,51945
27114,51923
27127,51894
27143,51861
27151,51845
27171,51802
27187,51769
27200,51746
27210,51729
27220,51720
27229,51715
27238,51716
Z" /> 
<path style="fill:#000000; fill-opacity:1.0; 
stroke:#000000; stroke-width:3.93701; stroke-opacity:1; 
stroke-linecap:round; stroke-linejoin:round;fill-rule:evenodd;"
d="M 25809,51715
25876,51717
25934,51724
25982,51736
26022,51753
26055,51777
26082,51806
26103,51843
26104,51844
26116,51876
26121,51905
26117,51934
26105,51967
26103,51972
26088,52002
26070,52025
26048,52044
26018,52063
26016,52064
25990,52077
25960,52086
25925,52093
25882,52097
25831,52099
25813,52099
25726,52099
25713,52084
25710,52079
25707,52073
25705,52064
25703,52052
25702,52035
25702,52022
25784,52022
25833,52022
25862,52021
25892,52019
25916,52016
25917,52016
25960,52004
25994,51987
26019,51963
26036,51932
26039,51923
26042,51910
26041,51897
26034,51880
26031,51872
26018,51850
26004,51834
25987,51823
25955,51809
25913,51799
25865,51793
25830,51792
25784,51792
25784,52022
25702,52022
25702,52011
25701,51979
25701,51938
25701,51906
25701,51744
25716,51729
25722,51723
25729,51719
25739,51717
25754,51715
25776,51715
25807,51715
25809,51715
Z" /> 
<path style="fill:#000000; fill-opacity:1.0; 
stroke:#000000; stroke-width:3.93701; stroke-opacity:1; 
stroke-linecap:round; stroke-linejoin:round;fill-rule:evenodd;"
d="M 25396,51715
25436,51715
25467,51716
25489,51718
25505,51722
25515,51726
25521,51732
25523,51741
25524,51751
25524,51753
25523,51764
25521,51774
25515,51780
25504,51785
25488,51789
25464,51791
25431,51792
25388,51793
25375,51793
25248,51795
25247,51829
25245,51863
25333,51863
25368,51863
25392,51863
25409,51864
25420,51866
25427,51870
25432,51874
25432,51874
25441,51892
25441,51911
25431,51927
25429,51929
25422,51933
25413,51936
25399,51938
25379,51939
25349,51939
25331,51939
25246,51939
25246,52022
25375,52022
25417,52022
25450,52023
25474,52023
25490,52024
25501,52026
25508,52029
25513,52032
25514,52033
25522,52050
25523,52068
25516,52085
25510,52090
25505,52093
25496,52095
25482,52097
25463,52098
25436,52099
25401,52099
25355,52099
25345,52099
25299,52099
25263,52099
25236,52099
25216,52098
25202,52097
25193,52095
25187,52092
25183,52089
25181,52086
25177,52082
25174,52077
25172,52069
25171,52057
25170,52040
25169,52017
25169,51985
25169,51944
25169,51910
25169,51861
25169,51823
25169,51794
25170,51773
25171,51757
25173,51747
25175,51739
25178,51734
25181,51730
25193,51715
25345,51715
25396,51715
Z" /> 
<path style="fill:#000000; fill-opacity:1.0; 
stroke:#000000; stroke-width:3.93701; stroke-opacity:1; 
stroke-linecap:round; stroke-linejoin:round;fill-rule:evenodd;"
d="M 24594,51717
24606,51724
24622,51736
24643,51753
24669,51776
24702,51805
24741,51841
24787,51882
24882,51968
24885,51852
24886,51813
24887,51783
24888,51762
24890,51748
24892,51738
24895,51732
24899,51728
24902,51726
24920,51716
24937,51717
24950,51726
24964,51737
24966,51902
24967,51951
24967,51989
24967,52018
24966,52040
24965,52055
24964,52066
24962,52073
24959,52079
24955,52083
24948,52092
24941,52097
24933,52099
24923,52097
24911,52091
24894,52079
24872,52062
24845,52039
24811,52008
24772,51973
24633,51847
24630,51962
24629,52001
24628,52031
24627,52052
24625,52066
24623,52076
24620,52082
24615,52086
24613,52088
24594,52098
24576,52096
24560,52084
24556,52079
24553,52072
24551,52064
24549,52052
24548,52035
24548,52011
24547,51979
24547,51938
24547,51907
24547,51859
24548,51821
24548,51793
24549,51772
24550,51757
24552,51746
24554,51739
24557,51733
24560,51730
24565,51723
24571,51717
24577,51714
24584,51714
24594,51717
Z" /> 
<path style="fill:#000000; fill-opacity:1.0; 
stroke:#000000; stroke-width:3.93701; stroke-opacity:1; 
stroke-linecap:round; stroke-linejoin:round;fill-rule:evenodd;"
d="M 24253,51718
24289,51724
24316,51733
24334,51745
24339,51752
24344,51769
24341,51783
24330,51797
24314,51804
24290,51804
24272,51800
24231,51793
24189,51793
24142,51798
24129,51800
24086,51813
24052,51831
24027,51855
24013,51884
24010,51899
24012,51930
24025,51957
24046,51980
24076,51999
24112,52012
24155,52020
24202,52021
24253,52016
24255,52016
24276,52012
24287,52008
24292,52003
24293,51994
24293,51989
24293,51969
24257,51969
24225,51967
24204,51960
24191,51948
24186,51929
24186,51927
24189,51911
24198,51900
24215,51893
24242,51889
24267,51887
24304,51886
24331,51888
24349,51893
24361,51903
24367,51920
24369,51945
24370,51977
24369,52014
24367,52038
24363,52052
24362,52053
24342,52069
24312,52082
24275,52092
24231,52097
24184,52098
24135,52095
24106,52090
24061,52078
24019,52057
23984,52030
23979,52024
23961,52001
23946,51973
23934,51943
23927,51917
23926,51906
23929,51885
23939,51858
23952,51830
23967,51804
23981,51787
24013,51761
24054,51741
24104,51726
24159,51717
24210,51715
24253,51718
Z" /> 
<path style="fill:#000000; fill-opacity:1.0; 
stroke:#000000; stroke-width:3.93701; stroke-opacity:1; 
stroke-linecap:round; stroke-linejoin:round;fill-rule:evenodd;"
d="M 23743,51726
23746,51730
23749,51736
23751,51743
23752,51755
23753,51772
23754,51795
23754,51826
23754,51867
23754,51907
23754,51956
23754,51995
23754,52024
23753,52046
23752,52062
23750,52073
23748,52080
23745,52084
23743,52087
23725,52098
23707,52097
23690,52086
23687,52081
23684,52076
23681,52069
23680,52058
23679,52042
23678,52020
23678,51991
23677,51952
23677,51908
23677,51744
23692,51729
23710,51717
23727,51716
23743,51726
Z" /> 
<path style="fill:#000000; fill-opacity:1.0; 
stroke:#000000; stroke-width:3.93701; stroke-opacity:1; 
stroke-linecap:round; stroke-linejoin:round;fill-rule:evenodd;"
d="M 23340,51715
23379,51718
23416,51722
23447,51728
23472,51735
23488,51743
23490,51745
23498,51763
23496,51782
23483,51798
23482,51798
23475,51803
23467,51806
23456,51806
23439,51804
23413,51800
23411,51800
23373,51795
23332,51793
23291,51793
23252,51795
23219,51799
23195,51806
23193,51806
23176,51816
23170,51826
23174,51836
23190,51845
23216,51854
23251,51862
23275,51865
23324,51872
23364,51879
23395,51885
23419,51892
23438,51900
23453,51910
23467,51922
23478,51933
23491,51949
23498,51963
23500,51980
23500,51987
23498,52007
23492,52023
23482,52037
23460,52058
23436,52074
23408,52085
23374,52093
23332,52097
23281,52098
23272,52098
23238,52098
23204,52096
23174,52094
23151,52091
23149,52091
23127,52085
23108,52079
23098,52073
23088,52057
23087,52038
23096,52021
23098,52019
23105,52014
23115,52011
23131,52012
23149,52014
23170,52016
23199,52017
23233,52019
23269,52019
23278,52019
23314,52019
23340,52018
23358,52017
23372,52014
23383,52011
23390,52008
23405,51999
23414,51991
23416,51989
23413,51979
23399,51970
23375,51962
23343,51955
23333,51954
23283,51946
23243,51939
23211,51933
23187,51928
23168,51922
23153,51916
23140,51909
23128,51900
23116,51889
23112,51885
23097,51871
23089,51859
23086,51846
23086,51830
23091,51798
23107,51770
23134,51748
23172,51731
23198,51723
23227,51718
23262,51715
23300,51714
23340,51715
Z" /> 
<path style="fill:#000000; fill-opacity:1.0; 
stroke:#000000; stroke-width:3.93701; stroke-opacity:1; 
stroke-linecap:round; stroke-linejoin:round;fill-rule:evenodd;"
d="M 22805,51715
22841,51715
22869,51715
22889,51716
22903,51717
22912,51719
22918,51722
22923,51725
22925,51727
22935,51743
22937,51762
22930,51778
22927,51782
22922,51785
22914,51787
22901,51789
22882,51791
22855,51792
22819,51792
22787,51793
22657,51795
22653,51863
22741,51863
22780,51863
22808,51864
22827,51867
22839,51873
22846,51881
22849,51892
22849,51903
22848,51916
22843,51925
22833,51932
22816,51936
22791,51938
22757,51939
22738,51939
22654,51939
22654,52022
22784,52022
22827,52022
22859,52023
22883,52023
22900,52024
22911,52026
22918,52028
22923,52032
22926,52034
22935,52048
22938,52061
22934,52076
22926,52087
22922,52091
22917,52094
22909,52096
22897,52097
22879,52098
22855,52099
22822,52099
22779,52099
22757,52099
22710,52099
22673,52099
22645,52099
22625,52098
22611,52097
22601,52095
22595,52092
22590,52089
22589,52087
22585,52083
22583,52078
22580,52071
22579,52059
22578,52042
22577,52019
22577,51987
22577,51946
22577,51908
22577,51859
22577,51821
22577,51791
22578,51770
22579,51754
22581,51744
22583,51737
22586,51732
22590,51728
22591,51727
22595,51724
22600,51721
22608,51718
22619,51717
22635,51716
22658,51715
22689,51715
22729,51715
22758,51715
22805,51715
Z" /> 
<path style="fill:#000000; fill-opacity:1.0; 
stroke:#000000; stroke-width:3.93701; stroke-opacity:1; 
stroke-linecap:round; stroke-linejoin:round;fill-rule:evenodd;"
d="M 22067,51715
22087,51715
22148,51716
22199,51721
22241,51728
22278,51740
22309,51756
22338,51776
22348,51785
22365,51806
22380,51834
22392,51866
22399,51896
22399,51907
22395,51938
22384,51971
22368,52003
22348,52029
22345,52032
22319,52053
22289,52070
22256,52083
22217,52091
22170,52097
22114,52099
22088,52099
22056,52099
22033,52098
22018,52097
22007,52094
22001,52091
21997,52087
21994,52083
21991,52078
21989,52071
21987,52059
21986,52042
21986,52019
21985,51987
21985,51947
21985,51907
21985,51854
21985,51812
21986,51792
22062,51792
22062,52022
22111,52022
22140,52021
22171,52019
22197,52016
22197,52016
22239,52006
22271,51990
22296,51968
22311,51944
22321,51917
22320,51892
22309,51866
22287,51838
22257,51817
22218,51803
22192,51798
22162,51795
22130,51793
22104,51792
22102,51792
22062,51792
21986,51792
21986,51779
21988,51754
21992,51737
21999,51725
22010,51719
22024,51715
22043,51714
22067,51715
Z" /> 
<path style="fill:#000000; fill-opacity:1.0; 
stroke:#000000; stroke-width:3.93701; stroke-opacity:1; 
stroke-linecap:round; stroke-linejoin:round;fill-rule:evenodd;"
d="M 50785,50005
50778,50034
50768,50078
50754,50137
50736,50207
50717,50288
50695,50376
50680,50435
50656,50530
50634,50620
50613,50705
50594,50780
50578,50844
50566,50893
50558,50927
50556,50937
50547,50975
50535,51025
50520,51080
50511,51114
50490,51194
50469,51283
50447,51383
50422,51500
50420,51513
50408,51565
50394,51624
50383,51669
50372,51712
50362,51751
50356,51779
50356,51781
50354,51796
50353,51809
50355,51820
50363,51828
50378,51834
50401,51839
50434,51842
50480,51844
50539,51845
50614,51846
50707,51846
50813,51846
50906,51846
50992,51847
51069,51847
51136,51848
51189,51849
51226,51851
51246,51852
51249,51853
51246,51861
51235,51878
51216,51907
51188,51948
51151,52003
51102,52073
51059,52135
51023,52188
50988,52242
50957,52292
50934,52332
50931,52338
50908,52378
50876,52429
50838,52485
50797,52542
50757,52596
50721,52642
50692,52674
50692,52675
50670,52700
50646,52737
50625,52772
50602,52813
50577,52851
50557,52876
50533,52906
50505,52944
50486,52971
50462,53005
50429,53048
50394,53092
50380,53110
50351,53145
50328,53176
50314,53198
50312,53206
50305,53220
50288,53245
50264,53279
50246,53301
50213,53343
50180,53386
50153,53423
50145,53435
50121,53468
50091,53510
50059,53553
50051,53565
50019,53608
49981,53661
49943,53714
49925,53742
49892,53789
49860,53836
49831,53877
49817,53898
49784,53945
49752,53990
49718,54039
49677,54098
49665,54117
49636,54158
49604,54202
49573,54246
49543,54285
49519,54317
49502,54338
49494,54346
49496,54337
49502,54310
49511,54271
49524,54221
49533,54187
49578,54014
49692,54014
49693,54018
49695,54016
49700,54009
49708,53994
49719,53971
49734,53939
49754,53896
49779,53841
49810,53774
49847,53692
49891,53596
49942,53482
50001,53352
50022,53304
50071,53196
50119,53090
50165,52987
50209,52890
50249,52802
50284,52724
50313,52659
50335,52608
50348,52580
50375,52519
50404,52455
50431,52395
50453,52345
50457,52337
50475,52297
50488,52263
50496,52242
50497,52236
50487,52240
50462,52253
50424,52275
50375,52303
50319,52336
50269,52366
50046,52500
49873,53238
49844,53360
49817,53475
49791,53584
49768,53685
49747,53774
49729,53852
49714,53916
49703,53964
49696,53996
49693,54007
49692,54014
49578,54014
49588,53975
49647,53751
49697,53562
49715,53495
49734,53422
49753,53353
49768,53294
49771,53284
49786,53224
49805,53154
49824,53082
49839,53025
49852,52974
49862,52931
49868,52899
49871,52882
49870,52880
49870,52868
49876,52844
49879,52837
49894,52792
49909,52745
49923,52701
49932,52665
49936,52642
49937,52640
49936,52629
49933,52621
49927,52614
49915,52608
49895,52604
49866,52601
49826,52599
49774,52597
49706,52597
49622,52596
49520,52596
49465,52596
49019,52596
49035,52567
49049,52545
49071,52512
49088,52487
49218,52487
49218,52489
49222,52488
49231,52484
49247,52475
49273,52460
49310,52438
49362,52407
49410,52377
49462,52346
49516,52314
49564,52286
49596,52267
49667,52226
49670,52220
49681,52220
50091,52220
50501,52221
50622,52162
50670,52138
50713,52116
50745,52097
50764,52085
50765,52085
50791,52068
50812,52061
50831,52055
50864,52041
50906,52021
50947,52001
51056,51945
50648,51942
50239,51940
49960,52080
49681,52220
49670,52220
50121,51320
50184,51192
50246,51070
50303,50954
50356,50847
50405,50749
50448,50661
50486,50586
50517,50523
50540,50474
50556,50442
50563,50426
50563,50424
50555,50435
50538,50461
50511,50501
50477,50552
50437,50613
50393,50681
50346,50752
50259,50885
50183,51002
50115,51107
50055,51199
50000,51283
49950,51360
49903,51431
49858,51500
49827,51547
49788,51607
49747,51670
49708,51729
49675,51780
49659,51805
49550,51972
49452,52122
49365,52257
49315,52332
49283,52381
49255,52424
49234,52458
49221,52480
49218,52487
49088,52487
49096,52476
49099,52471
49118,52444
49147,52402
49184,52349
49227,52286
49274,52217
49323,52145
49373,52072
49421,52001
49466,51934
49506,51875
49533,51836
49565,51789
49603,51732
49642,51676
49664,51643
49692,51602
49729,51548
49771,51485
49816,51420
49859,51355
49865,51346
49909,51282
49953,51216
49996,51153
50034,51098
50063,51054
50067,51049
50094,51009
50132,50953
50179,50884
50234,50803
50295,50713
50362,50615
50432,50511
50505,50403
50579,50294
50648,50192
50686,50135
50720,50085
50749,50044
50771,50014
50784,49997
50786,49995
50785,50005
Z" /> 
</g>
<g style="fill:#000000; fill-opacity:0.0; 
stroke:#000000; stroke-width:3.93701; stroke-opacity:1; 
stroke-linecap:round; stroke-linejoin:round;">
</g>
<g style="fill:#000000; fill-opacity:0.0; 
stroke:#000000; stroke-width:59.0551; stroke-opacity:1; 
stroke-linecap:round; stroke-linejoin:round;">
<path d="M21648 45552
L21648 45870
L21667 45908
L21686 45927
L21723 45945
L21798 45945
L21836 45927
L21855 45908
L21873 45870
L21873 45552
" />
<path d="M22267 45945
L22042 45945
" />
<path d="M22155 45945
L22155 45552
L22117 45608
L22080 45645
L22042 45664
" />
<path d="M53229 45209
L53510 45209
L53566 45228
L53604 45266
L53622 45322
L53622 45359
" />
<path d="M53229 45059
L53229 44797
L53622 44966
" />
<path d="M51541 55080
L51598 55099
L51691 55099
L51729 55080
L51748 55061
L51766 55024
L51766 54986
L51748 54949
L51729 54930
L51691 54911
L51616 54893
L51579 54874
L51560 54855
L51541 54818
L51541 54780
L51560 54743
L51579 54724
L51616 54705
L51710 54705
L51766 54724
" />
<path d="M51898 54705
L51991 55099
L52066 54818
L52141 55099
L52235 54705
" />
<path d="M52366 54743
L52385 54724
L52423 54705
L52516 54705
L52554 54724
L52573 54743
L52591 54780
L52591 54818
L52573 54874
L52348 55099
L52591 55099
" />
<path d="M51541 55661
L51598 55680
L51691 55680
L51729 55661
L51748 55642
L51766 55605
L51766 55567
L51748 55530
L51729 55511
L51691 55492
L51616 55473
L51579 55455
L51560 55436
L51541 55398
L51541 55361
L51560 55323
L51579 55305
L51616 55286
L51710 55286
L51766 55305
" />
<path d="M51898 55286
L51991 55680
L52066 55398
L52141 55680
L52235 55286
" />
<path d="M52591 55680
L52366 55680
" />
<path d="M52479 55680
L52479 55286
L52441 55342
L52404 55380
L52366 55398
" />
<path d="M50103 47028
L50103 46634
L50196 46634
L50253 46653
L50290 46691
L50309 46728
L50328 46803
L50328 46859
L50309 46934
L50290 46972
L50253 47009
L50196 47028
L50103 47028
" />
<path d="M50703 47028
L50478 47028
" />
<path d="M50590 47028
L50590 46634
L50553 46691
L50515 46728
L50478 46747
" />
<path d="M50496 45158
L50496 44764
L50590 44764
L50646 44783
L50684 44820
L50703 44858
L50721 44933
L50721 44989
L50703 45064
L50684 45102
L50646 45139
L50590 45158
L50496 45158
" />
<path d="M50871 44802
L50890 44783
L50928 44764
L51021 44764
L51059 44783
L51077 44802
L51096 44839
L51096 44877
L51077 44933
L50853 45158
L51096 45158
" />
<g >
</g>
</g> 
</svg>
