<?xml version="1.0" standalone="no"?>
 <!DOCTYPE svg PUBLIC "-//W3C//DTD SVG 1.1//EN" 
 "http://www.w3.org/Graphics/SVG/1.1/DTD/svg11.dtd"> 
<svg xmlns="http://www.w3.org/2000/svg" version="1.1" 
    width="29.7002cm" height="21.0007cm" viewBox="0 0 116930 82680 ">
<title>SVG Picture created as Striduino-B_SilkS.svg date 2019/11/24 23:38:58 </title>
  <desc>Picture generated by PCBNEW </desc>
<g style="fill:#000000; fill-opacity:1;stroke:#000000; stroke-opacity:1;
stroke-linecap:round; stroke-linejoin:round; "
 transform="translate(0 0) scale(1 1)">
</g>
<g style="fill:#000000; fill-opacity:0.0; 
stroke:#000000; stroke-width:-0.000393701; stroke-opacity:1; 
stroke-linecap:round; stroke-linejoin:round;">
</g>
<g style="fill:#000000; fill-opacity:0.0; 
stroke:#000000; stroke-width:78.7402; stroke-opacity:1; 
stroke-linecap:round; stroke-linejoin:round;">
<path d="M44136 54420
L44136 53970
" />
<path d="M43911 54195
L43671 54195
" />
<path d="M43791 54315
L43791 54075
" />
<path d="M43566 54000
L43461 54315
L43356 54000
" />
<path d="M42861 54000
L43011 54000
L43026 54150
L43011 54135
L42981 54120
L42906 54120
L42876 54135
L42861 54150
L42846 54180
L42846 54255
L42861 54285
L42876 54300
L42906 54315
L42981 54315
L43011 54300
L43026 54285
" />
<path d="M42756 54000
L42651 54315
L42546 54000
" />
<path d="M42231 54000
L42036 54000
L42141 54120
L42096 54120
L42066 54135
L42051 54150
L42036 54180
L42036 54255
L42051 54285
L42066 54300
L42096 54315
L42186 54315
L42216 54300
L42231 54285
" />
<path d="M41946 54000
L41841 54315
L41736 54000
" />
<path d="M41661 54000
L41466 54000
L41571 54120
L41526 54120
L41496 54135
L41481 54150
L41466 54180
L41466 54255
L41481 54285
L41496 54300
L41526 54315
L41616 54315
L41646 54300
L41661 54285
" />
<path d="M40926 54015
L40956 54000
L41001 54000
L41046 54015
L41076 54045
L41091 54075
L41106 54135
L41106 54180
L41091 54240
L41076 54270
L41046 54300
L41001 54315
L40971 54315
L40926 54300
L40911 54285
L40911 54180
L40971 54180
" />
<path d="M40776 54315
L40776 54000
L40596 54315
L40596 54000
" />
<path d="M40446 54315
L40446 54000
L40371 54000
L40326 54015
L40296 54045
L40281 54075
L40266 54135
L40266 54180
L40281 54240
L40296 54270
L40326 54300
L40371 54315
L40446 54315
" />
<path d="M40056 54420
L40056 53970
" />
</g>
<g style="fill:#000000; fill-opacity:0.0; 
stroke:#000000; stroke-width:47.2441; stroke-opacity:1; 
stroke-linecap:round; stroke-linejoin:round;">
<path d="M34753 54566
L34842 54389
" />
<path d="M36151 54576
L36240 54399
" />
<path d="M37106 54566
L37194 54389
" />
<path d="M38149 54586
L38238 54409
" />
<path d="M39222 54586
L39311 54409
" />
</g>
<g style="fill:#000000; fill-opacity:0.0; 
stroke:#000000; stroke-width:78.7402; stroke-opacity:1; 
stroke-linecap:round; stroke-linejoin:round;">
<path d="M39955 54420
L39955 53970
" />
<path d="M39580 54000
L39730 54000
L39745 54150
L39730 54135
L39700 54120
L39625 54120
L39595 54135
L39580 54150
L39565 54180
L39565 54255
L39580 54285
L39595 54300
L39625 54315
L39700 54315
L39730 54300
L39745 54285
" />
<path d="M39475 54000
L39370 54315
L39265 54000
" />
<path d="M38935 54300
L38890 54315
L38815 54315
L38785 54300
L38770 54285
L38755 54255
L38755 54225
L38770 54195
L38785 54180
L38815 54165
L38875 54150
L38905 54135
L38920 54120
L38935 54090
L38935 54060
L38920 54030
L38905 54015
L38875 54000
L38800 54000
L38755 54015
" />
<path d="M38440 54285
L38455 54300
L38500 54315
L38530 54315
L38575 54300
L38605 54270
L38620 54240
L38635 54180
L38635 54135
L38620 54075
L38605 54045
L38575 54015
L38530 54000
L38500 54000
L38455 54015
L38440 54030
" />
<path d="M38305 54315
L38305 54000
" />
<path d="M38125 54315
L38260 54135
" />
<path d="M38125 54000
L38305 54180
" />
<path d="M37750 54315
L37750 54000
L37645 54225
L37540 54000
L37540 54315
" />
<path d="M37390 54315
L37390 54000
" />
<path d="M37255 54300
L37210 54315
L37135 54315
L37105 54300
L37090 54285
L37075 54255
L37075 54225
L37090 54195
L37105 54180
L37135 54165
L37195 54150
L37225 54135
L37240 54120
L37255 54090
L37255 54060
L37240 54030
L37225 54015
L37195 54000
L37120 54000
L37075 54015
" />
<path d="M36880 54000
L36820 54000
L36790 54015
L36760 54045
L36745 54105
L36745 54210
L36760 54270
L36790 54300
L36820 54315
L36880 54315
L36910 54300
L36940 54270
L36955 54210
L36955 54105
L36940 54045
L36910 54015
L36880 54000
" />
<path d="M36370 54315
L36370 54000
L36265 54225
L36160 54000
L36160 54315
" />
<path d="M35950 54000
L35890 54000
L35860 54015
L35830 54045
L35815 54105
L35815 54210
L35830 54270
L35860 54300
L35890 54315
L35950 54315
L35980 54300
L36010 54270
L36025 54210
L36025 54105
L36010 54045
L35980 54015
L35950 54000
" />
<path d="M35695 54300
L35650 54315
L35575 54315
L35545 54300
L35530 54285
L35515 54255
L35515 54225
L35530 54195
L35545 54180
L35575 54165
L35635 54150
L35665 54135
L35680 54120
L35695 54090
L35695 54060
L35680 54030
L35665 54015
L35635 54000
L35560 54000
L35515 54015
" />
<path d="M35380 54315
L35380 54000
" />
<path d="M35005 54300
L34960 54315
L34885 54315
L34855 54300
L34840 54285
L34825 54255
L34825 54225
L34840 54195
L34855 54180
L34885 54165
L34945 54150
L34975 54135
L34990 54120
L35005 54090
L35005 54060
L34990 54030
L34975 54015
L34945 54000
L34870 54000
L34825 54015
" />
<path d="M34705 54300
L34660 54315
L34585 54315
L34555 54300
L34540 54285
L34525 54255
L34525 54225
L34540 54195
L34555 54180
L34585 54165
L34645 54150
L34675 54135
L34690 54120
L34705 54090
L34705 54060
L34690 54030
L34675 54015
L34645 54000
L34570 54000
L34525 54015
" />
<path d="M33985 54015
L34015 54000
L34060 54000
L34105 54015
L34135 54045
L34150 54075
L34165 54135
L34165 54180
L34150 54240
L34135 54270
L34105 54300
L34060 54315
L34030 54315
L33985 54300
L33970 54285
L33970 54180
L34030 54180
" />
<path d="M33835 54315
L33835 54000
L33655 54315
L33655 54000
" />
<path d="M33505 54315
L33505 54000
L33430 54000
L33385 54015
L33355 54045
L33340 54075
L33325 54135
L33325 54180
L33340 54240
L33355 54270
L33385 54300
L33430 54315
L33505 54315
" />
<path d="M33115 54420
L33115 53970
" />
<path d="M32981 54420
L32981 53970
" />
<path d="M32786 54000
L32591 54000
L32696 54120
L32651 54120
L32621 54135
L32606 54150
L32591 54180
L32591 54255
L32606 54285
L32621 54300
L32651 54315
L32741 54315
L32771 54300
L32786 54285
" />
<path d="M32501 54000
L32396 54315
L32291 54000
" />
<path d="M32216 54000
L32021 54000
L32126 54120
L32081 54120
L32051 54135
L32036 54150
L32021 54180
L32021 54255
L32036 54285
L32051 54300
L32081 54315
L32171 54315
L32201 54300
L32216 54285
" />
<path d="M31661 54300
L31616 54315
L31541 54315
L31511 54300
L31496 54285
L31481 54255
L31481 54225
L31496 54195
L31511 54180
L31541 54165
L31601 54150
L31631 54135
L31646 54120
L31661 54090
L31661 54060
L31646 54030
L31631 54015
L31601 54000
L31526 54000
L31481 54015
" />
<path d="M31346 54315
L31346 54000
L31271 54000
L31226 54015
L31196 54045
L31181 54075
L31166 54135
L31166 54180
L31181 54240
L31196 54270
L31226 54300
L31271 54315
L31346 54315
" />
<path d="M31046 54225
L30896 54225
" />
<path d="M31076 54315
L30971 54000
L30866 54315
" />
<path d="M30536 54300
L30491 54315
L30416 54315
L30386 54300
L30371 54285
L30356 54255
L30356 54225
L30371 54195
L30386 54180
L30416 54165
L30476 54150
L30506 54135
L30521 54120
L30536 54090
L30536 54060
L30521 54030
L30506 54015
L30476 54000
L30401 54000
L30356 54015
" />
<path d="M30041 54285
L30056 54300
L30101 54315
L30131 54315
L30176 54300
L30206 54270
L30221 54240
L30236 54180
L30236 54135
L30221 54075
L30206 54045
L30176 54015
L30131 54000
L30101 54000
L30056 54015
L30041 54030
" />
<path d="M29756 54315
L29906 54315
L29906 54000
" />
<path d="M29246 54015
L29276 54000
L29321 54000
L29366 54015
L29396 54045
L29411 54075
L29426 54135
L29426 54180
L29411 54240
L29396 54270
L29366 54300
L29321 54315
L29291 54315
L29246 54300
L29231 54285
L29231 54180
L29291 54180
" />
<path d="M29096 54315
L29096 54000
L28916 54315
L28916 54000
" />
<path d="M28766 54315
L28766 54000
L28691 54000
L28646 54015
L28616 54045
L28601 54075
L28586 54135
L28586 54180
L28601 54240
L28616 54270
L28646 54300
L28691 54315
L28766 54315
" />
<path d="M28376 54420
L28376 53970
" />
<path d="M28231 54420
L28231 53970
" />
<path d="M27841 54015
L27871 54000
L27916 54000
L27961 54015
L27991 54045
L28006 54075
L28021 54135
L28021 54180
L28006 54240
L27991 54270
L27961 54300
L27916 54315
L27886 54315
L27841 54300
L27826 54285
L27826 54180
L27886 54180
" />
<path d="M27691 54315
L27691 54000
L27511 54315
L27511 54000
" />
<path d="M27361 54315
L27361 54000
L27286 54000
L27241 54015
L27211 54045
L27196 54075
L27181 54135
L27181 54180
L27196 54240
L27211 54270
L27241 54300
L27286 54315
L27361 54315
" />
<path d="M26821 54225
L26671 54225
" />
<path d="M26851 54315
L26746 54000
L26641 54315
" />
<path d="M26566 54000
L26371 54000
L26476 54120
L26431 54120
L26401 54135
L26386 54150
L26371 54180
L26371 54255
L26386 54285
L26401 54300
L26431 54315
L26521 54315
L26551 54300
L26566 54285
" />
<path d="M25846 54000
L25996 54000
L26011 54150
L25996 54135
L25966 54120
L25891 54120
L25861 54135
L25846 54150
L25831 54180
L25831 54255
L25846 54285
L25861 54300
L25891 54315
L25966 54315
L25996 54300
L26011 54285
" />
<path d="M25741 54000
L25636 54315
L25531 54000
" />
<path d="M25351 54420
L25351 53970
" />
<path d="M24855 54401
L24855 53951
" />
<path d="M24465 53996
L24495 53981
L24540 53981
L24585 53996
L24615 54026
L24630 54056
L24645 54116
L24645 54161
L24630 54221
L24615 54251
L24585 54281
L24540 54296
L24510 54296
L24465 54281
L24450 54266
L24450 54161
L24510 54161
" />
<path d="M24315 54296
L24315 53981
L24135 54296
L24135 53981
" />
<path d="M23985 54296
L23985 53981
L23910 53981
L23865 53996
L23835 54026
L23820 54056
L23805 54116
L23805 54161
L23820 54221
L23835 54251
L23865 54281
L23910 54296
L23985 54296
" />
<path d="M23280 53981
L23430 53981
L23445 54131
L23430 54116
L23400 54101
L23325 54101
L23295 54116
L23280 54131
L23265 54161
L23265 54236
L23280 54266
L23295 54281
L23325 54296
L23400 54296
L23430 54281
L23445 54266
" />
<path d="M23175 53981
L23070 54296
L22965 53981
" />
<path d="M22635 54206
L22485 54206
" />
<path d="M22665 54296
L22560 53981
L22455 54296
" />
<path d="M22365 54011
L22350 53996
L22320 53981
L22245 53981
L22215 53996
L22200 54011
L22185 54041
L22185 54071
L22200 54116
L22380 54296
L22185 54296
" />
<path d="M21975 54401
L21975 53951
" />
</g>
<g style="fill:#000000; fill-opacity:0.0; 
stroke:#000000; stroke-width:39.3701; stroke-opacity:1; 
stroke-linecap:round; stroke-linejoin:round;">
<path d="M56779 51094
L56791 51081
L56815 51045
L56828 51021
L56840 50984
L56852 50923
L56852 50874
L56840 50813
L56828 50777
L56815 50752
L56791 50716
L56779 50704
" />
<path d="M56572 50984
L56596 50996
L56645 50996
L56669 50984
L56681 50972
L56694 50947
L56694 50874
L56681 50850
L56669 50838
L56645 50826
L56596 50826
L56572 50838
" />
<path d="M56486 51094
L56474 51081
L56450 51045
L56438 51021
L56425 50984
L56413 50923
L56413 50874
L56425 50813
L56438 50777
L56450 50752
L56474 50716
L56486 50704
" />
<path d="M56096 50996
L56096 50740
L56011 50923
L55926 50740
L55926 50996
" />
<path d="M55804 50996
L55804 50826
" />
<path d="M55804 50740
L55816 50752
L55804 50765
L55792 50752
L55804 50740
L55804 50765
" />
<path d="M55719 50826
L55621 50826
" />
<path d="M55682 50740
L55682 50960
L55670 50984
L55646 50996
L55621 50996
" />
<path d="M55426 50984
L55451 50996
L55499 50996
L55524 50984
L55536 50972
L55548 50947
L55548 50874
L55536 50850
L55524 50838
L55499 50826
L55451 50826
L55426 50838
" />
<path d="M55317 50996
L55317 50740
" />
<path d="M55207 50996
L55207 50862
L55219 50838
L55243 50826
L55280 50826
L55304 50838
L55317 50850
" />
<path d="M54988 50984
L55012 50996
L55061 50996
L55085 50984
L55097 50960
L55097 50862
L55085 50838
L55061 50826
L55012 50826
L54988 50838
L54975 50862
L54975 50886
L55097 50911
" />
<path d="M54829 50996
L54853 50984
L54866 50960
L54866 50740
" />
<path d="M54695 50996
L54719 50984
L54732 50960
L54732 50740
" />
<path d="M54415 50984
L54378 50996
L54317 50996
L54293 50984
L54281 50972
L54269 50947
L54269 50923
L54281 50899
L54293 50886
L54317 50874
L54366 50862
L54390 50850
L54403 50838
L54415 50813
L54415 50789
L54403 50765
L54390 50752
L54366 50740
L54305 50740
L54269 50752
" />
<path d="M54195 50826
L54098 50826
" />
<path d="M54159 50740
L54159 50960
L54147 50984
L54122 50996
L54098 50996
" />
<path d="M54013 50996
L54013 50826
" />
<path d="M54013 50874
L54000 50850
L53988 50838
L53964 50826
L53940 50826
" />
<path d="M53854 50996
L53854 50826
" />
<path d="M53854 50740
L53866 50752
L53854 50765
L53842 50752
L53854 50740
L53854 50765
" />
<path d="M53623 50996
L53623 50740
" />
<path d="M53623 50984
L53647 50996
L53696 50996
L53720 50984
L53732 50972
L53745 50947
L53745 50874
L53732 50850
L53720 50838
L53696 50826
L53647 50826
L53623 50838
" />
<path d="M53403 50984
L53428 50996
L53476 50996
L53501 50984
L53513 50960
L53513 50862
L53501 50838
L53476 50826
L53428 50826
L53403 50838
L53391 50862
L53391 50886
L53513 50911
" />
<path d="M56864 51407
L56828 51419
L56767 51419
L56742 51407
L56730 51395
L56718 51371
L56718 51346
L56730 51322
L56742 51310
L56767 51298
L56815 51285
L56840 51273
L56852 51261
L56864 51237
L56864 51212
L56852 51188
L56840 51176
L56815 51163
L56754 51163
L56718 51176
" />
<path d="M56645 51249
L56547 51249
" />
<path d="M56608 51163
L56608 51383
L56596 51407
L56572 51419
L56547 51419
" />
<path d="M56462 51419
L56462 51249
" />
<path d="M56462 51298
L56450 51273
L56438 51261
L56413 51249
L56389 51249
" />
<path d="M56304 51419
L56304 51249
" />
<path d="M56304 51163
L56316 51176
L56304 51188
L56291 51176
L56304 51163
L56304 51188
" />
<path d="M56072 51419
L56072 51163
" />
<path d="M56072 51407
L56096 51419
L56145 51419
L56170 51407
L56182 51395
L56194 51371
L56194 51298
L56182 51273
L56170 51261
L56145 51249
L56096 51249
L56072 51261
" />
<path d="M55841 51249
L55841 51419
" />
<path d="M55950 51249
L55950 51383
L55938 51407
L55914 51419
L55877 51419
L55853 51407
L55841 51395
" />
<path d="M55719 51419
L55719 51249
" />
<path d="M55719 51163
L55731 51176
L55719 51188
L55706 51176
L55719 51163
L55719 51188
" />
<path d="M55597 51249
L55597 51419
" />
<path d="M55597 51273
L55585 51261
L55560 51249
L55524 51249
L55499 51261
L55487 51285
L55487 51419
" />
<path d="M55329 51419
L55353 51407
L55365 51395
L55377 51371
L55377 51298
L55365 51273
L55353 51261
L55329 51249
L55292 51249
L55268 51261
L55256 51273
L55243 51298
L55243 51371
L55256 51395
L55268 51407
L55292 51419
L55329 51419
" />
<path d="M56852 51843
L56852 51587
L56754 51587
L56730 51599
L56718 51611
L56706 51635
L56706 51672
L56718 51696
L56730 51709
L56754 51721
L56852 51721
" />
<path d="M56596 51843
L56596 51587
L56450 51843
L56450 51587
" />
<path d="M56328 51818
L56316 51830
L56328 51843
L56340 51830
L56328 51818
L56328 51843
" />
<path d="M56328 51684
L56316 51696
L56328 51709
L56340 51696
L56328 51684
L56328 51709
" />
<path d="M56035 51587
L55877 51587
L55962 51684
L55926 51684
L55901 51696
L55889 51709
L55877 51733
L55877 51794
L55889 51818
L55901 51830
L55926 51843
L55999 51843
L56023 51830
L56035 51818
" />
<path d="M55719 51587
L55694 51587
L55670 51599
L55658 51611
L55646 51635
L55633 51684
L55633 51745
L55646 51794
L55658 51818
L55670 51830
L55694 51843
L55719 51843
L55743 51830
L55755 51818
L55767 51794
L55780 51745
L55780 51684
L55767 51635
L55755 51611
L55743 51599
L55719 51587
" />
<path d="M55524 51745
L55329 51745
" />
<path d="M55219 51611
L55207 51599
L55182 51587
L55122 51587
L55097 51599
L55085 51611
L55073 51635
L55073 51660
L55085 51696
L55231 51843
L55073 51843
" />
<path d="M54914 51587
L54890 51587
L54866 51599
L54853 51611
L54841 51635
L54829 51684
L54829 51745
L54841 51794
L54853 51818
L54866 51830
L54890 51843
L54914 51843
L54939 51830
L54951 51818
L54963 51794
L54975 51745
L54975 51684
L54963 51635
L54951 51611
L54939 51599
L54914 51587
" />
<path d="M54585 51843
L54732 51843
" />
<path d="M54658 51843
L54658 51587
L54683 51623
L54707 51648
L54732 51660
" />
<path d="M54464 51843
L54415 51843
L54390 51830
L54378 51818
L54354 51782
L54342 51733
L54342 51635
L54354 51611
L54366 51599
L54390 51587
L54439 51587
L54464 51599
L54476 51611
L54488 51635
L54488 51696
L54476 51721
L54464 51733
L54439 51745
L54390 51745
L54366 51733
L54354 51721
L54342 51696
" />
<path d="M54232 51745
L54037 51745
" />
<path d="M53866 51587
L53842 51587
L53818 51599
L53805 51611
L53793 51635
L53781 51684
L53781 51745
L53793 51794
L53805 51818
L53818 51830
L53842 51843
L53866 51843
L53891 51830
L53903 51818
L53915 51794
L53927 51745
L53927 51684
L53915 51635
L53903 51611
L53891 51599
L53866 51587
" />
<path d="M53623 51587
L53598 51587
L53574 51599
L53562 51611
L53550 51635
L53537 51684
L53537 51745
L53550 51794
L53562 51818
L53574 51830
L53598 51843
L53623 51843
L53647 51830
L53659 51818
L53671 51794
L53684 51745
L53684 51684
L53671 51635
L53659 51611
L53647 51599
L53623 51587
" />
<path d="M53440 51611
L53428 51599
L53403 51587
L53342 51587
L53318 51599
L53306 51611
L53294 51635
L53294 51660
L53306 51696
L53452 51843
L53294 51843
" />
<path d="M53013 51672
L52952 51843
L52892 51672
" />
<path d="M52660 51843
L52806 51843
" />
<path d="M52733 51843
L52733 51587
L52757 51623
L52782 51648
L52806 51660
" />
<path d="M52550 51818
L52538 51830
L52550 51843
L52562 51830
L52550 51818
L52550 51843
" />
<path d="M52380 51587
L52355 51587
L52331 51599
L52319 51611
L52307 51635
L52294 51684
L52294 51745
L52307 51794
L52319 51818
L52331 51830
L52355 51843
L52380 51843
L52404 51830
L52416 51818
L52428 51794
L52441 51745
L52441 51684
L52428 51635
L52416 51611
L52404 51599
L52380 51587
" />
<path d="M56864 52254
L56828 52266
L56767 52266
L56742 52254
L56730 52241
L56718 52217
L56718 52193
L56730 52168
L56742 52156
L56767 52144
L56815 52132
L56840 52120
L56852 52107
L56864 52083
L56864 52059
L56852 52034
L56840 52022
L56815 52010
L56754 52010
L56718 52022
" />
<path d="M56608 52266
L56608 52010
L56462 52266
L56462 52010
" />
<path d="M56340 52241
L56328 52254
L56340 52266
L56352 52254
L56340 52241
L56340 52266
" />
<path d="M56340 52107
L56328 52120
L56340 52132
L56352 52120
L56340 52107
L56340 52132
" />
</g>
<g style="fill:#000000; fill-opacity:0.0; 
stroke:#000000; stroke-width:47.2441; stroke-opacity:1; 
stroke-linecap:round; stroke-linejoin:round;">
<path d="M47555 57673
L48602 57673
" />
<path d="M47555 57720
L47555 57673
" />
<path d="M48602 57720
L48602 57673
" />
<path d="M48602 58720
L48602 58196
" />
<path d="M48078 58720
L48602 58720
" />
<path d="M46555 57673
L47602 57673
" />
<path d="M46555 57720
L46555 57673
" />
<path d="M47602 57720
L47602 57673
" />
<path d="M47602 58720
L47602 58196
" />
<path d="M47078 58720
L47602 58720
" />
<path d="M45555 57673
L46602 57673
" />
<path d="M45555 57720
L45555 57673
" />
<path d="M46602 57720
L46602 57673
" />
<path d="M46602 58720
L46602 58196
" />
<path d="M46078 58720
L46602 58720
" />
<path d="M44555 57673
L45602 57673
" />
<path d="M44555 57720
L44555 57673
" />
<path d="M45602 57720
L45602 57673
" />
<path d="M45602 58720
L45602 58196
" />
<path d="M45078 58720
L45602 58720
" />
<path d="M47555 56673
L48602 56673
" />
<path d="M47555 56720
L47555 56673
" />
<path d="M48602 56720
L48602 56673
" />
<path d="M48602 57720
L48602 57196
" />
<path d="M48078 57720
L48602 57720
" />
<path d="M46555 56673
L47602 56673
" />
<path d="M46555 56720
L46555 56673
" />
<path d="M47602 56720
L47602 56673
" />
<path d="M47602 57720
L47602 57196
" />
<path d="M47078 57720
L47602 57720
" />
<path d="M45555 56673
L46602 56673
" />
<path d="M45555 56720
L45555 56673
" />
<path d="M46602 56720
L46602 56673
" />
<path d="M46602 57720
L46602 57196
" />
<path d="M46078 57720
L46602 57720
" />
<path d="M44555 56673
L45602 56673
" />
<path d="M44555 56720
L44555 56673
" />
<path d="M45602 56720
L45602 56673
" />
<path d="M45602 57720
L45602 57196
" />
<path d="M45078 57720
L45602 57720
" />
<path d="M47555 55673
L48602 55673
" />
<path d="M47555 55720
L47555 55673
" />
<path d="M48602 55720
L48602 55673
" />
<path d="M48602 56720
L48602 56196
" />
<path d="M48078 56720
L48602 56720
" />
<path d="M46555 55673
L47602 55673
" />
<path d="M46555 55720
L46555 55673
" />
<path d="M47602 55720
L47602 55673
" />
<path d="M47602 56720
L47602 56196
" />
<path d="M47078 56720
L47602 56720
" />
<path d="M45555 55673
L46602 55673
" />
<path d="M45555 55720
L45555 55673
" />
<path d="M46602 55720
L46602 55673
" />
<path d="M46602 56720
L46602 56196
" />
<path d="M46078 56720
L46602 56720
" />
<path d="M44555 55673
L45602 55673
" />
<path d="M44555 55720
L44555 55673
" />
<path d="M45602 55720
L45602 55673
" />
<path d="M45602 56720
L45602 56196
" />
<path d="M45078 56720
L45602 56720
" />
<path d="M47555 54673
L48602 54673
" />
<path d="M47555 54720
L47555 54673
" />
<path d="M48602 54720
L48602 54673
" />
<path d="M48602 55720
L48602 55196
" />
<path d="M48078 55720
L48602 55720
" />
<path d="M46555 54673
L47602 54673
" />
<path d="M46555 54720
L46555 54673
" />
<path d="M47602 54720
L47602 54673
" />
<path d="M47602 55720
L47602 55196
" />
<path d="M47078 55720
L47602 55720
" />
<path d="M45555 54673
L46602 54673
" />
<path d="M45555 54720
L45555 54673
" />
<path d="M46602 54720
L46602 54673
" />
<path d="M46602 55720
L46602 55196
" />
<path d="M46078 55720
L46602 55720
" />
<path d="M45078 55720
L45602 55720
" />
<path d="M45602 55720
L45602 55196
" />
<path d="M45602 54720
L45602 54673
" />
<path d="M44555 54720
L44555 54673
" />
<path d="M44555 54673
L45602 54673
" />
<path d="M21759 47744
L20759 47744
" />
<path d="M20759 47744
L20759 46692
" />
<path d="M21759 46692
L36811 46692
" />
<path d="M19708 46692
L20759 46692
" />
<path d="M20759 52744
L20759 53795
" />
<path d="M20759 52744
L35759 52744
" />
<path d="M35759 52744
L35759 53795
" />
<path d="M21759 47744
L21759 46692
" />
<path d="M21759 47744
L35759 47744
" />
<path d="M35759 47744
L35759 46692
" />
<path d="M36811 46692
L36811 53795
" />
<path d="M36811 53795
L19708 53795
" />
<path d="M19708 53795
L19708 46692
" />
<path d="M50541 53244
L50669 53244
" />
<path d="M50541 53645
L50669 53645
" />
<path d="M50639 50102
L50767 50102
" />
<path d="M50639 49700
L50767 49700
" />
<path d="M50541 52759
L50669 52759
" />
<path d="M50541 52358
L50669 52358
" />
<path d="M50639 49216
L50767 49216
" />
<path d="M50639 48814
L50767 48814
" />
<path d="M50639 47929
L50767 47929
" />
<path d="M50639 48330
L50767 48330
" />
<path d="M21917 55488
L24964 55488
" />
<path d="M24964 55488
L24964 56535
" />
<path d="M24964 56535
L21917 56535
" />
<path d="M21917 56535
L21917 55488
" />
<path d="M22291 56535
L22291 58897
" />
<path d="M22291 58897
L22590 58897
" />
<path d="M22590 58897
L22590 56535
" />
<path d="M22314 56535
L22314 58897
" />
<path d="M22362 56535
L22362 58897
" />
<path d="M22409 56535
L22409 58897
" />
<path d="M22456 56535
L22456 58897
" />
<path d="M22503 56535
L22503 58897
" />
<path d="M22551 56535
L22551 58897
" />
<path d="M22291 55358
L22291 55488
" />
<path d="M22590 55358
L22590 55488
" />
<path d="M22940 55488
L22940 56535
" />
<path d="M23291 56535
L23291 58897
" />
<path d="M23291 58897
L23590 58897
" />
<path d="M23590 58897
L23590 56535
" />
<path d="M23291 55331
L23291 55488
" />
<path d="M23590 55331
L23590 55488
" />
<path d="M23940 55488
L23940 56535
" />
<path d="M24291 56535
L24291 58897
" />
<path d="M24291 58897
L24590 58897
" />
<path d="M24590 58897
L24590 56535
" />
<path d="M24291 55331
L24291 55488
" />
<path d="M24590 55331
L24590 55488
" />
<path d="M22440 54421
L21940 54421
" />
<path d="M21940 54421
L21940 54921
" />
<path d="M25173 54421
L25173 54921
" />
<path d="M25673 54421
L25173 54421
" />
<path d="M27822 55331
L27822 55488
" />
<path d="M27523 55331
L27523 55488
" />
<path d="M27822 58897
L27822 56535
" />
<path d="M27523 58897
L27822 58897
" />
<path d="M27523 56535
L27523 58897
" />
<path d="M27173 55488
L27173 56535
" />
<path d="M26822 55331
L26822 55488
" />
<path d="M26523 55331
L26523 55488
" />
<path d="M26822 58897
L26822 56535
" />
<path d="M26523 58897
L26822 58897
" />
<path d="M26523 56535
L26523 58897
" />
<path d="M26173 55488
L26173 56535
" />
<path d="M25822 55358
L25822 55488
" />
<path d="M25523 55358
L25523 55488
" />
<path d="M25783 56535
L25783 58897
" />
<path d="M25736 56535
L25736 58897
" />
<path d="M25688 56535
L25688 58897
" />
<path d="M25641 56535
L25641 58897
" />
<path d="M25594 56535
L25594 58897
" />
<path d="M25547 56535
L25547 58897
" />
<path d="M25822 58897
L25822 56535
" />
<path d="M25523 58897
L25822 58897
" />
<path d="M25523 56535
L25523 58897
" />
<path d="M25149 56535
L25149 55488
" />
<path d="M28196 56535
L25149 56535
" />
<path d="M28196 55488
L28196 56535
" />
<path d="M25149 55488
L28196 55488
" />
<path d="M45029 45173
L45157 45173
" />
<path d="M45029 45574
L45157 45574
" />
<path d="M44999 47838
L45128 47838
" />
<path d="M44999 47437
L45128 47437
" />
<path d="M42874 48509
L42745 48509
" />
<path d="M42874 48911
L42745 48911
" />
<path d="M44999 48519
L45128 48519
" />
<path d="M44999 48921
L45128 48921
" />
<path d="M50610 47248
L50738 47248
" />
<path d="M50610 46846
L50738 46846
" />
<path d="M44999 46328
L45128 46328
" />
<path d="M44999 46730
L45128 46730
" />
<path d="M42864 47437
L42736 47437
" />
<path d="M42864 47838
L42736 47838
" />
<path d="M47181 50358
L47181 49862
" />
<path d="M47181 47673
L47181 48169
" />
<path d="M48661 50358
L47181 50358
" />
<path d="M49547 47673
L47181 47673
" />
<path d="M49448 51216
L47082 51216
" />
<path d="M48562 53901
L47082 53901
" />
<path d="M47082 51216
L47082 51712
" />
<path d="M47082 53901
L47082 53405
" />
<circle cx="40551.2" cy="51476.4" r="2401.57" /> 
<path d="M33318 55488
L39366 55488
" />
<path d="M39366 55488
L39366 56535
" />
<path d="M39366 56535
L33318 56535
" />
<path d="M33318 56535
L33318 55488
" />
<path d="M33692 56535
L33692 58897
" />
<path d="M33692 58897
L33992 58897
" />
<path d="M33992 58897
L33992 56535
" />
<path d="M33716 56535
L33716 58897
" />
<path d="M33763 56535
L33763 58897
" />
<path d="M33811 56535
L33811 58897
" />
<path d="M33858 56535
L33858 58897
" />
<path d="M33905 56535
L33905 58897
" />
<path d="M33952 56535
L33952 58897
" />
<path d="M33692 55358
L33692 55488
" />
<path d="M33992 55358
L33992 55488
" />
<path d="M34342 55488
L34342 56535
" />
<path d="M34692 56535
L34692 58897
" />
<path d="M34692 58897
L34992 58897
" />
<path d="M34992 58897
L34992 56535
" />
<path d="M34692 55331
L34692 55488
" />
<path d="M34992 55331
L34992 55488
" />
<path d="M35342 55488
L35342 56535
" />
<path d="M35692 56535
L35692 58897
" />
<path d="M35692 58897
L35992 58897
" />
<path d="M35992 58897
L35992 56535
" />
<path d="M35692 55331
L35692 55488
" />
<path d="M35992 55331
L35992 55488
" />
<path d="M36342 55488
L36342 56535
" />
<path d="M36692 56535
L36692 58897
" />
<path d="M36692 58897
L36992 58897
" />
<path d="M36992 58897
L36992 56535
" />
<path d="M36692 55331
L36692 55488
" />
<path d="M36992 55331
L36992 55488
" />
<path d="M37342 55488
L37342 56535
" />
<path d="M37692 56535
L37692 58897
" />
<path d="M37692 58897
L37992 58897
" />
<path d="M37992 58897
L37992 56535
" />
<path d="M37692 55331
L37692 55488
" />
<path d="M37992 55331
L37992 55488
" />
<path d="M38342 55488
L38342 56535
" />
<path d="M38692 56535
L38692 58897
" />
<path d="M38692 58897
L38992 58897
" />
<path d="M38992 58897
L38992 56535
" />
<path d="M38692 55331
L38692 55488
" />
<path d="M38992 55331
L38992 55488
" />
<path d="M33842 54421
L33342 54421
" />
<path d="M33342 54421
L33342 54921
" />
<path d="M28708 55488
L32755 55488
" />
<path d="M32755 55488
L32755 56535
" />
<path d="M32755 56535
L28708 56535
" />
<path d="M28708 56535
L28708 55488
" />
<path d="M29082 56535
L29082 58897
" />
<path d="M29082 58897
L29381 58897
" />
<path d="M29381 58897
L29381 56535
" />
<path d="M29106 56535
L29106 58897
" />
<path d="M29153 56535
L29153 58897
" />
<path d="M29200 56535
L29200 58897
" />
<path d="M29248 56535
L29248 58897
" />
<path d="M29295 56535
L29295 58897
" />
<path d="M29342 56535
L29342 58897
" />
<path d="M29082 55358
L29082 55488
" />
<path d="M29381 55358
L29381 55488
" />
<path d="M29732 55488
L29732 56535
" />
<path d="M30082 56535
L30082 58897
" />
<path d="M30082 58897
L30381 58897
" />
<path d="M30381 58897
L30381 56535
" />
<path d="M30082 55331
L30082 55488
" />
<path d="M30381 55331
L30381 55488
" />
<path d="M30732 55488
L30732 56535
" />
<path d="M31082 56535
L31082 58897
" />
<path d="M31082 58897
L31381 58897
" />
<path d="M31381 58897
L31381 56535
" />
<path d="M31082 55331
L31082 55488
" />
<path d="M31381 55331
L31381 55488
" />
<path d="M31732 55488
L31732 56535
" />
<path d="M32082 56535
L32082 58897
" />
<path d="M32082 58897
L32381 58897
" />
<path d="M32381 58897
L32381 56535
" />
<path d="M32082 55331
L32082 55488
" />
<path d="M32381 55331
L32381 55488
" />
<path d="M29232 54421
L28732 54421
" />
<path d="M28732 54421
L28732 54921
" />
<path d="M39952 54421
L39952 54921
" />
<path d="M40452 54421
L39952 54421
" />
<path d="M43602 55331
L43602 55488
" />
<path d="M43303 55331
L43303 55488
" />
<path d="M43602 58897
L43602 56535
" />
<path d="M43303 58897
L43602 58897
" />
<path d="M43303 56535
L43303 58897
" />
<path d="M42952 55488
L42952 56535
" />
<path d="M42602 55331
L42602 55488
" />
<path d="M42303 55331
L42303 55488
" />
<path d="M42602 58897
L42602 56535
" />
<path d="M42303 58897
L42602 58897
" />
<path d="M42303 56535
L42303 58897
" />
<path d="M41952 55488
L41952 56535
" />
<path d="M41602 55331
L41602 55488
" />
<path d="M41303 55331
L41303 55488
" />
<path d="M41602 58897
L41602 56535
" />
<path d="M41303 58897
L41602 58897
" />
<path d="M41303 56535
L41303 58897
" />
<path d="M40952 55488
L40952 56535
" />
<path d="M40602 55358
L40602 55488
" />
<path d="M40303 55358
L40303 55488
" />
<path d="M40562 56535
L40562 58897
" />
<path d="M40515 56535
L40515 58897
" />
<path d="M40468 56535
L40468 58897
" />
<path d="M40421 56535
L40421 58897
" />
<path d="M40374 56535
L40374 58897
" />
<path d="M40326 56535
L40326 58897
" />
<path d="M40602 58897
L40602 56535
" />
<path d="M40303 58897
L40602 58897
" />
<path d="M40303 56535
L40303 58897
" />
<path d="M39929 56535
L39929 55488
" />
<path d="M43976 56535
L39929 56535
" />
<path d="M43976 55488
L43976 56535
" />
<path d="M39929 55488
L43976 55488
" />
<circle cx="47440.9" cy="46259.8" r="539.37" /> 
<path d="M47980 46259
L48007 46259
" />
<path d="M43523 45787
L43523 45944
" />
<path d="M43090 45236
L41948 45236
" />
<path d="M41948 45236
L41948 45472
" />
<path d="M43090 46496
L41948 46496
" />
<path d="M41948 46496
L41948 46259
" />
<path d="M43444 45157
L43720 45157
" />
<path d="M43720 45157
L43720 45433
" />
</g>
<g style="fill:#000000; fill-opacity:1.0; 
stroke:#000000; stroke-width:3.93701; stroke-opacity:1; 
stroke-linecap:round; stroke-linejoin:round;">
<path style="fill:#000000; fill-opacity:1.0; 
stroke:#000000; stroke-width:3.93701; stroke-opacity:1; 
stroke-linecap:round; stroke-linejoin:round;fill-rule:evenodd;"
d="M 44337,50779
44319,50782
44318,50783
44312,50786
44306,50792
44298,50802
44288,50816
44275,50836
44259,50863
44239,50897
44237,50899
44220,50930
44207,50958
44196,50988
44187,51017
44178,51046
44167,51079
44154,51115
44140,51152
44126,51189
44112,51224
44098,51256
44086,51284
44076,51306
44068,51321
44065,51325
44051,51334
44031,51337
44007,51334
43999,51331
43984,51327
43974,51325
43971,51325
43973,51329
43982,51338
43996,51350
44005,51358
44022,51373
44037,51387
44047,51398
44050,51402
44053,51412
44057,51430
44059,51453
44062,51479
44063,51505
44064,51530
44063,51551
44062,51564
44059,51570
44054,51579
44044,51591
44031,51606
44012,51626
43988,51651
43957,51681
43950,51688
43922,51716
43896,51743
43872,51768
43853,51789
43838,51805
43829,51816
43828,51818
43821,51832
43811,51852
43799,51876
43789,51897
43764,51953
43764,52041
43764,52078
43765,52111
43767,52140
43770,52170
43774,52204
43780,52243
43782,52256
43789,52291
43798,52333
43808,52376
43820,52419
43829,52450
43841,52490
43850,52522
43857,52546
43862,52564
43865,52577
43867,52585
43869,52598
43872,52617
43876,52637
43877,52638
43882,52667
43885,52698
43888,52728
43888,52754
43887,52775
43885,52784
43878,52798
43867,52808
43850,52813
43831,52816
43803,52819
43783,52821
43770,52824
43762,52826
43757,52830
43754,52836
43752,52838
43745,52853
43778,52856
43798,52859
43816,52864
43827,52867
43841,52872
43864,52875
43889,52877
43912,52878
43926,52879
43934,52881
43938,52885
43938,52887
43943,52905
43951,52928
43961,52954
43972,52980
43976,52990
43990,53018
44006,53044
44024,53071
44048,53101
44064,53120
44101,53160
44139,53192
44179,53216
44222,53233
44272,53245
44328,53251
44342,53252
44366,53252
44384,53252
44398,53250
44413,53245
44423,53241
44475,53215
44524,53181
44569,53137
44606,53091
44617,53073
44464,53073
44462,53079
44456,53076
44448,53067
44426,53067
44425,53077
44416,53086
44402,53094
44387,53097
44382,53097
44374,53096
44374,53096
44347,53096
44347,53102
44343,53108
44339,53103
44338,53101
44321,53101
44317,53106
44306,53111
44292,53115
44276,53118
44270,53118
44253,53118
44256,53080
44257,53063
44260,53039
44263,53009
44266,52988
44248,52988
44248,53004
44247,53024
44245,53048
44242,53072
44240,53093
44237,53109
44236,53115
44232,53123
44227,53122
44224,53114
44223,53101
44223,53101
44225,53088
44228,53068
44232,53044
44236,53023
44241,53000
44245,52986
44247,52980
44248,52982
44248,52988
44266,52988
44267,52975
44271,52939
44273,52926
44277,52893
44280,52866
44283,52847
44285,52835
44287,52832
44289,52836
44292,52849
44295,52871
44298,52902
44303,52942
44307,52978
44311,53012
44314,53042
44317,53067
44319,53086
44320,53098
44321,53101
44338,53101
44334,53089
44330,53065
44330,53062
44327,53039
44325,53019
44324,53002
44325,52991
44327,52988
44329,52991
44332,53003
44336,53020
44340,53041
44343,53062
44346,53081
44347,53096
44374,53096
44369,53093
44365,53086
44362,53072
44358,53056
44354,53036
44350,53011
44345,52982
44340,52956
44323,52956
44323,52965
44321,52965
44321,52965
44320,52955
44321,52950
44322,52948
44323,52954
44323,52956
44340,52956
44340,52952
44335,52922
44330,52893
44326,52867
44323,52846
44322,52831
44321,52825
44322,52824
44325,52827
44329,52834
44332,52842
44339,52858
44348,52880
44359,52906
44372,52936
44378,52951
44391,52982
44403,53010
44413,53034
44421,53052
44425,53064
44426,53067
44448,53067
44448,53066
44441,53055
44434,53042
44426,53025
44416,53004
44407,52982
44398,52961
44391,52944
44387,52931
44386,52925
44386,52925
44389,52928
44396,52939
44405,52954
44416,52974
44427,52996
44439,53018
44449,53038
44457,53056
44463,53068
44464,53073
44617,53073
44625,53060
44644,53022
44650,53007
44539,53007
44536,53014
44527,53025
44516,53038
44504,53050
44494,53059
44488,53063
44487,53063
44482,53059
44474,53048
44463,53032
44456,53020
44441,52994
44425,52965
44411,52937
44408,52931
44400,52916
44384,52916
44382,52918
44379,52916
44382,52913
44384,52916
44400,52916
44396,52907
44383,52883
44371,52862
44368,52856
44356,52835
44345,52812
44344,52811
44258,52811
44258,52816
44256,52829
44253,52849
44249,52872
44247,52879
44242,52909
44235,52945
44229,52983
44223,53019
44221,53028
44217,53056
44213,53080
44209,53099
44207,53111
44206,53115
44200,53116
44189,53111
44175,53101
44160,53088
44157,53085
44138,53065
44163,53010
44187,52957
44208,52912
44216,52894
44199,52894
44197,52900
44191,52914
44182,52934
44171,52961
44157,52993
44142,53025
44133,53042
44126,53052
44121,53053
44119,53044
44119,53043
44121,53035
44127,53022
44135,53004
44146,52984
44157,52962
44168,52941
44179,52922
44188,52907
44195,52897
44199,52893
44199,52894
44216,52894
44225,52876
44238,52848
44248,52828
44254,52816
44257,52811
44258,52811
44344,52811
44338,52797
44328,52776
44243,52776
44242,52781
44236,52793
44227,52811
44214,52834
44200,52860
44184,52888
44168,52916
44152,52944
44137,52969
44123,52991
44113,53008
44105,53019
44102,53022
44096,53017
44088,53006
44080,52996
44070,52980
44063,52967
44061,52956
44064,52946
44073,52933
44088,52917
44107,52897
44120,52885
44098,52885
44096,52889
44087,52899
44071,52915
44069,52917
44056,52928
44048,52933
44046,52932
44049,52924
44050,52923
44058,52914
44070,52903
44082,52894
44094,52886
44098,52885
44120,52885
44130,52875
44153,52852
44176,52831
44197,52812
44216,52795
44230,52783
44240,52777
44243,52776
44328,52776
44325,52769
44219,52769
44211,52778
44197,52790
44177,52806
44154,52824
44130,52842
44107,52860
44085,52876
44065,52890
44051,52900
44041,52905
44039,52906
44036,52900
44031,52888
44029,52881
44026,52866
44025,52855
44026,52852
44031,52847
44044,52839
44062,52829
44085,52817
44109,52805
44134,52793
44158,52782
44178,52773
44190,52769
44198,52767
44097,52767
44090,52770
44074,52776
44059,52782
44037,52789
44022,52793
44013,52792
44010,52788
44009,52784
44010,52778
44014,52774
44023,52771
44039,52769
44062,52767
44067,52766
44085,52765
44096,52765
44097,52767
44198,52767
44208,52764
44218,52764
44219,52769
44325,52769
44325,52768
44342,52781
44352,52790
44359,52797
44360,52799
44364,52804
44373,52815
44386,52828
44389,52832
44416,52861
44443,52890
44467,52918
44490,52944
44509,52967
44524,52985
44535,52999
44539,53007
44539,53007
44650,53007
44661,52980
44664,52971
44554,52971
44550,52981
44546,52979
44535,52970
44520,52956
44502,52938
44481,52915
44459,52891
44445,52874
44433,52860
44424,52850
44421,52844
44421,52843
44426,52847
44438,52857
44458,52874
44485,52897
44519,52928
44538,52944
44550,52958
44554,52971
44664,52971
44675,52935
44687,52891
44689,52877
44694,52852
44694,52850
44595,52850
44592,52868
44588,52885
44583,52904
44577,52922
44571,52937
44566,52946
44564,52947
44559,52944
44547,52935
44531,52922
44512,52905
44498,52893
44475,52873
44451,52852
44427,52830
44404,52809
44383,52789
44366,52773
44354,52760
44347,52752
44346,52750
44352,52751
44366,52755
44388,52764
44418,52776
44456,52791
44499,52809
44506,52812
44595,52850
44694,52850
44699,52828
44700,52823
44604,52823
44601,52830
44599,52832
44597,52833
44592,52832
44585,52829
44571,52824
44552,52816
44536,52810
44515,52801
44497,52793
44484,52787
44479,52784
44479,52783
44484,52783
44496,52785
44513,52788
44533,52792
44554,52796
44574,52801
44590,52805
44595,52806
44602,52813
44604,52823
44700,52823
44703,52808
44705,52798
44706,52784
44707,52762
44708,52735
44707,52723
44609,52723
44609,52745
44607,52765
44605,52781
44603,52791
44602,52793
44597,52792
44584,52789
44564,52785
44539,52779
44514,52773
44475,52764
44446,52757
44424,52752
44409,52747
44398,52744
44393,52740
44390,52737
44389,52734
44389,52734
44393,52720
44406,52710
44420,52706
44193,52706
44192,52715
44184,52726
44175,52733
44161,52738
44140,52743
44112,52748
44075,52753
44067,52753
44042,52756
44025,52757
44014,52755
44009,52749
44006,52737
44005,52719
44005,52710
44005,52687
44005,52673
44007,52664
44011,52661
44011,52660
44020,52660
44039,52662
44065,52667
44098,52674
44138,52683
44145,52685
44170,52692
44186,52699
44193,52706
44420,52706
44428,52704
44429,52704
44443,52701
44464,52698
44489,52695
44516,52692
44543,52689
44567,52686
44587,52684
44599,52684
44600,52684
44605,52685
44607,52690
44609,52700
44609,52719
44609,52723
44707,52723
44707,52705
44707,52698
44706,52683
44249,52683
44248,52683
44247,52683
44245,52680
44227,52680
44225,52683
44215,52683
44215,52683
44201,52682
44184,52677
44173,52673
44159,52667
44138,52658
44133,52656
44088,52656
44087,52656
44087,52656
44075,52654
44060,52651
44059,52651
44034,52646
44019,52640
44011,52633
44009,52628
44011,52621
44018,52621
44020,52621
44030,52625
44043,52631
44057,52638
44071,52645
44082,52652
44088,52656
44133,52656
44113,52647
44087,52634
44082,52632
44018,52601
44021,52583
44024,52568
44029,52550
44036,52531
44043,52512
44051,52495
44057,52484
44061,52480
44061,52480
44063,52481
44066,52484
44071,52489
44078,52497
44088,52509
44101,52524
44118,52545
44139,52571
44165,52603
44197,52642
44221,52672
44227,52680
44245,52680
44244,52679
44235,52668
44222,52652
44206,52633
44194,52618
44168,52586
44144,52556
44121,52529
44102,52505
44087,52485
44077,52471
44072,52465
44073,52457
44079,52443
44091,52423
44105,52404
44115,52392
44122,52388
44124,52392
44126,52398
44133,52410
44142,52427
44147,52436
44155,52451
44165,52472
44177,52496
44188,52521
44200,52546
44210,52569
44218,52589
44223,52602
44224,52608
44226,52614
44230,52627
44237,52643
44244,52661
44248,52675
44249,52683
44706,52683
44705,52661
44607,52661
44600,52667
44585,52672
44568,52674
44539,52677
44520,52678
44511,52677
44511,52675
44519,52671
44536,52664
44546,52661
44570,52652
44586,52647
44596,52645
44601,52645
44604,52647
44606,52651
44606,52652
44607,52661
44705,52661
44704,52621
44705,52620
44599,52620
44594,52625
44583,52631
44564,52640
44561,52641
44544,52648
44535,52652
44530,52653
44529,52652
44529,52651
44533,52648
44544,52641
44558,52634
44573,52627
44586,52621
44594,52619
44595,52618
44599,52620
44705,52620
44719,52612
44731,52601
44732,52595
44507,52595
44507,52600
44506,52608
44503,52614
44496,52620
44484,52628
44464,52638
44462,52640
44427,52657
44397,52669
44373,52676
44362,52678
44357,52677
44359,52673
44368,52665
44369,52664
44380,52655
44397,52643
44417,52628
44440,52612
44443,52610
44467,52594
44485,52583
44496,52578
44503,52579
44506,52584
44507,52595
44732,52595
44734,52587
44729,52571
44721,52561
44589,52561
44587,52562
44584,52558
44580,52549
44579,52546
44581,52545
44584,52548
44588,52558
44589,52561
44721,52561
44717,52556
44705,52547
44704,52546
44614,52546
44612,52548
44609,52546
44612,52543
44614,52546
44704,52546
44696,52540
44504,52540
44499,52550
44493,52558
44481,52569
44466,52580
44453,52588
44443,52593
44442,52593
44443,52590
44450,52581
44461,52569
44469,52561
44486,52545
44497,52537
44504,52535
44504,52540
44696,52540
44694,52538
44690,52533
44609,52533
44607,52538
44606,52537
44605,52531
44606,52530
44609,52531
44609,52533
44690,52533
44686,52528
44681,52518
44604,52518
44602,52523
44601,52522
44600,52516
44601,52515
44604,52516
44604,52518
44681,52518
44678,52512
44675,52506
44599,52506
44597,52508
44594,52506
44597,52503
44599,52506
44675,52506
44672,52498
44671,52496
44594,52496
44592,52498
44589,52496
44592,52493
44594,52496
44671,52496
44666,52483
44589,52483
44587,52488
44586,52487
44585,52481
44586,52480
44589,52481
44589,52483
44666,52483
44663,52475
44660,52469
44584,52469
44582,52473
44579,52469
44577,52466
44577,52461
44579,52461
44584,52467
44584,52469
44660,52469
44653,52451
44574,52451
44572,52453
44569,52451
44572,52448
44574,52451
44653,52451
44652,52449
44648,52440
44524,52440
44523,52452
44519,52468
44516,52479
44512,52488
44507,52498
44500,52508
44489,52521
44475,52537
44455,52557
44429,52584
44428,52585
44399,52613
44377,52634
44361,52649
44351,52657
44346,52660
44345,52658
44348,52650
44348,52650
44353,52641
44359,52625
44366,52606
44369,52599
44377,52579
44385,52560
44392,52547
44393,52545
44401,52533
44410,52516
44417,52503
44425,52488
44436,52470
44449,52449
44462,52429
44474,52410
44485,52396
44492,52386
44494,52384
44499,52387
44506,52397
44514,52410
44520,52424
44524,52436
44524,52440
44648,52440
44641,52423
44638,52418
44618,52375
44620,52373
44479,52373
44477,52379
44470,52390
44462,52403
44453,52416
44446,52426
44441,52431
44440,52431
44441,52426
44445,52415
44450,52403
44457,52387
44463,52375
44466,52370
44472,52366
44478,52369
44479,52373
44620,52373
44633,52351
44635,52348
44448,52348
44448,52357
44448,52359
44444,52373
44437,52393
44427,52418
44415,52447
44401,52477
44387,52507
44374,52534
44361,52557
44361,52558
44353,52570
44347,52574
44343,52570
44341,52557
44341,52534
44341,52518
44343,52491
44347,52460
44348,52457
44304,52457
44304,52488
44304,52517
44303,52542
44303,52562
44302,52573
44301,52576
44297,52582
44293,52578
44291,52572
44249,52572
44248,52584
44247,52589
44245,52589
44242,52585
44242,52585
44236,52575
44228,52559
44220,52539
44216,52530
44207,52507
44197,52479
44186,52449
44179,52428
44163,52428
44162,52429
44157,52422
44152,52414
44143,52397
44137,52382
44135,52377
44135,52366
44138,52365
44138,52365
44143,52372
44149,52388
44157,52411
44163,52428
44179,52428
44176,52420
44176,52420
44154,52353
44168,52341
44182,52330
44198,52320
44200,52319
44219,52308
44226,52335
44232,52361
44237,52397
44242,52443
44245,52499
44247,52526
44248,52553
44249,52572
44291,52572
44289,52565
44286,52543
44284,52520
44282,52496
44281,52467
44280,52436
44280,52403
44280,52372
44280,52343
44281,52321
44282,52305
44283,52302
44286,52290
44291,52288
44295,52294
44299,52307
44301,52325
44302,52342
44303,52366
44304,52394
44304,52425
44304,52457
44348,52457
44353,52433
44354,52428
44365,52385
44374,52352
44381,52328
44387,52314
44391,52308
44391,52308
44398,52311
44410,52317
44423,52325
44438,52334
44446,52341
44448,52348
44635,52348
44645,52329
44655,52307
44365,52307
44364,52319
44362,52334
44359,52350
44355,52362
44352,52368
44351,52368
44351,52364
44351,52353
44352,52345
44355,52322
44358,52308
44361,52301
44364,52301
44365,52307
44655,52307
44658,52301
44671,52270
44683,52238
44692,52208
44697,52190
44702,52170
44708,52151
44712,52140
44716,52124
44718,52102
44719,52078
44718,52058
44612,52058
44600,52070
44591,52084
44581,52107
44572,52136
44564,52170
44557,52206
44556,52216
44552,52239
44549,52258
44547,52272
44546,52277
44542,52278
44531,52272
44514,52261
44512,52259
44491,52244
44468,52230
44448,52219
44426,52210
44401,52200
44380,52194
44360,52187
44348,52181
44342,52176
44294,52176
44292,52185
44289,52188
44285,52184
44284,52176
44286,52167
44289,52163
44293,52168
44294,52176
44342,52176
44341,52175
44339,52170
44333,52158
44323,52144
44320,52140
44307,52122
44278,52122
44261,52140
44250,52154
44242,52168
44241,52173
44237,52185
44231,52194
44219,52201
44200,52210
44197,52211
44153,52234
44110,52266
44069,52306
44031,52353
43996,52406
43967,52463
43963,52472
43942,52523
43938,52439
43937,52407
43935,52367
43933,52325
43931,52283
43929,52251
43926,52196
43922,52151
43917,52112
43911,52080
43904,52052
43896,52028
43893,52022
43885,52001
43881,51986
43882,51973
43888,51961
43901,51948
43921,51932
43930,51925
43968,51893
44006,51855
44023,51837
44045,51812
44061,51793
44074,51781
44083,51775
44090,51774
44096,51777
44101,51785
44104,51790
44111,51804
44111,51812
44103,51817
44099,51818
44085,51827
44073,51843
44067,51865
44066,51868
44065,51881
44065,51891
44069,51898
44076,51904
44089,51908
44109,51911
44136,51914
44171,51916
44172,51916
44201,51919
44228,51921
44249,51924
44263,51926
44270,51927
44270,51927
44271,51933
44272,51948
44273,51969
44274,51995
44275,52025
44275,52027
44278,52122
44307,52122
44307,52122
44304,51929
44370,51927
44397,51927
44416,51926
44427,51925
44434,51923
44437,51920
44438,51915
44438,51915
44435,51902
44424,51888
44406,51873
44382,51859
44354,51846
44323,51835
44302,51830
44284,51826
44271,51822
44264,51818
44264,51818
44268,51814
44280,51809
44295,51803
44311,51798
44326,51794
44334,51793
44340,51795
44348,51799
44359,51807
44374,51819
44394,51836
44419,51860
44430,51870
44456,51895
44483,51919
44508,51942
44529,51962
44546,51976
44549,51979
44567,51996
44583,52013
44595,52029
44599,52034
44612,52058
44718,52058
44718,52054
44715,52035
44714,52034
44709,52020
44700,52002
44692,51988
44684,51974
44674,51952
44663,51926
44652,51898
44649,51888
44632,51843
44617,51807
44605,51780
44594,51762
44591,51758
44586,51750
44579,51735
44571,51716
44569,51710
44558,51685
44545,51658
44533,51634
44533,51634
44513,51596
44521,51556
44528,51505
44528,51450
44522,51387
44522,51386
44517,51352
44515,51326
44515,51306
44516,51296
44518,51293
44524,51296
44536,51304
44552,51315
44570,51327
44596,51345
44621,51358
44645,51368
44673,51376
44707,51384
44718,51386
44741,51390
44762,51395
44777,51399
44781,51400
44800,51407
44826,51414
44856,51421
44886,51426
44914,51430
44924,51431
44956,51433
44979,51436
44996,51438
45007,51440
45013,51443
45018,51448
45021,51454
45023,51458
45034,51474
45053,51486
45054,51487
45078,51497
45094,51502
45102,51501
45104,51497
45106,51491
45113,51489
45127,51488
45150,51488
45153,51488
45168,51488
45173,51485
45171,51478
45166,51473
45163,51468
45163,51465
45169,51462
45183,51459
45204,51456
45205,51456
45223,51452
45232,51448
45231,51443
45229,51441
45226,51435
45227,51432
45226,51429
45219,51426
45205,51425
45182,51424
45179,51424
45158,51423
45141,51422
45125,51419
45109,51415
45091,51408
45068,51398
45039,51384
45029,51379
44974,51354
44923,51335
44875,51319
44833,51309
44808,51303
44784,51297
44764,51290
44758,51288
44743,51283
44721,51276
44695,51268
44668,51261
44667,51261
44639,51253
44620,51247
44606,51242
44597,51236
44590,51230
44589,51228
44573,51207
44560,51181
44550,51155
44545,51134
44546,51111
44552,51090
44566,51068
44580,51051
44593,51036
44604,51022
44610,51013
44615,51003
44624,50988
44636,50968
44648,50948
44663,50922
44674,50903
44680,50888
44683,50877
44683,50867
44681,50857
44678,50850
44674,50845
44667,50839
44656,50834
44639,50829
44617,50823
44588,50816
44550,50808
44529,50803
44480,50794
44436,50786
44396,50781
44363,50779
44337,50779
Z" /> 
<path style="fill:#000000; fill-opacity:1.0; 
stroke:#000000; stroke-width:3.93701; stroke-opacity:1; 
stroke-linecap:round; stroke-linejoin:round;fill-rule:evenodd;"
d="M 25742,49223
25641,49242
25538,49279
25481,49304
25292,49416
25161,49556
25080,49738
25042,49974
25038,50028
25047,50318
25106,50562
25220,50776
25303,50881
25455,51031
25615,51134
25801,51197
26032,51227
26214,51233
26427,51232
26574,51219
26664,51182
26706,51110
26712,50991
26691,50813
26675,50703
26624,50390
26578,50145
26534,49963
26492,49835
26449,49753
26402,49711
26397,49709
26290,49684
26190,49699
26124,49747
26110,49791
26118,49862
26141,49984
26174,50135
26186,50183
26226,50367
26262,50557
26286,50715
26287,50729
26313,50957
26125,50929
25893,50877
25721,50793
25596,50665
25505,50483
25470,50377
25431,50154
25440,49943
25498,49768
25516,49737
25590,49666
25701,49598
25748,49578
25964,49532
26206,49553
26477,49641
26511,49656
26651,49716
26739,49745
26790,49742
26823,49707
26848,49658
26902,49587
26993,49563
27017,49562
27065,49562
27100,49567
27128,49588
27151,49636
27173,49720
27198,49850
27228,50037
27263,50254
27301,50488
27325,50658
27335,50774
27330,50848
27309,50891
27271,50915
27213,50931
27196,50935
27096,50969
27050,51023
27040,51067
27050,51156
27079,51205
27137,51222
27256,51238
27419,51251
27608,51261
27807,51267
28000,51268
28169,51263
28265,51256
28469,51216
28619,51134
28733,51000
28768,50937
28852,50783
28932,50660
28997,50583
29031,50562
29053,50597
29081,50688
29108,50817
29108,50822
29158,51023
29228,51158
29325,51232
29453,51254
29635,51218
29792,51114
29909,50953
29923,50924
29983,50713
29993,50580
29681,50580
29663,50727
29633,50832
29594,50889
29552,50890
29510,50829
29479,50722
29463,50608
29478,50534
29511,50488
29562,50389
29543,50298
29468,50237
29407,50184
29369,50079
29360,50026
29317,49844
29248,49731
29151,49681
29110,49678
29008,49699
28954,49769
28944,49893
28959,50002
28977,50113
28982,50189
28979,50206
28931,50206
28853,50165
28766,50099
28693,50024
28667,49985
28626,49846
28650,49728
28725,49637
28842,49579
28988,49560
29153,49584
29324,49658
29486,49794
29598,49984
29664,50233
29680,50400
29681,50580
29993,50580
30001,50464
29981,50203
29923,49955
29832,49747
29817,49723
29778,49654
29770,49620
29812,49611
29911,49598
30049,49584
30095,49580
30407,49553
30490,49987
30530,50211
30570,50454
30603,50679
30617,50784
30642,50953
30673,51092
30703,51181
30715,51201
30811,51248
30924,51243
31011,51194
31032,51171
31047,51145
31054,51105
31053,51041
31043,50945
31023,50807
30993,50616
30951,50363
30930,50235
30895,50032
30866,49855
30843,49718
30830,49636
30827,49620
30856,49597
30935,49593
31043,49604
31155,49631
31194,49644
31294,49708
31323,49798
31302,49889
31283,50009
31330,50090
31409,50126
31509,50116
31593,50047
31644,49935
31651,49875
31659,49819
31675,49831
31675,49831
31745,49944
31844,50012
31903,50024
31992,49990
32049,49909
32057,49809
32053,49797
32046,49704
32055,49665
32106,49615
32201,49570
32307,49542
32391,49542
32391,49542
32461,49560
32544,49579
32644,49635
32700,49732
32697,49843
32684,49874
32634,49922
32529,49991
32389,50070
32278,50125
32066,50234
31919,50333
31827,50432
31781,50543
31772,50678
31775,50727
31826,50918
31940,51069
32114,51176
32343,51238
32554,51254
32812,51231
33015,51163
33160,51053
33243,50901
33263,50762
33243,50607
33180,50515
33075,50485
32957,50514
32893,50593
32888,50697
32890,50806
32839,50877
32730,50916
32559,50928
32402,50921
32300,50898
32229,50854
32163,50780
32143,50711
32176,50642
32266,50565
32418,50475
32623,50373
32783,50294
32889,50233
32957,50176
33004,50111
33038,50040
33092,49847
33072,49671
32978,49505
32921,49442
32767,49328
32586,49257
32392,49228
32198,49237
32018,49282
31864,49361
31751,49470
31692,49608
31687,49670
31672,49682
31637,49634
31619,49601
31514,49473
31342,49370
31109,49294
30822,49245
30488,49226
30129,49236
29911,49255
29761,49278
29667,49309
29620,49350
29610,49394
29595,49438
29581,49438
29389,49346
29237,49287
29099,49257
28950,49246
28921,49245
28665,49265
28471,49330
28335,49442
28256,49601
28234,49730
28236,49905
28281,50052
28378,50186
28535,50320
28643,50395
28631,50426
28594,50468
28533,50547
28471,50649
28470,50652
28372,50810
28273,50893
28171,50901
28060,50837
28014,50793
27913,50711
27826,50679
27766,50701
27755,50724
27744,50705
27725,50625
27700,50500
27671,50344
27642,50174
27614,50005
27592,49851
27576,49728
27571,49652
27571,49651
27585,49593
27641,49565
27716,49555
27814,49538
27860,49498
27873,49449
27872,49376
27840,49323
27767,49288
27643,49266
27460,49256
27272,49254
27072,49255
26936,49259
26851,49269
26804,49285
26782,49310
26776,49328
26761,49369
26731,49380
26668,49360
26577,49320
26416,49267
26207,49235
26046,49224
25869,49218
25742,49223
Z" /> 
<path style="fill:#000000; fill-opacity:1.0; 
stroke:#000000; stroke-width:3.93701; stroke-opacity:1; 
stroke-linecap:round; stroke-linejoin:round;fill-rule:evenodd;"
d="M 23764,49240
23591,49295
23466,49391
23386,49482
23350,49572
23341,49697
23341,49706
23362,49872
23428,49976
23541,50021
23583,50024
23668,50003
23709,49928
23709,49928
23719,49830
23710,49771
23708,49690
23727,49636
23796,49580
23909,49556
24041,49564
24166,49602
24246,49657
24311,49737
24340,49806
24341,49810
24305,49901
24210,49979
24074,50031
24039,50038
23937,50059
23891,50093
23879,50158
23879,50177
23910,50287
24002,50352
24128,50370
24282,50393
24413,50456
24508,50545
24552,50648
24534,50753
24452,50830
24310,50881
24123,50905
23903,50901
23665,50869
23497,50830
23322,50785
23207,50771
23142,50789
23116,50842
23117,50918
23142,51013
23209,51079
23266,51110
23469,51182
23718,51229
23988,51251
24251,51245
24481,51209
24533,51194
24736,51104
24870,50983
24942,50825
24956,50689
24931,50555
24867,50421
24778,50306
24679,50233
24619,50217
24578,50205
24585,50162
24644,50077
24648,50073
24707,49944
24724,49784
24696,49623
24681,49585
24588,49464
24437,49361
24248,49284
24037,49239
23825,49233
23764,49240
Z" /> 
<path style="fill:#000000; fill-opacity:1.0; 
stroke:#000000; stroke-width:3.93701; stroke-opacity:1; 
stroke-linecap:round; stroke-linejoin:round;fill-rule:evenodd;"
d="M 40493,46925
40480,46930
40460,46940
40432,46955
40430,46957
40404,46971
40383,46984
40367,46994
40360,46999
40360,47000
40361,47007
40369,47024
40383,47049
40402,47081
40426,47120
40455,47164
40462,47175
40480,47205
40493,47231
40500,47250
40501,47254
40501,47271
40497,47298
40490,47333
40482,47374
40471,47420
40458,47469
40445,47519
40431,47569
40416,47617
40403,47661
40390,47700
40378,47731
40369,47750
40360,47769
40350,47788
40350,47789
40335,47808
40312,47821
40287,47827
40260,47826
40237,47818
40224,47806
40205,47775
40192,47737
40184,47694
40183,47670
40187,47625
40200,47588
40222,47557
40228,47550
40248,47531
40250,47393
40251,47255
40216,47202
40200,47178
40184,47156
40171,47140
40165,47134
40149,47120
40128,47131
40114,47139
40107,47146
40107,47147
40102,47152
40093,47155
40084,47159
40072,47165
40053,47175
40028,47189
39996,47207
39954,47232
39931,47245
39905,47261
39887,47272
39878,47280
39874,47286
39874,47291
39875,47293
39881,47301
39894,47316
39913,47336
39935,47361
39955,47381
39999,47430
40034,47472
40060,47508
40077,47538
40082,47554
40084,47567
40087,47590
40089,47620
40091,47655
40092,47676
40093,47714
40094,47741
40093,47761
40092,47774
40089,47784
40086,47792
40083,47797
40065,47816
40043,47830
40019,47835
40001,47833
39985,47824
39965,47808
39944,47787
39924,47765
39908,47744
39903,47734
39894,47720
39879,47699
39858,47673
39833,47642
39805,47609
39776,47576
39746,47543
39719,47513
39694,47488
39675,47469
39654,47450
39635,47436
39623,47429
39619,47428
39612,47431
39596,47440
39571,47454
39539,47473
39499,47495
39454,47521
39404,47550
39349,47581
39292,47614
39232,47648
39171,47683
39110,47719
39049,47754
38990,47788
38933,47821
38880,47851
38830,47880
38786,47905
38748,47928
38718,47946
38695,47959
38681,47967
38677,47970
38682,47970
38699,47971
38728,47971
38766,47972
38815,47972
38873,47973
38939,47973
39014,47974
39097,47974
39186,47974
39282,47974
39385,47975
39492,47975
39604,47975
39721,47975
39841,47975
39892,47975
41112,47975
41025,47824
41007,47792
40983,47751
40955,47702
40923,47647
40888,47586
40851,47522
40813,47456
40774,47388
40735,47321
40726,47304
40690,47243
40656,47184
40624,47129
40595,47079
40569,47035
40547,46997
40529,46966
40516,46944
40508,46930
40505,46927
40501,46924
40493,46925
Z" /> 
<path style="fill:#000000; fill-opacity:1.0; 
stroke:#000000; stroke-width:3.93701; stroke-opacity:1; 
stroke-linecap:round; stroke-linejoin:round;fill-rule:evenodd;"
d="M 39050,46903
39045,46910
39035,46928
39020,46954
39000,46988
38976,47029
38949,47076
38918,47129
38885,47187
38850,47248
38814,47311
38777,47375
38741,47436
38708,47495
38676,47548
38648,47597
38624,47639
38603,47675
38588,47702
38577,47721
38572,47730
38563,47745
38559,47754
38559,47755
38564,47752
38579,47744
38604,47730
38636,47711
38676,47688
38722,47662
38774,47632
38831,47599
38892,47563
38957,47526
38982,47512
39047,47474
39110,47437
39169,47403
39223,47372
39272,47344
39315,47319
39351,47299
39378,47283
39397,47272
39407,47267
39408,47266
39405,47261
39395,47249
39378,47230
39357,47206
39331,47177
39302,47145
39271,47111
39239,47076
39206,47041
39175,47008
39147,46977
39121,46950
39099,46928
39083,46911
39077,46906
39059,46889
39050,46903
Z" /> 
<path style="fill:#000000; fill-opacity:1.0; 
stroke:#000000; stroke-width:3.93701; stroke-opacity:1; 
stroke-linecap:round; stroke-linejoin:round;fill-rule:evenodd;"
d="M 39768,45663
39759,45678
39745,45701
39726,45732
39704,45770
39679,45813
39651,45861
39621,45912
39590,45966
39558,46022
39525,46079
39493,46135
39461,46190
39431,46242
39403,46291
39378,46336
39355,46376
39336,46409
39322,46435
39312,46453
39308,46461
39308,46462
39313,46469
39328,46480
39350,46493
39379,46509
39408,46523
39448,46541
39491,46557
39537,46572
39588,46585
39645,46598
39711,46610
39785,46622
39863,46633
39930,46644
39986,46654
40033,46664
40072,46675
40105,46688
40133,46702
40156,46719
40178,46739
40185,46747
40200,46764
40211,46778
40216,46786
40216,46787
40218,46791
40224,46791
40236,46786
40255,46776
40283,46761
40302,46750
40330,46732
40352,46717
40366,46706
40371,46699
40371,46699
40368,46693
40359,46677
40346,46652
40327,46619
40305,46580
40279,46534
40250,46483
40218,46428
40184,46369
40149,46307
40113,46244
40076,46180
40039,46116
40002,46053
39967,45991
39933,45932
39900,45877
39871,45825
39844,45779
39820,45739
39801,45707
39786,45681
39776,45665
39771,45658
39771,45658
39768,45663
Z" /> 
</g>
<g style="fill:#000000; fill-opacity:1.0; 
stroke:#000000; stroke-width:59.0551; stroke-opacity:1; 
stroke-linecap:round; stroke-linejoin:round;">
</g>
<g style="fill:#000000; fill-opacity:0.0; 
stroke:#000000; stroke-width:59.0551; stroke-opacity:1; 
stroke-linecap:round; stroke-linejoin:round;">
<path d="M53848 52086
L55974 52086
" />
<path d="M55974 52125
L53848 52125
" />
<path d="M53848 52165
L55974 52165
" />
<path d="M55974 52204
L53848 52204
" />
<path d="M53848 52244
L55974 52244
" />
<path d="M55974 52283
L53848 52283
" />
<path d="M53848 52322
L55974 52322
" />
<path d="M55974 52362
L53848 52362
" />
<path d="M53848 52401
L55974 52401
" />
<path d="M55974 52440
L53848 52440
" />
<path d="M53848 52480
L55974 52480
" />
<path d="M55974 52519
L53848 52519
" />
<path d="M53848 52559
L55974 52559
" />
<path d="M55974 52598
L53848 52598
" />
<path d="M53848 52637
L55974 52637
" />
<path d="M55974 52677
L53848 52677
" />
<path d="M53848 52716
L55974 52716
" />
<path d="M55974 52755
L53848 52755
" />
<path d="M53848 52795
L55974 52795
" />
<path d="M55974 52834
L53848 52834
" />
<path d="M53848 52874
L55974 52874
" />
<path d="M55974 52913
L53848 52913
" />
<path d="M53848 52952
L55974 52952
" />
<path d="M55974 52992
L53848 52992
" />
<path d="M53848 53031
L55974 53031
" />
<path d="M55974 53070
L53848 53070
" />
<path d="M53848 53110
L55974 53110
" />
<path d="M55974 53149
L53848 53149
" />
<path d="M53848 53188
L55974 53188
" />
<path d="M55974 53228
L53848 53228
" />
<path d="M53848 53267
L55974 53267
" />
<path d="M53828 53267
L53828 52086
" />
<path d="M55994 53267
L55994 52086
" />
</g>
<g style="fill:#000000; fill-opacity:1.0; 
stroke:#000000; stroke-width:3.93701; stroke-opacity:1; 
stroke-linecap:round; stroke-linejoin:round;">
<path style="fill:#000000; fill-opacity:1.0; 
stroke:#000000; stroke-width:3.93701; stroke-opacity:1; 
stroke-linecap:round; stroke-linejoin:round;fill-rule:evenodd;"
d="M 52284,56721
52268,56776
52267,56784
52268,56820
52289,56852
52337,56888
52422,56938
52423,56939
52587,57030
52587,57162
52597,57270
52627,57333
52677,57350
52743,57326
52766,57304
52779,57262
52786,57191
52787,57103
52787,56905
52571,56788
52453,56728
52370,56697
52316,56694
52284,56721
Z" /> 
<path style="fill:#000000; fill-opacity:1.0; 
stroke:#000000; stroke-width:3.93701; stroke-opacity:1; 
stroke-linecap:round; stroke-linejoin:round;fill-rule:evenodd;"
d="M 51710,56689
51655,56710
51569,56752
51542,56766
51452,56816
51376,56860
51328,56892
51320,56898
51299,56946
51288,57025
51286,57119
51293,57211
51309,57283
51326,57314
51385,57350
51441,57337
51457,57323
51474,57282
51485,57211
51487,57162
51487,57030
51649,56939
51752,56873
51806,56813
51814,56757
51776,56704
51771,56700
51746,56687
51710,56689
Z" /> 
<path style="fill:#000000; fill-opacity:1.0; 
stroke:#000000; stroke-width:3.93701; stroke-opacity:1; 
stroke-linecap:round; stroke-linejoin:round;fill-rule:evenodd;"
d="M 52011,54390
51940,54420
51835,54469
51701,54532
51544,54607
51369,54691
51182,54783
50987,54878
50790,54976
50596,55072
50411,55165
50239,55252
50088,55330
49960,55396
49863,55448
49800,55484
49781,55497
49759,55525
49746,55571
49739,55645
49737,55758
49737,55763
49736,55873
49731,55944
49720,55987
49701,56012
49687,56022
49661,56045
49646,56081
49639,56143
49637,56242
49637,56248
49642,56370
49658,56449
49687,56491
49728,56503
49784,56480
49821,56415
49837,56312
49837,56290
49840,56208
49853,56163
49880,56143
49882,56142
49956,56109
50034,56061
50103,56008
50149,55959
50162,55929
50140,55877
50088,55843
50023,55838
50011,55841
49975,55843
49962,55811
49962,55792
49964,55778
49971,55769
49988,55767
50018,55774
50066,55792
50136,55822
50230,55866
50353,55925
50510,56002
50702,56098
50936,56215
50949,56221
51937,56715
51937,56946
51938,57056
51943,57128
51954,57170
51972,57193
51985,57202
52034,57224
52065,57218
52098,57189
52118,57153
52131,57092
52136,56996
52137,56932
52137,56715
53124,56221
53360,56104
53555,56007
53713,55929
53838,55868
53934,55824
54004,55793
54053,55775
54085,55767
54102,55768
54110,55777
54112,55791
54112,55792
54105,55837
54077,55845
54063,55841
53998,55840
53942,55869
53913,55919
53912,55929
53932,55968
53985,56020
54056,56073
54134,56118
54191,56142
54219,56161
54233,56203
54237,56282
54237,56290
54249,56399
54282,56472
54335,56502
54346,56503
54390,56489
54418,56445
54433,56363
54437,56248
54436,56149
54429,56087
54415,56049
54389,56023
54375,56014
54347,55991
54328,55963
54317,55917
54311,55842
54307,55732
54302,55565
53987,55565
53031,56045
52827,56147
52637,56241
52464,56326
52315,56398
52192,56457
52102,56499
52049,56521
52037,56525
52007,56514
51938,56483
51833,56434
51699,56369
51538,56291
51357,56202
51161,56104
51037,56042
50075,55559
52024,54584
53006,55075
53987,55565
54302,55565
54299,55490
53199,54935
52980,54825
52774,54723
52584,54629
52415,54548
52272,54479
52160,54427
52083,54393
52045,54379
52043,54379
52011,54390
Z" /> 
<path style="fill:#000000; fill-opacity:1.0; 
stroke:#000000; stroke-width:3.93701; stroke-opacity:1; 
stroke-linecap:round; stroke-linejoin:round;fill-rule:evenodd;"
d="M 52735,56499
52706,56550
52711,56596
52754,56644
52839,56699
52886,56725
53037,56806
53037,56937
53047,57040
53076,57106
53120,57129
53176,57108
53198,57089
53222,57043
53234,56963
53237,56880
53236,56796
53227,56736
53203,56689
53157,56647
53082,56601
52970,56540
52966,56538
52783,56440
52735,56499
Z" /> 
<path style="fill:#000000; fill-opacity:1.0; 
stroke:#000000; stroke-width:3.93701; stroke-opacity:1; 
stroke-linecap:round; stroke-linejoin:round;fill-rule:evenodd;"
d="M 51106,56539
50993,56600
50917,56647
50871,56689
50847,56735
50838,56796
50837,56879
50837,56880
50846,57005
50873,57086
50920,57123
50988,57118
51006,57111
51026,57078
51036,57000
51037,56952
51037,56806
51188,56725
51295,56662
51356,56608
51375,56559
51354,56510
51340,56494
51287,56442
51106,56539
Z" /> 
<path style="fill:#000000; fill-opacity:1.0; 
stroke:#000000; stroke-width:3.93701; stroke-opacity:1; 
stroke-linecap:round; stroke-linejoin:round;fill-rule:evenodd;"
d="M 53169,56273
53134,56307
53122,56334
53130,56390
53184,56451
53283,56514
53341,56542
53397,56570
53425,56600
53436,56648
53437,56717
53448,56819
53478,56890
53522,56926
53572,56921
53623,56872
53647,56810
53660,56720
53661,56622
53650,56538
53637,56504
53605,56471
53540,56424
53455,56372
53424,56354
53308,56296
53225,56269
53169,56273
Z" /> 
<path style="fill:#000000; fill-opacity:1.0; 
stroke:#000000; stroke-width:3.93701; stroke-opacity:1; 
stroke-linecap:round; stroke-linejoin:round;fill-rule:evenodd;"
d="M 50810,56279
50711,56322
50650,56354
50561,56407
50488,56456
50443,56495
50436,56504
50418,56571
50412,56663
50418,56760
50436,56841
50451,56872
50503,56920
50557,56919
50598,56889
50626,56828
50637,56724
50637,56717
50639,56640
50651,56595
50683,56567
50733,56542
50851,56479
50925,56417
50954,56359
50951,56334
50924,56285
50879,56267
50810,56279
Z" /> 
<path style="fill:#000000; fill-opacity:1.0; 
stroke:#000000; stroke-width:3.93701; stroke-opacity:1; 
stroke-linecap:round; stroke-linejoin:round;fill-rule:evenodd;"
d="M 53597,56048
53588,56052
53546,56099
53537,56139
53546,56177
53580,56214
53647,56259
53699,56289
53862,56380
53862,56512
53871,56617
53900,56679
53951,56702
53962,56703
54014,56686
54032,56673
54048,56631
54059,56549
54062,56449
54062,56255
53850,56140
53748,56086
53678,56055
53631,56043
53597,56048
Z" /> 
<path style="fill:#000000; fill-opacity:1.0; 
stroke:#000000; stroke-width:3.93701; stroke-opacity:1; 
stroke-linecap:round; stroke-linejoin:round;fill-rule:evenodd;"
d="M 50413,56049
50351,56074
50260,56121
50223,56140
50012,56255
50012,56449
50016,56569
50032,56646
50060,56689
50105,56703
50112,56703
50164,56686
50182,56673
50199,56632
50210,56561
50212,56512
50212,56380
50374,56289
50462,56237
50513,56196
50534,56159
50537,56139
50516,56079
50486,56052
50454,56043
50413,56049
Z" /> 
<path style="fill:#000000; fill-opacity:1.0; 
stroke:#000000; stroke-width:3.93701; stroke-opacity:1; 
stroke-linecap:round; stroke-linejoin:round;fill-rule:evenodd;"
d="M 51444,55187
50850,55483
51036,55579
51530,55331
52024,55084
52512,55330
52656,55401
52785,55465
52893,55517
52973,55554
53018,55574
53024,55575
53061,55565
53120,55538
53136,55530
53223,55483
52630,55187
52037,54891
51444,55187
Z" /> 
<path style="fill:#000000; fill-opacity:1.0; 
stroke:#000000; stroke-width:3.93701; stroke-opacity:1; 
stroke-linecap:round; stroke-linejoin:round;fill-rule:evenodd;"
d="M 57376,49556
57384,49528
57398,49484
57415,49427
57435,49357
57458,49277
57483,49190
57500,49131
57527,49037
57552,48948
57576,48864
57598,48790
57616,48727
57631,48678
57640,48645
57643,48635
57655,48598
57669,48548
57684,48493
57693,48459
57715,48379
57741,48292
57772,48194
57809,48080
57814,48068
57830,48017
57847,47959
57859,47914
57871,47871
57883,47833
57892,47805
57892,47804
57898,47789
57904,47778
57911,47770
57922,47767
57938,47768
57960,47776
57990,47790
58031,47811
58083,47840
58148,47877
58229,47923
58320,47976
58401,48022
58476,48065
58543,48103
58601,48135
58648,48161
58681,48178
58699,48187
58702,48188
58703,48179
58702,48159
58700,48124
58697,48075
58692,48009
58685,47924
58678,47848
58673,47785
58670,47721
58668,47662
58669,47616
58669,47609
58669,47562
58667,47503
58662,47435
58655,47365
58647,47298
58639,47241
58630,47198
58630,47198
58624,47165
58621,47121
58621,47080
58621,47033
58618,46988
58614,46956
58608,46918
58603,46872
58600,46838
58596,46796
58589,46743
58581,46687
58577,46665
58570,46620
58566,46582
58565,46556
58566,46548
58568,46533
58566,46502
58561,46461
58557,46432
58549,46379
58542,46326
58537,46281
58536,46266
58533,46226
58527,46174
58521,46121
58520,46106
58514,46053
58508,45988
58502,45923
58499,45890
58495,45833
58490,45776
58486,45726
58484,45701
58479,45643
58474,45589
58469,45529
58463,45458
58462,45435
58457,45385
58452,45331
58446,45278
58441,45229
58435,45189
58431,45162
58429,45152
58425,45160
58417,45186
58406,45225
58392,45274
58382,45308
58335,45480
58434,45538
58436,45535
58438,45538
58438,45546
58438,45563
58436,45588
58433,45624
58429,45671
58423,45731
58416,45805
58407,45894
58397,46000
58385,46123
58370,46266
58365,46318
58353,46436
58341,46552
58330,46664
58319,46770
58310,46866
58301,46951
58294,47022
58288,47077
58285,47107
58278,47174
58271,47244
58264,47310
58259,47364
58258,47372
58253,47417
58248,47452
58244,47475
58242,47480
58235,47472
58220,47448
58198,47410
58170,47361
58138,47304
58110,47254
57984,47026
58202,46300
58238,46181
58273,46067
58305,45960
58335,45861
58361,45773
58385,45697
58404,45634
58418,45586
58428,45556
58432,45544
58434,45538
58335,45480
58324,45520
58264,45743
58213,45932
58194,45999
58175,46071
58156,46141
58140,46200
58137,46210
58120,46269
58101,46339
58082,46411
58066,46468
58052,46518
58039,46561
58029,46592
58022,46608
58021,46609
58015,46619
58008,46643
58007,46650
57998,46697
57988,46746
57977,46790
57967,46826
57959,46848
57958,46850
57953,46859
57946,46865
57937,46868
57924,46867
57905,46861
57878,46849
57843,46831
57796,46806
57737,46773
57665,46731
57576,46680
57529,46653
57142,46430
57142,46462
57142,46489
57145,46528
57147,46559
57259,46623
57261,46622
57264,46624
57270,46632
57279,46648
57294,46674
57315,46712
57344,46764
57372,46814
57401,46867
57431,46922
57459,46970
57477,47003
57518,47074
57518,47081
57527,47086
57883,47291
58238,47495
58314,47607
58343,47651
58369,47692
58388,47724
58398,47744
58398,47745
58413,47773
58427,47789
58441,47804
58462,47833
58489,47871
58514,47909
58581,48012
58226,47810
57870,47608
57699,47347
57527,47086
57518,47081
57458,48085
57449,48228
57441,48364
57433,48493
57426,48613
57419,48722
57413,48820
57407,48904
57402,48974
57398,49027
57396,49064
57394,49081
57394,49082
57392,49069
57390,49037
57387,48990
57383,48928
57379,48856
57374,48775
57369,48690
57361,48531
57353,48391
57346,48267
57340,48157
57335,48057
57330,47966
57325,47880
57321,47798
57318,47742
57314,47670
57309,47596
57306,47525
57302,47464
57301,47435
57290,47235
57281,47056
57272,46896
57266,46806
57263,46747
57261,46696
57259,46656
57259,46631
57259,46623
57147,46559
57148,46572
57149,46578
57152,46611
57156,46661
57161,46726
57167,46802
57173,46885
57180,46972
57186,47060
57193,47146
57198,47226
57204,47297
57207,47345
57211,47402
57216,47469
57221,47538
57224,47577
57228,47627
57233,47692
57238,47767
57244,47846
57249,47924
57250,47935
57255,48012
57261,48092
57267,48168
57271,48234
57275,48287
57276,48293
57280,48342
57285,48409
57291,48493
57298,48590
57306,48699
57314,48817
57323,48942
57332,49071
57342,49203
57350,49326
57355,49394
57360,49455
57364,49505
57368,49542
57371,49563
57372,49566
57376,49556
Z" /> 
</g>
<g style="fill:#000000; fill-opacity:0.0; 
stroke:#000000; stroke-width:3.93701; stroke-opacity:1; 
stroke-linecap:round; stroke-linejoin:round;">
</g>
<g style="fill:#000000; fill-opacity:0.0; 
stroke:#000000; stroke-width:59.0551; stroke-opacity:1; 
stroke-linecap:round; stroke-linejoin:round;">
<path d="M20242 46962
L20242 47150
" />
<path d="M20355 46925
L19961 47056
L20355 47187
" />
<path d="M20355 47525
L20355 47300
" />
<path d="M20355 47412
L19961 47412
L20017 47375
L20055 47337
L20074 47300
" />
<path d="M50670 54148
L50689 54167
L50745 54185
L50783 54185
L50839 54167
L50877 54129
L50895 54092
L50914 54017
L50914 53961
L50895 53886
L50877 53848
L50839 53811
L50783 53792
L50745 53792
L50689 53811
L50670 53829
" />
<path d="M50295 54185
L50520 54185
" />
<path d="M50408 54185
L50408 53792
L50445 53848
L50483 53886
L50520 53904
" />
<path d="M50769 50605
L50788 50623
L50844 50642
L50881 50642
L50938 50623
L50975 50586
L50994 50548
L51013 50473
L51013 50417
L50994 50342
L50975 50305
L50938 50267
L50881 50248
L50844 50248
L50788 50267
L50769 50286
" />
<path d="M50619 50286
L50600 50267
L50563 50248
L50469 50248
L50431 50267
L50413 50286
L50394 50323
L50394 50361
L50413 50417
L50638 50642
L50394 50642
" />
<path d="M50670 52109
L50689 52127
L50745 52146
L50783 52146
L50839 52127
L50877 52090
L50895 52052
L50914 51977
L50914 51921
L50895 51846
L50877 51809
L50839 51771
L50783 51752
L50745 51752
L50689 51771
L50670 51790
" />
<path d="M50539 51752
L50295 51752
L50427 51902
L50370 51902
L50333 51921
L50314 51940
L50295 51977
L50295 52071
L50314 52109
L50333 52127
L50370 52146
L50483 52146
L50520 52127
L50539 52109
" />
<path d="M51837 49156
L51856 49175
L51912 49193
L51949 49193
L52005 49175
L52043 49137
L52062 49100
L52080 49025
L52080 48968
L52062 48893
L52043 48856
L52005 48818
L51949 48800
L51912 48800
L51856 48818
L51837 48837
" />
<path d="M51499 48931
L51499 49193
" />
<path d="M51593 48781
L51687 49062
L51443 49062
" />
<path d="M51837 48368
L51856 48387
L51912 48406
L51949 48406
L52005 48387
L52043 48350
L52062 48312
L52080 48237
L52080 48181
L52062 48106
L52043 48068
L52005 48031
L51949 48012
L51912 48012
L51856 48031
L51837 48050
" />
<path d="M51481 48012
L51668 48012
L51687 48200
L51668 48181
L51631 48162
L51537 48162
L51499 48181
L51481 48200
L51462 48237
L51462 48331
L51481 48368
L51499 48387
L51537 48406
L51631 48406
L51668 48387
L51687 48368
" />
<path d="M21952 58258
L21952 58540
L21970 58596
L22008 58633
L22064 58652
L22102 58652
" />
<path d="M21558 58652
L21783 58652
" />
<path d="M21670 58652
L21670 58258
L21708 58315
L21745 58352
L21783 58371
" />
<path d="M25318 58386
L25318 58667
L25336 58724
L25374 58761
L25430 58780
L25468 58780
" />
<path d="M25149 58424
L25130 58405
L25093 58386
L24999 58386
L24962 58405
L24943 58424
L24924 58461
L24924 58499
L24943 58555
L25168 58780
L24924 58780
" />
<path d="M45159 46115
L45290 45927
" />
<path d="M45384 46115
L45384 45721
L45234 45721
L45196 45740
L45177 45758
L45159 45796
L45159 45852
L45177 45890
L45196 45908
L45234 45927
L45384 45927
" />
<path d="M44784 46115
L45009 46115
" />
<path d="M44896 46115
L44896 45721
L44934 45777
L44971 45815
L45009 45833
" />
<path d="M45129 48378
L45260 48191
" />
<path d="M45354 48378
L45354 47985
L45204 47985
L45167 48003
L45148 48022
L45129 48060
L45129 48116
L45148 48153
L45167 48172
L45204 48191
L45354 48191
" />
<path d="M44998 47985
L44754 47985
L44885 48135
L44829 48135
L44792 48153
L44773 48172
L44754 48210
L44754 48303
L44773 48341
L44792 48360
L44829 48378
L44942 48378
L44979 48360
L44998 48341
" />
<path d="M42875 48396
L43006 48209
" />
<path d="M43100 48396
L43100 48002
L42950 48002
L42913 48021
L42894 48040
L42875 48077
L42875 48134
L42894 48171
L42913 48190
L42950 48209
L43100 48209
" />
<path d="M42538 48134
L42538 48396
" />
<path d="M42631 47984
L42725 48265
L42481 48265
" />
<path d="M45129 49461
L45260 49274
" />
<path d="M45354 49461
L45354 49067
L45204 49067
L45167 49086
L45148 49105
L45129 49142
L45129 49199
L45148 49236
L45167 49255
L45204 49274
L45354 49274
" />
<path d="M44773 49067
L44960 49067
L44979 49255
L44960 49236
L44923 49217
L44829 49217
L44792 49236
L44773 49255
L44754 49292
L44754 49386
L44773 49424
L44792 49442
L44829 49461
L44923 49461
L44960 49442
L44979 49424
" />
<path d="M51837 47225
L51968 47037
" />
<path d="M52062 47225
L52062 46831
L51912 46831
L51874 46850
L51856 46869
L51837 46906
L51837 46962
L51856 47000
L51874 47019
L51912 47037
L52062 47037
" />
<path d="M51499 46831
L51574 46831
L51612 46850
L51631 46869
L51668 46925
L51687 47000
L51687 47150
L51668 47187
L51649 47206
L51612 47225
L51537 47225
L51499 47206
L51481 47187
L51462 47150
L51462 47056
L51481 47019
L51499 47000
L51537 46981
L51612 46981
L51649 47000
L51668 47019
L51687 47056
" />
<path d="M45129 47270
L45260 47083
" />
<path d="M45354 47270
L45354 46876
L45204 46876
L45167 46895
L45148 46914
L45129 46951
L45129 47008
L45148 47045
L45167 47064
L45204 47083
L45354 47083
" />
<path d="M44998 46876
L44735 46876
L44904 47270
" />
<path d="M42865 47323
L42997 47136
" />
<path d="M43090 47323
L43090 46930
L42940 46930
L42903 46948
L42884 46967
L42865 47005
L42865 47061
L42884 47098
L42903 47117
L42940 47136
L43090 47136
" />
<path d="M42640 47098
L42678 47080
L42697 47061
L42715 47023
L42715 47005
L42697 46967
L42678 46948
L42640 46930
L42565 46930
L42528 46948
L42509 46967
L42490 47005
L42490 47023
L42509 47061
L42528 47080
L42565 47098
L42640 47098
L42678 47117
L42697 47136
L42715 47173
L42715 47248
L42697 47286
L42678 47305
L42640 47323
L42565 47323
L42528 47305
L42509 47286
L42490 47248
L42490 47173
L42509 47136
L42528 47117
L42565 47098
" />
<path d="M46855 47323
L46855 47642
L46836 47679
L46817 47698
L46780 47717
L46705 47717
L46667 47698
L46648 47679
L46630 47642
L46630 47323
" />
<path d="M46461 47361
L46442 47342
L46405 47323
L46311 47323
L46273 47342
L46255 47361
L46236 47398
L46236 47436
L46255 47492
L46480 47717
L46236 47717
" />
<path d="M46756 51063
L46756 51382
L46737 51420
L46719 51438
L46681 51457
L46606 51457
L46569 51438
L46550 51420
L46531 51382
L46531 51063
" />
<path d="M46381 51063
L46137 51063
L46269 51213
L46212 51213
L46175 51232
L46156 51251
L46137 51288
L46137 51382
L46156 51420
L46175 51438
L46212 51457
L46325 51457
L46362 51438
L46381 51420
" />
<path d="M39126 48987
L39070 49006
L39051 49025
L39032 49062
L39032 49118
L39051 49156
L39070 49175
L39107 49193
L39257 49193
L39257 48800
L39126 48800
L39088 48818
L39070 48837
L39051 48875
L39051 48912
L39070 48950
L39088 48968
L39126 48987
L39257 48987
" />
<path d="M38901 48800
L38638 48800
L38901 49193
L38638 49193
" />
<path d="M38282 49193
L38507 49193
" />
<path d="M38395 49193
L38395 48800
L38432 48856
L38470 48893
L38507 48912
" />
<path d="M39421 52213
L39121 52213
" />
<path d="M39271 52363
L39271 52063
" />
<path d="M33290 58455
L33290 58736
L33309 58793
L33346 58830
L33403 58849
L33440 58849
" />
<path d="M32934 58586
L32934 58849
" />
<path d="M33028 58436
L33121 58718
L32878 58718
" />
<path d="M28772 58396
L28772 58677
L28791 58734
L28829 58771
L28885 58790
L28922 58790
" />
<path d="M28622 58396
L28379 58396
L28510 58546
L28454 58546
L28416 58565
L28398 58584
L28379 58621
L28379 58715
L28398 58752
L28416 58771
L28454 58790
L28566 58790
L28604 58771
L28622 58752
" />
<path d="M40072 58426
L40072 58707
L40090 58763
L40128 58801
L40184 58819
L40222 58819
" />
<path d="M39697 58426
L39884 58426
L39903 58613
L39884 58594
L39847 58576
L39753 58576
L39715 58594
L39697 58613
L39678 58651
L39678 58744
L39697 58782
L39715 58801
L39753 58819
L39847 58819
L39884 58801
L39903 58782
" />
<path d="M48006 47371
L48137 47183
" />
<path d="M48231 47371
L48231 46977
L48081 46977
L48044 46996
L48025 47014
L48006 47052
L48006 47108
L48025 47146
L48044 47164
L48081 47183
L48231 47183
" />
<path d="M47856 47014
L47837 46996
L47800 46977
L47706 46977
L47669 46996
L47650 47014
L47631 47052
L47631 47089
L47650 47146
L47875 47371
L47631 47371
" />
<path d="M41516 45631
L41329 45500
" />
<path d="M41516 45406
L41122 45406
L41122 45556
L41141 45594
L41160 45613
L41197 45631
L41254 45631
L41291 45613
L41310 45594
L41329 45556
L41329 45406
" />
<path d="M41122 45744
L41516 45875
L41122 46006
" />
<path d="M41516 46344
L41516 46119
" />
<path d="M41516 46231
L41122 46231
L41179 46194
L41216 46156
L41235 46119
" />
<g >
</g>
</g> 
</svg>
