<?xml version="1.0" standalone="no"?>
 <!DOCTYPE svg PUBLIC "-//W3C//DTD SVG 1.1//EN" 
 "http://www.w3.org/Graphics/SVG/1.1/DTD/svg11.dtd"> 
<svg xmlns="http://www.w3.org/2000/svg" version="1.1" 
    width="29.7002cm" height="21.0007cm" viewBox="0 0 116930 82680 ">
<title>SVG Picture created as Striduino-F_Mask.svg date 2019/11/24 23:38:58 </title>
  <desc>Picture generated by PCBNEW </desc>
<g style="fill:#000000; fill-opacity:1;stroke:#000000; stroke-opacity:1;
stroke-linecap:round; stroke-linejoin:round; "
 transform="translate(0 0) scale(1 1)">
</g>
<g style="fill:#000000; fill-opacity:0.0; 
stroke:#000000; stroke-width:-0.000393701; stroke-opacity:1; 
stroke-linecap:round; stroke-linejoin:round;">
</g>
<g style="fill:#000000; fill-opacity:1.0; 
stroke:#000000; stroke-width:0; stroke-opacity:1; 
stroke-linecap:round; stroke-linejoin:round;">
<path style="fill:#000000; fill-opacity:1.0; 
stroke:#000000; stroke-width:0; stroke-opacity:1; 
stroke-linecap:round; stroke-linejoin:round;fill-rule:evenodd;"
d="M 50467,57404
50574,57448
50671,57513
50753,57595
50818,57692
50862,57800
50885,57914
50885,58030
50862,58144
50818,58252
50753,58349
50671,58431
50574,58496
50467,58540
50352,58563
50236,58563
50122,58540
50014,58496
49918,58431
49835,58349
49771,58252
49726,58144
49703,58030
49703,57914
49726,57800
49771,57692
49835,57595
49918,57513
50014,57448
50122,57404
50236,57381
50352,57381
50467,57404
Z" /> 
<path style="fill:#000000; fill-opacity:1.0; 
stroke:#000000; stroke-width:0; stroke-opacity:1; 
stroke-linecap:round; stroke-linejoin:round;fill-rule:evenodd;"
d="M 20940,57404
21047,57448
21144,57513
21226,57595
21291,57692
21335,57800
21358,57914
21358,58030
21335,58144
21291,58252
21226,58349
21144,58431
21047,58496
20940,58540
20825,58563
20709,58563
20595,58540
20487,58496
20391,58431
20308,58349
20244,58252
20199,58144
20176,58030
20176,57914
20199,57800
20244,57692
20308,57595
20391,57513
20487,57448
20595,57404
20709,57381
20825,57381
20940,57404
Z" /> 
<path style="fill:#000000; fill-opacity:1.0; 
stroke:#000000; stroke-width:0; stroke-opacity:1; 
stroke-linecap:round; stroke-linejoin:round;fill-rule:evenodd;"
d="M 46413,58531
45743,58531
45743,57861
46413,57861
46413,58531
Z" /> 
<path style="fill:#000000; fill-opacity:1.0; 
stroke:#000000; stroke-width:0; stroke-opacity:1; 
stroke-linecap:round; stroke-linejoin:round;fill-rule:evenodd;"
d="M 45413,58531
44743,58531
44743,57861
45413,57861
45413,58531
Z" /> 
<path style="fill:#000000; fill-opacity:1.0; 
stroke:#000000; stroke-width:0; stroke-opacity:1; 
stroke-linecap:round; stroke-linejoin:round;fill-rule:evenodd;"
d="M 47413,58531
46743,58531
46743,57861
47413,57861
47413,58531
Z" /> 
<path style="fill:#000000; fill-opacity:1.0; 
stroke:#000000; stroke-width:0; stroke-opacity:1; 
stroke-linecap:round; stroke-linejoin:round;fill-rule:evenodd;"
d="M 48413,58531
47743,58531
47743,57861
48413,57861
48413,58531
Z" /> 
<path style="fill:#000000; fill-opacity:1.0; 
stroke:#000000; stroke-width:0; stroke-opacity:1; 
stroke-linecap:round; stroke-linejoin:round;fill-rule:evenodd;"
d="M 58266,55811
58313,55825
58355,55848
58392,55878
58423,55916
58446,55958
58460,56004
58464,56052
58464,57726
58460,57774
58446,57820
58423,57863
58392,57900
58355,57931
58313,57953
58266,57967
58218,57972
57725,57972
57677,57967
57631,57953
57589,57931
57552,57900
57521,57863
57498,57820
57484,57774
57480,57726
57480,56052
57484,56004
57498,55958
57521,55916
57552,55878
57589,55848
57631,55825
57677,55811
57725,55806
58218,55806
58266,55811
Z" /> 
<path style="fill:#000000; fill-opacity:1.0; 
stroke:#000000; stroke-width:0; stroke-opacity:1; 
stroke-linecap:round; stroke-linejoin:round;fill-rule:evenodd;"
d="M 56416,55811
56462,55825
56505,55848
56542,55878
56572,55916
56595,55958
56609,56004
56614,56052
56614,57726
56609,57774
56595,57820
56572,57863
56542,57900
56505,57931
56462,57953
56416,57967
56368,57972
55875,57972
55827,57967
55781,57953
55738,57931
55701,57900
55671,57863
55648,57820
55634,57774
55629,57726
55629,56052
55634,56004
55648,55958
55671,55916
55701,55878
55738,55848
55781,55825
55827,55811
55875,55806
56368,55806
56416,55811
Z" /> 
<path style="fill:#000000; fill-opacity:1.0; 
stroke:#000000; stroke-width:0; stroke-opacity:1; 
stroke-linecap:round; stroke-linejoin:round;fill-rule:evenodd;"
d="M 46413,57531
45743,57531
45743,56861
46413,56861
46413,57531
Z" /> 
<path style="fill:#000000; fill-opacity:1.0; 
stroke:#000000; stroke-width:0; stroke-opacity:1; 
stroke-linecap:round; stroke-linejoin:round;fill-rule:evenodd;"
d="M 45413,57531
44743,57531
44743,56861
45413,56861
45413,57531
Z" /> 
<path style="fill:#000000; fill-opacity:1.0; 
stroke:#000000; stroke-width:0; stroke-opacity:1; 
stroke-linecap:round; stroke-linejoin:round;fill-rule:evenodd;"
d="M 48413,57531
47743,57531
47743,56861
48413,56861
48413,57531
Z" /> 
<path style="fill:#000000; fill-opacity:1.0; 
stroke:#000000; stroke-width:0; stroke-opacity:1; 
stroke-linecap:round; stroke-linejoin:round;fill-rule:evenodd;"
d="M 47413,57531
46743,57531
46743,56861
47413,56861
47413,57531
Z" /> 
<path style="fill:#000000; fill-opacity:1.0; 
stroke:#000000; stroke-width:0; stroke-opacity:1; 
stroke-linecap:round; stroke-linejoin:round;fill-rule:evenodd;"
d="M 45413,56531
44743,56531
44743,55861
45413,55861
45413,56531
Z" /> 
<path style="fill:#000000; fill-opacity:1.0; 
stroke:#000000; stroke-width:0; stroke-opacity:1; 
stroke-linecap:round; stroke-linejoin:round;fill-rule:evenodd;"
d="M 46413,56531
45743,56531
45743,55861
46413,55861
46413,56531
Z" /> 
<path style="fill:#000000; fill-opacity:1.0; 
stroke:#000000; stroke-width:0; stroke-opacity:1; 
stroke-linecap:round; stroke-linejoin:round;fill-rule:evenodd;"
d="M 47413,56531
46743,56531
46743,55861
47413,55861
47413,56531
Z" /> 
<path style="fill:#000000; fill-opacity:1.0; 
stroke:#000000; stroke-width:0; stroke-opacity:1; 
stroke-linecap:round; stroke-linejoin:round;fill-rule:evenodd;"
d="M 48413,56531
47743,56531
47743,55861
48413,55861
48413,56531
Z" /> 
<path style="fill:#000000; fill-opacity:1.0; 
stroke:#000000; stroke-width:0; stroke-opacity:1; 
stroke-linecap:round; stroke-linejoin:round;fill-rule:evenodd;"
d="M 46413,55531
45743,55531
45743,54861
46413,54861
46413,55531
Z" /> 
<path style="fill:#000000; fill-opacity:1.0; 
stroke:#000000; stroke-width:0; stroke-opacity:1; 
stroke-linecap:round; stroke-linejoin:round;fill-rule:evenodd;"
d="M 47413,55531
46743,55531
46743,54861
47413,54861
47413,55531
Z" /> 
<path style="fill:#000000; fill-opacity:1.0; 
stroke:#000000; stroke-width:0; stroke-opacity:1; 
stroke-linecap:round; stroke-linejoin:round;fill-rule:evenodd;"
d="M 48413,55531
47743,55531
47743,54861
48413,54861
48413,55531
Z" /> 
<path style="fill:#000000; fill-opacity:1.0; 
stroke:#000000; stroke-width:0; stroke-opacity:1; 
stroke-linecap:round; stroke-linejoin:round;fill-rule:evenodd;"
d="M 45413,55531
44743,55531
44743,54861
45413,54861
45413,55531
Z" /> 
<path style="fill:#000000; fill-opacity:1.0; 
stroke:#000000; stroke-width:0; stroke-opacity:1; 
stroke-linecap:round; stroke-linejoin:round;fill-rule:evenodd;"
d="M 32297,54591
32297,54591
32361,54610
32419,54641
32419,54641
32419,54641
32470,54683
32512,54734
32543,54792
32562,54855
32568,54921
32562,54986
32562,54986
32543,55050
32512,55108
32470,55159
32419,55201
32361,55232
32297,55251
32248,55256
32215,55256
32166,55251
32103,55232
32045,55201
31994,55159
31952,55108
31921,55050
31902,54986
31902,54986
31895,54921
31902,54855
31921,54792
31952,54734
31994,54683
32045,54641
32045,54641
32045,54641
32103,54610
32166,54591
32166,54591
32215,54586
32248,54586
32297,54591
Z" /> 
<path style="fill:#000000; fill-opacity:1.0; 
stroke:#000000; stroke-width:0; stroke-opacity:1; 
stroke-linecap:round; stroke-linejoin:round;fill-rule:evenodd;"
d="M 23506,54591
23506,54591
23569,54610
23627,54641
23627,54641
23627,54641
23678,54683
23720,54734
23751,54792
23770,54855
23777,54921
23770,54986
23770,54986
23751,55050
23720,55108
23678,55159
23627,55201
23569,55232
23506,55251
23457,55256
23424,55256
23375,55251
23312,55232
23253,55201
23202,55159
23161,55108
23130,55050
23110,54986
23110,54986
23104,54921
23110,54855
23130,54792
23161,54734
23202,54683
23253,54641
23253,54641
23253,54641
23312,54610
23375,54591
23375,54591
23424,54586
23457,54586
23506,54591
Z" /> 
<path style="fill:#000000; fill-opacity:1.0; 
stroke:#000000; stroke-width:0; stroke-opacity:1; 
stroke-linecap:round; stroke-linejoin:round;fill-rule:evenodd;"
d="M 24506,54591
24506,54591
24569,54610
24627,54641
24627,54641
24627,54641
24678,54683
24720,54734
24751,54792
24770,54855
24777,54921
24770,54986
24770,54986
24751,55050
24720,55108
24678,55159
24627,55201
24569,55232
24506,55251
24457,55256
24424,55256
24375,55251
24312,55232
24253,55201
24202,55159
24161,55108
24130,55050
24110,54986
24110,54986
24104,54921
24110,54855
24130,54792
24161,54734
24202,54683
24253,54641
24253,54641
24253,54641
24312,54610
24375,54591
24375,54591
24424,54586
24457,54586
24506,54591
Z" /> 
<path style="fill:#000000; fill-opacity:1.0; 
stroke:#000000; stroke-width:0; stroke-opacity:1; 
stroke-linecap:round; stroke-linejoin:round;fill-rule:evenodd;"
d="M 27738,54591
27738,54591
27802,54610
27860,54641
27860,54641
27860,54641
27911,54683
27953,54734
27984,54792
28003,54855
28009,54921
28003,54986
28003,54986
27984,55050
27953,55108
27911,55159
27860,55201
27802,55232
27738,55251
27689,55256
27656,55256
27607,55251
27544,55232
27486,55201
27435,55159
27393,55108
27362,55050
27343,54986
27343,54986
27336,54921
27343,54855
27362,54792
27393,54734
27435,54683
27486,54641
27486,54641
27486,54641
27544,54610
27607,54591
27607,54591
27656,54586
27689,54586
27738,54591
Z" /> 
<path style="fill:#000000; fill-opacity:1.0; 
stroke:#000000; stroke-width:0; stroke-opacity:1; 
stroke-linecap:round; stroke-linejoin:round;fill-rule:evenodd;"
d="M 26738,54591
26738,54591
26802,54610
26860,54641
26860,54641
26860,54641
26911,54683
26953,54734
26984,54792
27003,54855
27009,54921
27003,54986
27003,54986
26984,55050
26953,55108
26911,55159
26860,55201
26802,55232
26738,55251
26689,55256
26656,55256
26607,55251
26544,55232
26486,55201
26435,55159
26393,55108
26362,55050
26343,54986
26343,54986
26336,54921
26343,54855
26362,54792
26393,54734
26435,54683
26486,54641
26486,54641
26486,54641
26544,54610
26607,54591
26607,54591
26656,54586
26689,54586
26738,54591
Z" /> 
<path style="fill:#000000; fill-opacity:1.0; 
stroke:#000000; stroke-width:0; stroke-opacity:1; 
stroke-linecap:round; stroke-linejoin:round;fill-rule:evenodd;"
d="M 26008,55256
25338,55256
25338,54586
26008,54586
26008,55256
Z" /> 
<path style="fill:#000000; fill-opacity:1.0; 
stroke:#000000; stroke-width:0; stroke-opacity:1; 
stroke-linecap:round; stroke-linejoin:round;fill-rule:evenodd;"
d="M 34177,55256
33507,55256
33507,54586
34177,54586
34177,55256
Z" /> 
<path style="fill:#000000; fill-opacity:1.0; 
stroke:#000000; stroke-width:0; stroke-opacity:1; 
stroke-linecap:round; stroke-linejoin:round;fill-rule:evenodd;"
d="M 34908,54591
34908,54591
34971,54610
35029,54641
35029,54641
35029,54641
35080,54683
35122,54734
35153,54792
35172,54855
35179,54921
35172,54986
35172,54986
35153,55050
35122,55108
35080,55159
35029,55201
34971,55232
34908,55251
34858,55256
34826,55256
34776,55251
34713,55232
34655,55201
34604,55159
34562,55108
34531,55050
34512,54986
34512,54986
34506,54921
34512,54855
34531,54792
34562,54734
34604,54683
34655,54641
34655,54641
34655,54641
34713,54610
34776,54591
34776,54591
34826,54586
34858,54586
34908,54591
Z" /> 
<path style="fill:#000000; fill-opacity:1.0; 
stroke:#000000; stroke-width:0; stroke-opacity:1; 
stroke-linecap:round; stroke-linejoin:round;fill-rule:evenodd;"
d="M 35908,54591
35908,54591
35971,54610
36029,54641
36029,54641
36029,54641
36080,54683
36122,54734
36153,54792
36172,54855
36179,54921
36172,54986
36172,54986
36153,55050
36122,55108
36080,55159
36029,55201
35971,55232
35908,55251
35858,55256
35826,55256
35776,55251
35713,55232
35655,55201
35604,55159
35562,55108
35531,55050
35512,54986
35512,54986
35506,54921
35512,54855
35531,54792
35562,54734
35604,54683
35655,54641
35655,54641
35655,54641
35713,54610
35776,54591
35776,54591
35826,54586
35858,54586
35908,54591
Z" /> 
<path style="fill:#000000; fill-opacity:1.0; 
stroke:#000000; stroke-width:0; stroke-opacity:1; 
stroke-linecap:round; stroke-linejoin:round;fill-rule:evenodd;"
d="M 22775,55256
22106,55256
22106,54586
22775,54586
22775,55256
Z" /> 
<path style="fill:#000000; fill-opacity:1.0; 
stroke:#000000; stroke-width:0; stroke-opacity:1; 
stroke-linecap:round; stroke-linejoin:round;fill-rule:evenodd;"
d="M 38908,54591
38908,54591
38971,54610
39029,54641
39029,54641
39029,54641
39080,54683
39122,54734
39153,54792
39172,54855
39179,54921
39172,54986
39172,54986
39153,55050
39122,55108
39080,55159
39029,55201
38971,55232
38908,55251
38858,55256
38826,55256
38776,55251
38713,55232
38655,55201
38604,55159
38562,55108
38531,55050
38512,54986
38512,54986
38506,54921
38512,54855
38531,54792
38562,54734
38604,54683
38655,54641
38655,54641
38655,54641
38713,54610
38776,54591
38776,54591
38826,54586
38858,54586
38908,54591
Z" /> 
<path style="fill:#000000; fill-opacity:1.0; 
stroke:#000000; stroke-width:0; stroke-opacity:1; 
stroke-linecap:round; stroke-linejoin:round;fill-rule:evenodd;"
d="M 29567,55256
28897,55256
28897,54586
29567,54586
29567,55256
Z" /> 
<path style="fill:#000000; fill-opacity:1.0; 
stroke:#000000; stroke-width:0; stroke-opacity:1; 
stroke-linecap:round; stroke-linejoin:round;fill-rule:evenodd;"
d="M 30297,54591
30297,54591
30361,54610
30419,54641
30419,54641
30419,54641
30470,54683
30512,54734
30543,54792
30562,54855
30568,54921
30562,54986
30562,54986
30543,55050
30512,55108
30470,55159
30419,55201
30361,55232
30297,55251
30248,55256
30215,55256
30166,55251
30103,55232
30045,55201
29994,55159
29952,55108
29921,55050
29902,54986
29902,54986
29895,54921
29902,54855
29921,54792
29952,54734
29994,54683
30045,54641
30045,54641
30045,54641
30103,54610
30166,54591
30166,54591
30215,54586
30248,54586
30297,54591
Z" /> 
<path style="fill:#000000; fill-opacity:1.0; 
stroke:#000000; stroke-width:0; stroke-opacity:1; 
stroke-linecap:round; stroke-linejoin:round;fill-rule:evenodd;"
d="M 36908,54591
36908,54591
36971,54610
37029,54641
37029,54641
37029,54641
37080,54683
37122,54734
37153,54792
37172,54855
37179,54921
37172,54986
37172,54986
37153,55050
37122,55108
37080,55159
37029,55201
36971,55232
36908,55251
36858,55256
36826,55256
36776,55251
36713,55232
36655,55201
36604,55159
36562,55108
36531,55050
36512,54986
36512,54986
36506,54921
36512,54855
36531,54792
36562,54734
36604,54683
36655,54641
36655,54641
36655,54641
36713,54610
36776,54591
36776,54591
36826,54586
36858,54586
36908,54591
Z" /> 
<path style="fill:#000000; fill-opacity:1.0; 
stroke:#000000; stroke-width:0; stroke-opacity:1; 
stroke-linecap:round; stroke-linejoin:round;fill-rule:evenodd;"
d="M 31297,54591
31297,54591
31361,54610
31419,54641
31419,54641
31419,54641
31470,54683
31512,54734
31543,54792
31562,54855
31568,54921
31562,54986
31562,54986
31543,55050
31512,55108
31470,55159
31419,55201
31361,55232
31297,55251
31248,55256
31215,55256
31166,55251
31103,55232
31045,55201
30994,55159
30952,55108
30921,55050
30902,54986
30902,54986
30895,54921
30902,54855
30921,54792
30952,54734
30994,54683
31045,54641
31045,54641
31045,54641
31103,54610
31166,54591
31166,54591
31215,54586
31248,54586
31297,54591
Z" /> 
<path style="fill:#000000; fill-opacity:1.0; 
stroke:#000000; stroke-width:0; stroke-opacity:1; 
stroke-linecap:round; stroke-linejoin:round;fill-rule:evenodd;"
d="M 43518,54591
43518,54591
43581,54610
43639,54641
43639,54641
43639,54641
43690,54683
43732,54734
43763,54792
43782,54855
43789,54921
43782,54986
43782,54986
43763,55050
43732,55108
43690,55159
43639,55201
43581,55232
43518,55251
43469,55256
43436,55256
43387,55251
43323,55232
43265,55201
43214,55159
43172,55108
43141,55050
43122,54986
43122,54986
43116,54921
43122,54855
43141,54792
43172,54734
43214,54683
43265,54641
43265,54641
43265,54641
43323,54610
43387,54591
43387,54591
43436,54586
43469,54586
43518,54591
Z" /> 
<path style="fill:#000000; fill-opacity:1.0; 
stroke:#000000; stroke-width:0; stroke-opacity:1; 
stroke-linecap:round; stroke-linejoin:round;fill-rule:evenodd;"
d="M 42518,54591
42518,54591
42581,54610
42639,54641
42639,54641
42639,54641
42690,54683
42732,54734
42763,54792
42782,54855
42789,54921
42782,54986
42782,54986
42763,55050
42732,55108
42690,55159
42639,55201
42581,55232
42518,55251
42469,55256
42436,55256
42387,55251
42323,55232
42265,55201
42214,55159
42172,55108
42141,55050
42122,54986
42122,54986
42116,54921
42122,54855
42141,54792
42172,54734
42214,54683
42265,54641
42265,54641
42265,54641
42323,54610
42387,54591
42387,54591
42436,54586
42469,54586
42518,54591
Z" /> 
<path style="fill:#000000; fill-opacity:1.0; 
stroke:#000000; stroke-width:0; stroke-opacity:1; 
stroke-linecap:round; stroke-linejoin:round;fill-rule:evenodd;"
d="M 41518,54591
41518,54591
41581,54610
41639,54641
41639,54641
41639,54641
41690,54683
41732,54734
41763,54792
41782,54855
41789,54921
41782,54986
41782,54986
41763,55050
41732,55108
41690,55159
41639,55201
41581,55232
41518,55251
41469,55256
41436,55256
41387,55251
41323,55232
41265,55201
41214,55159
41172,55108
41141,55050
41122,54986
41122,54986
41116,54921
41122,54855
41141,54792
41172,54734
41214,54683
41265,54641
41265,54641
41265,54641
41323,54610
41387,54591
41387,54591
41436,54586
41469,54586
41518,54591
Z" /> 
<path style="fill:#000000; fill-opacity:1.0; 
stroke:#000000; stroke-width:0; stroke-opacity:1; 
stroke-linecap:round; stroke-linejoin:round;fill-rule:evenodd;"
d="M 40787,55256
40117,55256
40117,54586
40787,54586
40787,55256
Z" /> 
<path style="fill:#000000; fill-opacity:1.0; 
stroke:#000000; stroke-width:0; stroke-opacity:1; 
stroke-linecap:round; stroke-linejoin:round;fill-rule:evenodd;"
d="M 37908,54591
37908,54591
37971,54610
38029,54641
38029,54641
38029,54641
38080,54683
38122,54734
38153,54792
38172,54855
38179,54921
38172,54986
38172,54986
38153,55050
38122,55108
38080,55159
38029,55201
37971,55232
37908,55251
37858,55256
37826,55256
37776,55251
37713,55232
37655,55201
37604,55159
37562,55108
37531,55050
37512,54986
37512,54986
37506,54921
37512,54855
37531,54792
37562,54734
37604,54683
37655,54641
37655,54641
37655,54641
37713,54610
37776,54591
37776,54591
37826,54586
37858,54586
37908,54591
Z" /> 
<path style="fill:#000000; fill-opacity:1.0; 
stroke:#000000; stroke-width:0; stroke-opacity:1; 
stroke-linecap:round; stroke-linejoin:round;fill-rule:evenodd;"
d="M 55512,54665
54330,54665
54330,53680
55512,53680
55512,54665
Z" /> 
<path style="fill:#000000; fill-opacity:1.0; 
stroke:#000000; stroke-width:0; stroke-opacity:1; 
stroke-linecap:round; stroke-linejoin:round;fill-rule:evenodd;"
d="M 34321,52933
34321,52933
34381,52951
34435,52980
34435,52980
34435,52980
34483,53020
34519,53063
34523,53068
34552,53122
34569,53177
34570,53182
34576,53244
34570,53305
34570,53305
34552,53365
34523,53420
34523,53420
34483,53468
34440,53503
34435,53507
34381,53536
34326,53553
34321,53554
34275,53559
34244,53559
34198,53554
34193,53553
34138,53536
34083,53507
34079,53503
34035,53468
33996,53420
33996,53420
33967,53365
33949,53305
33949,53305
33943,53244
33949,53182
33950,53177
33967,53122
33996,53068
34000,53063
34035,53020
34083,52980
34083,52980
34083,52980
34138,52951
34198,52933
34198,52933
34244,52928
34275,52928
34321,52933
Z" /> 
<path style="fill:#000000; fill-opacity:1.0; 
stroke:#000000; stroke-width:0; stroke-opacity:1; 
stroke-linecap:round; stroke-linejoin:round;fill-rule:evenodd;"
d="M 33321,52933
33321,52933
33381,52951
33435,52980
33435,52980
33435,52980
33483,53020
33519,53063
33523,53068
33552,53122
33569,53177
33570,53182
33576,53244
33570,53305
33570,53305
33552,53365
33523,53420
33523,53420
33483,53468
33440,53503
33435,53507
33381,53536
33326,53553
33321,53554
33275,53559
33244,53559
33198,53554
33193,53553
33138,53536
33083,53507
33079,53503
33035,53468
32996,53420
32996,53420
32967,53365
32949,53305
32949,53305
32943,53244
32949,53182
32950,53177
32967,53122
32996,53068
33000,53063
33035,53020
33083,52980
33083,52980
33083,52980
33138,52951
33198,52933
33198,52933
33244,52928
33275,52928
33321,52933
Z" /> 
<path style="fill:#000000; fill-opacity:1.0; 
stroke:#000000; stroke-width:0; stroke-opacity:1; 
stroke-linecap:round; stroke-linejoin:round;fill-rule:evenodd;"
d="M 32321,52933
32321,52933
32381,52951
32435,52980
32435,52980
32435,52980
32483,53020
32519,53063
32523,53068
32552,53122
32569,53177
32570,53182
32576,53244
32570,53305
32570,53305
32552,53365
32523,53420
32523,53420
32483,53468
32440,53503
32435,53507
32381,53536
32326,53553
32321,53554
32275,53559
32244,53559
32198,53554
32193,53553
32138,53536
32083,53507
32079,53503
32035,53468
31996,53420
31996,53420
31967,53365
31949,53305
31949,53305
31943,53244
31949,53182
31950,53177
31967,53122
31996,53068
32000,53063
32035,53020
32083,52980
32083,52980
32083,52980
32138,52951
32198,52933
32198,52933
32244,52928
32275,52928
32321,52933
Z" /> 
<path style="fill:#000000; fill-opacity:1.0; 
stroke:#000000; stroke-width:0; stroke-opacity:1; 
stroke-linecap:round; stroke-linejoin:round;fill-rule:evenodd;"
d="M 31321,52933
31321,52933
31381,52951
31435,52980
31435,52980
31435,52980
31483,53020
31519,53063
31523,53068
31552,53122
31569,53177
31570,53182
31576,53244
31570,53305
31570,53305
31552,53365
31523,53420
31523,53420
31483,53468
31440,53503
31435,53507
31381,53536
31326,53553
31321,53554
31275,53559
31244,53559
31198,53554
31193,53553
31138,53536
31083,53507
31079,53503
31035,53468
30996,53420
30996,53420
30967,53365
30949,53305
30949,53305
30943,53244
30949,53182
30950,53177
30967,53122
30996,53068
31000,53063
31035,53020
31083,52980
31083,52980
31083,52980
31138,52951
31198,52933
31198,52933
31244,52928
31275,52928
31321,52933
Z" /> 
<path style="fill:#000000; fill-opacity:1.0; 
stroke:#000000; stroke-width:0; stroke-opacity:1; 
stroke-linecap:round; stroke-linejoin:round;fill-rule:evenodd;"
d="M 28321,52933
28321,52933
28381,52951
28435,52980
28435,52980
28435,52980
28483,53020
28519,53063
28523,53068
28552,53122
28569,53177
28570,53182
28576,53244
28570,53305
28570,53305
28552,53365
28523,53420
28523,53420
28483,53468
28440,53503
28435,53507
28381,53536
28326,53553
28321,53554
28275,53559
28244,53559
28198,53554
28193,53553
28138,53536
28083,53507
28079,53503
28035,53468
27996,53420
27996,53420
27967,53365
27949,53305
27949,53305
27943,53244
27949,53182
27950,53177
27967,53122
27996,53068
28000,53063
28035,53020
28083,52980
28083,52980
28083,52980
28138,52951
28198,52933
28198,52933
28244,52928
28275,52928
28321,52933
Z" /> 
<path style="fill:#000000; fill-opacity:1.0; 
stroke:#000000; stroke-width:0; stroke-opacity:1; 
stroke-linecap:round; stroke-linejoin:round;fill-rule:evenodd;"
d="M 30321,52933
30321,52933
30381,52951
30435,52980
30435,52980
30435,52980
30483,53020
30519,53063
30523,53068
30552,53122
30569,53177
30570,53182
30576,53244
30570,53305
30570,53305
30552,53365
30523,53420
30523,53420
30483,53468
30440,53503
30435,53507
30381,53536
30326,53553
30321,53554
30275,53559
30244,53559
30198,53554
30193,53553
30138,53536
30083,53507
30079,53503
30035,53468
29996,53420
29996,53420
29967,53365
29949,53305
29949,53305
29943,53244
29949,53182
29950,53177
29967,53122
29996,53068
30000,53063
30035,53020
30083,52980
30083,52980
30083,52980
30138,52951
30198,52933
30198,52933
30244,52928
30275,52928
30321,52933
Z" /> 
<path style="fill:#000000; fill-opacity:1.0; 
stroke:#000000; stroke-width:0; stroke-opacity:1; 
stroke-linecap:round; stroke-linejoin:round;fill-rule:evenodd;"
d="M 27321,52933
27321,52933
27381,52951
27435,52980
27435,52980
27435,52980
27483,53020
27519,53063
27523,53068
27552,53122
27569,53177
27570,53182
27576,53244
27570,53305
27570,53305
27552,53365
27523,53420
27523,53420
27483,53468
27440,53503
27435,53507
27381,53536
27326,53553
27321,53554
27275,53559
27244,53559
27198,53554
27193,53553
27138,53536
27083,53507
27079,53503
27035,53468
26996,53420
26996,53420
26967,53365
26949,53305
26949,53305
26943,53244
26949,53182
26950,53177
26967,53122
26996,53068
27000,53063
27035,53020
27083,52980
27083,52980
27083,52980
27138,52951
27198,52933
27198,52933
27244,52928
27275,52928
27321,52933
Z" /> 
<path style="fill:#000000; fill-opacity:1.0; 
stroke:#000000; stroke-width:0; stroke-opacity:1; 
stroke-linecap:round; stroke-linejoin:round;fill-rule:evenodd;"
d="M 25321,52933
25321,52933
25381,52951
25435,52980
25435,52980
25435,52980
25483,53020
25519,53063
25523,53068
25552,53122
25569,53177
25570,53182
25576,53244
25570,53305
25570,53305
25552,53365
25523,53420
25523,53420
25483,53468
25440,53503
25435,53507
25381,53536
25326,53553
25321,53554
25275,53559
25244,53559
25198,53554
25193,53553
25138,53536
25083,53507
25079,53503
25035,53468
24996,53420
24996,53420
24967,53365
24949,53305
24949,53305
24943,53244
24949,53182
24950,53177
24967,53122
24996,53068
25000,53063
25035,53020
25083,52980
25083,52980
25083,52980
25138,52951
25198,52933
25198,52933
25244,52928
25275,52928
25321,52933
Z" /> 
<path style="fill:#000000; fill-opacity:1.0; 
stroke:#000000; stroke-width:0; stroke-opacity:1; 
stroke-linecap:round; stroke-linejoin:round;fill-rule:evenodd;"
d="M 24321,52933
24321,52933
24381,52951
24435,52980
24435,52980
24435,52980
24483,53020
24519,53063
24523,53068
24552,53122
24569,53177
24570,53182
24576,53244
24570,53305
24570,53305
24552,53365
24523,53420
24523,53420
24483,53468
24440,53503
24435,53507
24381,53536
24326,53553
24321,53554
24275,53559
24244,53559
24198,53554
24193,53553
24138,53536
24083,53507
24079,53503
24035,53468
23996,53420
23996,53420
23967,53365
23949,53305
23949,53305
23943,53244
23949,53182
23950,53177
23967,53122
23996,53068
24000,53063
24035,53020
24083,52980
24083,52980
24083,52980
24138,52951
24198,52933
24198,52933
24244,52928
24275,52928
24321,52933
Z" /> 
<path style="fill:#000000; fill-opacity:1.0; 
stroke:#000000; stroke-width:0; stroke-opacity:1; 
stroke-linecap:round; stroke-linejoin:round;fill-rule:evenodd;"
d="M 23321,52933
23321,52933
23381,52951
23435,52980
23435,52980
23435,52980
23483,53020
23519,53063
23523,53068
23552,53122
23569,53177
23570,53182
23576,53244
23570,53305
23570,53305
23552,53365
23523,53420
23523,53420
23483,53468
23440,53503
23435,53507
23381,53536
23326,53553
23321,53554
23275,53559
23244,53559
23198,53554
23193,53553
23138,53536
23083,53507
23079,53503
23035,53468
22996,53420
22996,53420
22967,53365
22949,53305
22949,53305
22943,53244
22949,53182
22950,53177
22967,53122
22996,53068
23000,53063
23035,53020
23083,52980
23083,52980
23083,52980
23138,52951
23198,52933
23198,52933
23244,52928
23275,52928
23321,52933
Z" /> 
<path style="fill:#000000; fill-opacity:1.0; 
stroke:#000000; stroke-width:0; stroke-opacity:1; 
stroke-linecap:round; stroke-linejoin:round;fill-rule:evenodd;"
d="M 22321,52933
22321,52933
22381,52951
22435,52980
22435,52980
22435,52980
22483,53020
22519,53063
22523,53068
22552,53122
22569,53177
22570,53182
22576,53244
22570,53305
22570,53305
22552,53365
22523,53420
22523,53420
22483,53468
22440,53503
22435,53507
22381,53536
22326,53553
22321,53554
22275,53559
22244,53559
22198,53554
22193,53553
22138,53536
22083,53507
22079,53503
22035,53468
21996,53420
21996,53420
21967,53365
21949,53305
21949,53305
21943,53244
21949,53182
21950,53177
21967,53122
21996,53068
22000,53063
22035,53020
22083,52980
22083,52980
22083,52980
22138,52951
22198,52933
22198,52933
22244,52928
22275,52928
22321,52933
Z" /> 
<path style="fill:#000000; fill-opacity:1.0; 
stroke:#000000; stroke-width:0; stroke-opacity:1; 
stroke-linecap:round; stroke-linejoin:round;fill-rule:evenodd;"
d="M 21321,52933
21321,52933
21381,52951
21435,52980
21435,52980
21435,52980
21483,53020
21519,53063
21523,53068
21552,53122
21569,53177
21570,53182
21576,53244
21570,53305
21570,53305
21552,53365
21523,53420
21523,53420
21483,53468
21440,53503
21435,53507
21381,53536
21326,53553
21321,53554
21275,53559
21244,53559
21198,53554
21193,53553
21138,53536
21083,53507
21079,53503
21035,53468
20996,53420
20996,53420
20967,53365
20949,53305
20949,53305
20943,53244
20949,53182
20950,53177
20967,53122
20996,53068
21000,53063
21035,53020
21083,52980
21083,52980
21083,52980
21138,52951
21198,52933
21198,52933
21244,52928
21275,52928
21321,52933
Z" /> 
<path style="fill:#000000; fill-opacity:1.0; 
stroke:#000000; stroke-width:0; stroke-opacity:1; 
stroke-linecap:round; stroke-linejoin:round;fill-rule:evenodd;"
d="M 35321,52933
35321,52933
35381,52951
35435,52980
35435,52980
35435,52980
35483,53020
35519,53063
35523,53068
35552,53122
35569,53177
35570,53182
35576,53244
35570,53305
35570,53305
35552,53365
35523,53420
35523,53420
35483,53468
35440,53503
35435,53507
35381,53536
35326,53553
35321,53554
35275,53559
35244,53559
35198,53554
35193,53553
35138,53536
35083,53507
35079,53503
35035,53468
34996,53420
34996,53420
34967,53365
34949,53305
34949,53305
34943,53244
34949,53182
34950,53177
34967,53122
34996,53068
35000,53063
35035,53020
35083,52980
35083,52980
35083,52980
35138,52951
35198,52933
35198,52933
35244,52928
35275,52928
35321,52933
Z" /> 
<path style="fill:#000000; fill-opacity:1.0; 
stroke:#000000; stroke-width:0; stroke-opacity:1; 
stroke-linecap:round; stroke-linejoin:round;fill-rule:evenodd;"
d="M 29321,52933
29321,52933
29381,52951
29435,52980
29435,52980
29435,52980
29483,53020
29519,53063
29523,53068
29552,53122
29569,53177
29570,53182
29576,53244
29570,53305
29570,53305
29552,53365
29523,53420
29523,53420
29483,53468
29440,53503
29435,53507
29381,53536
29326,53553
29321,53554
29275,53559
29244,53559
29198,53554
29193,53553
29138,53536
29083,53507
29079,53503
29035,53468
28996,53420
28996,53420
28967,53365
28949,53305
28949,53305
28943,53244
28949,53182
28950,53177
28967,53122
28996,53068
29000,53063
29035,53020
29083,52980
29083,52980
29083,52980
29138,52951
29198,52933
29198,52933
29244,52928
29275,52928
29321,52933
Z" /> 
<path style="fill:#000000; fill-opacity:1.0; 
stroke:#000000; stroke-width:0; stroke-opacity:1; 
stroke-linecap:round; stroke-linejoin:round;fill-rule:evenodd;"
d="M 26321,52933
26321,52933
26381,52951
26435,52980
26435,52980
26435,52980
26483,53020
26519,53063
26523,53068
26552,53122
26569,53177
26570,53182
26576,53244
26570,53305
26570,53305
26552,53365
26523,53420
26523,53420
26483,53468
26440,53503
26435,53507
26381,53536
26326,53553
26321,53554
26275,53559
26244,53559
26198,53554
26193,53553
26138,53536
26083,53507
26079,53503
26035,53468
25996,53420
25996,53420
25967,53365
25949,53305
25949,53305
25943,53244
25949,53182
25950,53177
25967,53122
25996,53068
26000,53063
26035,53020
26083,52980
26083,52980
26083,52980
26138,52951
26198,52933
26198,52933
26244,52928
26275,52928
26321,52933
Z" /> 
<path style="fill:#000000; fill-opacity:1.0; 
stroke:#000000; stroke-width:0; stroke-opacity:1; 
stroke-linecap:round; stroke-linejoin:round;fill-rule:evenodd;"
d="M 58267,53346
57480,53346
57480,52558
58267,52558
58267,53346
Z" /> 
<path style="fill:#000000; fill-opacity:1.0; 
stroke:#000000; stroke-width:0; stroke-opacity:1; 
stroke-linecap:round; stroke-linejoin:round;fill-rule:evenodd;"
d="M 52216,52561
52280,52573
52351,52603
52416,52646
52471,52701
52514,52766
52544,52837
52559,52913
52559,52991
52544,53067
52514,53139
52471,53203
52416,53258
52351,53301
52280,53331
52216,53344
52204,53346
52126,53346
52113,53344
52050,53331
51978,53301
51914,53258
51859,53203
51816,53139
51786,53067
51771,52991
51771,52913
51786,52837
51816,52766
51859,52701
51914,52646
51978,52603
52050,52573
52113,52561
52126,52558
52204,52558
52216,52561
Z" /> 
<path style="fill:#000000; fill-opacity:1.0; 
stroke:#000000; stroke-width:0; stroke-opacity:1; 
stroke-linecap:round; stroke-linejoin:round;fill-rule:evenodd;"
d="M 57925,51577
57988,51589
58060,51619
58125,51662
58180,51717
58223,51781
58252,51853
58267,51929
58267,52007
58252,52083
58223,52155
58180,52219
58125,52274
58060,52317
57988,52347
57925,52359
57912,52362
57835,52362
57822,52359
57759,52347
57687,52317
57622,52274
57568,52219
57524,52155
57495,52083
57480,52007
57480,51929
57495,51853
57524,51781
57568,51717
57622,51662
57687,51619
57759,51589
57822,51577
57835,51574
57912,51574
57925,51577
Z" /> 
<path style="fill:#000000; fill-opacity:1.0; 
stroke:#000000; stroke-width:0; stroke-opacity:1; 
stroke-linecap:round; stroke-linejoin:round;fill-rule:evenodd;"
d="M 41922,51173
41980,51197
42031,51231
42075,51275
42110,51327
42133,51384
42145,51445
42145,51507
42133,51568
42110,51625
42075,51677
42031,51721
41980,51755
41922,51779
41861,51791
41799,51791
41738,51779
41681,51755
41629,51721
41585,51677
41551,51625
41527,51568
41515,51507
41515,51445
41527,51384
41551,51327
41585,51275
41629,51231
41681,51197
41738,51173
41799,51161
41861,51161
41922,51173
Z" /> 
<path style="fill:#000000; fill-opacity:1.0; 
stroke:#000000; stroke-width:0; stroke-opacity:1; 
stroke-linecap:round; stroke-linejoin:round;fill-rule:evenodd;"
d="M 39586,51791
38956,51791
38956,51161
39586,51161
39586,51791
Z" /> 
<path style="fill:#000000; fill-opacity:1.0; 
stroke:#000000; stroke-width:0; stroke-opacity:1; 
stroke-linecap:round; stroke-linejoin:round;fill-rule:evenodd;"
d="M 52216,50592
52280,50605
52351,50635
52416,50678
52471,50733
52514,50797
52544,50869
52559,50945
52559,51023
52544,51099
52514,51170
52471,51235
52416,51290
52351,51333
52280,51363
52216,51375
52204,51378
52126,51378
52113,51375
52050,51363
51978,51333
51914,51290
51859,51235
51816,51170
51786,51099
51771,51023
51771,50945
51786,50869
51816,50797
51859,50733
51914,50678
51978,50635
52050,50605
52113,50592
52126,50590
52204,50590
52216,50592
Z" /> 
<path style="fill:#000000; fill-opacity:1.0; 
stroke:#000000; stroke-width:0; stroke-opacity:1; 
stroke-linecap:round; stroke-linejoin:round;fill-rule:evenodd;"
d="M 57925,50592
57988,50605
58060,50635
58125,50678
58180,50733
58223,50797
58252,50869
58267,50945
58267,51023
58252,51099
58223,51170
58180,51235
58125,51290
58060,51333
57988,51363
57925,51375
57912,51378
57835,51378
57822,51375
57759,51363
57687,51333
57622,51290
57568,51235
57524,51170
57495,51099
57480,51023
57480,50945
57495,50869
57524,50797
57568,50733
57622,50678
57687,50635
57759,50605
57822,50592
57835,50590
57912,50590
57925,50592
Z" /> 
<path style="fill:#000000; fill-opacity:1.0; 
stroke:#000000; stroke-width:0; stroke-opacity:1; 
stroke-linecap:round; stroke-linejoin:round;fill-rule:evenodd;"
d="M 55512,50256
54330,50256
54330,49271
55512,49271
55512,50256
Z" /> 
<path style="fill:#000000; fill-opacity:1.0; 
stroke:#000000; stroke-width:0; stroke-opacity:1; 
stroke-linecap:round; stroke-linejoin:round;fill-rule:evenodd;"
d="M 53425,48661
52834,48661
52834,48267
53425,48267
53425,48661
Z" /> 
<path style="fill:#000000; fill-opacity:1.0; 
stroke:#000000; stroke-width:0; stroke-opacity:1; 
stroke-linecap:round; stroke-linejoin:round;fill-rule:evenodd;"
d="M 51496,48661
50905,48661
50905,48267
51496,48267
51496,48661
Z" /> 
<path style="fill:#000000; fill-opacity:1.0; 
stroke:#000000; stroke-width:0; stroke-opacity:1; 
stroke-linecap:round; stroke-linejoin:round;fill-rule:evenodd;"
d="M 53425,48031
52834,48031
52834,47637
53425,47637
53425,48031
Z" /> 
<path style="fill:#000000; fill-opacity:1.0; 
stroke:#000000; stroke-width:0; stroke-opacity:1; 
stroke-linecap:round; stroke-linejoin:round;fill-rule:evenodd;"
d="M 51496,48031
50905,48031
50905,47637
51496,47637
51496,48031
Z" /> 
<path style="fill:#000000; fill-opacity:1.0; 
stroke:#000000; stroke-width:0; stroke-opacity:1; 
stroke-linecap:round; stroke-linejoin:round;fill-rule:evenodd;"
d="M 54586,48012
53877,48012
53877,46279
54586,46279
54586,48012
Z" /> 
<path style="fill:#000000; fill-opacity:1.0; 
stroke:#000000; stroke-width:0; stroke-opacity:1; 
stroke-linecap:round; stroke-linejoin:round;fill-rule:evenodd;"
d="M 56585,46363
56652,46383
56713,46416
56713,46416
56713,46416
56767,46460
56786,46483
56812,46514
56825,46539
56844,46576
56865,46643
56870,46695
56870,47596
56865,47648
56844,47715
56812,47776
56767,47830
56718,47871
56713,47874
56652,47907
56585,47928
56515,47935
56446,47928
56379,47907
56317,47874
56312,47871
56263,47830
56219,47776
56186,47715
56166,47648
56161,47596
56161,46695
56166,46643
56186,46576
56214,46523
56219,46514
56227,46504
56263,46460
56317,46416
56317,46416
56317,46416
56379,46383
56446,46363
56515,46356
56585,46363
Z" /> 
<path style="fill:#000000; fill-opacity:1.0; 
stroke:#000000; stroke-width:0; stroke-opacity:1; 
stroke-linecap:round; stroke-linejoin:round;fill-rule:evenodd;"
d="M 30321,46933
30321,46933
30381,46951
30435,46980
30435,46980
30435,46980
30483,47020
30519,47063
30523,47068
30552,47122
30569,47177
30570,47182
30576,47244
30570,47305
30570,47305
30552,47365
30532,47401
30523,47420
30483,47468
30440,47503
30435,47507
30381,47536
30326,47553
30321,47554
30275,47559
30244,47559
30198,47554
30193,47553
30138,47536
30083,47507
30079,47503
30035,47468
29996,47420
29986,47401
29967,47365
29949,47305
29949,47305
29943,47244
29949,47182
29950,47177
29967,47122
29996,47068
30000,47063
30035,47020
30083,46980
30083,46980
30083,46980
30138,46951
30198,46933
30198,46933
30244,46928
30275,46928
30321,46933
Z" /> 
<path style="fill:#000000; fill-opacity:1.0; 
stroke:#000000; stroke-width:0; stroke-opacity:1; 
stroke-linecap:round; stroke-linejoin:round;fill-rule:evenodd;"
d="M 33321,46933
33321,46933
33381,46951
33435,46980
33435,46980
33435,46980
33483,47020
33519,47063
33523,47068
33552,47122
33569,47177
33570,47182
33576,47244
33570,47305
33570,47305
33552,47365
33532,47401
33523,47420
33483,47468
33440,47503
33435,47507
33381,47536
33326,47553
33321,47554
33275,47559
33244,47559
33198,47554
33193,47553
33138,47536
33083,47507
33079,47503
33035,47468
32996,47420
32986,47401
32967,47365
32949,47305
32949,47305
32943,47244
32949,47182
32950,47177
32967,47122
32996,47068
33000,47063
33035,47020
33083,46980
33083,46980
33083,46980
33138,46951
33198,46933
33198,46933
33244,46928
33275,46928
33321,46933
Z" /> 
<path style="fill:#000000; fill-opacity:1.0; 
stroke:#000000; stroke-width:0; stroke-opacity:1; 
stroke-linecap:round; stroke-linejoin:round;fill-rule:evenodd;"
d="M 32321,46933
32321,46933
32381,46951
32435,46980
32435,46980
32435,46980
32483,47020
32519,47063
32523,47068
32552,47122
32569,47177
32570,47182
32576,47244
32570,47305
32570,47305
32552,47365
32532,47401
32523,47420
32483,47468
32440,47503
32435,47507
32381,47536
32326,47553
32321,47554
32275,47559
32244,47559
32198,47554
32193,47553
32138,47536
32083,47507
32079,47503
32035,47468
31996,47420
31986,47401
31967,47365
31949,47305
31949,47305
31943,47244
31949,47182
31950,47177
31967,47122
31996,47068
32000,47063
32035,47020
32083,46980
32083,46980
32083,46980
32138,46951
32198,46933
32198,46933
32244,46928
32275,46928
32321,46933
Z" /> 
<path style="fill:#000000; fill-opacity:1.0; 
stroke:#000000; stroke-width:0; stroke-opacity:1; 
stroke-linecap:round; stroke-linejoin:round;fill-rule:evenodd;"
d="M 34321,46933
34321,46933
34381,46951
34435,46980
34435,46980
34435,46980
34483,47020
34519,47063
34523,47068
34552,47122
34569,47177
34570,47182
34576,47244
34570,47305
34570,47305
34552,47365
34532,47401
34523,47420
34483,47468
34440,47503
34435,47507
34381,47536
34326,47553
34321,47554
34275,47559
34244,47559
34198,47554
34193,47553
34138,47536
34083,47507
34079,47503
34035,47468
33996,47420
33986,47401
33967,47365
33949,47305
33949,47305
33943,47244
33949,47182
33950,47177
33967,47122
33996,47068
34000,47063
34035,47020
34083,46980
34083,46980
34083,46980
34138,46951
34198,46933
34198,46933
34244,46928
34275,46928
34321,46933
Z" /> 
<path style="fill:#000000; fill-opacity:1.0; 
stroke:#000000; stroke-width:0; stroke-opacity:1; 
stroke-linecap:round; stroke-linejoin:round;fill-rule:evenodd;"
d="M 31321,46933
31321,46933
31381,46951
31435,46980
31435,46980
31435,46980
31483,47020
31519,47063
31523,47068
31552,47122
31569,47177
31570,47182
31576,47244
31570,47305
31570,47305
31552,47365
31532,47401
31523,47420
31483,47468
31440,47503
31435,47507
31381,47536
31326,47553
31321,47554
31275,47559
31244,47559
31198,47554
31193,47553
31138,47536
31083,47507
31079,47503
31035,47468
30996,47420
30986,47401
30967,47365
30949,47305
30949,47305
30943,47244
30949,47182
30950,47177
30967,47122
30996,47068
31000,47063
31035,47020
31083,46980
31083,46980
31083,46980
31138,46951
31198,46933
31198,46933
31244,46928
31275,46928
31321,46933
Z" /> 
<path style="fill:#000000; fill-opacity:1.0; 
stroke:#000000; stroke-width:0; stroke-opacity:1; 
stroke-linecap:round; stroke-linejoin:round;fill-rule:evenodd;"
d="M 35321,46933
35321,46933
35381,46951
35435,46980
35435,46980
35435,46980
35483,47020
35519,47063
35523,47068
35552,47122
35569,47177
35570,47182
35576,47244
35570,47305
35570,47305
35552,47365
35532,47401
35523,47420
35483,47468
35440,47503
35435,47507
35381,47536
35326,47553
35321,47554
35275,47559
35244,47559
35198,47554
35193,47553
35138,47536
35083,47507
35079,47503
35035,47468
34996,47420
34986,47401
34967,47365
34949,47305
34949,47305
34943,47244
34949,47182
34950,47177
34967,47122
34996,47068
35000,47063
35035,47020
35083,46980
35083,46980
35083,46980
35138,46951
35198,46933
35198,46933
35244,46928
35275,46928
35321,46933
Z" /> 
<path style="fill:#000000; fill-opacity:1.0; 
stroke:#000000; stroke-width:0; stroke-opacity:1; 
stroke-linecap:round; stroke-linejoin:round;fill-rule:evenodd;"
d="M 29321,46933
29321,46933
29381,46951
29435,46980
29435,46980
29435,46980
29483,47020
29519,47063
29523,47068
29552,47122
29569,47177
29570,47182
29576,47244
29570,47305
29570,47305
29552,47365
29532,47401
29523,47420
29483,47468
29440,47503
29435,47507
29381,47536
29326,47553
29321,47554
29275,47559
29244,47559
29198,47554
29193,47553
29138,47536
29083,47507
29079,47503
29035,47468
28996,47420
28986,47401
28967,47365
28949,47305
28949,47305
28943,47244
28949,47182
28950,47177
28967,47122
28996,47068
29000,47063
29035,47020
29083,46980
29083,46980
29083,46980
29138,46951
29198,46933
29198,46933
29244,46928
29275,46928
29321,46933
Z" /> 
<path style="fill:#000000; fill-opacity:1.0; 
stroke:#000000; stroke-width:0; stroke-opacity:1; 
stroke-linecap:round; stroke-linejoin:round;fill-rule:evenodd;"
d="M 26321,46933
26321,46933
26381,46951
26435,46980
26435,46980
26435,46980
26483,47020
26519,47063
26523,47068
26552,47122
26569,47177
26570,47182
26576,47244
26570,47305
26570,47305
26552,47365
26532,47401
26523,47420
26483,47468
26440,47503
26435,47507
26381,47536
26326,47553
26321,47554
26275,47559
26244,47559
26198,47554
26193,47553
26138,47536
26083,47507
26079,47503
26035,47468
25996,47420
25986,47401
25967,47365
25949,47305
25949,47305
25943,47244
25949,47182
25950,47177
25967,47122
25996,47068
26000,47063
26035,47020
26083,46980
26083,46980
26083,46980
26138,46951
26198,46933
26198,46933
26244,46928
26275,46928
26321,46933
Z" /> 
<path style="fill:#000000; fill-opacity:1.0; 
stroke:#000000; stroke-width:0; stroke-opacity:1; 
stroke-linecap:round; stroke-linejoin:round;fill-rule:evenodd;"
d="M 28321,46933
28321,46933
28381,46951
28435,46980
28435,46980
28435,46980
28483,47020
28519,47063
28523,47068
28552,47122
28569,47177
28570,47182
28576,47244
28570,47305
28570,47305
28552,47365
28532,47401
28523,47420
28483,47468
28440,47503
28435,47507
28381,47536
28326,47553
28321,47554
28275,47559
28244,47559
28198,47554
28193,47553
28138,47536
28083,47507
28079,47503
28035,47468
27996,47420
27986,47401
27967,47365
27949,47305
27949,47305
27943,47244
27949,47182
27950,47177
27967,47122
27996,47068
28000,47063
28035,47020
28083,46980
28083,46980
28083,46980
28138,46951
28198,46933
28198,46933
28244,46928
28275,46928
28321,46933
Z" /> 
<path style="fill:#000000; fill-opacity:1.0; 
stroke:#000000; stroke-width:0; stroke-opacity:1; 
stroke-linecap:round; stroke-linejoin:round;fill-rule:evenodd;"
d="M 25321,46933
25321,46933
25381,46951
25435,46980
25435,46980
25435,46980
25483,47020
25519,47063
25523,47068
25552,47122
25569,47177
25570,47182
25576,47244
25570,47305
25570,47305
25552,47365
25532,47401
25523,47420
25483,47468
25440,47503
25435,47507
25381,47536
25326,47553
25321,47554
25275,47559
25244,47559
25198,47554
25193,47553
25138,47536
25083,47507
25079,47503
25035,47468
24996,47420
24986,47401
24967,47365
24949,47305
24949,47305
24943,47244
24949,47182
24950,47177
24967,47122
24996,47068
25000,47063
25035,47020
25083,46980
25083,46980
25083,46980
25138,46951
25198,46933
25198,46933
25244,46928
25275,46928
25321,46933
Z" /> 
<path style="fill:#000000; fill-opacity:1.0; 
stroke:#000000; stroke-width:0; stroke-opacity:1; 
stroke-linecap:round; stroke-linejoin:round;fill-rule:evenodd;"
d="M 21575,47559
20944,47559
20944,46928
21575,46928
21575,47559
Z" /> 
<path style="fill:#000000; fill-opacity:1.0; 
stroke:#000000; stroke-width:0; stroke-opacity:1; 
stroke-linecap:round; stroke-linejoin:round;fill-rule:evenodd;"
d="M 22321,46933
22321,46933
22381,46951
22435,46980
22435,46980
22435,46980
22483,47020
22519,47063
22523,47068
22552,47122
22569,47177
22570,47182
22576,47244
22570,47305
22570,47305
22552,47365
22532,47401
22523,47420
22483,47468
22440,47503
22435,47507
22381,47536
22326,47553
22321,47554
22275,47559
22244,47559
22198,47554
22193,47553
22138,47536
22083,47507
22079,47503
22035,47468
21996,47420
21986,47401
21967,47365
21949,47305
21949,47305
21943,47244
21949,47182
21950,47177
21967,47122
21996,47068
22000,47063
22035,47020
22083,46980
22083,46980
22083,46980
22138,46951
22198,46933
22198,46933
22244,46928
22275,46928
22321,46933
Z" /> 
<path style="fill:#000000; fill-opacity:1.0; 
stroke:#000000; stroke-width:0; stroke-opacity:1; 
stroke-linecap:round; stroke-linejoin:round;fill-rule:evenodd;"
d="M 24321,46933
24321,46933
24381,46951
24435,46980
24435,46980
24435,46980
24483,47020
24519,47063
24523,47068
24552,47122
24569,47177
24570,47182
24576,47244
24570,47305
24570,47305
24552,47365
24532,47401
24523,47420
24483,47468
24440,47503
24435,47507
24381,47536
24326,47553
24321,47554
24275,47559
24244,47559
24198,47554
24193,47553
24138,47536
24083,47507
24079,47503
24035,47468
23996,47420
23986,47401
23967,47365
23949,47305
23949,47305
23943,47244
23949,47182
23950,47177
23967,47122
23996,47068
24000,47063
24035,47020
24083,46980
24083,46980
24083,46980
24138,46951
24198,46933
24198,46933
24244,46928
24275,46928
24321,46933
Z" /> 
<path style="fill:#000000; fill-opacity:1.0; 
stroke:#000000; stroke-width:0; stroke-opacity:1; 
stroke-linecap:round; stroke-linejoin:round;fill-rule:evenodd;"
d="M 23321,46933
23321,46933
23381,46951
23435,46980
23435,46980
23435,46980
23483,47020
23519,47063
23523,47068
23552,47122
23569,47177
23570,47182
23576,47244
23570,47305
23570,47305
23552,47365
23532,47401
23523,47420
23483,47468
23440,47503
23435,47507
23381,47536
23326,47553
23321,47554
23275,47559
23244,47559
23198,47554
23193,47553
23138,47536
23083,47507
23079,47503
23035,47468
22996,47420
22986,47401
22967,47365
22949,47305
22949,47305
22943,47244
22949,47182
22950,47177
22967,47122
22996,47068
23000,47063
23035,47020
23083,46980
23083,46980
23083,46980
23138,46951
23198,46933
23198,46933
23244,46928
23275,46928
23321,46933
Z" /> 
<path style="fill:#000000; fill-opacity:1.0; 
stroke:#000000; stroke-width:0; stroke-opacity:1; 
stroke-linecap:round; stroke-linejoin:round;fill-rule:evenodd;"
d="M 27321,46933
27321,46933
27381,46951
27435,46980
27435,46980
27435,46980
27483,47020
27519,47063
27523,47068
27552,47122
27569,47177
27570,47182
27576,47244
27570,47305
27570,47305
27552,47365
27532,47401
27523,47420
27483,47468
27440,47503
27435,47507
27381,47536
27326,47553
27321,47554
27275,47559
27244,47559
27198,47554
27193,47553
27138,47536
27083,47507
27079,47503
27035,47468
26996,47420
26986,47401
26967,47365
26949,47305
26949,47305
26943,47244
26949,47182
26950,47177
26967,47122
26996,47068
27000,47063
27035,47020
27083,46980
27083,46980
27083,46980
27138,46951
27198,46933
27198,46933
27244,46928
27275,46928
27321,46933
Z" /> 
<path style="fill:#000000; fill-opacity:1.0; 
stroke:#000000; stroke-width:0; stroke-opacity:1; 
stroke-linecap:round; stroke-linejoin:round;fill-rule:evenodd;"
d="M 51496,47401
50905,47401
50905,47007
51496,47007
51496,47401
Z" /> 
<path style="fill:#000000; fill-opacity:1.0; 
stroke:#000000; stroke-width:0; stroke-opacity:1; 
stroke-linecap:round; stroke-linejoin:round;fill-rule:evenodd;"
d="M 53425,47401
52834,47401
52834,47007
53425,47007
53425,47401
Z" /> 
<path style="fill:#000000; fill-opacity:1.0; 
stroke:#000000; stroke-width:0; stroke-opacity:1; 
stroke-linecap:round; stroke-linejoin:round;fill-rule:evenodd;"
d="M 48502,45949
48502,45949
48562,45967
48616,45996
48616,45996
48616,45996
48664,46035
48700,46079
48704,46083
48733,46138
48750,46193
48751,46198
48757,46259
48751,46321
48751,46321
48733,46381
48714,46416
48704,46435
48664,46483
48627,46514
48616,46523
48562,46552
48507,46569
48502,46570
48456,46575
48425,46575
48379,46570
48374,46569
48319,46552
48264,46523
48254,46514
48216,46483
48177,46435
48167,46416
48148,46381
48130,46321
48130,46321
48124,46259
48130,46198
48131,46193
48148,46138
48177,46083
48181,46079
48216,46035
48264,45996
48264,45996
48264,45996
48319,45967
48379,45949
48379,45949
48425,45944
48456,45944
48502,45949
Z" /> 
<path style="fill:#000000; fill-opacity:1.0; 
stroke:#000000; stroke-width:0; stroke-opacity:1; 
stroke-linecap:round; stroke-linejoin:round;fill-rule:evenodd;"
d="M 47532,45956
47590,45980
47641,46014
47685,46058
47720,46110
47744,46167
47756,46228
47756,46290
47744,46351
47720,46409
47685,46460
47641,46504
47590,46539
47558,46552
47532,46562
47471,46575
47409,46575
47349,46562
47323,46552
47291,46539
47240,46504
47196,46460
47161,46409
47137,46351
47125,46290
47125,46228
47137,46167
47161,46110
47196,46058
47240,46014
47291,45980
47349,45956
47409,45944
47471,45944
47532,45956
Z" /> 
<path style="fill:#000000; fill-opacity:1.0; 
stroke:#000000; stroke-width:0; stroke-opacity:1; 
stroke-linecap:round; stroke-linejoin:round;fill-rule:evenodd;"
d="M 50467,45199
50574,45243
50671,45308
50753,45390
50818,45487
50863,45595
50885,45709
50885,45825
50863,45939
50818,46047
50753,46144
50671,46226
50574,46291
50500,46321
50467,46335
50353,46358
50236,46358
50122,46335
50089,46321
50015,46291
49918,46226
49836,46144
49771,46047
49726,45939
49704,45825
49704,45709
49726,45595
49771,45487
49836,45390
49918,45308
50015,45243
50122,45199
50236,45176
50353,45176
50467,45199
Z" /> 
<path style="fill:#000000; fill-opacity:1.0; 
stroke:#000000; stroke-width:0; stroke-opacity:1; 
stroke-linecap:round; stroke-linejoin:round;fill-rule:evenodd;"
d="M 20940,45199
21047,45243
21144,45308
21226,45390
21291,45487
21335,45595
21358,45709
21358,45825
21335,45939
21291,46047
21226,46144
21144,46226
21047,46291
20940,46335
20825,46358
20709,46358
20595,46335
20487,46291
20391,46226
20308,46144
20244,46047
20199,45939
20176,45825
20176,45709
20199,45595
20244,45487
20308,45390
20391,45308
20487,45243
20595,45199
20709,45176
20825,45176
20940,45199
Z" /> 
<path style="fill:#000000; fill-opacity:1.0; 
stroke:#000000; stroke-width:0; stroke-opacity:1; 
stroke-linecap:round; stroke-linejoin:round;fill-rule:evenodd;"
d="M 26002,45260
26002,45260
26069,45280
26130,45313
26130,45313
26130,45313
26184,45358
26224,45407
26228,45412
26251,45453
26261,45473
26282,45540
26287,45592
26287,45942
26282,45994
26282,45994
26261,46061
26235,46110
26228,46122
26184,46176
26135,46217
26130,46221
26069,46254
26002,46274
25932,46281
25863,46274
25796,46254
25734,46221
25729,46217
25680,46176
25636,46122
25629,46110
25603,46061
25583,45994
25583,45994
25578,45942
25578,45592
25583,45540
25603,45473
25636,45412
25680,45358
25734,45313
25734,45313
25734,45313
25796,45280
25863,45260
25863,45260
25932,45253
26002,45260
Z" /> 
<path style="fill:#000000; fill-opacity:1.0; 
stroke:#000000; stroke-width:0; stroke-opacity:1; 
stroke-linecap:round; stroke-linejoin:round;fill-rule:evenodd;"
d="M 27002,45260
27002,45260
27069,45280
27130,45313
27130,45313
27130,45313
27184,45358
27224,45407
27228,45412
27251,45453
27261,45473
27282,45540
27287,45592
27287,45942
27282,45994
27282,45994
27261,46061
27235,46110
27228,46122
27184,46176
27135,46217
27130,46221
27069,46254
27002,46274
26932,46281
26863,46274
26796,46254
26734,46221
26729,46217
26680,46176
26636,46122
26629,46110
26603,46061
26583,45994
26583,45994
26578,45942
26578,45592
26583,45540
26603,45473
26636,45412
26680,45358
26734,45313
26734,45313
26734,45313
26796,45280
26863,45260
26863,45260
26932,45253
27002,45260
Z" /> 
<path style="fill:#000000; fill-opacity:1.0; 
stroke:#000000; stroke-width:0; stroke-opacity:1; 
stroke-linecap:round; stroke-linejoin:round;fill-rule:evenodd;"
d="M 28002,45260
28002,45260
28069,45280
28130,45313
28130,45313
28130,45313
28184,45358
28224,45407
28228,45412
28251,45453
28261,45473
28282,45540
28287,45592
28287,45942
28282,45994
28282,45994
28261,46061
28235,46110
28228,46122
28184,46176
28135,46217
28130,46221
28069,46254
28002,46274
27932,46281
27863,46274
27796,46254
27734,46221
27729,46217
27680,46176
27636,46122
27629,46110
27603,46061
27583,45994
27583,45994
27578,45942
27578,45592
27583,45540
27603,45473
27636,45412
27680,45358
27734,45313
27734,45313
27734,45313
27796,45280
27863,45260
27863,45260
27932,45253
28002,45260
Z" /> 
<path style="fill:#000000; fill-opacity:1.0; 
stroke:#000000; stroke-width:0; stroke-opacity:1; 
stroke-linecap:round; stroke-linejoin:round;fill-rule:evenodd;"
d="M 29002,45260
29002,45260
29069,45280
29130,45313
29130,45313
29130,45313
29184,45358
29224,45407
29228,45412
29251,45453
29261,45473
29282,45540
29287,45592
29287,45942
29282,45994
29282,45994
29261,46061
29235,46110
29228,46122
29184,46176
29135,46217
29130,46221
29069,46254
29002,46274
28932,46281
28863,46274
28796,46254
28734,46221
28729,46217
28680,46176
28636,46122
28629,46110
28603,46061
28583,45994
28583,45994
28578,45942
28578,45592
28583,45540
28603,45473
28636,45412
28680,45358
28734,45313
28734,45313
28734,45313
28796,45280
28863,45260
28863,45260
28932,45253
29002,45260
Z" /> 
<path style="fill:#000000; fill-opacity:1.0; 
stroke:#000000; stroke-width:0; stroke-opacity:1; 
stroke-linecap:round; stroke-linejoin:round;fill-rule:evenodd;"
d="M 30002,45260
30002,45260
30069,45280
30130,45313
30130,45313
30130,45313
30184,45358
30224,45407
30228,45412
30251,45453
30261,45473
30282,45540
30287,45592
30287,45942
30282,45994
30282,45994
30261,46061
30235,46110
30228,46122
30184,46176
30135,46217
30130,46221
30069,46254
30002,46274
29932,46281
29863,46274
29796,46254
29734,46221
29729,46217
29680,46176
29636,46122
29629,46110
29603,46061
29583,45994
29583,45994
29578,45942
29578,45592
29583,45540
29603,45473
29636,45412
29680,45358
29734,45313
29734,45313
29734,45313
29796,45280
29863,45260
29863,45260
29932,45253
30002,45260
Z" /> 
<path style="fill:#000000; fill-opacity:1.0; 
stroke:#000000; stroke-width:0; stroke-opacity:1; 
stroke-linecap:round; stroke-linejoin:round;fill-rule:evenodd;"
d="M 31002,45260
31002,45260
31069,45280
31130,45313
31130,45313
31130,45313
31184,45358
31224,45407
31228,45412
31251,45453
31261,45473
31282,45540
31287,45592
31287,45942
31282,45994
31282,45994
31261,46061
31235,46110
31228,46122
31184,46176
31135,46217
31130,46221
31069,46254
31002,46274
30932,46281
30863,46274
30796,46254
30734,46221
30729,46217
30680,46176
30636,46122
30629,46110
30603,46061
30583,45994
30583,45994
30578,45942
30578,45592
30583,45540
30603,45473
30636,45412
30680,45358
30734,45313
30734,45313
30734,45313
30796,45280
30863,45260
30863,45260
30932,45253
31002,45260
Z" /> 
<path style="fill:#000000; fill-opacity:1.0; 
stroke:#000000; stroke-width:0; stroke-opacity:1; 
stroke-linecap:round; stroke-linejoin:round;fill-rule:evenodd;"
d="M 32002,45260
32002,45260
32069,45280
32130,45313
32130,45313
32130,45313
32184,45358
32224,45407
32228,45412
32251,45453
32261,45473
32282,45540
32287,45592
32287,45942
32282,45994
32282,45994
32261,46061
32235,46110
32228,46122
32184,46176
32135,46217
32130,46221
32069,46254
32002,46274
31932,46281
31863,46274
31796,46254
31734,46221
31729,46217
31680,46176
31636,46122
31629,46110
31603,46061
31583,45994
31583,45994
31578,45942
31578,45592
31583,45540
31603,45473
31636,45412
31680,45358
31734,45313
31734,45313
31734,45313
31796,45280
31863,45260
31863,45260
31932,45253
32002,45260
Z" /> 
<path style="fill:#000000; fill-opacity:1.0; 
stroke:#000000; stroke-width:0; stroke-opacity:1; 
stroke-linecap:round; stroke-linejoin:round;fill-rule:evenodd;"
d="M 33002,45260
33002,45260
33069,45280
33130,45313
33130,45313
33130,45313
33184,45358
33224,45407
33228,45412
33251,45453
33261,45473
33282,45540
33287,45592
33287,45942
33282,45994
33282,45994
33261,46061
33235,46110
33228,46122
33184,46176
33135,46217
33130,46221
33069,46254
33002,46274
32932,46281
32863,46274
32796,46254
32734,46221
32729,46217
32680,46176
32636,46122
32629,46110
32603,46061
32583,45994
32583,45994
32578,45942
32578,45592
32583,45540
32603,45473
32636,45412
32680,45358
32734,45313
32734,45313
32734,45313
32796,45280
32863,45260
32863,45260
32932,45253
33002,45260
Z" /> 
<path style="fill:#000000; fill-opacity:1.0; 
stroke:#000000; stroke-width:0; stroke-opacity:1; 
stroke-linecap:round; stroke-linejoin:round;fill-rule:evenodd;"
d="M 24002,45260
24002,45260
24069,45280
24130,45313
24130,45313
24130,45313
24184,45358
24224,45407
24228,45412
24251,45453
24261,45473
24282,45540
24287,45592
24287,45942
24282,45994
24282,45994
24261,46061
24235,46110
24228,46122
24184,46176
24135,46217
24130,46221
24069,46254
24002,46274
23932,46281
23863,46274
23796,46254
23734,46221
23729,46217
23680,46176
23636,46122
23629,46110
23603,46061
23583,45994
23583,45994
23578,45942
23578,45592
23583,45540
23603,45473
23636,45412
23680,45358
23734,45313
23734,45313
23734,45313
23796,45280
23863,45260
23863,45260
23932,45253
24002,45260
Z" /> 
<path style="fill:#000000; fill-opacity:1.0; 
stroke:#000000; stroke-width:0; stroke-opacity:1; 
stroke-linecap:round; stroke-linejoin:round;fill-rule:evenodd;"
d="M 35002,45260
35002,45260
35069,45280
35130,45313
35130,45313
35130,45313
35184,45358
35224,45407
35228,45412
35251,45453
35261,45473
35282,45540
35287,45592
35287,45942
35282,45994
35282,45994
35261,46061
35235,46110
35228,46122
35184,46176
35135,46217
35130,46221
35069,46254
35002,46274
34932,46281
34863,46274
34796,46254
34734,46221
34729,46217
34680,46176
34636,46122
34629,46110
34603,46061
34583,45994
34583,45994
34578,45942
34578,45592
34583,45540
34603,45473
34636,45412
34680,45358
34734,45313
34734,45313
34734,45313
34796,45280
34863,45260
34863,45260
34932,45253
35002,45260
Z" /> 
<path style="fill:#000000; fill-opacity:1.0; 
stroke:#000000; stroke-width:0; stroke-opacity:1; 
stroke-linecap:round; stroke-linejoin:round;fill-rule:evenodd;"
d="M 37002,45260
37002,45260
37069,45280
37130,45313
37130,45313
37130,45313
37184,45358
37224,45407
37228,45412
37251,45453
37261,45473
37282,45540
37287,45592
37287,45942
37282,45994
37282,45994
37261,46061
37235,46110
37228,46122
37184,46176
37135,46217
37130,46221
37069,46254
37002,46274
36932,46281
36863,46274
36796,46254
36734,46221
36729,46217
36680,46176
36636,46122
36629,46110
36603,46061
36583,45994
36583,45994
36578,45942
36578,45592
36583,45540
36603,45473
36636,45412
36680,45358
36734,45313
36734,45313
36734,45313
36796,45280
36863,45260
36863,45260
36932,45253
37002,45260
Z" /> 
<path style="fill:#000000; fill-opacity:1.0; 
stroke:#000000; stroke-width:0; stroke-opacity:1; 
stroke-linecap:round; stroke-linejoin:round;fill-rule:evenodd;"
d="M 38002,45260
38002,45260
38069,45280
38130,45313
38130,45313
38130,45313
38184,45358
38224,45407
38228,45412
38251,45453
38261,45473
38282,45540
38287,45592
38287,45942
38282,45994
38282,45994
38261,46061
38235,46110
38228,46122
38184,46176
38135,46217
38130,46221
38069,46254
38002,46274
37932,46281
37863,46274
37796,46254
37734,46221
37729,46217
37680,46176
37636,46122
37629,46110
37603,46061
37583,45994
37583,45994
37578,45942
37578,45592
37583,45540
37603,45473
37636,45412
37680,45358
37734,45313
37734,45313
37734,45313
37796,45280
37863,45260
37863,45260
37932,45253
38002,45260
Z" /> 
<path style="fill:#000000; fill-opacity:1.0; 
stroke:#000000; stroke-width:0; stroke-opacity:1; 
stroke-linecap:round; stroke-linejoin:round;fill-rule:evenodd;"
d="M 36002,45260
36002,45260
36069,45280
36130,45313
36130,45313
36130,45313
36184,45358
36224,45407
36228,45412
36251,45453
36261,45473
36282,45540
36287,45592
36287,45942
36282,45994
36282,45994
36261,46061
36235,46110
36228,46122
36184,46176
36135,46217
36130,46221
36069,46254
36002,46274
35932,46281
35863,46274
35796,46254
35734,46221
35729,46217
35680,46176
35636,46122
35629,46110
35603,46061
35583,45994
35583,45994
35578,45942
35578,45592
35583,45540
35603,45473
35636,45412
35680,45358
35734,45313
35734,45313
35734,45313
35796,45280
35863,45260
35863,45260
35932,45253
36002,45260
Z" /> 
<path style="fill:#000000; fill-opacity:1.0; 
stroke:#000000; stroke-width:0; stroke-opacity:1; 
stroke-linecap:round; stroke-linejoin:round;fill-rule:evenodd;"
d="M 25002,45260
25002,45260
25069,45280
25130,45313
25130,45313
25130,45313
25184,45358
25224,45407
25228,45412
25251,45453
25261,45473
25282,45540
25287,45592
25287,45942
25282,45994
25282,45994
25261,46061
25235,46110
25228,46122
25184,46176
25135,46217
25130,46221
25069,46254
25002,46274
24932,46281
24863,46274
24796,46254
24734,46221
24729,46217
24680,46176
24636,46122
24629,46110
24603,46061
24583,45994
24583,45994
24578,45942
24578,45592
24583,45540
24603,45473
24636,45412
24680,45358
24734,45313
24734,45313
24734,45313
24796,45280
24863,45260
24863,45260
24932,45253
25002,45260
Z" /> 
<path style="fill:#000000; fill-opacity:1.0; 
stroke:#000000; stroke-width:0; stroke-opacity:1; 
stroke-linecap:round; stroke-linejoin:round;fill-rule:evenodd;"
d="M 34002,45260
34002,45260
34069,45280
34130,45313
34130,45313
34130,45313
34184,45358
34224,45407
34228,45412
34251,45453
34261,45473
34282,45540
34287,45592
34287,45942
34282,45994
34282,45994
34261,46061
34235,46110
34228,46122
34184,46176
34135,46217
34130,46221
34069,46254
34002,46274
33932,46281
33863,46274
33796,46254
33734,46221
33729,46217
33680,46176
33636,46122
33629,46110
33603,46061
33583,45994
33583,45994
33578,45942
33578,45592
33583,45540
33603,45473
33636,45412
33680,45358
33734,45313
33734,45313
33734,45313
33796,45280
33863,45260
33863,45260
33932,45253
34002,45260
Z" /> 
<path style="fill:#000000; fill-opacity:1.0; 
stroke:#000000; stroke-width:0; stroke-opacity:1; 
stroke-linecap:round; stroke-linejoin:round;fill-rule:evenodd;"
d="M 23287,46279
22578,46279
22578,45255
23287,45255
23287,46279
Z" /> 
<path style="fill:#000000; fill-opacity:1.0; 
stroke:#000000; stroke-width:0; stroke-opacity:1; 
stroke-linecap:round; stroke-linejoin:round;fill-rule:evenodd;"
d="M 52760,45525
52825,45551
52883,45590
52932,45640
52971,45698
52998,45762
53012,45831
53012,45901
52998,45969
52971,46034
52932,46092
52883,46141
52825,46180
52760,46207
52692,46220
52622,46220
52554,46207
52489,46180
52431,46141
52382,46092
52343,46034
52316,45969
52302,45901
52302,45831
52316,45762
52343,45698
52382,45640
52431,45590
52489,45551
52554,45525
52622,45511
52692,45511
52760,45525
Z" /> 
<path style="fill:#000000; fill-opacity:1.0; 
stroke:#000000; stroke-width:0; stroke-opacity:1; 
stroke-linecap:round; stroke-linejoin:round;fill-rule:evenodd;"
d="M 52012,46220
51302,46220
51302,45511
52012,45511
52012,46220
Z" /> 
<path style="fill:#000000; fill-opacity:1.0; 
stroke:#000000; stroke-width:0; stroke-opacity:1; 
stroke-linecap:round; stroke-linejoin:round;fill-rule:evenodd;"
d="M 55915,44906
55915,44906
55982,44926
56044,44959
56044,44959
56044,44959
56098,45003
56142,45057
56175,45119
56195,45186
56202,45255
56195,45325
56175,45392
56142,45453
56098,45507
56049,45548
56044,45552
55982,45585
55915,45605
55863,45610
54962,45610
54910,45605
54843,45585
54782,45552
54777,45548
54728,45507
54684,45453
54651,45392
54630,45325
54624,45255
54630,45186
54651,45119
54684,45057
54728,45003
54782,44959
54782,44959
54782,44959
54843,44926
54910,44906
54910,44906
54962,44901
55863,44901
55915,44906
Z" /> 
</g> 
</svg>
