<?xml version="1.0" standalone="no"?>
 <!DOCTYPE svg PUBLIC "-//W3C//DTD SVG 1.1//EN" 
 "http://www.w3.org/Graphics/SVG/1.1/DTD/svg11.dtd"> 
<svg xmlns="http://www.w3.org/2000/svg" version="1.1" 
    width="29.7002cm" height="21.0007cm" viewBox="0 0 116930 82680 ">
<title>SVG Picture created as Striduino-B_Paste.svg date 2019/11/24 23:38:58 </title>
  <desc>Picture generated by PCBNEW </desc>
<g style="fill:#000000; fill-opacity:1;stroke:#000000; stroke-opacity:1;
stroke-linecap:round; stroke-linejoin:round; "
 transform="translate(0 0) scale(1 1)">
</g>
<g style="fill:#000000; fill-opacity:0.0; 
stroke:#000000; stroke-width:-0.000393701; stroke-opacity:1; 
stroke-linecap:round; stroke-linejoin:round;">
<g >
</g>
<g >
</g>
<g >
</g>
<g >
</g>
<g >
</g>
<g >
</g>
<g >
</g>
<g >
</g>
<g >
</g>
<g >
</g>
<g >
</g>
<g >
</g>
<g >
</g>
<g >
</g>
<g >
</g>
<g >
</g>
<g >
</g>
<g >
</g>
<g >
</g>
<g >
</g>
<g >
</g>
<g >
</g>
<g >
</g>
<g style="fill:#000000; fill-opacity:0.0; 
stroke:#000000; stroke-width:-0.000393701; stroke-opacity:1; 
stroke-linecap:round; stroke-linejoin:round;">
</g>
<g style="fill:#000000; fill-opacity:0.0; 
stroke:#000000; stroke-width:0; stroke-opacity:1; 
stroke-linecap:round; stroke-linejoin:round;">
</g>
<g style="fill:#000000; fill-opacity:1.0; 
stroke:#000000; stroke-width:0; stroke-opacity:1; 
stroke-linecap:round; stroke-linejoin:round;">
<path style="fill:#000000; fill-opacity:1.0; 
stroke:#000000; stroke-width:0; stroke-opacity:1; 
stroke-linecap:round; stroke-linejoin:round;fill-rule:evenodd;"
d="M 51009,53258
51018,53259
51026,53261
51034,53264
51042,53268
51049,53272
51056,53277
51062,53283
51068,53289
51073,53296
51077,53303
51081,53311
51083,53318
51085,53327
51087,53335
51087,53343
51087,53545
51087,53554
51085,53562
51083,53570
51081,53578
51077,53586
51073,53593
51068,53600
51062,53606
51056,53612
51049,53617
51042,53621
51034,53625
51026,53628
51018,53630
51009,53631
51001,53631
50829,53631
50820,53631
50812,53630
50804,53628
50796,53625
50788,53621
50781,53617
50774,53612
50768,53606
50762,53600
50757,53593
50753,53586
50749,53578
50746,53570
50744,53562
50743,53554
50743,53545
50743,53343
50743,53335
50744,53327
50746,53318
50749,53311
50753,53303
50757,53296
50762,53289
50768,53283
50774,53277
50781,53272
50788,53268
50796,53264
50804,53261
50812,53259
50820,53258
50829,53257
51001,53257
51009,53258
Z" /> 
<path style="fill:#000000; fill-opacity:1.0; 
stroke:#000000; stroke-width:0; stroke-opacity:1; 
stroke-linecap:round; stroke-linejoin:round;fill-rule:evenodd;"
d="M 50389,53258
50398,53259
50406,53261
50414,53264
50421,53268
50429,53272
50436,53277
50442,53283
50447,53289
50453,53296
50457,53303
50460,53311
50463,53318
50465,53327
50467,53335
50467,53343
50467,53545
50467,53554
50465,53562
50463,53570
50460,53578
50457,53586
50453,53593
50447,53600
50442,53606
50436,53612
50429,53617
50421,53621
50414,53625
50406,53628
50398,53630
50389,53631
50381,53631
50209,53631
50200,53631
50192,53630
50184,53628
50176,53625
50168,53621
50161,53617
50154,53612
50148,53606
50142,53600
50137,53593
50133,53586
50129,53578
50126,53570
50124,53562
50123,53554
50123,53545
50123,53343
50123,53335
50124,53327
50126,53318
50129,53311
50133,53303
50137,53296
50142,53289
50148,53283
50154,53277
50161,53272
50168,53268
50176,53264
50184,53261
50192,53259
50200,53258
50209,53257
50381,53257
50389,53258
Z" /> 
</g>
<g >
</g>
<g style="fill:#000000; fill-opacity:1.0; 
stroke:#000000; stroke-width:0; stroke-opacity:1; 
stroke-linecap:round; stroke-linejoin:round;">
<path style="fill:#000000; fill-opacity:1.0; 
stroke:#000000; stroke-width:0; stroke-opacity:1; 
stroke-linecap:round; stroke-linejoin:round;fill-rule:evenodd;"
d="M 50488,49714
50496,49716
50504,49718
50512,49721
50520,49724
50527,49729
50534,49734
50540,49739
50546,49746
50551,49752
50555,49760
50559,49767
50562,49775
50564,49783
50565,49792
50565,49800
50565,50002
50565,50010
50564,50019
50562,50027
50559,50035
50555,50043
50551,50050
50546,50057
50540,50063
50534,50069
50527,50074
50520,50078
50512,50082
50504,50084
50496,50086
50488,50088
50479,50088
50307,50088
50299,50088
50290,50086
50282,50084
50274,50082
50266,50078
50259,50074
50252,50069
50246,50063
50241,50057
50235,50050
50231,50043
50228,50035
50225,50027
50223,50019
50221,50010
50221,50002
50221,49800
50221,49792
50223,49783
50225,49775
50228,49767
50231,49760
50235,49752
50241,49746
50246,49739
50252,49734
50259,49729
50266,49724
50274,49721
50282,49718
50290,49716
50299,49714
50307,49714
50479,49714
50488,49714
Z" /> 
<path style="fill:#000000; fill-opacity:1.0; 
stroke:#000000; stroke-width:0; stroke-opacity:1; 
stroke-linecap:round; stroke-linejoin:round;fill-rule:evenodd;"
d="M 51108,49714
51116,49716
51124,49718
51132,49721
51140,49724
51147,49729
51154,49734
51160,49739
51166,49746
51171,49752
51175,49760
51179,49767
51182,49775
51184,49783
51185,49792
51186,49800
51186,50002
51185,50010
51184,50019
51182,50027
51179,50035
51175,50043
51171,50050
51166,50057
51160,50063
51154,50069
51147,50074
51140,50078
51132,50082
51124,50084
51116,50086
51108,50088
51099,50088
50927,50088
50919,50088
50910,50086
50902,50084
50894,50082
50887,50078
50879,50074
50873,50069
50866,50063
50861,50057
50856,50050
50851,50043
50848,50035
50845,50027
50843,50019
50841,50010
50841,50002
50841,49800
50841,49792
50843,49783
50845,49775
50848,49767
50851,49760
50856,49752
50861,49746
50866,49739
50873,49734
50879,49729
50887,49724
50894,49721
50902,49718
50910,49716
50919,49714
50927,49714
51099,49714
51108,49714
Z" /> 
</g>
<g >
</g>
<g style="fill:#000000; fill-opacity:1.0; 
stroke:#000000; stroke-width:0; stroke-opacity:1; 
stroke-linecap:round; stroke-linejoin:round;">
<path style="fill:#000000; fill-opacity:1.0; 
stroke:#000000; stroke-width:0; stroke-opacity:1; 
stroke-linecap:round; stroke-linejoin:round;fill-rule:evenodd;"
d="M 50389,52372
50398,52373
50406,52375
50414,52378
50421,52382
50429,52386
50436,52391
50442,52397
50447,52403
50453,52410
50457,52417
50460,52425
50463,52433
50465,52441
50467,52449
50467,52458
50467,52659
50467,52668
50465,52676
50463,52684
50460,52692
50457,52700
50453,52707
50447,52714
50442,52720
50436,52726
50429,52731
50421,52735
50414,52739
50406,52742
50398,52744
50389,52745
50381,52746
50209,52746
50200,52745
50192,52744
50184,52742
50176,52739
50168,52735
50161,52731
50154,52726
50148,52720
50142,52714
50137,52707
50133,52700
50129,52692
50126,52684
50124,52676
50123,52668
50123,52659
50123,52458
50123,52449
50124,52441
50126,52433
50129,52425
50133,52417
50137,52410
50142,52403
50148,52397
50154,52391
50161,52386
50168,52382
50176,52378
50184,52375
50192,52373
50200,52372
50209,52372
50381,52372
50389,52372
Z" /> 
<path style="fill:#000000; fill-opacity:1.0; 
stroke:#000000; stroke-width:0; stroke-opacity:1; 
stroke-linecap:round; stroke-linejoin:round;fill-rule:evenodd;"
d="M 51009,52372
51018,52373
51026,52375
51034,52378
51042,52382
51049,52386
51056,52391
51062,52397
51068,52403
51073,52410
51077,52417
51081,52425
51083,52433
51085,52441
51087,52449
51087,52458
51087,52659
51087,52668
51085,52676
51083,52684
51081,52692
51077,52700
51073,52707
51068,52714
51062,52720
51056,52726
51049,52731
51042,52735
51034,52739
51026,52742
51018,52744
51009,52745
51001,52746
50829,52746
50820,52745
50812,52744
50804,52742
50796,52739
50788,52735
50781,52731
50774,52726
50768,52720
50762,52714
50757,52707
50753,52700
50749,52692
50746,52684
50744,52676
50743,52668
50743,52659
50743,52458
50743,52449
50744,52441
50746,52433
50749,52425
50753,52417
50757,52410
50762,52403
50768,52397
50774,52391
50781,52386
50788,52382
50796,52378
50804,52375
50812,52373
50820,52372
50829,52372
51001,52372
51009,52372
Z" /> 
</g>
<g >
</g>
<g style="fill:#000000; fill-opacity:1.0; 
stroke:#000000; stroke-width:0; stroke-opacity:1; 
stroke-linecap:round; stroke-linejoin:round;">
<path style="fill:#000000; fill-opacity:1.0; 
stroke:#000000; stroke-width:0; stroke-opacity:1; 
stroke-linecap:round; stroke-linejoin:round;fill-rule:evenodd;"
d="M 50488,48829
50496,48830
50504,48832
50512,48835
50520,48838
50527,48843
50534,48848
50540,48853
50546,48860
50551,48867
50555,48874
50559,48881
50562,48889
50564,48898
50565,48906
50565,48914
50565,49116
50565,49125
50564,49133
50562,49141
50559,49149
50555,49157
50551,49164
50546,49171
50540,49177
50534,49183
50527,49188
50520,49192
50512,49196
50504,49199
50496,49201
50488,49202
50479,49202
50307,49202
50299,49202
50290,49201
50282,49199
50274,49196
50266,49192
50259,49188
50252,49183
50246,49177
50241,49171
50235,49164
50231,49157
50228,49149
50225,49141
50223,49133
50221,49125
50221,49116
50221,48914
50221,48906
50223,48898
50225,48889
50228,48881
50231,48874
50235,48867
50241,48860
50246,48853
50252,48848
50259,48843
50266,48838
50274,48835
50282,48832
50290,48830
50299,48829
50307,48828
50479,48828
50488,48829
Z" /> 
<path style="fill:#000000; fill-opacity:1.0; 
stroke:#000000; stroke-width:0; stroke-opacity:1; 
stroke-linecap:round; stroke-linejoin:round;fill-rule:evenodd;"
d="M 51108,48829
51116,48830
51124,48832
51132,48835
51140,48838
51147,48843
51154,48848
51160,48853
51166,48860
51171,48867
51175,48874
51179,48881
51182,48889
51184,48898
51185,48906
51186,48914
51186,49116
51185,49125
51184,49133
51182,49141
51179,49149
51175,49157
51171,49164
51166,49171
51160,49177
51154,49183
51147,49188
51140,49192
51132,49196
51124,49199
51116,49201
51108,49202
51099,49202
50927,49202
50919,49202
50910,49201
50902,49199
50894,49196
50887,49192
50879,49188
50873,49183
50866,49177
50861,49171
50856,49164
50851,49157
50848,49149
50845,49141
50843,49133
50841,49125
50841,49116
50841,48914
50841,48906
50843,48898
50845,48889
50848,48881
50851,48874
50856,48867
50861,48860
50866,48853
50873,48848
50879,48843
50887,48838
50894,48835
50902,48832
50910,48830
50919,48829
50927,48828
51099,48828
51108,48829
Z" /> 
</g>
<g >
</g>
<g style="fill:#000000; fill-opacity:1.0; 
stroke:#000000; stroke-width:0; stroke-opacity:1; 
stroke-linecap:round; stroke-linejoin:round;">
<path style="fill:#000000; fill-opacity:1.0; 
stroke:#000000; stroke-width:0; stroke-opacity:1; 
stroke-linecap:round; stroke-linejoin:round;fill-rule:evenodd;"
d="M 51108,47943
51116,47944
51124,47946
51132,47949
51140,47953
51147,47957
51154,47962
51160,47968
51166,47974
51171,47981
51175,47988
51179,47996
51182,48004
51184,48012
51185,48020
51186,48029
51186,48230
51185,48239
51184,48247
51182,48255
51179,48263
51175,48271
51171,48278
51166,48285
51160,48291
51154,48297
51147,48302
51140,48306
51132,48310
51124,48313
51116,48315
51108,48316
51099,48316
50927,48316
50919,48316
50910,48315
50902,48313
50894,48310
50887,48306
50879,48302
50873,48297
50866,48291
50861,48285
50856,48278
50851,48271
50848,48263
50845,48255
50843,48247
50841,48239
50841,48230
50841,48029
50841,48020
50843,48012
50845,48004
50848,47996
50851,47988
50856,47981
50861,47974
50866,47968
50873,47962
50879,47957
50887,47953
50894,47949
50902,47946
50910,47944
50919,47943
50927,47942
51099,47942
51108,47943
Z" /> 
<path style="fill:#000000; fill-opacity:1.0; 
stroke:#000000; stroke-width:0; stroke-opacity:1; 
stroke-linecap:round; stroke-linejoin:round;fill-rule:evenodd;"
d="M 50488,47943
50496,47944
50504,47946
50512,47949
50520,47953
50527,47957
50534,47962
50540,47968
50546,47974
50551,47981
50555,47988
50559,47996
50562,48004
50564,48012
50565,48020
50565,48029
50565,48230
50565,48239
50564,48247
50562,48255
50559,48263
50555,48271
50551,48278
50546,48285
50540,48291
50534,48297
50527,48302
50520,48306
50512,48310
50504,48313
50496,48315
50488,48316
50479,48316
50307,48316
50299,48316
50290,48315
50282,48313
50274,48310
50266,48306
50259,48302
50252,48297
50246,48291
50241,48285
50235,48278
50231,48271
50228,48263
50225,48255
50223,48247
50221,48239
50221,48230
50221,48029
50221,48020
50223,48012
50225,48004
50228,47996
50231,47988
50235,47981
50241,47974
50246,47968
50252,47962
50259,47957
50266,47953
50274,47949
50282,47946
50290,47944
50299,47943
50307,47942
50479,47942
50488,47943
Z" /> 
</g>
<g >
</g>
<g >
</g>
<g >
</g>
<g >
</g>
<g style="fill:#000000; fill-opacity:1.0; 
stroke:#000000; stroke-width:0; stroke-opacity:1; 
stroke-linecap:round; stroke-linejoin:round;">
<path style="fill:#000000; fill-opacity:1.0; 
stroke:#000000; stroke-width:0; stroke-opacity:1; 
stroke-linecap:round; stroke-linejoin:round;fill-rule:evenodd;"
d="M 45498,45187
45506,45188
45514,45190
45522,45193
45530,45197
45537,45201
45544,45206
45550,45212
45556,45218
45561,45225
45565,45232
45569,45240
45572,45248
45574,45256
45575,45264
45575,45273
45575,45474
45575,45483
45574,45491
45572,45499
45569,45507
45565,45515
45561,45522
45556,45529
45550,45535
45544,45541
45537,45546
45530,45550
45522,45554
45514,45557
45506,45559
45498,45560
45489,45561
45317,45561
45308,45560
45300,45559
45292,45557
45284,45554
45276,45550
45269,45546
45262,45541
45256,45535
45250,45529
45245,45522
45241,45515
45237,45507
45235,45499
45232,45491
45231,45483
45231,45474
45231,45273
45231,45264
45232,45256
45235,45248
45237,45240
45241,45232
45245,45225
45250,45218
45256,45212
45262,45206
45269,45201
45276,45197
45284,45193
45292,45190
45300,45188
45308,45187
45317,45187
45489,45187
45498,45187
Z" /> 
<path style="fill:#000000; fill-opacity:1.0; 
stroke:#000000; stroke-width:0; stroke-opacity:1; 
stroke-linecap:round; stroke-linejoin:round;fill-rule:evenodd;"
d="M 44878,45187
44886,45188
44894,45190
44902,45193
44910,45197
44917,45201
44924,45206
44930,45212
44936,45218
44941,45225
44945,45232
44949,45240
44952,45248
44954,45256
44955,45264
44955,45273
44955,45474
44955,45483
44954,45491
44952,45499
44949,45507
44945,45515
44941,45522
44936,45529
44930,45535
44924,45541
44917,45546
44910,45550
44902,45554
44894,45557
44886,45559
44878,45560
44869,45561
44697,45561
44688,45560
44680,45559
44672,45557
44664,45554
44656,45550
44649,45546
44642,45541
44636,45535
44630,45529
44625,45522
44621,45515
44617,45507
44614,45499
44612,45491
44611,45483
44611,45474
44611,45273
44611,45264
44612,45256
44614,45248
44617,45240
44621,45232
44625,45225
44630,45218
44636,45212
44642,45206
44649,45201
44656,45197
44664,45193
44672,45190
44680,45188
44688,45187
44697,45187
44869,45187
44878,45187
Z" /> 
</g>
<g >
</g>
<g style="fill:#000000; fill-opacity:1.0; 
stroke:#000000; stroke-width:0; stroke-opacity:1; 
stroke-linecap:round; stroke-linejoin:round;">
<path style="fill:#000000; fill-opacity:1.0; 
stroke:#000000; stroke-width:0; stroke-opacity:1; 
stroke-linecap:round; stroke-linejoin:round;fill-rule:evenodd;"
d="M 44848,47451
44856,47452
44865,47454
44873,47457
44880,47460
44887,47465
44894,47470
44900,47476
44906,47482
44911,47489
44916,47496
44919,47503
44922,47511
44924,47520
44925,47528
44926,47536
44926,47738
44925,47747
44924,47755
44922,47763
44919,47771
44916,47779
44911,47786
44906,47793
44900,47799
44894,47805
44887,47810
44880,47814
44873,47818
44865,47821
44856,47823
44848,47824
44840,47824
44667,47824
44659,47824
44651,47823
44642,47821
44634,47818
44627,47814
44619,47810
44613,47805
44606,47799
44601,47793
44596,47786
44591,47779
44588,47771
44585,47763
44583,47755
44582,47747
44581,47738
44581,47536
44582,47528
44583,47520
44585,47511
44588,47503
44591,47496
44596,47489
44601,47482
44606,47476
44613,47470
44619,47465
44627,47460
44634,47457
44642,47454
44651,47452
44659,47451
44667,47450
44840,47450
44848,47451
Z" /> 
<path style="fill:#000000; fill-opacity:1.0; 
stroke:#000000; stroke-width:0; stroke-opacity:1; 
stroke-linecap:round; stroke-linejoin:round;fill-rule:evenodd;"
d="M 45468,47451
45476,47452
45485,47454
45493,47457
45500,47460
45507,47465
45514,47470
45521,47476
45526,47482
45531,47489
45536,47496
45539,47503
45542,47511
45544,47520
45545,47528
45546,47536
45546,47738
45545,47747
45544,47755
45542,47763
45539,47771
45536,47779
45531,47786
45526,47793
45521,47799
45514,47805
45507,47810
45500,47814
45493,47818
45485,47821
45476,47823
45468,47824
45460,47824
45287,47824
45279,47824
45271,47823
45262,47821
45254,47818
45247,47814
45240,47810
45233,47805
45226,47799
45221,47793
45216,47786
45211,47779
45208,47771
45205,47763
45203,47755
45202,47747
45201,47738
45201,47536
45202,47528
45203,47520
45205,47511
45208,47503
45211,47496
45216,47489
45221,47482
45226,47476
45233,47470
45240,47465
45247,47460
45254,47457
45262,47454
45271,47452
45279,47451
45287,47450
45460,47450
45468,47451
Z" /> 
</g>
<g >
</g>
<g style="fill:#000000; fill-opacity:1.0; 
stroke:#000000; stroke-width:0; stroke-opacity:1; 
stroke-linecap:round; stroke-linejoin:round;">
<path style="fill:#000000; fill-opacity:1.0; 
stroke:#000000; stroke-width:0; stroke-opacity:1; 
stroke-linecap:round; stroke-linejoin:round;fill-rule:evenodd;"
d="M 43214,48524
43223,48525
43231,48527
43239,48530
43246,48533
43254,48538
43260,48543
43267,48548
43272,48555
43277,48561
43282,48569
43285,48576
43288,48584
43290,48592
43291,48601
43292,48609
43292,48811
43291,48819
43290,48828
43288,48836
43285,48844
43282,48852
43277,48859
43272,48866
43267,48872
43260,48878
43254,48883
43246,48887
43239,48891
43231,48893
43223,48895
43214,48897
43206,48897
43033,48897
43025,48897
43017,48895
43008,48893
43000,48891
42993,48887
42986,48883
42979,48878
42973,48872
42967,48866
42962,48859
42958,48852
42954,48844
42951,48836
42949,48828
42948,48819
42947,48811
42947,48609
42948,48601
42949,48592
42951,48584
42954,48576
42958,48569
42962,48561
42967,48555
42973,48548
42979,48543
42986,48538
42993,48533
43000,48530
43008,48527
43017,48525
43025,48524
43033,48523
43206,48523
43214,48524
Z" /> 
<path style="fill:#000000; fill-opacity:1.0; 
stroke:#000000; stroke-width:0; stroke-opacity:1; 
stroke-linecap:round; stroke-linejoin:round;fill-rule:evenodd;"
d="M 42594,48524
42602,48525
42611,48527
42619,48530
42626,48533
42633,48538
42640,48543
42647,48548
42652,48555
42657,48561
42662,48569
42665,48576
42668,48584
42670,48592
42671,48601
42672,48609
42672,48811
42671,48819
42670,48828
42668,48836
42665,48844
42662,48852
42657,48859
42652,48866
42647,48872
42640,48878
42633,48883
42626,48887
42619,48891
42611,48893
42602,48895
42594,48897
42586,48897
42413,48897
42405,48897
42397,48895
42388,48893
42380,48891
42373,48887
42366,48883
42359,48878
42352,48872
42347,48866
42342,48859
42337,48852
42334,48844
42331,48836
42329,48828
42328,48819
42327,48811
42327,48609
42328,48601
42329,48592
42331,48584
42334,48576
42337,48569
42342,48561
42347,48555
42352,48548
42359,48543
42366,48538
42373,48533
42380,48530
42388,48527
42397,48525
42405,48524
42413,48523
42586,48523
42594,48524
Z" /> 
</g>
<g >
</g>
<g style="fill:#000000; fill-opacity:1.0; 
stroke:#000000; stroke-width:0; stroke-opacity:1; 
stroke-linecap:round; stroke-linejoin:round;">
<path style="fill:#000000; fill-opacity:1.0; 
stroke:#000000; stroke-width:0; stroke-opacity:1; 
stroke-linecap:round; stroke-linejoin:round;fill-rule:evenodd;"
d="M 45468,48533
45476,48535
45485,48537
45493,48540
45500,48543
45507,48547
45514,48553
45521,48558
45526,48564
45531,48571
45536,48578
45539,48586
45542,48594
45544,48602
45545,48611
45546,48619
45546,48821
45545,48829
45544,48838
45542,48846
45539,48854
45536,48861
45531,48869
45526,48875
45521,48882
45514,48887
45507,48892
45500,48897
45493,48900
45485,48903
45476,48905
45468,48907
45460,48907
45287,48907
45279,48907
45271,48905
45262,48903
45254,48900
45247,48897
45240,48892
45233,48887
45226,48882
45221,48875
45216,48869
45211,48861
45208,48854
45205,48846
45203,48838
45202,48829
45201,48821
45201,48619
45202,48611
45203,48602
45205,48594
45208,48586
45211,48578
45216,48571
45221,48564
45226,48558
45233,48553
45240,48547
45247,48543
45254,48540
45262,48537
45271,48535
45279,48533
45287,48533
45460,48533
45468,48533
Z" /> 
<path style="fill:#000000; fill-opacity:1.0; 
stroke:#000000; stroke-width:0; stroke-opacity:1; 
stroke-linecap:round; stroke-linejoin:round;fill-rule:evenodd;"
d="M 44848,48533
44856,48535
44865,48537
44873,48540
44880,48543
44887,48547
44894,48553
44900,48558
44906,48564
44911,48571
44916,48578
44919,48586
44922,48594
44924,48602
44925,48611
44926,48619
44926,48821
44925,48829
44924,48838
44922,48846
44919,48854
44916,48861
44911,48869
44906,48875
44900,48882
44894,48887
44887,48892
44880,48897
44873,48900
44865,48903
44856,48905
44848,48907
44840,48907
44667,48907
44659,48907
44651,48905
44642,48903
44634,48900
44627,48897
44619,48892
44613,48887
44606,48882
44601,48875
44596,48869
44591,48861
44588,48854
44585,48846
44583,48838
44582,48829
44581,48821
44581,48619
44582,48611
44583,48602
44585,48594
44588,48586
44591,48578
44596,48571
44601,48564
44606,48558
44613,48553
44619,48547
44627,48543
44634,48540
44642,48537
44651,48535
44659,48533
44667,48533
44840,48533
44848,48533
Z" /> 
</g>
<g >
</g>
<g style="fill:#000000; fill-opacity:1.0; 
stroke:#000000; stroke-width:0; stroke-opacity:1; 
stroke-linecap:round; stroke-linejoin:round;">
<path style="fill:#000000; fill-opacity:1.0; 
stroke:#000000; stroke-width:0; stroke-opacity:1; 
stroke-linecap:round; stroke-linejoin:round;fill-rule:evenodd;"
d="M 50458,46860
50467,46861
50475,46863
50483,46866
50490,46870
50498,46874
50504,46879
50511,46885
50516,46891
50521,46898
50526,46905
50529,46913
50532,46921
50534,46929
50536,46937
50536,46946
50536,47148
50536,47156
50534,47164
50532,47173
50529,47181
50526,47188
50521,47195
50516,47202
50511,47209
50504,47214
50498,47219
50490,47224
50483,47227
50475,47230
50467,47232
50458,47233
50450,47234
50278,47234
50269,47233
50261,47232
50253,47230
50245,47227
50237,47224
50230,47219
50223,47214
50217,47209
50211,47202
50206,47195
50202,47188
50198,47181
50195,47173
50193,47164
50192,47156
50191,47148
50191,46946
50192,46937
50193,46929
50195,46921
50198,46913
50202,46905
50206,46898
50211,46891
50217,46885
50223,46879
50230,46874
50237,46870
50245,46866
50253,46863
50261,46861
50269,46860
50278,46860
50450,46860
50458,46860
Z" /> 
<path style="fill:#000000; fill-opacity:1.0; 
stroke:#000000; stroke-width:0; stroke-opacity:1; 
stroke-linecap:round; stroke-linejoin:round;fill-rule:evenodd;"
d="M 51078,46860
51087,46861
51095,46863
51103,46866
51110,46870
51118,46874
51125,46879
51131,46885
51136,46891
51141,46898
51146,46905
51149,46913
51152,46921
51154,46929
51156,46937
51156,46946
51156,47148
51156,47156
51154,47164
51152,47173
51149,47181
51146,47188
51141,47195
51136,47202
51131,47209
51125,47214
51118,47219
51110,47224
51103,47227
51095,47230
51087,47232
51078,47233
51070,47234
50898,47234
50889,47233
50881,47232
50873,47230
50865,47227
50857,47224
50850,47219
50843,47214
50837,47209
50831,47202
50826,47195
50822,47188
50818,47181
50815,47173
50813,47164
50812,47156
50812,47148
50812,46946
50812,46937
50813,46929
50815,46921
50818,46913
50822,46905
50826,46898
50831,46891
50837,46885
50843,46879
50850,46874
50857,46870
50865,46866
50873,46863
50881,46861
50889,46860
50898,46860
51070,46860
51078,46860
Z" /> 
</g>
<g >
</g>
<g style="fill:#000000; fill-opacity:1.0; 
stroke:#000000; stroke-width:0; stroke-opacity:1; 
stroke-linecap:round; stroke-linejoin:round;">
<path style="fill:#000000; fill-opacity:1.0; 
stroke:#000000; stroke-width:0; stroke-opacity:1; 
stroke-linecap:round; stroke-linejoin:round;fill-rule:evenodd;"
d="M 45468,46342
45476,46344
45485,46346
45493,46349
45500,46352
45507,46357
45514,46362
45521,46367
45526,46374
45531,46380
45536,46388
45539,46395
45542,46403
45544,46411
45545,46420
45546,46428
45546,46630
45545,46638
45544,46647
45542,46655
45539,46663
45536,46671
45531,46678
45526,46685
45521,46691
45514,46696
45507,46702
45500,46706
45493,46709
45485,46712
45476,46714
45468,46716
45460,46716
45287,46716
45279,46716
45271,46714
45262,46712
45254,46709
45247,46706
45240,46702
45233,46696
45226,46691
45221,46685
45216,46678
45211,46671
45208,46663
45205,46655
45203,46647
45202,46638
45201,46630
45201,46428
45202,46420
45203,46411
45205,46403
45208,46395
45211,46388
45216,46380
45221,46374
45226,46367
45233,46362
45240,46357
45247,46352
45254,46349
45262,46346
45271,46344
45279,46342
45287,46342
45460,46342
45468,46342
Z" /> 
<path style="fill:#000000; fill-opacity:1.0; 
stroke:#000000; stroke-width:0; stroke-opacity:1; 
stroke-linecap:round; stroke-linejoin:round;fill-rule:evenodd;"
d="M 44848,46342
44856,46344
44865,46346
44873,46349
44880,46352
44887,46357
44894,46362
44900,46367
44906,46374
44911,46380
44916,46388
44919,46395
44922,46403
44924,46411
44925,46420
44926,46428
44926,46630
44925,46638
44924,46647
44922,46655
44919,46663
44916,46671
44911,46678
44906,46685
44900,46691
44894,46696
44887,46702
44880,46706
44873,46709
44865,46712
44856,46714
44848,46716
44840,46716
44667,46716
44659,46716
44651,46714
44642,46712
44634,46709
44627,46706
44619,46702
44613,46696
44606,46691
44601,46685
44596,46678
44591,46671
44588,46663
44585,46655
44583,46647
44582,46638
44581,46630
44581,46428
44582,46420
44583,46411
44585,46403
44588,46395
44591,46388
44596,46380
44601,46374
44606,46367
44613,46362
44619,46357
44627,46352
44634,46349
44642,46346
44651,46344
44659,46342
44667,46342
44840,46342
44848,46342
Z" /> 
</g>
<g >
</g>
<g style="fill:#000000; fill-opacity:1.0; 
stroke:#000000; stroke-width:0; stroke-opacity:1; 
stroke-linecap:round; stroke-linejoin:round;">
<path style="fill:#000000; fill-opacity:1.0; 
stroke:#000000; stroke-width:0; stroke-opacity:1; 
stroke-linecap:round; stroke-linejoin:round;fill-rule:evenodd;"
d="M 43204,47451
43213,47452
43221,47454
43229,47457
43236,47460
43244,47465
43250,47470
43257,47476
43262,47482
43267,47489
43272,47496
43275,47503
43278,47511
43280,47520
43282,47528
43282,47536
43282,47738
43282,47747
43280,47755
43278,47763
43275,47771
43272,47779
43267,47786
43262,47793
43257,47799
43250,47805
43244,47810
43236,47814
43229,47818
43221,47821
43213,47823
43204,47824
43196,47824
43024,47824
43015,47824
43007,47823
42999,47821
42991,47818
42983,47814
42976,47810
42969,47805
42963,47799
42957,47793
42952,47786
42948,47779
42944,47771
42941,47763
42939,47755
42938,47747
42937,47738
42937,47536
42938,47528
42939,47520
42941,47511
42944,47503
42948,47496
42952,47489
42957,47482
42963,47476
42969,47470
42976,47465
42983,47460
42991,47457
42999,47454
43007,47452
43015,47451
43024,47450
43196,47450
43204,47451
Z" /> 
<path style="fill:#000000; fill-opacity:1.0; 
stroke:#000000; stroke-width:0; stroke-opacity:1; 
stroke-linecap:round; stroke-linejoin:round;fill-rule:evenodd;"
d="M 42584,47451
42593,47452
42601,47454
42609,47457
42616,47460
42624,47465
42630,47470
42637,47476
42642,47482
42647,47489
42652,47496
42655,47503
42658,47511
42660,47520
42661,47528
42662,47536
42662,47738
42661,47747
42660,47755
42658,47763
42655,47771
42652,47779
42647,47786
42642,47793
42637,47799
42630,47805
42624,47810
42616,47814
42609,47818
42601,47821
42593,47823
42584,47824
42576,47824
42404,47824
42395,47824
42387,47823
42379,47821
42371,47818
42363,47814
42356,47810
42349,47805
42343,47799
42337,47793
42332,47786
42328,47779
42324,47771
42321,47763
42319,47755
42318,47747
42317,47738
42317,47536
42318,47528
42319,47520
42321,47511
42324,47503
42328,47496
42332,47489
42337,47482
42343,47476
42349,47470
42356,47465
42363,47460
42371,47457
42379,47454
42387,47452
42395,47451
42404,47450
42576,47450
42584,47451
Z" /> 
</g>
<g >
</g>
<g style="fill:#000000; fill-opacity:1.0; 
stroke:#000000; stroke-width:0; stroke-opacity:1; 
stroke-linecap:round; stroke-linejoin:round;">
<path style="fill:#000000; fill-opacity:1.0; 
stroke:#000000; stroke-width:0; stroke-opacity:1; 
stroke-linecap:round; stroke-linejoin:round;fill-rule:evenodd;"
d="M 47086,48267
47086,49763
46299,49763
46299,48267
47086,48267
Z" /> 
<path style="fill:#000000; fill-opacity:1.0; 
stroke:#000000; stroke-width:0; stroke-opacity:1; 
stroke-linecap:round; stroke-linejoin:round;fill-rule:evenodd;"
d="M 49566,48720
49566,49311
48779,49311
48779,48720
49566,48720
Z" /> 
<path style="fill:#000000; fill-opacity:1.0; 
stroke:#000000; stroke-width:0; stroke-opacity:1; 
stroke-linecap:round; stroke-linejoin:round;fill-rule:evenodd;"
d="M 49566,49625
49566,50216
48779,50216
48779,49625
49566,49625
Z" /> 
<path style="fill:#000000; fill-opacity:1.0; 
stroke:#000000; stroke-width:0; stroke-opacity:1; 
stroke-linecap:round; stroke-linejoin:round;fill-rule:evenodd;"
d="M 49566,47814
49566,48405
48779,48405
48779,47814
49566,47814
Z" /> 
</g>
<g >
</g>
<g style="fill:#000000; fill-opacity:1.0; 
stroke:#000000; stroke-width:0; stroke-opacity:1; 
stroke-linecap:round; stroke-linejoin:round;">
<path style="fill:#000000; fill-opacity:1.0; 
stroke:#000000; stroke-width:0; stroke-opacity:1; 
stroke-linecap:round; stroke-linejoin:round;fill-rule:evenodd;"
d="M 49468,51358
49468,51948
48681,51948
48681,51358
49468,51358
Z" /> 
<path style="fill:#000000; fill-opacity:1.0; 
stroke:#000000; stroke-width:0; stroke-opacity:1; 
stroke-linecap:round; stroke-linejoin:round;fill-rule:evenodd;"
d="M 49468,53169
49468,53759
48681,53759
48681,53169
49468,53169
Z" /> 
<path style="fill:#000000; fill-opacity:1.0; 
stroke:#000000; stroke-width:0; stroke-opacity:1; 
stroke-linecap:round; stroke-linejoin:round;fill-rule:evenodd;"
d="M 49468,52263
49468,52854
48681,52854
48681,52263
49468,52263
Z" /> 
<path style="fill:#000000; fill-opacity:1.0; 
stroke:#000000; stroke-width:0; stroke-opacity:1; 
stroke-linecap:round; stroke-linejoin:round;fill-rule:evenodd;"
d="M 46988,51811
46988,53307
46200,53307
46200,51811
46988,51811
Z" /> 
</g>
<g >
</g>
<g >
</g>
<g >
</g>
<g >
</g>
<g >
</g>
<g >
</g>
<g style="fill:#000000; fill-opacity:1.0; 
stroke:#000000; stroke-width:0; stroke-opacity:1; 
stroke-linecap:round; stroke-linejoin:round;">
<path style="fill:#000000; fill-opacity:1.0; 
stroke:#000000; stroke-width:0; stroke-opacity:1; 
stroke-linecap:round; stroke-linejoin:round;fill-rule:evenodd;"
d="M 43641,45236
43641,45708
43169,45708
43169,45236
43641,45236
Z" /> 
<path style="fill:#000000; fill-opacity:1.0; 
stroke:#000000; stroke-width:0; stroke-opacity:1; 
stroke-linecap:round; stroke-linejoin:round;fill-rule:evenodd;"
d="M 43641,46023
43641,46496
43169,46496
43169,46023
43641,46023
Z" /> 
<path style="fill:#000000; fill-opacity:1.0; 
stroke:#000000; stroke-width:0; stroke-opacity:1; 
stroke-linecap:round; stroke-linejoin:round;fill-rule:evenodd;"
d="M 42421,45551
42421,46181
41830,46181
41830,45551
42421,45551
Z" /> 
</g>
<g >
</g>
<g >
</g>
<g >
</g>
<g >
</g>
<g >
</g>
<g >
</g>
<g >
</g>
<g >
</g>
<g >
</g>
<g >
</g>
<g >
</g>
<g >
</g>
<g >
</g>
<g >
</g>
</g> 
</svg>
