M48
; DRILL file {KiCad (5.1.4)-1} date 2019-11-24 10:28:01 PM
; FORMAT={-:-/ absolute / inch / decimal}
; #@! TF.CreationDate,2019-11-24T22:28:01-03:30
; #@! TF.GenerationSoftware,Kicad,Pcbnew,(5.1.4)-1
; #@! TF.FileFunction,Plated,1,2,PTH
FMAT,2
INCH
T1C0.0118
T2C0.0157
T3C0.0315
T4C0.0354
T5C0.0394
T6C0.0472
T7C0.0787
T8C0.0984
%
G90
G05
T1
X2.4429Y-4.9291
X2.4459Y-4.8888
X2.4478Y-4.8524
X2.5965Y-4.8474
X2.6014Y-4.8848
X2.6024Y-4.9291
X2.6348Y-5.2608
X2.6368Y-5.0915
X2.6591Y-5.2611
X2.6632Y-5.0928
X2.8524Y-5.4213
X2.8789Y-5.435
X2.9026Y-5.3789
X3.1644Y-5.2617
X3.1811Y-5.0692
X3.1909Y-5.2618
X3.2352Y-4.9872
X3.2766Y-4.6949
X3.3957Y-4.8366
X3.3957Y-4.8711
X3.3967Y-4.9094
X3.4291Y-4.9852
X3.4577Y-4.9843
X3.4852Y-4.9852
X3.5079Y-4.8337
X3.5079Y-4.8661
X3.5079Y-4.9075
X3.5512Y-5.375
X3.5758Y-5.3671
X3.6073Y-5.3583
X3.8809Y-4.6703
X3.9075Y-4.6457
X3.9173Y-4.5768
X3.9173Y-4.6161
X4.1732Y-4.9213
X4.1732Y-4.9508
X4.1732Y-4.9803
X4.252Y-4.9213
X4.252Y-4.9508
X4.252Y-4.9803
X4.4114Y-4.7953
X4.4114Y-4.8494
X4.437Y-4.8533
X4.438Y-4.8012
X4.502Y-4.8071
X4.5079Y-4.6959
X4.5531Y-5.0364
X4.5612Y-5.0142
X4.5669Y-4.7136
X4.5721Y-4.988
X4.5872Y-4.9219
X4.5886Y-4.8445
X4.6024Y-4.7982
X4.6102Y-4.9272
X4.6132Y-4.8356
X4.8385Y-5.0579
X4.8563Y-5.0423
X4.877Y-5.0561
X4.9656Y-4.7598
T2
X3.4252Y-5.1378
X3.8366Y-5.5827
X3.878Y-5.2264
X3.878Y-5.3642
X4.2717Y-5.4035
X4.373Y-4.8711
X4.4035Y-4.626
X4.439Y-5.3543
X4.5669Y-5.3543
X4.813Y-4.812
X4.8425Y-5.2559
X4.9061Y-5.0927
X4.9927Y-5.0927
X4.9961Y-5.1654
X5.0689Y-4.8524
X5.1496Y-5.252
X5.1496Y-5.3465
X5.1673Y-4.7539
X5.1673Y-4.9016
X5.1673Y-4.9902
X5.187Y-4.813
X5.2559Y-4.7835
T3
X4.7441Y-4.626
X4.8441Y-4.626
X2.126Y-4.7244
X2.126Y-5.3244
X2.226Y-4.7244
X2.226Y-5.3244
X2.326Y-4.7244
X2.326Y-5.3244
X2.426Y-4.7244
X2.426Y-5.3244
X2.526Y-4.7244
X2.526Y-5.3244
X2.626Y-4.7244
X2.626Y-5.3244
X2.726Y-4.7244
X2.726Y-5.3244
X2.826Y-4.7244
X2.826Y-5.3244
X2.926Y-4.7244
X2.926Y-5.3244
X3.026Y-4.7244
X3.026Y-5.3244
X3.126Y-4.7244
X3.126Y-5.3244
X3.226Y-4.7244
X3.226Y-5.3244
X3.326Y-4.7244
X3.326Y-5.3244
X3.426Y-4.7244
X3.426Y-5.3244
X3.526Y-4.7244
X3.526Y-5.3244
T4
X5.1657Y-4.5866
X5.2657Y-4.5866
T5
X4.6079Y-5.6197
X4.7079Y-5.5197
X2.5673Y-5.4921
X2.6673Y-5.4921
X2.7673Y-5.4921
X4.5079Y-5.8197
X4.7079Y-5.6197
X4.7079Y-5.8197
X5.2165Y-5.0984
X5.2165Y-5.2953
X5.7874Y-5.0984
X5.7874Y-5.1969
X5.7874Y-5.2953
X4.8079Y-5.7197
X4.6079Y-5.8197
X3.3843Y-5.4921
X3.4843Y-5.4921
X3.5843Y-5.4921
X3.6843Y-5.4921
X3.7843Y-5.4921
X3.8843Y-5.4921
X4.6079Y-5.7197
X4.5079Y-5.6197
X4.0453Y-5.4921
X4.1453Y-5.4921
X4.2453Y-5.4921
X4.3453Y-5.4921
X3.9272Y-5.1476
X4.1831Y-5.1476
X4.7079Y-5.7197
X4.5079Y-5.5197
X2.2441Y-5.4921
X2.3441Y-5.4921
X2.4441Y-5.4921
X4.8079Y-5.8197
X4.8079Y-5.5197
X2.9232Y-5.4921
X3.0232Y-5.4921
X3.1232Y-5.4921
X3.2232Y-5.4921
X4.8079Y-5.6197
X4.5079Y-5.7197
X4.6079Y-5.5197
T6
X2.2933Y-4.5767
X2.3933Y-4.5767
X2.4933Y-4.5767
X2.5933Y-4.5767
X2.6933Y-4.5767
X2.7933Y-4.5767
X2.8933Y-4.5767
X2.9933Y-4.5767
X3.0933Y-4.5767
X3.1933Y-4.5767
X3.2933Y-4.5767
X3.3933Y-4.5767
X3.4933Y-4.5767
X3.5933Y-4.5767
X3.6933Y-4.5767
X3.7933Y-4.5767
T8
X2.0768Y-4.5767
X2.0768Y-5.7972
X5.0295Y-5.7972
X5.0295Y-4.5767
T3
G00X5.4232Y-4.7657
M15
G01X5.4232Y-4.6634
M16
G05
G00X5.5846Y-4.5256
M15
G01X5.498Y-4.5256
M16
G05
G00X5.6516Y-4.7579
M15
G01X5.6516Y-4.6713
M16
G05
T5
G00X5.6122Y-5.753
M15
G01X5.6122Y-5.625
M16
G05
G00X5.7972Y-5.753
M15
G01X5.7972Y-5.625
M16
G05
T7
G00X5.502Y-4.9764
M15
G01X5.4823Y-4.9764
M16
G05
G00X5.502Y-5.4173
M15
G01X5.4823Y-5.4173
M16
G05
T0
M30
