G04 #@! TF.GenerationSoftware,KiCad,Pcbnew,(5.1.4)-1*
G04 #@! TF.CreationDate,2019-11-24T22:27:53-03:30*
G04 #@! TF.ProjectId,Striduino,53747269-6475-4696-9e6f-2e6b69636164,rev?*
G04 #@! TF.SameCoordinates,Original*
G04 #@! TF.FileFunction,Other,Fab,Bot*
%FSLAX46Y46*%
G04 Gerber Fmt 4.6, Leading zero omitted, Abs format (unit mm)*
G04 Created by KiCad (PCBNEW (5.1.4)-1) date 2019-11-24 22:27:53*
%MOMM*%
%LPD*%
G04 APERTURE LIST*
%ADD10C,0.100000*%
%ADD11C,0.150000*%
%ADD12C,0.060000*%
%ADD13C,0.120000*%
%ADD14C,0.105000*%
G04 APERTURE END LIST*
D10*
X120850000Y-149090000D02*
X122755000Y-149090000D01*
X122755000Y-149090000D02*
X123390000Y-148455000D01*
X123390000Y-148455000D02*
X123390000Y-146550000D01*
X123390000Y-146550000D02*
X120850000Y-146550000D01*
X120850000Y-146550000D02*
X120850000Y-149090000D01*
X118310000Y-149090000D02*
X120215000Y-149090000D01*
X120215000Y-149090000D02*
X120850000Y-148455000D01*
X120850000Y-148455000D02*
X120850000Y-146550000D01*
X120850000Y-146550000D02*
X118310000Y-146550000D01*
X118310000Y-146550000D02*
X118310000Y-149090000D01*
X115770000Y-149090000D02*
X117675000Y-149090000D01*
X117675000Y-149090000D02*
X118310000Y-148455000D01*
X118310000Y-148455000D02*
X118310000Y-146550000D01*
X118310000Y-146550000D02*
X115770000Y-146550000D01*
X115770000Y-146550000D02*
X115770000Y-149090000D01*
X113230000Y-149090000D02*
X115135000Y-149090000D01*
X115135000Y-149090000D02*
X115770000Y-148455000D01*
X115770000Y-148455000D02*
X115770000Y-146550000D01*
X115770000Y-146550000D02*
X113230000Y-146550000D01*
X113230000Y-146550000D02*
X113230000Y-149090000D01*
X120850000Y-146550000D02*
X122755000Y-146550000D01*
X122755000Y-146550000D02*
X123390000Y-145915000D01*
X123390000Y-145915000D02*
X123390000Y-144010000D01*
X123390000Y-144010000D02*
X120850000Y-144010000D01*
X120850000Y-144010000D02*
X120850000Y-146550000D01*
X118310000Y-146550000D02*
X120215000Y-146550000D01*
X120215000Y-146550000D02*
X120850000Y-145915000D01*
X120850000Y-145915000D02*
X120850000Y-144010000D01*
X120850000Y-144010000D02*
X118310000Y-144010000D01*
X118310000Y-144010000D02*
X118310000Y-146550000D01*
X115770000Y-146550000D02*
X117675000Y-146550000D01*
X117675000Y-146550000D02*
X118310000Y-145915000D01*
X118310000Y-145915000D02*
X118310000Y-144010000D01*
X118310000Y-144010000D02*
X115770000Y-144010000D01*
X115770000Y-144010000D02*
X115770000Y-146550000D01*
X113230000Y-146550000D02*
X115135000Y-146550000D01*
X115135000Y-146550000D02*
X115770000Y-145915000D01*
X115770000Y-145915000D02*
X115770000Y-144010000D01*
X115770000Y-144010000D02*
X113230000Y-144010000D01*
X113230000Y-144010000D02*
X113230000Y-146550000D01*
X120850000Y-144010000D02*
X122755000Y-144010000D01*
X122755000Y-144010000D02*
X123390000Y-143375000D01*
X123390000Y-143375000D02*
X123390000Y-141470000D01*
X123390000Y-141470000D02*
X120850000Y-141470000D01*
X120850000Y-141470000D02*
X120850000Y-144010000D01*
X118310000Y-144010000D02*
X120215000Y-144010000D01*
X120215000Y-144010000D02*
X120850000Y-143375000D01*
X120850000Y-143375000D02*
X120850000Y-141470000D01*
X120850000Y-141470000D02*
X118310000Y-141470000D01*
X118310000Y-141470000D02*
X118310000Y-144010000D01*
X115770000Y-144010000D02*
X117675000Y-144010000D01*
X117675000Y-144010000D02*
X118310000Y-143375000D01*
X118310000Y-143375000D02*
X118310000Y-141470000D01*
X118310000Y-141470000D02*
X115770000Y-141470000D01*
X115770000Y-141470000D02*
X115770000Y-144010000D01*
X113230000Y-144010000D02*
X115135000Y-144010000D01*
X115135000Y-144010000D02*
X115770000Y-143375000D01*
X115770000Y-143375000D02*
X115770000Y-141470000D01*
X115770000Y-141470000D02*
X113230000Y-141470000D01*
X113230000Y-141470000D02*
X113230000Y-144010000D01*
X120850000Y-141470000D02*
X122755000Y-141470000D01*
X122755000Y-141470000D02*
X123390000Y-140835000D01*
X123390000Y-140835000D02*
X123390000Y-138930000D01*
X123390000Y-138930000D02*
X120850000Y-138930000D01*
X120850000Y-138930000D02*
X120850000Y-141470000D01*
X118310000Y-141470000D02*
X120215000Y-141470000D01*
X120215000Y-141470000D02*
X120850000Y-140835000D01*
X120850000Y-140835000D02*
X120850000Y-138930000D01*
X120850000Y-138930000D02*
X118310000Y-138930000D01*
X118310000Y-138930000D02*
X118310000Y-141470000D01*
X115770000Y-141470000D02*
X117675000Y-141470000D01*
X117675000Y-141470000D02*
X118310000Y-140835000D01*
X118310000Y-140835000D02*
X118310000Y-138930000D01*
X118310000Y-138930000D02*
X115770000Y-138930000D01*
X115770000Y-138930000D02*
X115770000Y-141470000D01*
X113230000Y-138930000D02*
X113230000Y-141470000D01*
X115770000Y-138930000D02*
X113230000Y-138930000D01*
X115770000Y-140835000D02*
X115770000Y-138930000D01*
X115135000Y-141470000D02*
X115770000Y-140835000D01*
X113230000Y-141470000D02*
X115135000Y-141470000D01*
X85750000Y-123810000D02*
X85750000Y-131430000D01*
X85750000Y-131430000D02*
X95910000Y-131430000D01*
X95910000Y-131430000D02*
X95910000Y-123810000D01*
X95910000Y-123810000D02*
X85750000Y-123810000D01*
X93370000Y-136510000D02*
X93370000Y-118730000D01*
X93370000Y-118730000D02*
X51460000Y-118730000D01*
X51460000Y-118730000D02*
X50190000Y-120000000D01*
X50190000Y-120000000D02*
X50190000Y-136510000D01*
X50190000Y-136510000D02*
X93370000Y-136510000D01*
X129337500Y-135350000D02*
X127737500Y-135350000D01*
X129337500Y-136150000D02*
X129337500Y-135350000D01*
X127737500Y-136150000D02*
X129337500Y-136150000D01*
X127737500Y-135350000D02*
X127737500Y-136150000D01*
X127987500Y-126350000D02*
X127987500Y-127150000D01*
X127987500Y-127150000D02*
X129587500Y-127150000D01*
X129587500Y-127150000D02*
X129587500Y-126350000D01*
X129587500Y-126350000D02*
X127987500Y-126350000D01*
X127737500Y-133100000D02*
X127737500Y-133900000D01*
X127737500Y-133900000D02*
X129337500Y-133900000D01*
X129337500Y-133900000D02*
X129337500Y-133100000D01*
X129337500Y-133100000D02*
X127737500Y-133100000D01*
X127987500Y-124100000D02*
X127987500Y-124900000D01*
X127987500Y-124900000D02*
X129587500Y-124900000D01*
X129587500Y-124900000D02*
X129587500Y-124100000D01*
X129587500Y-124100000D02*
X127987500Y-124100000D01*
X129587501Y-121850000D02*
X127987501Y-121850000D01*
X129587501Y-122650000D02*
X129587501Y-121850000D01*
X127987501Y-122650000D02*
X129587501Y-122650000D01*
X127987501Y-121850000D02*
X127987501Y-122650000D01*
X55730000Y-141635000D02*
X55730000Y-143540000D01*
X55730000Y-143540000D02*
X63350000Y-143540000D01*
X63350000Y-143540000D02*
X63350000Y-141000000D01*
X63350000Y-141000000D02*
X56365000Y-141000000D01*
X56365000Y-141000000D02*
X55730000Y-141635000D01*
X56680000Y-139180000D02*
X56680000Y-141000000D01*
X56680000Y-139180000D02*
X57320000Y-139180000D01*
X57320000Y-139180000D02*
X57320000Y-141000000D01*
X56680000Y-143540000D02*
X56680000Y-149540000D01*
X56680000Y-149540000D02*
X57320000Y-149540000D01*
X57320000Y-143540000D02*
X57320000Y-149540000D01*
X59220000Y-139180000D02*
X59220000Y-141000000D01*
X59220000Y-139180000D02*
X59860000Y-139180000D01*
X59860000Y-139180000D02*
X59860000Y-141000000D01*
X59220000Y-143540000D02*
X59220000Y-149540000D01*
X59220000Y-149540000D02*
X59860000Y-149540000D01*
X59860000Y-143540000D02*
X59860000Y-149540000D01*
X61760000Y-139180000D02*
X61760000Y-141000000D01*
X61760000Y-139180000D02*
X62400000Y-139180000D01*
X62400000Y-139180000D02*
X62400000Y-141000000D01*
X61760000Y-143540000D02*
X61760000Y-149540000D01*
X61760000Y-149540000D02*
X62400000Y-149540000D01*
X62400000Y-143540000D02*
X62400000Y-149540000D01*
X70610000Y-143540000D02*
X70610000Y-149540000D01*
X69970000Y-149540000D02*
X70610000Y-149540000D01*
X69970000Y-143540000D02*
X69970000Y-149540000D01*
X70610000Y-139180000D02*
X70610000Y-141000000D01*
X69970000Y-139180000D02*
X70610000Y-139180000D01*
X69970000Y-139180000D02*
X69970000Y-141000000D01*
X68070000Y-143540000D02*
X68070000Y-149540000D01*
X67430000Y-149540000D02*
X68070000Y-149540000D01*
X67430000Y-143540000D02*
X67430000Y-149540000D01*
X68070000Y-139180000D02*
X68070000Y-141000000D01*
X67430000Y-139180000D02*
X68070000Y-139180000D01*
X67430000Y-139180000D02*
X67430000Y-141000000D01*
X65530000Y-143540000D02*
X65530000Y-149540000D01*
X64890000Y-149540000D02*
X65530000Y-149540000D01*
X64890000Y-143540000D02*
X64890000Y-149540000D01*
X65530000Y-139180000D02*
X65530000Y-141000000D01*
X64890000Y-139180000D02*
X65530000Y-139180000D01*
X64890000Y-139180000D02*
X64890000Y-141000000D01*
X64575000Y-141000000D02*
X63940000Y-141635000D01*
X71560000Y-141000000D02*
X64575000Y-141000000D01*
X71560000Y-143540000D02*
X71560000Y-141000000D01*
X63940000Y-143540000D02*
X71560000Y-143540000D01*
X63940000Y-141635000D02*
X63940000Y-143540000D01*
X115337501Y-114850000D02*
X113737501Y-114850000D01*
X115337501Y-115650000D02*
X115337501Y-114850000D01*
X113737501Y-115650000D02*
X115337501Y-115650000D01*
X113737501Y-114850000D02*
X113737501Y-115650000D01*
X113662500Y-120599999D02*
X113662500Y-121399999D01*
X113662500Y-121399999D02*
X115262500Y-121399999D01*
X115262500Y-121399999D02*
X115262500Y-120599999D01*
X115262500Y-120599999D02*
X113662500Y-120599999D01*
X109537500Y-124125000D02*
X109537500Y-123325000D01*
X109537500Y-123325000D02*
X107937500Y-123325000D01*
X107937500Y-123325000D02*
X107937500Y-124125000D01*
X107937500Y-124125000D02*
X109537500Y-124125000D01*
X115262500Y-123350000D02*
X113662500Y-123350000D01*
X115262500Y-124150000D02*
X115262500Y-123350000D01*
X113662500Y-124150000D02*
X115262500Y-124150000D01*
X113662500Y-123350000D02*
X113662500Y-124150000D01*
X127912499Y-119100000D02*
X127912499Y-119900000D01*
X127912499Y-119900000D02*
X129512499Y-119900000D01*
X129512499Y-119900000D02*
X129512499Y-119100000D01*
X129512499Y-119100000D02*
X127912499Y-119100000D01*
X115262500Y-117784999D02*
X113662500Y-117784999D01*
X115262500Y-118584999D02*
X115262500Y-117784999D01*
X113662500Y-118584999D02*
X115262500Y-118584999D01*
X113662500Y-117784999D02*
X113662500Y-118584999D01*
X109512499Y-121400000D02*
X109512499Y-120600000D01*
X109512499Y-120600000D02*
X107912499Y-120600000D01*
X107912499Y-120600000D02*
X107912499Y-121400000D01*
X107912499Y-121400000D02*
X109512499Y-121400000D01*
X123600000Y-122150000D02*
X122600000Y-121150000D01*
X123600000Y-122150000D02*
X123600000Y-127850000D01*
X122600000Y-121150000D02*
X119900000Y-121150000D01*
X123600000Y-127850000D02*
X119900000Y-127850000D01*
X119900000Y-121150000D02*
X119900000Y-127850000D01*
X119650000Y-130150000D02*
X119650000Y-136850000D01*
X123350000Y-136850000D02*
X119650000Y-136850000D01*
X122350000Y-130150000D02*
X119650000Y-130150000D01*
X123350000Y-131150000D02*
X123350000Y-136850000D01*
X123350000Y-131150000D02*
X122350000Y-130150000D01*
X104150000Y-130750000D02*
G75*
G03X104150000Y-130750000I-1150000J0D01*
G01*
X109000000Y-130750000D02*
G75*
G03X109000000Y-130750000I-6000000J0D01*
G01*
X84690000Y-141635000D02*
X84690000Y-143540000D01*
X84690000Y-143540000D02*
X99930000Y-143540000D01*
X99930000Y-143540000D02*
X99930000Y-141000000D01*
X99930000Y-141000000D02*
X85325000Y-141000000D01*
X85325000Y-141000000D02*
X84690000Y-141635000D01*
X85640000Y-139180000D02*
X85640000Y-141000000D01*
X85640000Y-139180000D02*
X86280000Y-139180000D01*
X86280000Y-139180000D02*
X86280000Y-141000000D01*
X85640000Y-143540000D02*
X85640000Y-149540000D01*
X85640000Y-149540000D02*
X86280000Y-149540000D01*
X86280000Y-143540000D02*
X86280000Y-149540000D01*
X88180000Y-139180000D02*
X88180000Y-141000000D01*
X88180000Y-139180000D02*
X88820000Y-139180000D01*
X88820000Y-139180000D02*
X88820000Y-141000000D01*
X88180000Y-143540000D02*
X88180000Y-149540000D01*
X88180000Y-149540000D02*
X88820000Y-149540000D01*
X88820000Y-143540000D02*
X88820000Y-149540000D01*
X90720000Y-139180000D02*
X90720000Y-141000000D01*
X90720000Y-139180000D02*
X91360000Y-139180000D01*
X91360000Y-139180000D02*
X91360000Y-141000000D01*
X90720000Y-143540000D02*
X90720000Y-149540000D01*
X90720000Y-149540000D02*
X91360000Y-149540000D01*
X91360000Y-143540000D02*
X91360000Y-149540000D01*
X93260000Y-139180000D02*
X93260000Y-141000000D01*
X93260000Y-139180000D02*
X93900000Y-139180000D01*
X93900000Y-139180000D02*
X93900000Y-141000000D01*
X93260000Y-143540000D02*
X93260000Y-149540000D01*
X93260000Y-149540000D02*
X93900000Y-149540000D01*
X93900000Y-143540000D02*
X93900000Y-149540000D01*
X95800000Y-139180000D02*
X95800000Y-141000000D01*
X95800000Y-139180000D02*
X96440000Y-139180000D01*
X96440000Y-139180000D02*
X96440000Y-141000000D01*
X95800000Y-143540000D02*
X95800000Y-149540000D01*
X95800000Y-149540000D02*
X96440000Y-149540000D01*
X96440000Y-143540000D02*
X96440000Y-149540000D01*
X98340000Y-139180000D02*
X98340000Y-141000000D01*
X98340000Y-139180000D02*
X98980000Y-139180000D01*
X98980000Y-139180000D02*
X98980000Y-141000000D01*
X98340000Y-143540000D02*
X98340000Y-149540000D01*
X98340000Y-149540000D02*
X98980000Y-149540000D01*
X98980000Y-143540000D02*
X98980000Y-149540000D01*
X72980000Y-141635000D02*
X72980000Y-143540000D01*
X72980000Y-143540000D02*
X83140000Y-143540000D01*
X83140000Y-143540000D02*
X83140000Y-141000000D01*
X83140000Y-141000000D02*
X73615000Y-141000000D01*
X73615000Y-141000000D02*
X72980000Y-141635000D01*
X73930000Y-139180000D02*
X73930000Y-141000000D01*
X73930000Y-139180000D02*
X74570000Y-139180000D01*
X74570000Y-139180000D02*
X74570000Y-141000000D01*
X73930000Y-143540000D02*
X73930000Y-149540000D01*
X73930000Y-149540000D02*
X74570000Y-149540000D01*
X74570000Y-143540000D02*
X74570000Y-149540000D01*
X76470000Y-139180000D02*
X76470000Y-141000000D01*
X76470000Y-139180000D02*
X77110000Y-139180000D01*
X77110000Y-139180000D02*
X77110000Y-141000000D01*
X76470000Y-143540000D02*
X76470000Y-149540000D01*
X76470000Y-149540000D02*
X77110000Y-149540000D01*
X77110000Y-143540000D02*
X77110000Y-149540000D01*
X79010000Y-139180000D02*
X79010000Y-141000000D01*
X79010000Y-139180000D02*
X79650000Y-139180000D01*
X79650000Y-139180000D02*
X79650000Y-141000000D01*
X79010000Y-143540000D02*
X79010000Y-149540000D01*
X79010000Y-149540000D02*
X79650000Y-149540000D01*
X79650000Y-143540000D02*
X79650000Y-149540000D01*
X81550000Y-139180000D02*
X81550000Y-141000000D01*
X81550000Y-139180000D02*
X82190000Y-139180000D01*
X82190000Y-139180000D02*
X82190000Y-141000000D01*
X81550000Y-143540000D02*
X81550000Y-149540000D01*
X81550000Y-149540000D02*
X82190000Y-149540000D01*
X82190000Y-143540000D02*
X82190000Y-149540000D01*
X110690000Y-143540000D02*
X110690000Y-149540000D01*
X110050000Y-149540000D02*
X110690000Y-149540000D01*
X110050000Y-143540000D02*
X110050000Y-149540000D01*
X110690000Y-139180000D02*
X110690000Y-141000000D01*
X110050000Y-139180000D02*
X110690000Y-139180000D01*
X110050000Y-139180000D02*
X110050000Y-141000000D01*
X108150000Y-143540000D02*
X108150000Y-149540000D01*
X107510000Y-149540000D02*
X108150000Y-149540000D01*
X107510000Y-143540000D02*
X107510000Y-149540000D01*
X108150000Y-139180000D02*
X108150000Y-141000000D01*
X107510000Y-139180000D02*
X108150000Y-139180000D01*
X107510000Y-139180000D02*
X107510000Y-141000000D01*
X105610000Y-143540000D02*
X105610000Y-149540000D01*
X104970000Y-149540000D02*
X105610000Y-149540000D01*
X104970000Y-143540000D02*
X104970000Y-149540000D01*
X105610000Y-139180000D02*
X105610000Y-141000000D01*
X104970000Y-139180000D02*
X105610000Y-139180000D01*
X104970000Y-139180000D02*
X104970000Y-141000000D01*
X103070000Y-143540000D02*
X103070000Y-149540000D01*
X102430000Y-149540000D02*
X103070000Y-149540000D01*
X102430000Y-143540000D02*
X102430000Y-149540000D01*
X103070000Y-139180000D02*
X103070000Y-141000000D01*
X102430000Y-139180000D02*
X103070000Y-139180000D01*
X102430000Y-139180000D02*
X102430000Y-141000000D01*
X102115000Y-141000000D02*
X101480000Y-141635000D01*
X111640000Y-141000000D02*
X102115000Y-141000000D01*
X111640000Y-143540000D02*
X111640000Y-141000000D01*
X101480000Y-143540000D02*
X111640000Y-143540000D01*
X101480000Y-141635000D02*
X101480000Y-143540000D01*
X121750000Y-117500000D02*
G75*
G03X121750000Y-117500000I-1250000J0D01*
G01*
X120500000Y-117500000D02*
X123040000Y-117500000D01*
X109950000Y-116500000D02*
G75*
G03X109950000Y-116500000I-1500000J0D01*
G01*
X110450000Y-115750000D02*
X110450000Y-118000000D01*
X110450000Y-118000000D02*
X106650000Y-118000000D01*
X106650000Y-118000000D02*
X106650000Y-115000000D01*
X106650000Y-115000000D02*
X109700000Y-115000000D01*
X109700000Y-115000000D02*
X110450000Y-115750000D01*
D11*
X134858095Y-145502380D02*
X134858095Y-144502380D01*
X134477142Y-144502380D01*
X134381904Y-144550000D01*
X134334285Y-144597619D01*
X134286666Y-144692857D01*
X134286666Y-144835714D01*
X134334285Y-144930952D01*
X134381904Y-144978571D01*
X134477142Y-145026190D01*
X134858095Y-145026190D01*
X133858095Y-145502380D02*
X133858095Y-144835714D01*
X133858095Y-144502380D02*
X133905714Y-144550000D01*
X133858095Y-144597619D01*
X133810476Y-144550000D01*
X133858095Y-144502380D01*
X133858095Y-144597619D01*
X133381904Y-144835714D02*
X133381904Y-145502380D01*
X133381904Y-144930952D02*
X133334285Y-144883333D01*
X133239047Y-144835714D01*
X133096190Y-144835714D01*
X133000952Y-144883333D01*
X132953333Y-144978571D01*
X132953333Y-145502380D01*
X132524761Y-145454761D02*
X132381904Y-145502380D01*
X132143809Y-145502380D01*
X132048571Y-145454761D01*
X132000952Y-145407142D01*
X131953333Y-145311904D01*
X131953333Y-145216666D01*
X132000952Y-145121428D01*
X132048571Y-145073809D01*
X132143809Y-145026190D01*
X132334285Y-144978571D01*
X132429523Y-144930952D01*
X132477142Y-144883333D01*
X132524761Y-144788095D01*
X132524761Y-144692857D01*
X132477142Y-144597619D01*
X132429523Y-144550000D01*
X132334285Y-144502380D01*
X132096190Y-144502380D01*
X131953333Y-144550000D01*
X131381904Y-145502380D02*
X131477142Y-145454761D01*
X131524761Y-145407142D01*
X131572380Y-145311904D01*
X131572380Y-145026190D01*
X131524761Y-144930952D01*
X131477142Y-144883333D01*
X131381904Y-144835714D01*
X131239047Y-144835714D01*
X131143809Y-144883333D01*
X131096190Y-144930952D01*
X131048571Y-145026190D01*
X131048571Y-145311904D01*
X131096190Y-145407142D01*
X131143809Y-145454761D01*
X131239047Y-145502380D01*
X131381904Y-145502380D01*
X130191428Y-145454761D02*
X130286666Y-145502380D01*
X130477142Y-145502380D01*
X130572380Y-145454761D01*
X130620000Y-145407142D01*
X130667619Y-145311904D01*
X130667619Y-145026190D01*
X130620000Y-144930952D01*
X130572380Y-144883333D01*
X130477142Y-144835714D01*
X130286666Y-144835714D01*
X130191428Y-144883333D01*
X129762857Y-145502380D02*
X129762857Y-144502380D01*
X129667619Y-145121428D02*
X129381904Y-145502380D01*
X129381904Y-144835714D02*
X129762857Y-145216666D01*
X128572380Y-145454761D02*
X128667619Y-145502380D01*
X128858095Y-145502380D01*
X128953333Y-145454761D01*
X129000952Y-145359523D01*
X129000952Y-144978571D01*
X128953333Y-144883333D01*
X128858095Y-144835714D01*
X128667619Y-144835714D01*
X128572380Y-144883333D01*
X128524761Y-144978571D01*
X128524761Y-145073809D01*
X129000952Y-145169047D01*
X128239047Y-144835714D02*
X127858095Y-144835714D01*
X128096190Y-144502380D02*
X128096190Y-145359523D01*
X128048571Y-145454761D01*
X127953333Y-145502380D01*
X127858095Y-145502380D01*
X127762857Y-145597619D02*
X127000952Y-145597619D01*
X126239047Y-145502380D02*
X126810476Y-145502380D01*
X126524761Y-145502380D02*
X126524761Y-144502380D01*
X126620000Y-144645238D01*
X126715238Y-144740476D01*
X126810476Y-144788095D01*
X125905714Y-145502380D02*
X125381904Y-144835714D01*
X125905714Y-144835714D02*
X125381904Y-145502380D01*
X124810476Y-144502380D02*
X124715238Y-144502380D01*
X124620000Y-144550000D01*
X124572380Y-144597619D01*
X124524761Y-144692857D01*
X124477142Y-144883333D01*
X124477142Y-145121428D01*
X124524761Y-145311904D01*
X124572380Y-145407142D01*
X124620000Y-145454761D01*
X124715238Y-145502380D01*
X124810476Y-145502380D01*
X124905714Y-145454761D01*
X124953333Y-145407142D01*
X125000952Y-145311904D01*
X125048571Y-145121428D01*
X125048571Y-144883333D01*
X125000952Y-144692857D01*
X124953333Y-144597619D01*
X124905714Y-144550000D01*
X124810476Y-144502380D01*
X123524761Y-145502380D02*
X124096190Y-145502380D01*
X123810476Y-145502380D02*
X123810476Y-144502380D01*
X123905714Y-144645238D01*
X124000952Y-144740476D01*
X124096190Y-144788095D01*
X123334285Y-145597619D02*
X122572380Y-145597619D01*
X122334285Y-145502380D02*
X122334285Y-144502380D01*
X121953333Y-144502380D01*
X121858095Y-144550000D01*
X121810476Y-144597619D01*
X121762857Y-144692857D01*
X121762857Y-144835714D01*
X121810476Y-144930952D01*
X121858095Y-144978571D01*
X121953333Y-145026190D01*
X122334285Y-145026190D01*
X121381904Y-144597619D02*
X121334285Y-144550000D01*
X121239047Y-144502380D01*
X121000952Y-144502380D01*
X120905714Y-144550000D01*
X120858095Y-144597619D01*
X120810476Y-144692857D01*
X120810476Y-144788095D01*
X120858095Y-144930952D01*
X121429523Y-145502380D01*
X120810476Y-145502380D01*
X120381904Y-145407142D02*
X120334285Y-145454761D01*
X120381904Y-145502380D01*
X120429523Y-145454761D01*
X120381904Y-145407142D01*
X120381904Y-145502380D01*
X119429523Y-144502380D02*
X119905714Y-144502380D01*
X119953333Y-144978571D01*
X119905714Y-144930952D01*
X119810476Y-144883333D01*
X119572380Y-144883333D01*
X119477142Y-144930952D01*
X119429523Y-144978571D01*
X119381904Y-145073809D01*
X119381904Y-145311904D01*
X119429523Y-145407142D01*
X119477142Y-145454761D01*
X119572380Y-145502380D01*
X119810476Y-145502380D01*
X119905714Y-145454761D01*
X119953333Y-145407142D01*
X118524761Y-144835714D02*
X118524761Y-145502380D01*
X118762857Y-144454761D02*
X119000952Y-145169047D01*
X118381904Y-145169047D01*
X118000952Y-145502380D02*
X118000952Y-144835714D01*
X118000952Y-144930952D02*
X117953333Y-144883333D01*
X117858095Y-144835714D01*
X117715238Y-144835714D01*
X117620000Y-144883333D01*
X117572380Y-144978571D01*
X117572380Y-145502380D01*
X117572380Y-144978571D02*
X117524761Y-144883333D01*
X117429523Y-144835714D01*
X117286666Y-144835714D01*
X117191428Y-144883333D01*
X117143809Y-144978571D01*
X117143809Y-145502380D01*
X116667619Y-145502380D02*
X116667619Y-144835714D01*
X116667619Y-144930952D02*
X116620000Y-144883333D01*
X116524761Y-144835714D01*
X116381904Y-144835714D01*
X116286666Y-144883333D01*
X116239047Y-144978571D01*
X116239047Y-145502380D01*
X116239047Y-144978571D02*
X116191428Y-144883333D01*
X116096190Y-144835714D01*
X115953333Y-144835714D01*
X115858095Y-144883333D01*
X115810476Y-144978571D01*
X115810476Y-145502380D01*
X115572380Y-145597619D02*
X114810476Y-145597619D01*
X114715238Y-144502380D02*
X114381904Y-145502380D01*
X114048571Y-144502380D01*
X113334285Y-145454761D02*
X113429523Y-145502380D01*
X113620000Y-145502380D01*
X113715238Y-145454761D01*
X113762857Y-145359523D01*
X113762857Y-144978571D01*
X113715238Y-144883333D01*
X113620000Y-144835714D01*
X113429523Y-144835714D01*
X113334285Y-144883333D01*
X113286666Y-144978571D01*
X113286666Y-145073809D01*
X113762857Y-145169047D01*
X112858095Y-145502380D02*
X112858095Y-144835714D01*
X112858095Y-145026190D02*
X112810476Y-144930952D01*
X112762857Y-144883333D01*
X112667619Y-144835714D01*
X112572380Y-144835714D01*
X112381904Y-144835714D02*
X112000952Y-144835714D01*
X112239047Y-144502380D02*
X112239047Y-145359523D01*
X112191428Y-145454761D01*
X112096190Y-145502380D01*
X112000952Y-145502380D01*
X111667619Y-145502380D02*
X111667619Y-144835714D01*
X111667619Y-144502380D02*
X111715238Y-144550000D01*
X111667619Y-144597619D01*
X111620000Y-144550000D01*
X111667619Y-144502380D01*
X111667619Y-144597619D01*
X110762857Y-145454761D02*
X110858095Y-145502380D01*
X111048571Y-145502380D01*
X111143809Y-145454761D01*
X111191428Y-145407142D01*
X111239047Y-145311904D01*
X111239047Y-145026190D01*
X111191428Y-144930952D01*
X111143809Y-144883333D01*
X111048571Y-144835714D01*
X110858095Y-144835714D01*
X110762857Y-144883333D01*
X109905714Y-145502380D02*
X109905714Y-144978571D01*
X109953333Y-144883333D01*
X110048571Y-144835714D01*
X110239047Y-144835714D01*
X110334285Y-144883333D01*
X109905714Y-145454761D02*
X110000952Y-145502380D01*
X110239047Y-145502380D01*
X110334285Y-145454761D01*
X110381904Y-145359523D01*
X110381904Y-145264285D01*
X110334285Y-145169047D01*
X110239047Y-145121428D01*
X110000952Y-145121428D01*
X109905714Y-145073809D01*
X109286666Y-145502380D02*
X109381904Y-145454761D01*
X109429523Y-145359523D01*
X109429523Y-144502380D01*
X123453333Y-148272380D02*
X123786666Y-147796190D01*
X124024761Y-148272380D02*
X124024761Y-147272380D01*
X123643809Y-147272380D01*
X123548571Y-147320000D01*
X123500952Y-147367619D01*
X123453333Y-147462857D01*
X123453333Y-147605714D01*
X123500952Y-147700952D01*
X123548571Y-147748571D01*
X123643809Y-147796190D01*
X124024761Y-147796190D01*
X123024761Y-147748571D02*
X122691428Y-147748571D01*
X122548571Y-148272380D02*
X123024761Y-148272380D01*
X123024761Y-147272380D01*
X122548571Y-147272380D01*
X121786666Y-147748571D02*
X122120000Y-147748571D01*
X122120000Y-148272380D02*
X122120000Y-147272380D01*
X121643809Y-147272380D01*
X121120000Y-147272380D02*
X121120000Y-147510476D01*
X121358095Y-147415238D02*
X121120000Y-147510476D01*
X120881904Y-147415238D01*
X121262857Y-147700952D02*
X121120000Y-147510476D01*
X120977142Y-147700952D01*
X120358095Y-147272380D02*
X120358095Y-147510476D01*
X120596190Y-147415238D02*
X120358095Y-147510476D01*
X120120000Y-147415238D01*
X120500952Y-147700952D02*
X120358095Y-147510476D01*
X120215238Y-147700952D01*
X132318095Y-145502380D02*
X132318095Y-144502380D01*
X131937142Y-144502380D01*
X131841904Y-144550000D01*
X131794285Y-144597619D01*
X131746666Y-144692857D01*
X131746666Y-144835714D01*
X131794285Y-144930952D01*
X131841904Y-144978571D01*
X131937142Y-145026190D01*
X132318095Y-145026190D01*
X131318095Y-145502380D02*
X131318095Y-144835714D01*
X131318095Y-144502380D02*
X131365714Y-144550000D01*
X131318095Y-144597619D01*
X131270476Y-144550000D01*
X131318095Y-144502380D01*
X131318095Y-144597619D01*
X130841904Y-144835714D02*
X130841904Y-145502380D01*
X130841904Y-144930952D02*
X130794285Y-144883333D01*
X130699047Y-144835714D01*
X130556190Y-144835714D01*
X130460952Y-144883333D01*
X130413333Y-144978571D01*
X130413333Y-145502380D01*
X129984761Y-145454761D02*
X129841904Y-145502380D01*
X129603809Y-145502380D01*
X129508571Y-145454761D01*
X129460952Y-145407142D01*
X129413333Y-145311904D01*
X129413333Y-145216666D01*
X129460952Y-145121428D01*
X129508571Y-145073809D01*
X129603809Y-145026190D01*
X129794285Y-144978571D01*
X129889523Y-144930952D01*
X129937142Y-144883333D01*
X129984761Y-144788095D01*
X129984761Y-144692857D01*
X129937142Y-144597619D01*
X129889523Y-144550000D01*
X129794285Y-144502380D01*
X129556190Y-144502380D01*
X129413333Y-144550000D01*
X128841904Y-145502380D02*
X128937142Y-145454761D01*
X128984761Y-145407142D01*
X129032380Y-145311904D01*
X129032380Y-145026190D01*
X128984761Y-144930952D01*
X128937142Y-144883333D01*
X128841904Y-144835714D01*
X128699047Y-144835714D01*
X128603809Y-144883333D01*
X128556190Y-144930952D01*
X128508571Y-145026190D01*
X128508571Y-145311904D01*
X128556190Y-145407142D01*
X128603809Y-145454761D01*
X128699047Y-145502380D01*
X128841904Y-145502380D01*
X127651428Y-145454761D02*
X127746666Y-145502380D01*
X127937142Y-145502380D01*
X128032380Y-145454761D01*
X128080000Y-145407142D01*
X128127619Y-145311904D01*
X128127619Y-145026190D01*
X128080000Y-144930952D01*
X128032380Y-144883333D01*
X127937142Y-144835714D01*
X127746666Y-144835714D01*
X127651428Y-144883333D01*
X127222857Y-145502380D02*
X127222857Y-144502380D01*
X127127619Y-145121428D02*
X126841904Y-145502380D01*
X126841904Y-144835714D02*
X127222857Y-145216666D01*
X126032380Y-145454761D02*
X126127619Y-145502380D01*
X126318095Y-145502380D01*
X126413333Y-145454761D01*
X126460952Y-145359523D01*
X126460952Y-144978571D01*
X126413333Y-144883333D01*
X126318095Y-144835714D01*
X126127619Y-144835714D01*
X126032380Y-144883333D01*
X125984761Y-144978571D01*
X125984761Y-145073809D01*
X126460952Y-145169047D01*
X125699047Y-144835714D02*
X125318095Y-144835714D01*
X125556190Y-144502380D02*
X125556190Y-145359523D01*
X125508571Y-145454761D01*
X125413333Y-145502380D01*
X125318095Y-145502380D01*
X125222857Y-145597619D02*
X124460952Y-145597619D01*
X123699047Y-145502380D02*
X124270476Y-145502380D01*
X123984761Y-145502380D02*
X123984761Y-144502380D01*
X124080000Y-144645238D01*
X124175238Y-144740476D01*
X124270476Y-144788095D01*
X123365714Y-145502380D02*
X122841904Y-144835714D01*
X123365714Y-144835714D02*
X122841904Y-145502380D01*
X122270476Y-144502380D02*
X122175238Y-144502380D01*
X122080000Y-144550000D01*
X122032380Y-144597619D01*
X121984761Y-144692857D01*
X121937142Y-144883333D01*
X121937142Y-145121428D01*
X121984761Y-145311904D01*
X122032380Y-145407142D01*
X122080000Y-145454761D01*
X122175238Y-145502380D01*
X122270476Y-145502380D01*
X122365714Y-145454761D01*
X122413333Y-145407142D01*
X122460952Y-145311904D01*
X122508571Y-145121428D01*
X122508571Y-144883333D01*
X122460952Y-144692857D01*
X122413333Y-144597619D01*
X122365714Y-144550000D01*
X122270476Y-144502380D01*
X120984761Y-145502380D02*
X121556190Y-145502380D01*
X121270476Y-145502380D02*
X121270476Y-144502380D01*
X121365714Y-144645238D01*
X121460952Y-144740476D01*
X121556190Y-144788095D01*
X120794285Y-145597619D02*
X120032380Y-145597619D01*
X119794285Y-145502380D02*
X119794285Y-144502380D01*
X119413333Y-144502380D01*
X119318095Y-144550000D01*
X119270476Y-144597619D01*
X119222857Y-144692857D01*
X119222857Y-144835714D01*
X119270476Y-144930952D01*
X119318095Y-144978571D01*
X119413333Y-145026190D01*
X119794285Y-145026190D01*
X118841904Y-144597619D02*
X118794285Y-144550000D01*
X118699047Y-144502380D01*
X118460952Y-144502380D01*
X118365714Y-144550000D01*
X118318095Y-144597619D01*
X118270476Y-144692857D01*
X118270476Y-144788095D01*
X118318095Y-144930952D01*
X118889523Y-145502380D01*
X118270476Y-145502380D01*
X117841904Y-145407142D02*
X117794285Y-145454761D01*
X117841904Y-145502380D01*
X117889523Y-145454761D01*
X117841904Y-145407142D01*
X117841904Y-145502380D01*
X116889523Y-144502380D02*
X117365714Y-144502380D01*
X117413333Y-144978571D01*
X117365714Y-144930952D01*
X117270476Y-144883333D01*
X117032380Y-144883333D01*
X116937142Y-144930952D01*
X116889523Y-144978571D01*
X116841904Y-145073809D01*
X116841904Y-145311904D01*
X116889523Y-145407142D01*
X116937142Y-145454761D01*
X117032380Y-145502380D01*
X117270476Y-145502380D01*
X117365714Y-145454761D01*
X117413333Y-145407142D01*
X115984761Y-144835714D02*
X115984761Y-145502380D01*
X116222857Y-144454761D02*
X116460952Y-145169047D01*
X115841904Y-145169047D01*
X115460952Y-145502380D02*
X115460952Y-144835714D01*
X115460952Y-144930952D02*
X115413333Y-144883333D01*
X115318095Y-144835714D01*
X115175238Y-144835714D01*
X115080000Y-144883333D01*
X115032380Y-144978571D01*
X115032380Y-145502380D01*
X115032380Y-144978571D02*
X114984761Y-144883333D01*
X114889523Y-144835714D01*
X114746666Y-144835714D01*
X114651428Y-144883333D01*
X114603809Y-144978571D01*
X114603809Y-145502380D01*
X114127619Y-145502380D02*
X114127619Y-144835714D01*
X114127619Y-144930952D02*
X114080000Y-144883333D01*
X113984761Y-144835714D01*
X113841904Y-144835714D01*
X113746666Y-144883333D01*
X113699047Y-144978571D01*
X113699047Y-145502380D01*
X113699047Y-144978571D02*
X113651428Y-144883333D01*
X113556190Y-144835714D01*
X113413333Y-144835714D01*
X113318095Y-144883333D01*
X113270476Y-144978571D01*
X113270476Y-145502380D01*
X113032380Y-145597619D02*
X112270476Y-145597619D01*
X112175238Y-144502380D02*
X111841904Y-145502380D01*
X111508571Y-144502380D01*
X110794285Y-145454761D02*
X110889523Y-145502380D01*
X111080000Y-145502380D01*
X111175238Y-145454761D01*
X111222857Y-145359523D01*
X111222857Y-144978571D01*
X111175238Y-144883333D01*
X111080000Y-144835714D01*
X110889523Y-144835714D01*
X110794285Y-144883333D01*
X110746666Y-144978571D01*
X110746666Y-145073809D01*
X111222857Y-145169047D01*
X110318095Y-145502380D02*
X110318095Y-144835714D01*
X110318095Y-145026190D02*
X110270476Y-144930952D01*
X110222857Y-144883333D01*
X110127619Y-144835714D01*
X110032380Y-144835714D01*
X109841904Y-144835714D02*
X109460952Y-144835714D01*
X109699047Y-144502380D02*
X109699047Y-145359523D01*
X109651428Y-145454761D01*
X109556190Y-145502380D01*
X109460952Y-145502380D01*
X109127619Y-145502380D02*
X109127619Y-144835714D01*
X109127619Y-144502380D02*
X109175238Y-144550000D01*
X109127619Y-144597619D01*
X109080000Y-144550000D01*
X109127619Y-144502380D01*
X109127619Y-144597619D01*
X108222857Y-145454761D02*
X108318095Y-145502380D01*
X108508571Y-145502380D01*
X108603809Y-145454761D01*
X108651428Y-145407142D01*
X108699047Y-145311904D01*
X108699047Y-145026190D01*
X108651428Y-144930952D01*
X108603809Y-144883333D01*
X108508571Y-144835714D01*
X108318095Y-144835714D01*
X108222857Y-144883333D01*
X107365714Y-145502380D02*
X107365714Y-144978571D01*
X107413333Y-144883333D01*
X107508571Y-144835714D01*
X107699047Y-144835714D01*
X107794285Y-144883333D01*
X107365714Y-145454761D02*
X107460952Y-145502380D01*
X107699047Y-145502380D01*
X107794285Y-145454761D01*
X107841904Y-145359523D01*
X107841904Y-145264285D01*
X107794285Y-145169047D01*
X107699047Y-145121428D01*
X107460952Y-145121428D01*
X107365714Y-145073809D01*
X106746666Y-145502380D02*
X106841904Y-145454761D01*
X106889523Y-145359523D01*
X106889523Y-144502380D01*
X120913333Y-148272380D02*
X121246666Y-147796190D01*
X121484761Y-148272380D02*
X121484761Y-147272380D01*
X121103809Y-147272380D01*
X121008571Y-147320000D01*
X120960952Y-147367619D01*
X120913333Y-147462857D01*
X120913333Y-147605714D01*
X120960952Y-147700952D01*
X121008571Y-147748571D01*
X121103809Y-147796190D01*
X121484761Y-147796190D01*
X120484761Y-147748571D02*
X120151428Y-147748571D01*
X120008571Y-148272380D02*
X120484761Y-148272380D01*
X120484761Y-147272380D01*
X120008571Y-147272380D01*
X119246666Y-147748571D02*
X119580000Y-147748571D01*
X119580000Y-148272380D02*
X119580000Y-147272380D01*
X119103809Y-147272380D01*
X118580000Y-147272380D02*
X118580000Y-147510476D01*
X118818095Y-147415238D02*
X118580000Y-147510476D01*
X118341904Y-147415238D01*
X118722857Y-147700952D02*
X118580000Y-147510476D01*
X118437142Y-147700952D01*
X117818095Y-147272380D02*
X117818095Y-147510476D01*
X118056190Y-147415238D02*
X117818095Y-147510476D01*
X117580000Y-147415238D01*
X117960952Y-147700952D02*
X117818095Y-147510476D01*
X117675238Y-147700952D01*
X129778095Y-145502380D02*
X129778095Y-144502380D01*
X129397142Y-144502380D01*
X129301904Y-144550000D01*
X129254285Y-144597619D01*
X129206666Y-144692857D01*
X129206666Y-144835714D01*
X129254285Y-144930952D01*
X129301904Y-144978571D01*
X129397142Y-145026190D01*
X129778095Y-145026190D01*
X128778095Y-145502380D02*
X128778095Y-144835714D01*
X128778095Y-144502380D02*
X128825714Y-144550000D01*
X128778095Y-144597619D01*
X128730476Y-144550000D01*
X128778095Y-144502380D01*
X128778095Y-144597619D01*
X128301904Y-144835714D02*
X128301904Y-145502380D01*
X128301904Y-144930952D02*
X128254285Y-144883333D01*
X128159047Y-144835714D01*
X128016190Y-144835714D01*
X127920952Y-144883333D01*
X127873333Y-144978571D01*
X127873333Y-145502380D01*
X127444761Y-145454761D02*
X127301904Y-145502380D01*
X127063809Y-145502380D01*
X126968571Y-145454761D01*
X126920952Y-145407142D01*
X126873333Y-145311904D01*
X126873333Y-145216666D01*
X126920952Y-145121428D01*
X126968571Y-145073809D01*
X127063809Y-145026190D01*
X127254285Y-144978571D01*
X127349523Y-144930952D01*
X127397142Y-144883333D01*
X127444761Y-144788095D01*
X127444761Y-144692857D01*
X127397142Y-144597619D01*
X127349523Y-144550000D01*
X127254285Y-144502380D01*
X127016190Y-144502380D01*
X126873333Y-144550000D01*
X126301904Y-145502380D02*
X126397142Y-145454761D01*
X126444761Y-145407142D01*
X126492380Y-145311904D01*
X126492380Y-145026190D01*
X126444761Y-144930952D01*
X126397142Y-144883333D01*
X126301904Y-144835714D01*
X126159047Y-144835714D01*
X126063809Y-144883333D01*
X126016190Y-144930952D01*
X125968571Y-145026190D01*
X125968571Y-145311904D01*
X126016190Y-145407142D01*
X126063809Y-145454761D01*
X126159047Y-145502380D01*
X126301904Y-145502380D01*
X125111428Y-145454761D02*
X125206666Y-145502380D01*
X125397142Y-145502380D01*
X125492380Y-145454761D01*
X125540000Y-145407142D01*
X125587619Y-145311904D01*
X125587619Y-145026190D01*
X125540000Y-144930952D01*
X125492380Y-144883333D01*
X125397142Y-144835714D01*
X125206666Y-144835714D01*
X125111428Y-144883333D01*
X124682857Y-145502380D02*
X124682857Y-144502380D01*
X124587619Y-145121428D02*
X124301904Y-145502380D01*
X124301904Y-144835714D02*
X124682857Y-145216666D01*
X123492380Y-145454761D02*
X123587619Y-145502380D01*
X123778095Y-145502380D01*
X123873333Y-145454761D01*
X123920952Y-145359523D01*
X123920952Y-144978571D01*
X123873333Y-144883333D01*
X123778095Y-144835714D01*
X123587619Y-144835714D01*
X123492380Y-144883333D01*
X123444761Y-144978571D01*
X123444761Y-145073809D01*
X123920952Y-145169047D01*
X123159047Y-144835714D02*
X122778095Y-144835714D01*
X123016190Y-144502380D02*
X123016190Y-145359523D01*
X122968571Y-145454761D01*
X122873333Y-145502380D01*
X122778095Y-145502380D01*
X122682857Y-145597619D02*
X121920952Y-145597619D01*
X121159047Y-145502380D02*
X121730476Y-145502380D01*
X121444761Y-145502380D02*
X121444761Y-144502380D01*
X121540000Y-144645238D01*
X121635238Y-144740476D01*
X121730476Y-144788095D01*
X120825714Y-145502380D02*
X120301904Y-144835714D01*
X120825714Y-144835714D02*
X120301904Y-145502380D01*
X119730476Y-144502380D02*
X119635238Y-144502380D01*
X119540000Y-144550000D01*
X119492380Y-144597619D01*
X119444761Y-144692857D01*
X119397142Y-144883333D01*
X119397142Y-145121428D01*
X119444761Y-145311904D01*
X119492380Y-145407142D01*
X119540000Y-145454761D01*
X119635238Y-145502380D01*
X119730476Y-145502380D01*
X119825714Y-145454761D01*
X119873333Y-145407142D01*
X119920952Y-145311904D01*
X119968571Y-145121428D01*
X119968571Y-144883333D01*
X119920952Y-144692857D01*
X119873333Y-144597619D01*
X119825714Y-144550000D01*
X119730476Y-144502380D01*
X118444761Y-145502380D02*
X119016190Y-145502380D01*
X118730476Y-145502380D02*
X118730476Y-144502380D01*
X118825714Y-144645238D01*
X118920952Y-144740476D01*
X119016190Y-144788095D01*
X118254285Y-145597619D02*
X117492380Y-145597619D01*
X117254285Y-145502380D02*
X117254285Y-144502380D01*
X116873333Y-144502380D01*
X116778095Y-144550000D01*
X116730476Y-144597619D01*
X116682857Y-144692857D01*
X116682857Y-144835714D01*
X116730476Y-144930952D01*
X116778095Y-144978571D01*
X116873333Y-145026190D01*
X117254285Y-145026190D01*
X116301904Y-144597619D02*
X116254285Y-144550000D01*
X116159047Y-144502380D01*
X115920952Y-144502380D01*
X115825714Y-144550000D01*
X115778095Y-144597619D01*
X115730476Y-144692857D01*
X115730476Y-144788095D01*
X115778095Y-144930952D01*
X116349523Y-145502380D01*
X115730476Y-145502380D01*
X115301904Y-145407142D02*
X115254285Y-145454761D01*
X115301904Y-145502380D01*
X115349523Y-145454761D01*
X115301904Y-145407142D01*
X115301904Y-145502380D01*
X114349523Y-144502380D02*
X114825714Y-144502380D01*
X114873333Y-144978571D01*
X114825714Y-144930952D01*
X114730476Y-144883333D01*
X114492380Y-144883333D01*
X114397142Y-144930952D01*
X114349523Y-144978571D01*
X114301904Y-145073809D01*
X114301904Y-145311904D01*
X114349523Y-145407142D01*
X114397142Y-145454761D01*
X114492380Y-145502380D01*
X114730476Y-145502380D01*
X114825714Y-145454761D01*
X114873333Y-145407142D01*
X113444761Y-144835714D02*
X113444761Y-145502380D01*
X113682857Y-144454761D02*
X113920952Y-145169047D01*
X113301904Y-145169047D01*
X112920952Y-145502380D02*
X112920952Y-144835714D01*
X112920952Y-144930952D02*
X112873333Y-144883333D01*
X112778095Y-144835714D01*
X112635238Y-144835714D01*
X112540000Y-144883333D01*
X112492380Y-144978571D01*
X112492380Y-145502380D01*
X112492380Y-144978571D02*
X112444761Y-144883333D01*
X112349523Y-144835714D01*
X112206666Y-144835714D01*
X112111428Y-144883333D01*
X112063809Y-144978571D01*
X112063809Y-145502380D01*
X111587619Y-145502380D02*
X111587619Y-144835714D01*
X111587619Y-144930952D02*
X111540000Y-144883333D01*
X111444761Y-144835714D01*
X111301904Y-144835714D01*
X111206666Y-144883333D01*
X111159047Y-144978571D01*
X111159047Y-145502380D01*
X111159047Y-144978571D02*
X111111428Y-144883333D01*
X111016190Y-144835714D01*
X110873333Y-144835714D01*
X110778095Y-144883333D01*
X110730476Y-144978571D01*
X110730476Y-145502380D01*
X110492380Y-145597619D02*
X109730476Y-145597619D01*
X109635238Y-144502380D02*
X109301904Y-145502380D01*
X108968571Y-144502380D01*
X108254285Y-145454761D02*
X108349523Y-145502380D01*
X108540000Y-145502380D01*
X108635238Y-145454761D01*
X108682857Y-145359523D01*
X108682857Y-144978571D01*
X108635238Y-144883333D01*
X108540000Y-144835714D01*
X108349523Y-144835714D01*
X108254285Y-144883333D01*
X108206666Y-144978571D01*
X108206666Y-145073809D01*
X108682857Y-145169047D01*
X107778095Y-145502380D02*
X107778095Y-144835714D01*
X107778095Y-145026190D02*
X107730476Y-144930952D01*
X107682857Y-144883333D01*
X107587619Y-144835714D01*
X107492380Y-144835714D01*
X107301904Y-144835714D02*
X106920952Y-144835714D01*
X107159047Y-144502380D02*
X107159047Y-145359523D01*
X107111428Y-145454761D01*
X107016190Y-145502380D01*
X106920952Y-145502380D01*
X106587619Y-145502380D02*
X106587619Y-144835714D01*
X106587619Y-144502380D02*
X106635238Y-144550000D01*
X106587619Y-144597619D01*
X106540000Y-144550000D01*
X106587619Y-144502380D01*
X106587619Y-144597619D01*
X105682857Y-145454761D02*
X105778095Y-145502380D01*
X105968571Y-145502380D01*
X106063809Y-145454761D01*
X106111428Y-145407142D01*
X106159047Y-145311904D01*
X106159047Y-145026190D01*
X106111428Y-144930952D01*
X106063809Y-144883333D01*
X105968571Y-144835714D01*
X105778095Y-144835714D01*
X105682857Y-144883333D01*
X104825714Y-145502380D02*
X104825714Y-144978571D01*
X104873333Y-144883333D01*
X104968571Y-144835714D01*
X105159047Y-144835714D01*
X105254285Y-144883333D01*
X104825714Y-145454761D02*
X104920952Y-145502380D01*
X105159047Y-145502380D01*
X105254285Y-145454761D01*
X105301904Y-145359523D01*
X105301904Y-145264285D01*
X105254285Y-145169047D01*
X105159047Y-145121428D01*
X104920952Y-145121428D01*
X104825714Y-145073809D01*
X104206666Y-145502380D02*
X104301904Y-145454761D01*
X104349523Y-145359523D01*
X104349523Y-144502380D01*
X118373333Y-148272380D02*
X118706666Y-147796190D01*
X118944761Y-148272380D02*
X118944761Y-147272380D01*
X118563809Y-147272380D01*
X118468571Y-147320000D01*
X118420952Y-147367619D01*
X118373333Y-147462857D01*
X118373333Y-147605714D01*
X118420952Y-147700952D01*
X118468571Y-147748571D01*
X118563809Y-147796190D01*
X118944761Y-147796190D01*
X117944761Y-147748571D02*
X117611428Y-147748571D01*
X117468571Y-148272380D02*
X117944761Y-148272380D01*
X117944761Y-147272380D01*
X117468571Y-147272380D01*
X116706666Y-147748571D02*
X117040000Y-147748571D01*
X117040000Y-148272380D02*
X117040000Y-147272380D01*
X116563809Y-147272380D01*
X116040000Y-147272380D02*
X116040000Y-147510476D01*
X116278095Y-147415238D02*
X116040000Y-147510476D01*
X115801904Y-147415238D01*
X116182857Y-147700952D02*
X116040000Y-147510476D01*
X115897142Y-147700952D01*
X115278095Y-147272380D02*
X115278095Y-147510476D01*
X115516190Y-147415238D02*
X115278095Y-147510476D01*
X115040000Y-147415238D01*
X115420952Y-147700952D02*
X115278095Y-147510476D01*
X115135238Y-147700952D01*
X127238095Y-145502380D02*
X127238095Y-144502380D01*
X126857142Y-144502380D01*
X126761904Y-144550000D01*
X126714285Y-144597619D01*
X126666666Y-144692857D01*
X126666666Y-144835714D01*
X126714285Y-144930952D01*
X126761904Y-144978571D01*
X126857142Y-145026190D01*
X127238095Y-145026190D01*
X126238095Y-145502380D02*
X126238095Y-144835714D01*
X126238095Y-144502380D02*
X126285714Y-144550000D01*
X126238095Y-144597619D01*
X126190476Y-144550000D01*
X126238095Y-144502380D01*
X126238095Y-144597619D01*
X125761904Y-144835714D02*
X125761904Y-145502380D01*
X125761904Y-144930952D02*
X125714285Y-144883333D01*
X125619047Y-144835714D01*
X125476190Y-144835714D01*
X125380952Y-144883333D01*
X125333333Y-144978571D01*
X125333333Y-145502380D01*
X124904761Y-145454761D02*
X124761904Y-145502380D01*
X124523809Y-145502380D01*
X124428571Y-145454761D01*
X124380952Y-145407142D01*
X124333333Y-145311904D01*
X124333333Y-145216666D01*
X124380952Y-145121428D01*
X124428571Y-145073809D01*
X124523809Y-145026190D01*
X124714285Y-144978571D01*
X124809523Y-144930952D01*
X124857142Y-144883333D01*
X124904761Y-144788095D01*
X124904761Y-144692857D01*
X124857142Y-144597619D01*
X124809523Y-144550000D01*
X124714285Y-144502380D01*
X124476190Y-144502380D01*
X124333333Y-144550000D01*
X123761904Y-145502380D02*
X123857142Y-145454761D01*
X123904761Y-145407142D01*
X123952380Y-145311904D01*
X123952380Y-145026190D01*
X123904761Y-144930952D01*
X123857142Y-144883333D01*
X123761904Y-144835714D01*
X123619047Y-144835714D01*
X123523809Y-144883333D01*
X123476190Y-144930952D01*
X123428571Y-145026190D01*
X123428571Y-145311904D01*
X123476190Y-145407142D01*
X123523809Y-145454761D01*
X123619047Y-145502380D01*
X123761904Y-145502380D01*
X122571428Y-145454761D02*
X122666666Y-145502380D01*
X122857142Y-145502380D01*
X122952380Y-145454761D01*
X123000000Y-145407142D01*
X123047619Y-145311904D01*
X123047619Y-145026190D01*
X123000000Y-144930952D01*
X122952380Y-144883333D01*
X122857142Y-144835714D01*
X122666666Y-144835714D01*
X122571428Y-144883333D01*
X122142857Y-145502380D02*
X122142857Y-144502380D01*
X122047619Y-145121428D02*
X121761904Y-145502380D01*
X121761904Y-144835714D02*
X122142857Y-145216666D01*
X120952380Y-145454761D02*
X121047619Y-145502380D01*
X121238095Y-145502380D01*
X121333333Y-145454761D01*
X121380952Y-145359523D01*
X121380952Y-144978571D01*
X121333333Y-144883333D01*
X121238095Y-144835714D01*
X121047619Y-144835714D01*
X120952380Y-144883333D01*
X120904761Y-144978571D01*
X120904761Y-145073809D01*
X121380952Y-145169047D01*
X120619047Y-144835714D02*
X120238095Y-144835714D01*
X120476190Y-144502380D02*
X120476190Y-145359523D01*
X120428571Y-145454761D01*
X120333333Y-145502380D01*
X120238095Y-145502380D01*
X120142857Y-145597619D02*
X119380952Y-145597619D01*
X118619047Y-145502380D02*
X119190476Y-145502380D01*
X118904761Y-145502380D02*
X118904761Y-144502380D01*
X119000000Y-144645238D01*
X119095238Y-144740476D01*
X119190476Y-144788095D01*
X118285714Y-145502380D02*
X117761904Y-144835714D01*
X118285714Y-144835714D02*
X117761904Y-145502380D01*
X117190476Y-144502380D02*
X117095238Y-144502380D01*
X117000000Y-144550000D01*
X116952380Y-144597619D01*
X116904761Y-144692857D01*
X116857142Y-144883333D01*
X116857142Y-145121428D01*
X116904761Y-145311904D01*
X116952380Y-145407142D01*
X117000000Y-145454761D01*
X117095238Y-145502380D01*
X117190476Y-145502380D01*
X117285714Y-145454761D01*
X117333333Y-145407142D01*
X117380952Y-145311904D01*
X117428571Y-145121428D01*
X117428571Y-144883333D01*
X117380952Y-144692857D01*
X117333333Y-144597619D01*
X117285714Y-144550000D01*
X117190476Y-144502380D01*
X115904761Y-145502380D02*
X116476190Y-145502380D01*
X116190476Y-145502380D02*
X116190476Y-144502380D01*
X116285714Y-144645238D01*
X116380952Y-144740476D01*
X116476190Y-144788095D01*
X115714285Y-145597619D02*
X114952380Y-145597619D01*
X114714285Y-145502380D02*
X114714285Y-144502380D01*
X114333333Y-144502380D01*
X114238095Y-144550000D01*
X114190476Y-144597619D01*
X114142857Y-144692857D01*
X114142857Y-144835714D01*
X114190476Y-144930952D01*
X114238095Y-144978571D01*
X114333333Y-145026190D01*
X114714285Y-145026190D01*
X113761904Y-144597619D02*
X113714285Y-144550000D01*
X113619047Y-144502380D01*
X113380952Y-144502380D01*
X113285714Y-144550000D01*
X113238095Y-144597619D01*
X113190476Y-144692857D01*
X113190476Y-144788095D01*
X113238095Y-144930952D01*
X113809523Y-145502380D01*
X113190476Y-145502380D01*
X112761904Y-145407142D02*
X112714285Y-145454761D01*
X112761904Y-145502380D01*
X112809523Y-145454761D01*
X112761904Y-145407142D01*
X112761904Y-145502380D01*
X111809523Y-144502380D02*
X112285714Y-144502380D01*
X112333333Y-144978571D01*
X112285714Y-144930952D01*
X112190476Y-144883333D01*
X111952380Y-144883333D01*
X111857142Y-144930952D01*
X111809523Y-144978571D01*
X111761904Y-145073809D01*
X111761904Y-145311904D01*
X111809523Y-145407142D01*
X111857142Y-145454761D01*
X111952380Y-145502380D01*
X112190476Y-145502380D01*
X112285714Y-145454761D01*
X112333333Y-145407142D01*
X110904761Y-144835714D02*
X110904761Y-145502380D01*
X111142857Y-144454761D02*
X111380952Y-145169047D01*
X110761904Y-145169047D01*
X110380952Y-145502380D02*
X110380952Y-144835714D01*
X110380952Y-144930952D02*
X110333333Y-144883333D01*
X110238095Y-144835714D01*
X110095238Y-144835714D01*
X110000000Y-144883333D01*
X109952380Y-144978571D01*
X109952380Y-145502380D01*
X109952380Y-144978571D02*
X109904761Y-144883333D01*
X109809523Y-144835714D01*
X109666666Y-144835714D01*
X109571428Y-144883333D01*
X109523809Y-144978571D01*
X109523809Y-145502380D01*
X109047619Y-145502380D02*
X109047619Y-144835714D01*
X109047619Y-144930952D02*
X109000000Y-144883333D01*
X108904761Y-144835714D01*
X108761904Y-144835714D01*
X108666666Y-144883333D01*
X108619047Y-144978571D01*
X108619047Y-145502380D01*
X108619047Y-144978571D02*
X108571428Y-144883333D01*
X108476190Y-144835714D01*
X108333333Y-144835714D01*
X108238095Y-144883333D01*
X108190476Y-144978571D01*
X108190476Y-145502380D01*
X107952380Y-145597619D02*
X107190476Y-145597619D01*
X107095238Y-144502380D02*
X106761904Y-145502380D01*
X106428571Y-144502380D01*
X105714285Y-145454761D02*
X105809523Y-145502380D01*
X106000000Y-145502380D01*
X106095238Y-145454761D01*
X106142857Y-145359523D01*
X106142857Y-144978571D01*
X106095238Y-144883333D01*
X106000000Y-144835714D01*
X105809523Y-144835714D01*
X105714285Y-144883333D01*
X105666666Y-144978571D01*
X105666666Y-145073809D01*
X106142857Y-145169047D01*
X105238095Y-145502380D02*
X105238095Y-144835714D01*
X105238095Y-145026190D02*
X105190476Y-144930952D01*
X105142857Y-144883333D01*
X105047619Y-144835714D01*
X104952380Y-144835714D01*
X104761904Y-144835714D02*
X104380952Y-144835714D01*
X104619047Y-144502380D02*
X104619047Y-145359523D01*
X104571428Y-145454761D01*
X104476190Y-145502380D01*
X104380952Y-145502380D01*
X104047619Y-145502380D02*
X104047619Y-144835714D01*
X104047619Y-144502380D02*
X104095238Y-144550000D01*
X104047619Y-144597619D01*
X104000000Y-144550000D01*
X104047619Y-144502380D01*
X104047619Y-144597619D01*
X103142857Y-145454761D02*
X103238095Y-145502380D01*
X103428571Y-145502380D01*
X103523809Y-145454761D01*
X103571428Y-145407142D01*
X103619047Y-145311904D01*
X103619047Y-145026190D01*
X103571428Y-144930952D01*
X103523809Y-144883333D01*
X103428571Y-144835714D01*
X103238095Y-144835714D01*
X103142857Y-144883333D01*
X102285714Y-145502380D02*
X102285714Y-144978571D01*
X102333333Y-144883333D01*
X102428571Y-144835714D01*
X102619047Y-144835714D01*
X102714285Y-144883333D01*
X102285714Y-145454761D02*
X102380952Y-145502380D01*
X102619047Y-145502380D01*
X102714285Y-145454761D01*
X102761904Y-145359523D01*
X102761904Y-145264285D01*
X102714285Y-145169047D01*
X102619047Y-145121428D01*
X102380952Y-145121428D01*
X102285714Y-145073809D01*
X101666666Y-145502380D02*
X101761904Y-145454761D01*
X101809523Y-145359523D01*
X101809523Y-144502380D01*
X115833333Y-148272380D02*
X116166666Y-147796190D01*
X116404761Y-148272380D02*
X116404761Y-147272380D01*
X116023809Y-147272380D01*
X115928571Y-147320000D01*
X115880952Y-147367619D01*
X115833333Y-147462857D01*
X115833333Y-147605714D01*
X115880952Y-147700952D01*
X115928571Y-147748571D01*
X116023809Y-147796190D01*
X116404761Y-147796190D01*
X115404761Y-147748571D02*
X115071428Y-147748571D01*
X114928571Y-148272380D02*
X115404761Y-148272380D01*
X115404761Y-147272380D01*
X114928571Y-147272380D01*
X114166666Y-147748571D02*
X114500000Y-147748571D01*
X114500000Y-148272380D02*
X114500000Y-147272380D01*
X114023809Y-147272380D01*
X113500000Y-147272380D02*
X113500000Y-147510476D01*
X113738095Y-147415238D02*
X113500000Y-147510476D01*
X113261904Y-147415238D01*
X113642857Y-147700952D02*
X113500000Y-147510476D01*
X113357142Y-147700952D01*
X112738095Y-147272380D02*
X112738095Y-147510476D01*
X112976190Y-147415238D02*
X112738095Y-147510476D01*
X112500000Y-147415238D01*
X112880952Y-147700952D02*
X112738095Y-147510476D01*
X112595238Y-147700952D01*
X134858095Y-142962380D02*
X134858095Y-141962380D01*
X134477142Y-141962380D01*
X134381904Y-142010000D01*
X134334285Y-142057619D01*
X134286666Y-142152857D01*
X134286666Y-142295714D01*
X134334285Y-142390952D01*
X134381904Y-142438571D01*
X134477142Y-142486190D01*
X134858095Y-142486190D01*
X133858095Y-142962380D02*
X133858095Y-142295714D01*
X133858095Y-141962380D02*
X133905714Y-142010000D01*
X133858095Y-142057619D01*
X133810476Y-142010000D01*
X133858095Y-141962380D01*
X133858095Y-142057619D01*
X133381904Y-142295714D02*
X133381904Y-142962380D01*
X133381904Y-142390952D02*
X133334285Y-142343333D01*
X133239047Y-142295714D01*
X133096190Y-142295714D01*
X133000952Y-142343333D01*
X132953333Y-142438571D01*
X132953333Y-142962380D01*
X132524761Y-142914761D02*
X132381904Y-142962380D01*
X132143809Y-142962380D01*
X132048571Y-142914761D01*
X132000952Y-142867142D01*
X131953333Y-142771904D01*
X131953333Y-142676666D01*
X132000952Y-142581428D01*
X132048571Y-142533809D01*
X132143809Y-142486190D01*
X132334285Y-142438571D01*
X132429523Y-142390952D01*
X132477142Y-142343333D01*
X132524761Y-142248095D01*
X132524761Y-142152857D01*
X132477142Y-142057619D01*
X132429523Y-142010000D01*
X132334285Y-141962380D01*
X132096190Y-141962380D01*
X131953333Y-142010000D01*
X131381904Y-142962380D02*
X131477142Y-142914761D01*
X131524761Y-142867142D01*
X131572380Y-142771904D01*
X131572380Y-142486190D01*
X131524761Y-142390952D01*
X131477142Y-142343333D01*
X131381904Y-142295714D01*
X131239047Y-142295714D01*
X131143809Y-142343333D01*
X131096190Y-142390952D01*
X131048571Y-142486190D01*
X131048571Y-142771904D01*
X131096190Y-142867142D01*
X131143809Y-142914761D01*
X131239047Y-142962380D01*
X131381904Y-142962380D01*
X130191428Y-142914761D02*
X130286666Y-142962380D01*
X130477142Y-142962380D01*
X130572380Y-142914761D01*
X130620000Y-142867142D01*
X130667619Y-142771904D01*
X130667619Y-142486190D01*
X130620000Y-142390952D01*
X130572380Y-142343333D01*
X130477142Y-142295714D01*
X130286666Y-142295714D01*
X130191428Y-142343333D01*
X129762857Y-142962380D02*
X129762857Y-141962380D01*
X129667619Y-142581428D02*
X129381904Y-142962380D01*
X129381904Y-142295714D02*
X129762857Y-142676666D01*
X128572380Y-142914761D02*
X128667619Y-142962380D01*
X128858095Y-142962380D01*
X128953333Y-142914761D01*
X129000952Y-142819523D01*
X129000952Y-142438571D01*
X128953333Y-142343333D01*
X128858095Y-142295714D01*
X128667619Y-142295714D01*
X128572380Y-142343333D01*
X128524761Y-142438571D01*
X128524761Y-142533809D01*
X129000952Y-142629047D01*
X128239047Y-142295714D02*
X127858095Y-142295714D01*
X128096190Y-141962380D02*
X128096190Y-142819523D01*
X128048571Y-142914761D01*
X127953333Y-142962380D01*
X127858095Y-142962380D01*
X127762857Y-143057619D02*
X127000952Y-143057619D01*
X126239047Y-142962380D02*
X126810476Y-142962380D01*
X126524761Y-142962380D02*
X126524761Y-141962380D01*
X126620000Y-142105238D01*
X126715238Y-142200476D01*
X126810476Y-142248095D01*
X125905714Y-142962380D02*
X125381904Y-142295714D01*
X125905714Y-142295714D02*
X125381904Y-142962380D01*
X124810476Y-141962380D02*
X124715238Y-141962380D01*
X124620000Y-142010000D01*
X124572380Y-142057619D01*
X124524761Y-142152857D01*
X124477142Y-142343333D01*
X124477142Y-142581428D01*
X124524761Y-142771904D01*
X124572380Y-142867142D01*
X124620000Y-142914761D01*
X124715238Y-142962380D01*
X124810476Y-142962380D01*
X124905714Y-142914761D01*
X124953333Y-142867142D01*
X125000952Y-142771904D01*
X125048571Y-142581428D01*
X125048571Y-142343333D01*
X125000952Y-142152857D01*
X124953333Y-142057619D01*
X124905714Y-142010000D01*
X124810476Y-141962380D01*
X123524761Y-142962380D02*
X124096190Y-142962380D01*
X123810476Y-142962380D02*
X123810476Y-141962380D01*
X123905714Y-142105238D01*
X124000952Y-142200476D01*
X124096190Y-142248095D01*
X123334285Y-143057619D02*
X122572380Y-143057619D01*
X122334285Y-142962380D02*
X122334285Y-141962380D01*
X121953333Y-141962380D01*
X121858095Y-142010000D01*
X121810476Y-142057619D01*
X121762857Y-142152857D01*
X121762857Y-142295714D01*
X121810476Y-142390952D01*
X121858095Y-142438571D01*
X121953333Y-142486190D01*
X122334285Y-142486190D01*
X121381904Y-142057619D02*
X121334285Y-142010000D01*
X121239047Y-141962380D01*
X121000952Y-141962380D01*
X120905714Y-142010000D01*
X120858095Y-142057619D01*
X120810476Y-142152857D01*
X120810476Y-142248095D01*
X120858095Y-142390952D01*
X121429523Y-142962380D01*
X120810476Y-142962380D01*
X120381904Y-142867142D02*
X120334285Y-142914761D01*
X120381904Y-142962380D01*
X120429523Y-142914761D01*
X120381904Y-142867142D01*
X120381904Y-142962380D01*
X119429523Y-141962380D02*
X119905714Y-141962380D01*
X119953333Y-142438571D01*
X119905714Y-142390952D01*
X119810476Y-142343333D01*
X119572380Y-142343333D01*
X119477142Y-142390952D01*
X119429523Y-142438571D01*
X119381904Y-142533809D01*
X119381904Y-142771904D01*
X119429523Y-142867142D01*
X119477142Y-142914761D01*
X119572380Y-142962380D01*
X119810476Y-142962380D01*
X119905714Y-142914761D01*
X119953333Y-142867142D01*
X118524761Y-142295714D02*
X118524761Y-142962380D01*
X118762857Y-141914761D02*
X119000952Y-142629047D01*
X118381904Y-142629047D01*
X118000952Y-142962380D02*
X118000952Y-142295714D01*
X118000952Y-142390952D02*
X117953333Y-142343333D01*
X117858095Y-142295714D01*
X117715238Y-142295714D01*
X117620000Y-142343333D01*
X117572380Y-142438571D01*
X117572380Y-142962380D01*
X117572380Y-142438571D02*
X117524761Y-142343333D01*
X117429523Y-142295714D01*
X117286666Y-142295714D01*
X117191428Y-142343333D01*
X117143809Y-142438571D01*
X117143809Y-142962380D01*
X116667619Y-142962380D02*
X116667619Y-142295714D01*
X116667619Y-142390952D02*
X116620000Y-142343333D01*
X116524761Y-142295714D01*
X116381904Y-142295714D01*
X116286666Y-142343333D01*
X116239047Y-142438571D01*
X116239047Y-142962380D01*
X116239047Y-142438571D02*
X116191428Y-142343333D01*
X116096190Y-142295714D01*
X115953333Y-142295714D01*
X115858095Y-142343333D01*
X115810476Y-142438571D01*
X115810476Y-142962380D01*
X115572380Y-143057619D02*
X114810476Y-143057619D01*
X114715238Y-141962380D02*
X114381904Y-142962380D01*
X114048571Y-141962380D01*
X113334285Y-142914761D02*
X113429523Y-142962380D01*
X113620000Y-142962380D01*
X113715238Y-142914761D01*
X113762857Y-142819523D01*
X113762857Y-142438571D01*
X113715238Y-142343333D01*
X113620000Y-142295714D01*
X113429523Y-142295714D01*
X113334285Y-142343333D01*
X113286666Y-142438571D01*
X113286666Y-142533809D01*
X113762857Y-142629047D01*
X112858095Y-142962380D02*
X112858095Y-142295714D01*
X112858095Y-142486190D02*
X112810476Y-142390952D01*
X112762857Y-142343333D01*
X112667619Y-142295714D01*
X112572380Y-142295714D01*
X112381904Y-142295714D02*
X112000952Y-142295714D01*
X112239047Y-141962380D02*
X112239047Y-142819523D01*
X112191428Y-142914761D01*
X112096190Y-142962380D01*
X112000952Y-142962380D01*
X111667619Y-142962380D02*
X111667619Y-142295714D01*
X111667619Y-141962380D02*
X111715238Y-142010000D01*
X111667619Y-142057619D01*
X111620000Y-142010000D01*
X111667619Y-141962380D01*
X111667619Y-142057619D01*
X110762857Y-142914761D02*
X110858095Y-142962380D01*
X111048571Y-142962380D01*
X111143809Y-142914761D01*
X111191428Y-142867142D01*
X111239047Y-142771904D01*
X111239047Y-142486190D01*
X111191428Y-142390952D01*
X111143809Y-142343333D01*
X111048571Y-142295714D01*
X110858095Y-142295714D01*
X110762857Y-142343333D01*
X109905714Y-142962380D02*
X109905714Y-142438571D01*
X109953333Y-142343333D01*
X110048571Y-142295714D01*
X110239047Y-142295714D01*
X110334285Y-142343333D01*
X109905714Y-142914761D02*
X110000952Y-142962380D01*
X110239047Y-142962380D01*
X110334285Y-142914761D01*
X110381904Y-142819523D01*
X110381904Y-142724285D01*
X110334285Y-142629047D01*
X110239047Y-142581428D01*
X110000952Y-142581428D01*
X109905714Y-142533809D01*
X109286666Y-142962380D02*
X109381904Y-142914761D01*
X109429523Y-142819523D01*
X109429523Y-141962380D01*
X123453333Y-145732380D02*
X123786666Y-145256190D01*
X124024761Y-145732380D02*
X124024761Y-144732380D01*
X123643809Y-144732380D01*
X123548571Y-144780000D01*
X123500952Y-144827619D01*
X123453333Y-144922857D01*
X123453333Y-145065714D01*
X123500952Y-145160952D01*
X123548571Y-145208571D01*
X123643809Y-145256190D01*
X124024761Y-145256190D01*
X123024761Y-145208571D02*
X122691428Y-145208571D01*
X122548571Y-145732380D02*
X123024761Y-145732380D01*
X123024761Y-144732380D01*
X122548571Y-144732380D01*
X121786666Y-145208571D02*
X122120000Y-145208571D01*
X122120000Y-145732380D02*
X122120000Y-144732380D01*
X121643809Y-144732380D01*
X121120000Y-144732380D02*
X121120000Y-144970476D01*
X121358095Y-144875238D02*
X121120000Y-144970476D01*
X120881904Y-144875238D01*
X121262857Y-145160952D02*
X121120000Y-144970476D01*
X120977142Y-145160952D01*
X120358095Y-144732380D02*
X120358095Y-144970476D01*
X120596190Y-144875238D02*
X120358095Y-144970476D01*
X120120000Y-144875238D01*
X120500952Y-145160952D02*
X120358095Y-144970476D01*
X120215238Y-145160952D01*
X132318095Y-142962380D02*
X132318095Y-141962380D01*
X131937142Y-141962380D01*
X131841904Y-142010000D01*
X131794285Y-142057619D01*
X131746666Y-142152857D01*
X131746666Y-142295714D01*
X131794285Y-142390952D01*
X131841904Y-142438571D01*
X131937142Y-142486190D01*
X132318095Y-142486190D01*
X131318095Y-142962380D02*
X131318095Y-142295714D01*
X131318095Y-141962380D02*
X131365714Y-142010000D01*
X131318095Y-142057619D01*
X131270476Y-142010000D01*
X131318095Y-141962380D01*
X131318095Y-142057619D01*
X130841904Y-142295714D02*
X130841904Y-142962380D01*
X130841904Y-142390952D02*
X130794285Y-142343333D01*
X130699047Y-142295714D01*
X130556190Y-142295714D01*
X130460952Y-142343333D01*
X130413333Y-142438571D01*
X130413333Y-142962380D01*
X129984761Y-142914761D02*
X129841904Y-142962380D01*
X129603809Y-142962380D01*
X129508571Y-142914761D01*
X129460952Y-142867142D01*
X129413333Y-142771904D01*
X129413333Y-142676666D01*
X129460952Y-142581428D01*
X129508571Y-142533809D01*
X129603809Y-142486190D01*
X129794285Y-142438571D01*
X129889523Y-142390952D01*
X129937142Y-142343333D01*
X129984761Y-142248095D01*
X129984761Y-142152857D01*
X129937142Y-142057619D01*
X129889523Y-142010000D01*
X129794285Y-141962380D01*
X129556190Y-141962380D01*
X129413333Y-142010000D01*
X128841904Y-142962380D02*
X128937142Y-142914761D01*
X128984761Y-142867142D01*
X129032380Y-142771904D01*
X129032380Y-142486190D01*
X128984761Y-142390952D01*
X128937142Y-142343333D01*
X128841904Y-142295714D01*
X128699047Y-142295714D01*
X128603809Y-142343333D01*
X128556190Y-142390952D01*
X128508571Y-142486190D01*
X128508571Y-142771904D01*
X128556190Y-142867142D01*
X128603809Y-142914761D01*
X128699047Y-142962380D01*
X128841904Y-142962380D01*
X127651428Y-142914761D02*
X127746666Y-142962380D01*
X127937142Y-142962380D01*
X128032380Y-142914761D01*
X128080000Y-142867142D01*
X128127619Y-142771904D01*
X128127619Y-142486190D01*
X128080000Y-142390952D01*
X128032380Y-142343333D01*
X127937142Y-142295714D01*
X127746666Y-142295714D01*
X127651428Y-142343333D01*
X127222857Y-142962380D02*
X127222857Y-141962380D01*
X127127619Y-142581428D02*
X126841904Y-142962380D01*
X126841904Y-142295714D02*
X127222857Y-142676666D01*
X126032380Y-142914761D02*
X126127619Y-142962380D01*
X126318095Y-142962380D01*
X126413333Y-142914761D01*
X126460952Y-142819523D01*
X126460952Y-142438571D01*
X126413333Y-142343333D01*
X126318095Y-142295714D01*
X126127619Y-142295714D01*
X126032380Y-142343333D01*
X125984761Y-142438571D01*
X125984761Y-142533809D01*
X126460952Y-142629047D01*
X125699047Y-142295714D02*
X125318095Y-142295714D01*
X125556190Y-141962380D02*
X125556190Y-142819523D01*
X125508571Y-142914761D01*
X125413333Y-142962380D01*
X125318095Y-142962380D01*
X125222857Y-143057619D02*
X124460952Y-143057619D01*
X123699047Y-142962380D02*
X124270476Y-142962380D01*
X123984761Y-142962380D02*
X123984761Y-141962380D01*
X124080000Y-142105238D01*
X124175238Y-142200476D01*
X124270476Y-142248095D01*
X123365714Y-142962380D02*
X122841904Y-142295714D01*
X123365714Y-142295714D02*
X122841904Y-142962380D01*
X122270476Y-141962380D02*
X122175238Y-141962380D01*
X122080000Y-142010000D01*
X122032380Y-142057619D01*
X121984761Y-142152857D01*
X121937142Y-142343333D01*
X121937142Y-142581428D01*
X121984761Y-142771904D01*
X122032380Y-142867142D01*
X122080000Y-142914761D01*
X122175238Y-142962380D01*
X122270476Y-142962380D01*
X122365714Y-142914761D01*
X122413333Y-142867142D01*
X122460952Y-142771904D01*
X122508571Y-142581428D01*
X122508571Y-142343333D01*
X122460952Y-142152857D01*
X122413333Y-142057619D01*
X122365714Y-142010000D01*
X122270476Y-141962380D01*
X120984761Y-142962380D02*
X121556190Y-142962380D01*
X121270476Y-142962380D02*
X121270476Y-141962380D01*
X121365714Y-142105238D01*
X121460952Y-142200476D01*
X121556190Y-142248095D01*
X120794285Y-143057619D02*
X120032380Y-143057619D01*
X119794285Y-142962380D02*
X119794285Y-141962380D01*
X119413333Y-141962380D01*
X119318095Y-142010000D01*
X119270476Y-142057619D01*
X119222857Y-142152857D01*
X119222857Y-142295714D01*
X119270476Y-142390952D01*
X119318095Y-142438571D01*
X119413333Y-142486190D01*
X119794285Y-142486190D01*
X118841904Y-142057619D02*
X118794285Y-142010000D01*
X118699047Y-141962380D01*
X118460952Y-141962380D01*
X118365714Y-142010000D01*
X118318095Y-142057619D01*
X118270476Y-142152857D01*
X118270476Y-142248095D01*
X118318095Y-142390952D01*
X118889523Y-142962380D01*
X118270476Y-142962380D01*
X117841904Y-142867142D02*
X117794285Y-142914761D01*
X117841904Y-142962380D01*
X117889523Y-142914761D01*
X117841904Y-142867142D01*
X117841904Y-142962380D01*
X116889523Y-141962380D02*
X117365714Y-141962380D01*
X117413333Y-142438571D01*
X117365714Y-142390952D01*
X117270476Y-142343333D01*
X117032380Y-142343333D01*
X116937142Y-142390952D01*
X116889523Y-142438571D01*
X116841904Y-142533809D01*
X116841904Y-142771904D01*
X116889523Y-142867142D01*
X116937142Y-142914761D01*
X117032380Y-142962380D01*
X117270476Y-142962380D01*
X117365714Y-142914761D01*
X117413333Y-142867142D01*
X115984761Y-142295714D02*
X115984761Y-142962380D01*
X116222857Y-141914761D02*
X116460952Y-142629047D01*
X115841904Y-142629047D01*
X115460952Y-142962380D02*
X115460952Y-142295714D01*
X115460952Y-142390952D02*
X115413333Y-142343333D01*
X115318095Y-142295714D01*
X115175238Y-142295714D01*
X115080000Y-142343333D01*
X115032380Y-142438571D01*
X115032380Y-142962380D01*
X115032380Y-142438571D02*
X114984761Y-142343333D01*
X114889523Y-142295714D01*
X114746666Y-142295714D01*
X114651428Y-142343333D01*
X114603809Y-142438571D01*
X114603809Y-142962380D01*
X114127619Y-142962380D02*
X114127619Y-142295714D01*
X114127619Y-142390952D02*
X114080000Y-142343333D01*
X113984761Y-142295714D01*
X113841904Y-142295714D01*
X113746666Y-142343333D01*
X113699047Y-142438571D01*
X113699047Y-142962380D01*
X113699047Y-142438571D02*
X113651428Y-142343333D01*
X113556190Y-142295714D01*
X113413333Y-142295714D01*
X113318095Y-142343333D01*
X113270476Y-142438571D01*
X113270476Y-142962380D01*
X113032380Y-143057619D02*
X112270476Y-143057619D01*
X112175238Y-141962380D02*
X111841904Y-142962380D01*
X111508571Y-141962380D01*
X110794285Y-142914761D02*
X110889523Y-142962380D01*
X111080000Y-142962380D01*
X111175238Y-142914761D01*
X111222857Y-142819523D01*
X111222857Y-142438571D01*
X111175238Y-142343333D01*
X111080000Y-142295714D01*
X110889523Y-142295714D01*
X110794285Y-142343333D01*
X110746666Y-142438571D01*
X110746666Y-142533809D01*
X111222857Y-142629047D01*
X110318095Y-142962380D02*
X110318095Y-142295714D01*
X110318095Y-142486190D02*
X110270476Y-142390952D01*
X110222857Y-142343333D01*
X110127619Y-142295714D01*
X110032380Y-142295714D01*
X109841904Y-142295714D02*
X109460952Y-142295714D01*
X109699047Y-141962380D02*
X109699047Y-142819523D01*
X109651428Y-142914761D01*
X109556190Y-142962380D01*
X109460952Y-142962380D01*
X109127619Y-142962380D02*
X109127619Y-142295714D01*
X109127619Y-141962380D02*
X109175238Y-142010000D01*
X109127619Y-142057619D01*
X109080000Y-142010000D01*
X109127619Y-141962380D01*
X109127619Y-142057619D01*
X108222857Y-142914761D02*
X108318095Y-142962380D01*
X108508571Y-142962380D01*
X108603809Y-142914761D01*
X108651428Y-142867142D01*
X108699047Y-142771904D01*
X108699047Y-142486190D01*
X108651428Y-142390952D01*
X108603809Y-142343333D01*
X108508571Y-142295714D01*
X108318095Y-142295714D01*
X108222857Y-142343333D01*
X107365714Y-142962380D02*
X107365714Y-142438571D01*
X107413333Y-142343333D01*
X107508571Y-142295714D01*
X107699047Y-142295714D01*
X107794285Y-142343333D01*
X107365714Y-142914761D02*
X107460952Y-142962380D01*
X107699047Y-142962380D01*
X107794285Y-142914761D01*
X107841904Y-142819523D01*
X107841904Y-142724285D01*
X107794285Y-142629047D01*
X107699047Y-142581428D01*
X107460952Y-142581428D01*
X107365714Y-142533809D01*
X106746666Y-142962380D02*
X106841904Y-142914761D01*
X106889523Y-142819523D01*
X106889523Y-141962380D01*
X120913333Y-145732380D02*
X121246666Y-145256190D01*
X121484761Y-145732380D02*
X121484761Y-144732380D01*
X121103809Y-144732380D01*
X121008571Y-144780000D01*
X120960952Y-144827619D01*
X120913333Y-144922857D01*
X120913333Y-145065714D01*
X120960952Y-145160952D01*
X121008571Y-145208571D01*
X121103809Y-145256190D01*
X121484761Y-145256190D01*
X120484761Y-145208571D02*
X120151428Y-145208571D01*
X120008571Y-145732380D02*
X120484761Y-145732380D01*
X120484761Y-144732380D01*
X120008571Y-144732380D01*
X119246666Y-145208571D02*
X119580000Y-145208571D01*
X119580000Y-145732380D02*
X119580000Y-144732380D01*
X119103809Y-144732380D01*
X118580000Y-144732380D02*
X118580000Y-144970476D01*
X118818095Y-144875238D02*
X118580000Y-144970476D01*
X118341904Y-144875238D01*
X118722857Y-145160952D02*
X118580000Y-144970476D01*
X118437142Y-145160952D01*
X117818095Y-144732380D02*
X117818095Y-144970476D01*
X118056190Y-144875238D02*
X117818095Y-144970476D01*
X117580000Y-144875238D01*
X117960952Y-145160952D02*
X117818095Y-144970476D01*
X117675238Y-145160952D01*
X129778095Y-142962380D02*
X129778095Y-141962380D01*
X129397142Y-141962380D01*
X129301904Y-142010000D01*
X129254285Y-142057619D01*
X129206666Y-142152857D01*
X129206666Y-142295714D01*
X129254285Y-142390952D01*
X129301904Y-142438571D01*
X129397142Y-142486190D01*
X129778095Y-142486190D01*
X128778095Y-142962380D02*
X128778095Y-142295714D01*
X128778095Y-141962380D02*
X128825714Y-142010000D01*
X128778095Y-142057619D01*
X128730476Y-142010000D01*
X128778095Y-141962380D01*
X128778095Y-142057619D01*
X128301904Y-142295714D02*
X128301904Y-142962380D01*
X128301904Y-142390952D02*
X128254285Y-142343333D01*
X128159047Y-142295714D01*
X128016190Y-142295714D01*
X127920952Y-142343333D01*
X127873333Y-142438571D01*
X127873333Y-142962380D01*
X127444761Y-142914761D02*
X127301904Y-142962380D01*
X127063809Y-142962380D01*
X126968571Y-142914761D01*
X126920952Y-142867142D01*
X126873333Y-142771904D01*
X126873333Y-142676666D01*
X126920952Y-142581428D01*
X126968571Y-142533809D01*
X127063809Y-142486190D01*
X127254285Y-142438571D01*
X127349523Y-142390952D01*
X127397142Y-142343333D01*
X127444761Y-142248095D01*
X127444761Y-142152857D01*
X127397142Y-142057619D01*
X127349523Y-142010000D01*
X127254285Y-141962380D01*
X127016190Y-141962380D01*
X126873333Y-142010000D01*
X126301904Y-142962380D02*
X126397142Y-142914761D01*
X126444761Y-142867142D01*
X126492380Y-142771904D01*
X126492380Y-142486190D01*
X126444761Y-142390952D01*
X126397142Y-142343333D01*
X126301904Y-142295714D01*
X126159047Y-142295714D01*
X126063809Y-142343333D01*
X126016190Y-142390952D01*
X125968571Y-142486190D01*
X125968571Y-142771904D01*
X126016190Y-142867142D01*
X126063809Y-142914761D01*
X126159047Y-142962380D01*
X126301904Y-142962380D01*
X125111428Y-142914761D02*
X125206666Y-142962380D01*
X125397142Y-142962380D01*
X125492380Y-142914761D01*
X125540000Y-142867142D01*
X125587619Y-142771904D01*
X125587619Y-142486190D01*
X125540000Y-142390952D01*
X125492380Y-142343333D01*
X125397142Y-142295714D01*
X125206666Y-142295714D01*
X125111428Y-142343333D01*
X124682857Y-142962380D02*
X124682857Y-141962380D01*
X124587619Y-142581428D02*
X124301904Y-142962380D01*
X124301904Y-142295714D02*
X124682857Y-142676666D01*
X123492380Y-142914761D02*
X123587619Y-142962380D01*
X123778095Y-142962380D01*
X123873333Y-142914761D01*
X123920952Y-142819523D01*
X123920952Y-142438571D01*
X123873333Y-142343333D01*
X123778095Y-142295714D01*
X123587619Y-142295714D01*
X123492380Y-142343333D01*
X123444761Y-142438571D01*
X123444761Y-142533809D01*
X123920952Y-142629047D01*
X123159047Y-142295714D02*
X122778095Y-142295714D01*
X123016190Y-141962380D02*
X123016190Y-142819523D01*
X122968571Y-142914761D01*
X122873333Y-142962380D01*
X122778095Y-142962380D01*
X122682857Y-143057619D02*
X121920952Y-143057619D01*
X121159047Y-142962380D02*
X121730476Y-142962380D01*
X121444761Y-142962380D02*
X121444761Y-141962380D01*
X121540000Y-142105238D01*
X121635238Y-142200476D01*
X121730476Y-142248095D01*
X120825714Y-142962380D02*
X120301904Y-142295714D01*
X120825714Y-142295714D02*
X120301904Y-142962380D01*
X119730476Y-141962380D02*
X119635238Y-141962380D01*
X119540000Y-142010000D01*
X119492380Y-142057619D01*
X119444761Y-142152857D01*
X119397142Y-142343333D01*
X119397142Y-142581428D01*
X119444761Y-142771904D01*
X119492380Y-142867142D01*
X119540000Y-142914761D01*
X119635238Y-142962380D01*
X119730476Y-142962380D01*
X119825714Y-142914761D01*
X119873333Y-142867142D01*
X119920952Y-142771904D01*
X119968571Y-142581428D01*
X119968571Y-142343333D01*
X119920952Y-142152857D01*
X119873333Y-142057619D01*
X119825714Y-142010000D01*
X119730476Y-141962380D01*
X118444761Y-142962380D02*
X119016190Y-142962380D01*
X118730476Y-142962380D02*
X118730476Y-141962380D01*
X118825714Y-142105238D01*
X118920952Y-142200476D01*
X119016190Y-142248095D01*
X118254285Y-143057619D02*
X117492380Y-143057619D01*
X117254285Y-142962380D02*
X117254285Y-141962380D01*
X116873333Y-141962380D01*
X116778095Y-142010000D01*
X116730476Y-142057619D01*
X116682857Y-142152857D01*
X116682857Y-142295714D01*
X116730476Y-142390952D01*
X116778095Y-142438571D01*
X116873333Y-142486190D01*
X117254285Y-142486190D01*
X116301904Y-142057619D02*
X116254285Y-142010000D01*
X116159047Y-141962380D01*
X115920952Y-141962380D01*
X115825714Y-142010000D01*
X115778095Y-142057619D01*
X115730476Y-142152857D01*
X115730476Y-142248095D01*
X115778095Y-142390952D01*
X116349523Y-142962380D01*
X115730476Y-142962380D01*
X115301904Y-142867142D02*
X115254285Y-142914761D01*
X115301904Y-142962380D01*
X115349523Y-142914761D01*
X115301904Y-142867142D01*
X115301904Y-142962380D01*
X114349523Y-141962380D02*
X114825714Y-141962380D01*
X114873333Y-142438571D01*
X114825714Y-142390952D01*
X114730476Y-142343333D01*
X114492380Y-142343333D01*
X114397142Y-142390952D01*
X114349523Y-142438571D01*
X114301904Y-142533809D01*
X114301904Y-142771904D01*
X114349523Y-142867142D01*
X114397142Y-142914761D01*
X114492380Y-142962380D01*
X114730476Y-142962380D01*
X114825714Y-142914761D01*
X114873333Y-142867142D01*
X113444761Y-142295714D02*
X113444761Y-142962380D01*
X113682857Y-141914761D02*
X113920952Y-142629047D01*
X113301904Y-142629047D01*
X112920952Y-142962380D02*
X112920952Y-142295714D01*
X112920952Y-142390952D02*
X112873333Y-142343333D01*
X112778095Y-142295714D01*
X112635238Y-142295714D01*
X112540000Y-142343333D01*
X112492380Y-142438571D01*
X112492380Y-142962380D01*
X112492380Y-142438571D02*
X112444761Y-142343333D01*
X112349523Y-142295714D01*
X112206666Y-142295714D01*
X112111428Y-142343333D01*
X112063809Y-142438571D01*
X112063809Y-142962380D01*
X111587619Y-142962380D02*
X111587619Y-142295714D01*
X111587619Y-142390952D02*
X111540000Y-142343333D01*
X111444761Y-142295714D01*
X111301904Y-142295714D01*
X111206666Y-142343333D01*
X111159047Y-142438571D01*
X111159047Y-142962380D01*
X111159047Y-142438571D02*
X111111428Y-142343333D01*
X111016190Y-142295714D01*
X110873333Y-142295714D01*
X110778095Y-142343333D01*
X110730476Y-142438571D01*
X110730476Y-142962380D01*
X110492380Y-143057619D02*
X109730476Y-143057619D01*
X109635238Y-141962380D02*
X109301904Y-142962380D01*
X108968571Y-141962380D01*
X108254285Y-142914761D02*
X108349523Y-142962380D01*
X108540000Y-142962380D01*
X108635238Y-142914761D01*
X108682857Y-142819523D01*
X108682857Y-142438571D01*
X108635238Y-142343333D01*
X108540000Y-142295714D01*
X108349523Y-142295714D01*
X108254285Y-142343333D01*
X108206666Y-142438571D01*
X108206666Y-142533809D01*
X108682857Y-142629047D01*
X107778095Y-142962380D02*
X107778095Y-142295714D01*
X107778095Y-142486190D02*
X107730476Y-142390952D01*
X107682857Y-142343333D01*
X107587619Y-142295714D01*
X107492380Y-142295714D01*
X107301904Y-142295714D02*
X106920952Y-142295714D01*
X107159047Y-141962380D02*
X107159047Y-142819523D01*
X107111428Y-142914761D01*
X107016190Y-142962380D01*
X106920952Y-142962380D01*
X106587619Y-142962380D02*
X106587619Y-142295714D01*
X106587619Y-141962380D02*
X106635238Y-142010000D01*
X106587619Y-142057619D01*
X106540000Y-142010000D01*
X106587619Y-141962380D01*
X106587619Y-142057619D01*
X105682857Y-142914761D02*
X105778095Y-142962380D01*
X105968571Y-142962380D01*
X106063809Y-142914761D01*
X106111428Y-142867142D01*
X106159047Y-142771904D01*
X106159047Y-142486190D01*
X106111428Y-142390952D01*
X106063809Y-142343333D01*
X105968571Y-142295714D01*
X105778095Y-142295714D01*
X105682857Y-142343333D01*
X104825714Y-142962380D02*
X104825714Y-142438571D01*
X104873333Y-142343333D01*
X104968571Y-142295714D01*
X105159047Y-142295714D01*
X105254285Y-142343333D01*
X104825714Y-142914761D02*
X104920952Y-142962380D01*
X105159047Y-142962380D01*
X105254285Y-142914761D01*
X105301904Y-142819523D01*
X105301904Y-142724285D01*
X105254285Y-142629047D01*
X105159047Y-142581428D01*
X104920952Y-142581428D01*
X104825714Y-142533809D01*
X104206666Y-142962380D02*
X104301904Y-142914761D01*
X104349523Y-142819523D01*
X104349523Y-141962380D01*
X118373333Y-145732380D02*
X118706666Y-145256190D01*
X118944761Y-145732380D02*
X118944761Y-144732380D01*
X118563809Y-144732380D01*
X118468571Y-144780000D01*
X118420952Y-144827619D01*
X118373333Y-144922857D01*
X118373333Y-145065714D01*
X118420952Y-145160952D01*
X118468571Y-145208571D01*
X118563809Y-145256190D01*
X118944761Y-145256190D01*
X117944761Y-145208571D02*
X117611428Y-145208571D01*
X117468571Y-145732380D02*
X117944761Y-145732380D01*
X117944761Y-144732380D01*
X117468571Y-144732380D01*
X116706666Y-145208571D02*
X117040000Y-145208571D01*
X117040000Y-145732380D02*
X117040000Y-144732380D01*
X116563809Y-144732380D01*
X116040000Y-144732380D02*
X116040000Y-144970476D01*
X116278095Y-144875238D02*
X116040000Y-144970476D01*
X115801904Y-144875238D01*
X116182857Y-145160952D02*
X116040000Y-144970476D01*
X115897142Y-145160952D01*
X115278095Y-144732380D02*
X115278095Y-144970476D01*
X115516190Y-144875238D02*
X115278095Y-144970476D01*
X115040000Y-144875238D01*
X115420952Y-145160952D02*
X115278095Y-144970476D01*
X115135238Y-145160952D01*
X127238095Y-142962380D02*
X127238095Y-141962380D01*
X126857142Y-141962380D01*
X126761904Y-142010000D01*
X126714285Y-142057619D01*
X126666666Y-142152857D01*
X126666666Y-142295714D01*
X126714285Y-142390952D01*
X126761904Y-142438571D01*
X126857142Y-142486190D01*
X127238095Y-142486190D01*
X126238095Y-142962380D02*
X126238095Y-142295714D01*
X126238095Y-141962380D02*
X126285714Y-142010000D01*
X126238095Y-142057619D01*
X126190476Y-142010000D01*
X126238095Y-141962380D01*
X126238095Y-142057619D01*
X125761904Y-142295714D02*
X125761904Y-142962380D01*
X125761904Y-142390952D02*
X125714285Y-142343333D01*
X125619047Y-142295714D01*
X125476190Y-142295714D01*
X125380952Y-142343333D01*
X125333333Y-142438571D01*
X125333333Y-142962380D01*
X124904761Y-142914761D02*
X124761904Y-142962380D01*
X124523809Y-142962380D01*
X124428571Y-142914761D01*
X124380952Y-142867142D01*
X124333333Y-142771904D01*
X124333333Y-142676666D01*
X124380952Y-142581428D01*
X124428571Y-142533809D01*
X124523809Y-142486190D01*
X124714285Y-142438571D01*
X124809523Y-142390952D01*
X124857142Y-142343333D01*
X124904761Y-142248095D01*
X124904761Y-142152857D01*
X124857142Y-142057619D01*
X124809523Y-142010000D01*
X124714285Y-141962380D01*
X124476190Y-141962380D01*
X124333333Y-142010000D01*
X123761904Y-142962380D02*
X123857142Y-142914761D01*
X123904761Y-142867142D01*
X123952380Y-142771904D01*
X123952380Y-142486190D01*
X123904761Y-142390952D01*
X123857142Y-142343333D01*
X123761904Y-142295714D01*
X123619047Y-142295714D01*
X123523809Y-142343333D01*
X123476190Y-142390952D01*
X123428571Y-142486190D01*
X123428571Y-142771904D01*
X123476190Y-142867142D01*
X123523809Y-142914761D01*
X123619047Y-142962380D01*
X123761904Y-142962380D01*
X122571428Y-142914761D02*
X122666666Y-142962380D01*
X122857142Y-142962380D01*
X122952380Y-142914761D01*
X123000000Y-142867142D01*
X123047619Y-142771904D01*
X123047619Y-142486190D01*
X123000000Y-142390952D01*
X122952380Y-142343333D01*
X122857142Y-142295714D01*
X122666666Y-142295714D01*
X122571428Y-142343333D01*
X122142857Y-142962380D02*
X122142857Y-141962380D01*
X122047619Y-142581428D02*
X121761904Y-142962380D01*
X121761904Y-142295714D02*
X122142857Y-142676666D01*
X120952380Y-142914761D02*
X121047619Y-142962380D01*
X121238095Y-142962380D01*
X121333333Y-142914761D01*
X121380952Y-142819523D01*
X121380952Y-142438571D01*
X121333333Y-142343333D01*
X121238095Y-142295714D01*
X121047619Y-142295714D01*
X120952380Y-142343333D01*
X120904761Y-142438571D01*
X120904761Y-142533809D01*
X121380952Y-142629047D01*
X120619047Y-142295714D02*
X120238095Y-142295714D01*
X120476190Y-141962380D02*
X120476190Y-142819523D01*
X120428571Y-142914761D01*
X120333333Y-142962380D01*
X120238095Y-142962380D01*
X120142857Y-143057619D02*
X119380952Y-143057619D01*
X118619047Y-142962380D02*
X119190476Y-142962380D01*
X118904761Y-142962380D02*
X118904761Y-141962380D01*
X119000000Y-142105238D01*
X119095238Y-142200476D01*
X119190476Y-142248095D01*
X118285714Y-142962380D02*
X117761904Y-142295714D01*
X118285714Y-142295714D02*
X117761904Y-142962380D01*
X117190476Y-141962380D02*
X117095238Y-141962380D01*
X117000000Y-142010000D01*
X116952380Y-142057619D01*
X116904761Y-142152857D01*
X116857142Y-142343333D01*
X116857142Y-142581428D01*
X116904761Y-142771904D01*
X116952380Y-142867142D01*
X117000000Y-142914761D01*
X117095238Y-142962380D01*
X117190476Y-142962380D01*
X117285714Y-142914761D01*
X117333333Y-142867142D01*
X117380952Y-142771904D01*
X117428571Y-142581428D01*
X117428571Y-142343333D01*
X117380952Y-142152857D01*
X117333333Y-142057619D01*
X117285714Y-142010000D01*
X117190476Y-141962380D01*
X115904761Y-142962380D02*
X116476190Y-142962380D01*
X116190476Y-142962380D02*
X116190476Y-141962380D01*
X116285714Y-142105238D01*
X116380952Y-142200476D01*
X116476190Y-142248095D01*
X115714285Y-143057619D02*
X114952380Y-143057619D01*
X114714285Y-142962380D02*
X114714285Y-141962380D01*
X114333333Y-141962380D01*
X114238095Y-142010000D01*
X114190476Y-142057619D01*
X114142857Y-142152857D01*
X114142857Y-142295714D01*
X114190476Y-142390952D01*
X114238095Y-142438571D01*
X114333333Y-142486190D01*
X114714285Y-142486190D01*
X113761904Y-142057619D02*
X113714285Y-142010000D01*
X113619047Y-141962380D01*
X113380952Y-141962380D01*
X113285714Y-142010000D01*
X113238095Y-142057619D01*
X113190476Y-142152857D01*
X113190476Y-142248095D01*
X113238095Y-142390952D01*
X113809523Y-142962380D01*
X113190476Y-142962380D01*
X112761904Y-142867142D02*
X112714285Y-142914761D01*
X112761904Y-142962380D01*
X112809523Y-142914761D01*
X112761904Y-142867142D01*
X112761904Y-142962380D01*
X111809523Y-141962380D02*
X112285714Y-141962380D01*
X112333333Y-142438571D01*
X112285714Y-142390952D01*
X112190476Y-142343333D01*
X111952380Y-142343333D01*
X111857142Y-142390952D01*
X111809523Y-142438571D01*
X111761904Y-142533809D01*
X111761904Y-142771904D01*
X111809523Y-142867142D01*
X111857142Y-142914761D01*
X111952380Y-142962380D01*
X112190476Y-142962380D01*
X112285714Y-142914761D01*
X112333333Y-142867142D01*
X110904761Y-142295714D02*
X110904761Y-142962380D01*
X111142857Y-141914761D02*
X111380952Y-142629047D01*
X110761904Y-142629047D01*
X110380952Y-142962380D02*
X110380952Y-142295714D01*
X110380952Y-142390952D02*
X110333333Y-142343333D01*
X110238095Y-142295714D01*
X110095238Y-142295714D01*
X110000000Y-142343333D01*
X109952380Y-142438571D01*
X109952380Y-142962380D01*
X109952380Y-142438571D02*
X109904761Y-142343333D01*
X109809523Y-142295714D01*
X109666666Y-142295714D01*
X109571428Y-142343333D01*
X109523809Y-142438571D01*
X109523809Y-142962380D01*
X109047619Y-142962380D02*
X109047619Y-142295714D01*
X109047619Y-142390952D02*
X109000000Y-142343333D01*
X108904761Y-142295714D01*
X108761904Y-142295714D01*
X108666666Y-142343333D01*
X108619047Y-142438571D01*
X108619047Y-142962380D01*
X108619047Y-142438571D02*
X108571428Y-142343333D01*
X108476190Y-142295714D01*
X108333333Y-142295714D01*
X108238095Y-142343333D01*
X108190476Y-142438571D01*
X108190476Y-142962380D01*
X107952380Y-143057619D02*
X107190476Y-143057619D01*
X107095238Y-141962380D02*
X106761904Y-142962380D01*
X106428571Y-141962380D01*
X105714285Y-142914761D02*
X105809523Y-142962380D01*
X106000000Y-142962380D01*
X106095238Y-142914761D01*
X106142857Y-142819523D01*
X106142857Y-142438571D01*
X106095238Y-142343333D01*
X106000000Y-142295714D01*
X105809523Y-142295714D01*
X105714285Y-142343333D01*
X105666666Y-142438571D01*
X105666666Y-142533809D01*
X106142857Y-142629047D01*
X105238095Y-142962380D02*
X105238095Y-142295714D01*
X105238095Y-142486190D02*
X105190476Y-142390952D01*
X105142857Y-142343333D01*
X105047619Y-142295714D01*
X104952380Y-142295714D01*
X104761904Y-142295714D02*
X104380952Y-142295714D01*
X104619047Y-141962380D02*
X104619047Y-142819523D01*
X104571428Y-142914761D01*
X104476190Y-142962380D01*
X104380952Y-142962380D01*
X104047619Y-142962380D02*
X104047619Y-142295714D01*
X104047619Y-141962380D02*
X104095238Y-142010000D01*
X104047619Y-142057619D01*
X104000000Y-142010000D01*
X104047619Y-141962380D01*
X104047619Y-142057619D01*
X103142857Y-142914761D02*
X103238095Y-142962380D01*
X103428571Y-142962380D01*
X103523809Y-142914761D01*
X103571428Y-142867142D01*
X103619047Y-142771904D01*
X103619047Y-142486190D01*
X103571428Y-142390952D01*
X103523809Y-142343333D01*
X103428571Y-142295714D01*
X103238095Y-142295714D01*
X103142857Y-142343333D01*
X102285714Y-142962380D02*
X102285714Y-142438571D01*
X102333333Y-142343333D01*
X102428571Y-142295714D01*
X102619047Y-142295714D01*
X102714285Y-142343333D01*
X102285714Y-142914761D02*
X102380952Y-142962380D01*
X102619047Y-142962380D01*
X102714285Y-142914761D01*
X102761904Y-142819523D01*
X102761904Y-142724285D01*
X102714285Y-142629047D01*
X102619047Y-142581428D01*
X102380952Y-142581428D01*
X102285714Y-142533809D01*
X101666666Y-142962380D02*
X101761904Y-142914761D01*
X101809523Y-142819523D01*
X101809523Y-141962380D01*
X115833333Y-145732380D02*
X116166666Y-145256190D01*
X116404761Y-145732380D02*
X116404761Y-144732380D01*
X116023809Y-144732380D01*
X115928571Y-144780000D01*
X115880952Y-144827619D01*
X115833333Y-144922857D01*
X115833333Y-145065714D01*
X115880952Y-145160952D01*
X115928571Y-145208571D01*
X116023809Y-145256190D01*
X116404761Y-145256190D01*
X115404761Y-145208571D02*
X115071428Y-145208571D01*
X114928571Y-145732380D02*
X115404761Y-145732380D01*
X115404761Y-144732380D01*
X114928571Y-144732380D01*
X114166666Y-145208571D02*
X114500000Y-145208571D01*
X114500000Y-145732380D02*
X114500000Y-144732380D01*
X114023809Y-144732380D01*
X113500000Y-144732380D02*
X113500000Y-144970476D01*
X113738095Y-144875238D02*
X113500000Y-144970476D01*
X113261904Y-144875238D01*
X113642857Y-145160952D02*
X113500000Y-144970476D01*
X113357142Y-145160952D01*
X112738095Y-144732380D02*
X112738095Y-144970476D01*
X112976190Y-144875238D02*
X112738095Y-144970476D01*
X112500000Y-144875238D01*
X112880952Y-145160952D02*
X112738095Y-144970476D01*
X112595238Y-145160952D01*
X134858095Y-140422380D02*
X134858095Y-139422380D01*
X134477142Y-139422380D01*
X134381904Y-139470000D01*
X134334285Y-139517619D01*
X134286666Y-139612857D01*
X134286666Y-139755714D01*
X134334285Y-139850952D01*
X134381904Y-139898571D01*
X134477142Y-139946190D01*
X134858095Y-139946190D01*
X133858095Y-140422380D02*
X133858095Y-139755714D01*
X133858095Y-139422380D02*
X133905714Y-139470000D01*
X133858095Y-139517619D01*
X133810476Y-139470000D01*
X133858095Y-139422380D01*
X133858095Y-139517619D01*
X133381904Y-139755714D02*
X133381904Y-140422380D01*
X133381904Y-139850952D02*
X133334285Y-139803333D01*
X133239047Y-139755714D01*
X133096190Y-139755714D01*
X133000952Y-139803333D01*
X132953333Y-139898571D01*
X132953333Y-140422380D01*
X132524761Y-140374761D02*
X132381904Y-140422380D01*
X132143809Y-140422380D01*
X132048571Y-140374761D01*
X132000952Y-140327142D01*
X131953333Y-140231904D01*
X131953333Y-140136666D01*
X132000952Y-140041428D01*
X132048571Y-139993809D01*
X132143809Y-139946190D01*
X132334285Y-139898571D01*
X132429523Y-139850952D01*
X132477142Y-139803333D01*
X132524761Y-139708095D01*
X132524761Y-139612857D01*
X132477142Y-139517619D01*
X132429523Y-139470000D01*
X132334285Y-139422380D01*
X132096190Y-139422380D01*
X131953333Y-139470000D01*
X131381904Y-140422380D02*
X131477142Y-140374761D01*
X131524761Y-140327142D01*
X131572380Y-140231904D01*
X131572380Y-139946190D01*
X131524761Y-139850952D01*
X131477142Y-139803333D01*
X131381904Y-139755714D01*
X131239047Y-139755714D01*
X131143809Y-139803333D01*
X131096190Y-139850952D01*
X131048571Y-139946190D01*
X131048571Y-140231904D01*
X131096190Y-140327142D01*
X131143809Y-140374761D01*
X131239047Y-140422380D01*
X131381904Y-140422380D01*
X130191428Y-140374761D02*
X130286666Y-140422380D01*
X130477142Y-140422380D01*
X130572380Y-140374761D01*
X130620000Y-140327142D01*
X130667619Y-140231904D01*
X130667619Y-139946190D01*
X130620000Y-139850952D01*
X130572380Y-139803333D01*
X130477142Y-139755714D01*
X130286666Y-139755714D01*
X130191428Y-139803333D01*
X129762857Y-140422380D02*
X129762857Y-139422380D01*
X129667619Y-140041428D02*
X129381904Y-140422380D01*
X129381904Y-139755714D02*
X129762857Y-140136666D01*
X128572380Y-140374761D02*
X128667619Y-140422380D01*
X128858095Y-140422380D01*
X128953333Y-140374761D01*
X129000952Y-140279523D01*
X129000952Y-139898571D01*
X128953333Y-139803333D01*
X128858095Y-139755714D01*
X128667619Y-139755714D01*
X128572380Y-139803333D01*
X128524761Y-139898571D01*
X128524761Y-139993809D01*
X129000952Y-140089047D01*
X128239047Y-139755714D02*
X127858095Y-139755714D01*
X128096190Y-139422380D02*
X128096190Y-140279523D01*
X128048571Y-140374761D01*
X127953333Y-140422380D01*
X127858095Y-140422380D01*
X127762857Y-140517619D02*
X127000952Y-140517619D01*
X126239047Y-140422380D02*
X126810476Y-140422380D01*
X126524761Y-140422380D02*
X126524761Y-139422380D01*
X126620000Y-139565238D01*
X126715238Y-139660476D01*
X126810476Y-139708095D01*
X125905714Y-140422380D02*
X125381904Y-139755714D01*
X125905714Y-139755714D02*
X125381904Y-140422380D01*
X124810476Y-139422380D02*
X124715238Y-139422380D01*
X124620000Y-139470000D01*
X124572380Y-139517619D01*
X124524761Y-139612857D01*
X124477142Y-139803333D01*
X124477142Y-140041428D01*
X124524761Y-140231904D01*
X124572380Y-140327142D01*
X124620000Y-140374761D01*
X124715238Y-140422380D01*
X124810476Y-140422380D01*
X124905714Y-140374761D01*
X124953333Y-140327142D01*
X125000952Y-140231904D01*
X125048571Y-140041428D01*
X125048571Y-139803333D01*
X125000952Y-139612857D01*
X124953333Y-139517619D01*
X124905714Y-139470000D01*
X124810476Y-139422380D01*
X123524761Y-140422380D02*
X124096190Y-140422380D01*
X123810476Y-140422380D02*
X123810476Y-139422380D01*
X123905714Y-139565238D01*
X124000952Y-139660476D01*
X124096190Y-139708095D01*
X123334285Y-140517619D02*
X122572380Y-140517619D01*
X122334285Y-140422380D02*
X122334285Y-139422380D01*
X121953333Y-139422380D01*
X121858095Y-139470000D01*
X121810476Y-139517619D01*
X121762857Y-139612857D01*
X121762857Y-139755714D01*
X121810476Y-139850952D01*
X121858095Y-139898571D01*
X121953333Y-139946190D01*
X122334285Y-139946190D01*
X121381904Y-139517619D02*
X121334285Y-139470000D01*
X121239047Y-139422380D01*
X121000952Y-139422380D01*
X120905714Y-139470000D01*
X120858095Y-139517619D01*
X120810476Y-139612857D01*
X120810476Y-139708095D01*
X120858095Y-139850952D01*
X121429523Y-140422380D01*
X120810476Y-140422380D01*
X120381904Y-140327142D02*
X120334285Y-140374761D01*
X120381904Y-140422380D01*
X120429523Y-140374761D01*
X120381904Y-140327142D01*
X120381904Y-140422380D01*
X119429523Y-139422380D02*
X119905714Y-139422380D01*
X119953333Y-139898571D01*
X119905714Y-139850952D01*
X119810476Y-139803333D01*
X119572380Y-139803333D01*
X119477142Y-139850952D01*
X119429523Y-139898571D01*
X119381904Y-139993809D01*
X119381904Y-140231904D01*
X119429523Y-140327142D01*
X119477142Y-140374761D01*
X119572380Y-140422380D01*
X119810476Y-140422380D01*
X119905714Y-140374761D01*
X119953333Y-140327142D01*
X118524761Y-139755714D02*
X118524761Y-140422380D01*
X118762857Y-139374761D02*
X119000952Y-140089047D01*
X118381904Y-140089047D01*
X118000952Y-140422380D02*
X118000952Y-139755714D01*
X118000952Y-139850952D02*
X117953333Y-139803333D01*
X117858095Y-139755714D01*
X117715238Y-139755714D01*
X117620000Y-139803333D01*
X117572380Y-139898571D01*
X117572380Y-140422380D01*
X117572380Y-139898571D02*
X117524761Y-139803333D01*
X117429523Y-139755714D01*
X117286666Y-139755714D01*
X117191428Y-139803333D01*
X117143809Y-139898571D01*
X117143809Y-140422380D01*
X116667619Y-140422380D02*
X116667619Y-139755714D01*
X116667619Y-139850952D02*
X116620000Y-139803333D01*
X116524761Y-139755714D01*
X116381904Y-139755714D01*
X116286666Y-139803333D01*
X116239047Y-139898571D01*
X116239047Y-140422380D01*
X116239047Y-139898571D02*
X116191428Y-139803333D01*
X116096190Y-139755714D01*
X115953333Y-139755714D01*
X115858095Y-139803333D01*
X115810476Y-139898571D01*
X115810476Y-140422380D01*
X115572380Y-140517619D02*
X114810476Y-140517619D01*
X114715238Y-139422380D02*
X114381904Y-140422380D01*
X114048571Y-139422380D01*
X113334285Y-140374761D02*
X113429523Y-140422380D01*
X113620000Y-140422380D01*
X113715238Y-140374761D01*
X113762857Y-140279523D01*
X113762857Y-139898571D01*
X113715238Y-139803333D01*
X113620000Y-139755714D01*
X113429523Y-139755714D01*
X113334285Y-139803333D01*
X113286666Y-139898571D01*
X113286666Y-139993809D01*
X113762857Y-140089047D01*
X112858095Y-140422380D02*
X112858095Y-139755714D01*
X112858095Y-139946190D02*
X112810476Y-139850952D01*
X112762857Y-139803333D01*
X112667619Y-139755714D01*
X112572380Y-139755714D01*
X112381904Y-139755714D02*
X112000952Y-139755714D01*
X112239047Y-139422380D02*
X112239047Y-140279523D01*
X112191428Y-140374761D01*
X112096190Y-140422380D01*
X112000952Y-140422380D01*
X111667619Y-140422380D02*
X111667619Y-139755714D01*
X111667619Y-139422380D02*
X111715238Y-139470000D01*
X111667619Y-139517619D01*
X111620000Y-139470000D01*
X111667619Y-139422380D01*
X111667619Y-139517619D01*
X110762857Y-140374761D02*
X110858095Y-140422380D01*
X111048571Y-140422380D01*
X111143809Y-140374761D01*
X111191428Y-140327142D01*
X111239047Y-140231904D01*
X111239047Y-139946190D01*
X111191428Y-139850952D01*
X111143809Y-139803333D01*
X111048571Y-139755714D01*
X110858095Y-139755714D01*
X110762857Y-139803333D01*
X109905714Y-140422380D02*
X109905714Y-139898571D01*
X109953333Y-139803333D01*
X110048571Y-139755714D01*
X110239047Y-139755714D01*
X110334285Y-139803333D01*
X109905714Y-140374761D02*
X110000952Y-140422380D01*
X110239047Y-140422380D01*
X110334285Y-140374761D01*
X110381904Y-140279523D01*
X110381904Y-140184285D01*
X110334285Y-140089047D01*
X110239047Y-140041428D01*
X110000952Y-140041428D01*
X109905714Y-139993809D01*
X109286666Y-140422380D02*
X109381904Y-140374761D01*
X109429523Y-140279523D01*
X109429523Y-139422380D01*
X123453333Y-143192380D02*
X123786666Y-142716190D01*
X124024761Y-143192380D02*
X124024761Y-142192380D01*
X123643809Y-142192380D01*
X123548571Y-142240000D01*
X123500952Y-142287619D01*
X123453333Y-142382857D01*
X123453333Y-142525714D01*
X123500952Y-142620952D01*
X123548571Y-142668571D01*
X123643809Y-142716190D01*
X124024761Y-142716190D01*
X123024761Y-142668571D02*
X122691428Y-142668571D01*
X122548571Y-143192380D02*
X123024761Y-143192380D01*
X123024761Y-142192380D01*
X122548571Y-142192380D01*
X121786666Y-142668571D02*
X122120000Y-142668571D01*
X122120000Y-143192380D02*
X122120000Y-142192380D01*
X121643809Y-142192380D01*
X121120000Y-142192380D02*
X121120000Y-142430476D01*
X121358095Y-142335238D02*
X121120000Y-142430476D01*
X120881904Y-142335238D01*
X121262857Y-142620952D02*
X121120000Y-142430476D01*
X120977142Y-142620952D01*
X120358095Y-142192380D02*
X120358095Y-142430476D01*
X120596190Y-142335238D02*
X120358095Y-142430476D01*
X120120000Y-142335238D01*
X120500952Y-142620952D02*
X120358095Y-142430476D01*
X120215238Y-142620952D01*
X132318095Y-140422380D02*
X132318095Y-139422380D01*
X131937142Y-139422380D01*
X131841904Y-139470000D01*
X131794285Y-139517619D01*
X131746666Y-139612857D01*
X131746666Y-139755714D01*
X131794285Y-139850952D01*
X131841904Y-139898571D01*
X131937142Y-139946190D01*
X132318095Y-139946190D01*
X131318095Y-140422380D02*
X131318095Y-139755714D01*
X131318095Y-139422380D02*
X131365714Y-139470000D01*
X131318095Y-139517619D01*
X131270476Y-139470000D01*
X131318095Y-139422380D01*
X131318095Y-139517619D01*
X130841904Y-139755714D02*
X130841904Y-140422380D01*
X130841904Y-139850952D02*
X130794285Y-139803333D01*
X130699047Y-139755714D01*
X130556190Y-139755714D01*
X130460952Y-139803333D01*
X130413333Y-139898571D01*
X130413333Y-140422380D01*
X129984761Y-140374761D02*
X129841904Y-140422380D01*
X129603809Y-140422380D01*
X129508571Y-140374761D01*
X129460952Y-140327142D01*
X129413333Y-140231904D01*
X129413333Y-140136666D01*
X129460952Y-140041428D01*
X129508571Y-139993809D01*
X129603809Y-139946190D01*
X129794285Y-139898571D01*
X129889523Y-139850952D01*
X129937142Y-139803333D01*
X129984761Y-139708095D01*
X129984761Y-139612857D01*
X129937142Y-139517619D01*
X129889523Y-139470000D01*
X129794285Y-139422380D01*
X129556190Y-139422380D01*
X129413333Y-139470000D01*
X128841904Y-140422380D02*
X128937142Y-140374761D01*
X128984761Y-140327142D01*
X129032380Y-140231904D01*
X129032380Y-139946190D01*
X128984761Y-139850952D01*
X128937142Y-139803333D01*
X128841904Y-139755714D01*
X128699047Y-139755714D01*
X128603809Y-139803333D01*
X128556190Y-139850952D01*
X128508571Y-139946190D01*
X128508571Y-140231904D01*
X128556190Y-140327142D01*
X128603809Y-140374761D01*
X128699047Y-140422380D01*
X128841904Y-140422380D01*
X127651428Y-140374761D02*
X127746666Y-140422380D01*
X127937142Y-140422380D01*
X128032380Y-140374761D01*
X128080000Y-140327142D01*
X128127619Y-140231904D01*
X128127619Y-139946190D01*
X128080000Y-139850952D01*
X128032380Y-139803333D01*
X127937142Y-139755714D01*
X127746666Y-139755714D01*
X127651428Y-139803333D01*
X127222857Y-140422380D02*
X127222857Y-139422380D01*
X127127619Y-140041428D02*
X126841904Y-140422380D01*
X126841904Y-139755714D02*
X127222857Y-140136666D01*
X126032380Y-140374761D02*
X126127619Y-140422380D01*
X126318095Y-140422380D01*
X126413333Y-140374761D01*
X126460952Y-140279523D01*
X126460952Y-139898571D01*
X126413333Y-139803333D01*
X126318095Y-139755714D01*
X126127619Y-139755714D01*
X126032380Y-139803333D01*
X125984761Y-139898571D01*
X125984761Y-139993809D01*
X126460952Y-140089047D01*
X125699047Y-139755714D02*
X125318095Y-139755714D01*
X125556190Y-139422380D02*
X125556190Y-140279523D01*
X125508571Y-140374761D01*
X125413333Y-140422380D01*
X125318095Y-140422380D01*
X125222857Y-140517619D02*
X124460952Y-140517619D01*
X123699047Y-140422380D02*
X124270476Y-140422380D01*
X123984761Y-140422380D02*
X123984761Y-139422380D01*
X124080000Y-139565238D01*
X124175238Y-139660476D01*
X124270476Y-139708095D01*
X123365714Y-140422380D02*
X122841904Y-139755714D01*
X123365714Y-139755714D02*
X122841904Y-140422380D01*
X122270476Y-139422380D02*
X122175238Y-139422380D01*
X122080000Y-139470000D01*
X122032380Y-139517619D01*
X121984761Y-139612857D01*
X121937142Y-139803333D01*
X121937142Y-140041428D01*
X121984761Y-140231904D01*
X122032380Y-140327142D01*
X122080000Y-140374761D01*
X122175238Y-140422380D01*
X122270476Y-140422380D01*
X122365714Y-140374761D01*
X122413333Y-140327142D01*
X122460952Y-140231904D01*
X122508571Y-140041428D01*
X122508571Y-139803333D01*
X122460952Y-139612857D01*
X122413333Y-139517619D01*
X122365714Y-139470000D01*
X122270476Y-139422380D01*
X120984761Y-140422380D02*
X121556190Y-140422380D01*
X121270476Y-140422380D02*
X121270476Y-139422380D01*
X121365714Y-139565238D01*
X121460952Y-139660476D01*
X121556190Y-139708095D01*
X120794285Y-140517619D02*
X120032380Y-140517619D01*
X119794285Y-140422380D02*
X119794285Y-139422380D01*
X119413333Y-139422380D01*
X119318095Y-139470000D01*
X119270476Y-139517619D01*
X119222857Y-139612857D01*
X119222857Y-139755714D01*
X119270476Y-139850952D01*
X119318095Y-139898571D01*
X119413333Y-139946190D01*
X119794285Y-139946190D01*
X118841904Y-139517619D02*
X118794285Y-139470000D01*
X118699047Y-139422380D01*
X118460952Y-139422380D01*
X118365714Y-139470000D01*
X118318095Y-139517619D01*
X118270476Y-139612857D01*
X118270476Y-139708095D01*
X118318095Y-139850952D01*
X118889523Y-140422380D01*
X118270476Y-140422380D01*
X117841904Y-140327142D02*
X117794285Y-140374761D01*
X117841904Y-140422380D01*
X117889523Y-140374761D01*
X117841904Y-140327142D01*
X117841904Y-140422380D01*
X116889523Y-139422380D02*
X117365714Y-139422380D01*
X117413333Y-139898571D01*
X117365714Y-139850952D01*
X117270476Y-139803333D01*
X117032380Y-139803333D01*
X116937142Y-139850952D01*
X116889523Y-139898571D01*
X116841904Y-139993809D01*
X116841904Y-140231904D01*
X116889523Y-140327142D01*
X116937142Y-140374761D01*
X117032380Y-140422380D01*
X117270476Y-140422380D01*
X117365714Y-140374761D01*
X117413333Y-140327142D01*
X115984761Y-139755714D02*
X115984761Y-140422380D01*
X116222857Y-139374761D02*
X116460952Y-140089047D01*
X115841904Y-140089047D01*
X115460952Y-140422380D02*
X115460952Y-139755714D01*
X115460952Y-139850952D02*
X115413333Y-139803333D01*
X115318095Y-139755714D01*
X115175238Y-139755714D01*
X115080000Y-139803333D01*
X115032380Y-139898571D01*
X115032380Y-140422380D01*
X115032380Y-139898571D02*
X114984761Y-139803333D01*
X114889523Y-139755714D01*
X114746666Y-139755714D01*
X114651428Y-139803333D01*
X114603809Y-139898571D01*
X114603809Y-140422380D01*
X114127619Y-140422380D02*
X114127619Y-139755714D01*
X114127619Y-139850952D02*
X114080000Y-139803333D01*
X113984761Y-139755714D01*
X113841904Y-139755714D01*
X113746666Y-139803333D01*
X113699047Y-139898571D01*
X113699047Y-140422380D01*
X113699047Y-139898571D02*
X113651428Y-139803333D01*
X113556190Y-139755714D01*
X113413333Y-139755714D01*
X113318095Y-139803333D01*
X113270476Y-139898571D01*
X113270476Y-140422380D01*
X113032380Y-140517619D02*
X112270476Y-140517619D01*
X112175238Y-139422380D02*
X111841904Y-140422380D01*
X111508571Y-139422380D01*
X110794285Y-140374761D02*
X110889523Y-140422380D01*
X111080000Y-140422380D01*
X111175238Y-140374761D01*
X111222857Y-140279523D01*
X111222857Y-139898571D01*
X111175238Y-139803333D01*
X111080000Y-139755714D01*
X110889523Y-139755714D01*
X110794285Y-139803333D01*
X110746666Y-139898571D01*
X110746666Y-139993809D01*
X111222857Y-140089047D01*
X110318095Y-140422380D02*
X110318095Y-139755714D01*
X110318095Y-139946190D02*
X110270476Y-139850952D01*
X110222857Y-139803333D01*
X110127619Y-139755714D01*
X110032380Y-139755714D01*
X109841904Y-139755714D02*
X109460952Y-139755714D01*
X109699047Y-139422380D02*
X109699047Y-140279523D01*
X109651428Y-140374761D01*
X109556190Y-140422380D01*
X109460952Y-140422380D01*
X109127619Y-140422380D02*
X109127619Y-139755714D01*
X109127619Y-139422380D02*
X109175238Y-139470000D01*
X109127619Y-139517619D01*
X109080000Y-139470000D01*
X109127619Y-139422380D01*
X109127619Y-139517619D01*
X108222857Y-140374761D02*
X108318095Y-140422380D01*
X108508571Y-140422380D01*
X108603809Y-140374761D01*
X108651428Y-140327142D01*
X108699047Y-140231904D01*
X108699047Y-139946190D01*
X108651428Y-139850952D01*
X108603809Y-139803333D01*
X108508571Y-139755714D01*
X108318095Y-139755714D01*
X108222857Y-139803333D01*
X107365714Y-140422380D02*
X107365714Y-139898571D01*
X107413333Y-139803333D01*
X107508571Y-139755714D01*
X107699047Y-139755714D01*
X107794285Y-139803333D01*
X107365714Y-140374761D02*
X107460952Y-140422380D01*
X107699047Y-140422380D01*
X107794285Y-140374761D01*
X107841904Y-140279523D01*
X107841904Y-140184285D01*
X107794285Y-140089047D01*
X107699047Y-140041428D01*
X107460952Y-140041428D01*
X107365714Y-139993809D01*
X106746666Y-140422380D02*
X106841904Y-140374761D01*
X106889523Y-140279523D01*
X106889523Y-139422380D01*
X120913333Y-143192380D02*
X121246666Y-142716190D01*
X121484761Y-143192380D02*
X121484761Y-142192380D01*
X121103809Y-142192380D01*
X121008571Y-142240000D01*
X120960952Y-142287619D01*
X120913333Y-142382857D01*
X120913333Y-142525714D01*
X120960952Y-142620952D01*
X121008571Y-142668571D01*
X121103809Y-142716190D01*
X121484761Y-142716190D01*
X120484761Y-142668571D02*
X120151428Y-142668571D01*
X120008571Y-143192380D02*
X120484761Y-143192380D01*
X120484761Y-142192380D01*
X120008571Y-142192380D01*
X119246666Y-142668571D02*
X119580000Y-142668571D01*
X119580000Y-143192380D02*
X119580000Y-142192380D01*
X119103809Y-142192380D01*
X118580000Y-142192380D02*
X118580000Y-142430476D01*
X118818095Y-142335238D02*
X118580000Y-142430476D01*
X118341904Y-142335238D01*
X118722857Y-142620952D02*
X118580000Y-142430476D01*
X118437142Y-142620952D01*
X117818095Y-142192380D02*
X117818095Y-142430476D01*
X118056190Y-142335238D02*
X117818095Y-142430476D01*
X117580000Y-142335238D01*
X117960952Y-142620952D02*
X117818095Y-142430476D01*
X117675238Y-142620952D01*
X129778095Y-140422380D02*
X129778095Y-139422380D01*
X129397142Y-139422380D01*
X129301904Y-139470000D01*
X129254285Y-139517619D01*
X129206666Y-139612857D01*
X129206666Y-139755714D01*
X129254285Y-139850952D01*
X129301904Y-139898571D01*
X129397142Y-139946190D01*
X129778095Y-139946190D01*
X128778095Y-140422380D02*
X128778095Y-139755714D01*
X128778095Y-139422380D02*
X128825714Y-139470000D01*
X128778095Y-139517619D01*
X128730476Y-139470000D01*
X128778095Y-139422380D01*
X128778095Y-139517619D01*
X128301904Y-139755714D02*
X128301904Y-140422380D01*
X128301904Y-139850952D02*
X128254285Y-139803333D01*
X128159047Y-139755714D01*
X128016190Y-139755714D01*
X127920952Y-139803333D01*
X127873333Y-139898571D01*
X127873333Y-140422380D01*
X127444761Y-140374761D02*
X127301904Y-140422380D01*
X127063809Y-140422380D01*
X126968571Y-140374761D01*
X126920952Y-140327142D01*
X126873333Y-140231904D01*
X126873333Y-140136666D01*
X126920952Y-140041428D01*
X126968571Y-139993809D01*
X127063809Y-139946190D01*
X127254285Y-139898571D01*
X127349523Y-139850952D01*
X127397142Y-139803333D01*
X127444761Y-139708095D01*
X127444761Y-139612857D01*
X127397142Y-139517619D01*
X127349523Y-139470000D01*
X127254285Y-139422380D01*
X127016190Y-139422380D01*
X126873333Y-139470000D01*
X126301904Y-140422380D02*
X126397142Y-140374761D01*
X126444761Y-140327142D01*
X126492380Y-140231904D01*
X126492380Y-139946190D01*
X126444761Y-139850952D01*
X126397142Y-139803333D01*
X126301904Y-139755714D01*
X126159047Y-139755714D01*
X126063809Y-139803333D01*
X126016190Y-139850952D01*
X125968571Y-139946190D01*
X125968571Y-140231904D01*
X126016190Y-140327142D01*
X126063809Y-140374761D01*
X126159047Y-140422380D01*
X126301904Y-140422380D01*
X125111428Y-140374761D02*
X125206666Y-140422380D01*
X125397142Y-140422380D01*
X125492380Y-140374761D01*
X125540000Y-140327142D01*
X125587619Y-140231904D01*
X125587619Y-139946190D01*
X125540000Y-139850952D01*
X125492380Y-139803333D01*
X125397142Y-139755714D01*
X125206666Y-139755714D01*
X125111428Y-139803333D01*
X124682857Y-140422380D02*
X124682857Y-139422380D01*
X124587619Y-140041428D02*
X124301904Y-140422380D01*
X124301904Y-139755714D02*
X124682857Y-140136666D01*
X123492380Y-140374761D02*
X123587619Y-140422380D01*
X123778095Y-140422380D01*
X123873333Y-140374761D01*
X123920952Y-140279523D01*
X123920952Y-139898571D01*
X123873333Y-139803333D01*
X123778095Y-139755714D01*
X123587619Y-139755714D01*
X123492380Y-139803333D01*
X123444761Y-139898571D01*
X123444761Y-139993809D01*
X123920952Y-140089047D01*
X123159047Y-139755714D02*
X122778095Y-139755714D01*
X123016190Y-139422380D02*
X123016190Y-140279523D01*
X122968571Y-140374761D01*
X122873333Y-140422380D01*
X122778095Y-140422380D01*
X122682857Y-140517619D02*
X121920952Y-140517619D01*
X121159047Y-140422380D02*
X121730476Y-140422380D01*
X121444761Y-140422380D02*
X121444761Y-139422380D01*
X121540000Y-139565238D01*
X121635238Y-139660476D01*
X121730476Y-139708095D01*
X120825714Y-140422380D02*
X120301904Y-139755714D01*
X120825714Y-139755714D02*
X120301904Y-140422380D01*
X119730476Y-139422380D02*
X119635238Y-139422380D01*
X119540000Y-139470000D01*
X119492380Y-139517619D01*
X119444761Y-139612857D01*
X119397142Y-139803333D01*
X119397142Y-140041428D01*
X119444761Y-140231904D01*
X119492380Y-140327142D01*
X119540000Y-140374761D01*
X119635238Y-140422380D01*
X119730476Y-140422380D01*
X119825714Y-140374761D01*
X119873333Y-140327142D01*
X119920952Y-140231904D01*
X119968571Y-140041428D01*
X119968571Y-139803333D01*
X119920952Y-139612857D01*
X119873333Y-139517619D01*
X119825714Y-139470000D01*
X119730476Y-139422380D01*
X118444761Y-140422380D02*
X119016190Y-140422380D01*
X118730476Y-140422380D02*
X118730476Y-139422380D01*
X118825714Y-139565238D01*
X118920952Y-139660476D01*
X119016190Y-139708095D01*
X118254285Y-140517619D02*
X117492380Y-140517619D01*
X117254285Y-140422380D02*
X117254285Y-139422380D01*
X116873333Y-139422380D01*
X116778095Y-139470000D01*
X116730476Y-139517619D01*
X116682857Y-139612857D01*
X116682857Y-139755714D01*
X116730476Y-139850952D01*
X116778095Y-139898571D01*
X116873333Y-139946190D01*
X117254285Y-139946190D01*
X116301904Y-139517619D02*
X116254285Y-139470000D01*
X116159047Y-139422380D01*
X115920952Y-139422380D01*
X115825714Y-139470000D01*
X115778095Y-139517619D01*
X115730476Y-139612857D01*
X115730476Y-139708095D01*
X115778095Y-139850952D01*
X116349523Y-140422380D01*
X115730476Y-140422380D01*
X115301904Y-140327142D02*
X115254285Y-140374761D01*
X115301904Y-140422380D01*
X115349523Y-140374761D01*
X115301904Y-140327142D01*
X115301904Y-140422380D01*
X114349523Y-139422380D02*
X114825714Y-139422380D01*
X114873333Y-139898571D01*
X114825714Y-139850952D01*
X114730476Y-139803333D01*
X114492380Y-139803333D01*
X114397142Y-139850952D01*
X114349523Y-139898571D01*
X114301904Y-139993809D01*
X114301904Y-140231904D01*
X114349523Y-140327142D01*
X114397142Y-140374761D01*
X114492380Y-140422380D01*
X114730476Y-140422380D01*
X114825714Y-140374761D01*
X114873333Y-140327142D01*
X113444761Y-139755714D02*
X113444761Y-140422380D01*
X113682857Y-139374761D02*
X113920952Y-140089047D01*
X113301904Y-140089047D01*
X112920952Y-140422380D02*
X112920952Y-139755714D01*
X112920952Y-139850952D02*
X112873333Y-139803333D01*
X112778095Y-139755714D01*
X112635238Y-139755714D01*
X112540000Y-139803333D01*
X112492380Y-139898571D01*
X112492380Y-140422380D01*
X112492380Y-139898571D02*
X112444761Y-139803333D01*
X112349523Y-139755714D01*
X112206666Y-139755714D01*
X112111428Y-139803333D01*
X112063809Y-139898571D01*
X112063809Y-140422380D01*
X111587619Y-140422380D02*
X111587619Y-139755714D01*
X111587619Y-139850952D02*
X111540000Y-139803333D01*
X111444761Y-139755714D01*
X111301904Y-139755714D01*
X111206666Y-139803333D01*
X111159047Y-139898571D01*
X111159047Y-140422380D01*
X111159047Y-139898571D02*
X111111428Y-139803333D01*
X111016190Y-139755714D01*
X110873333Y-139755714D01*
X110778095Y-139803333D01*
X110730476Y-139898571D01*
X110730476Y-140422380D01*
X110492380Y-140517619D02*
X109730476Y-140517619D01*
X109635238Y-139422380D02*
X109301904Y-140422380D01*
X108968571Y-139422380D01*
X108254285Y-140374761D02*
X108349523Y-140422380D01*
X108540000Y-140422380D01*
X108635238Y-140374761D01*
X108682857Y-140279523D01*
X108682857Y-139898571D01*
X108635238Y-139803333D01*
X108540000Y-139755714D01*
X108349523Y-139755714D01*
X108254285Y-139803333D01*
X108206666Y-139898571D01*
X108206666Y-139993809D01*
X108682857Y-140089047D01*
X107778095Y-140422380D02*
X107778095Y-139755714D01*
X107778095Y-139946190D02*
X107730476Y-139850952D01*
X107682857Y-139803333D01*
X107587619Y-139755714D01*
X107492380Y-139755714D01*
X107301904Y-139755714D02*
X106920952Y-139755714D01*
X107159047Y-139422380D02*
X107159047Y-140279523D01*
X107111428Y-140374761D01*
X107016190Y-140422380D01*
X106920952Y-140422380D01*
X106587619Y-140422380D02*
X106587619Y-139755714D01*
X106587619Y-139422380D02*
X106635238Y-139470000D01*
X106587619Y-139517619D01*
X106540000Y-139470000D01*
X106587619Y-139422380D01*
X106587619Y-139517619D01*
X105682857Y-140374761D02*
X105778095Y-140422380D01*
X105968571Y-140422380D01*
X106063809Y-140374761D01*
X106111428Y-140327142D01*
X106159047Y-140231904D01*
X106159047Y-139946190D01*
X106111428Y-139850952D01*
X106063809Y-139803333D01*
X105968571Y-139755714D01*
X105778095Y-139755714D01*
X105682857Y-139803333D01*
X104825714Y-140422380D02*
X104825714Y-139898571D01*
X104873333Y-139803333D01*
X104968571Y-139755714D01*
X105159047Y-139755714D01*
X105254285Y-139803333D01*
X104825714Y-140374761D02*
X104920952Y-140422380D01*
X105159047Y-140422380D01*
X105254285Y-140374761D01*
X105301904Y-140279523D01*
X105301904Y-140184285D01*
X105254285Y-140089047D01*
X105159047Y-140041428D01*
X104920952Y-140041428D01*
X104825714Y-139993809D01*
X104206666Y-140422380D02*
X104301904Y-140374761D01*
X104349523Y-140279523D01*
X104349523Y-139422380D01*
X118373333Y-143192380D02*
X118706666Y-142716190D01*
X118944761Y-143192380D02*
X118944761Y-142192380D01*
X118563809Y-142192380D01*
X118468571Y-142240000D01*
X118420952Y-142287619D01*
X118373333Y-142382857D01*
X118373333Y-142525714D01*
X118420952Y-142620952D01*
X118468571Y-142668571D01*
X118563809Y-142716190D01*
X118944761Y-142716190D01*
X117944761Y-142668571D02*
X117611428Y-142668571D01*
X117468571Y-143192380D02*
X117944761Y-143192380D01*
X117944761Y-142192380D01*
X117468571Y-142192380D01*
X116706666Y-142668571D02*
X117040000Y-142668571D01*
X117040000Y-143192380D02*
X117040000Y-142192380D01*
X116563809Y-142192380D01*
X116040000Y-142192380D02*
X116040000Y-142430476D01*
X116278095Y-142335238D02*
X116040000Y-142430476D01*
X115801904Y-142335238D01*
X116182857Y-142620952D02*
X116040000Y-142430476D01*
X115897142Y-142620952D01*
X115278095Y-142192380D02*
X115278095Y-142430476D01*
X115516190Y-142335238D02*
X115278095Y-142430476D01*
X115040000Y-142335238D01*
X115420952Y-142620952D02*
X115278095Y-142430476D01*
X115135238Y-142620952D01*
X127238095Y-140422380D02*
X127238095Y-139422380D01*
X126857142Y-139422380D01*
X126761904Y-139470000D01*
X126714285Y-139517619D01*
X126666666Y-139612857D01*
X126666666Y-139755714D01*
X126714285Y-139850952D01*
X126761904Y-139898571D01*
X126857142Y-139946190D01*
X127238095Y-139946190D01*
X126238095Y-140422380D02*
X126238095Y-139755714D01*
X126238095Y-139422380D02*
X126285714Y-139470000D01*
X126238095Y-139517619D01*
X126190476Y-139470000D01*
X126238095Y-139422380D01*
X126238095Y-139517619D01*
X125761904Y-139755714D02*
X125761904Y-140422380D01*
X125761904Y-139850952D02*
X125714285Y-139803333D01*
X125619047Y-139755714D01*
X125476190Y-139755714D01*
X125380952Y-139803333D01*
X125333333Y-139898571D01*
X125333333Y-140422380D01*
X124904761Y-140374761D02*
X124761904Y-140422380D01*
X124523809Y-140422380D01*
X124428571Y-140374761D01*
X124380952Y-140327142D01*
X124333333Y-140231904D01*
X124333333Y-140136666D01*
X124380952Y-140041428D01*
X124428571Y-139993809D01*
X124523809Y-139946190D01*
X124714285Y-139898571D01*
X124809523Y-139850952D01*
X124857142Y-139803333D01*
X124904761Y-139708095D01*
X124904761Y-139612857D01*
X124857142Y-139517619D01*
X124809523Y-139470000D01*
X124714285Y-139422380D01*
X124476190Y-139422380D01*
X124333333Y-139470000D01*
X123761904Y-140422380D02*
X123857142Y-140374761D01*
X123904761Y-140327142D01*
X123952380Y-140231904D01*
X123952380Y-139946190D01*
X123904761Y-139850952D01*
X123857142Y-139803333D01*
X123761904Y-139755714D01*
X123619047Y-139755714D01*
X123523809Y-139803333D01*
X123476190Y-139850952D01*
X123428571Y-139946190D01*
X123428571Y-140231904D01*
X123476190Y-140327142D01*
X123523809Y-140374761D01*
X123619047Y-140422380D01*
X123761904Y-140422380D01*
X122571428Y-140374761D02*
X122666666Y-140422380D01*
X122857142Y-140422380D01*
X122952380Y-140374761D01*
X123000000Y-140327142D01*
X123047619Y-140231904D01*
X123047619Y-139946190D01*
X123000000Y-139850952D01*
X122952380Y-139803333D01*
X122857142Y-139755714D01*
X122666666Y-139755714D01*
X122571428Y-139803333D01*
X122142857Y-140422380D02*
X122142857Y-139422380D01*
X122047619Y-140041428D02*
X121761904Y-140422380D01*
X121761904Y-139755714D02*
X122142857Y-140136666D01*
X120952380Y-140374761D02*
X121047619Y-140422380D01*
X121238095Y-140422380D01*
X121333333Y-140374761D01*
X121380952Y-140279523D01*
X121380952Y-139898571D01*
X121333333Y-139803333D01*
X121238095Y-139755714D01*
X121047619Y-139755714D01*
X120952380Y-139803333D01*
X120904761Y-139898571D01*
X120904761Y-139993809D01*
X121380952Y-140089047D01*
X120619047Y-139755714D02*
X120238095Y-139755714D01*
X120476190Y-139422380D02*
X120476190Y-140279523D01*
X120428571Y-140374761D01*
X120333333Y-140422380D01*
X120238095Y-140422380D01*
X120142857Y-140517619D02*
X119380952Y-140517619D01*
X118619047Y-140422380D02*
X119190476Y-140422380D01*
X118904761Y-140422380D02*
X118904761Y-139422380D01*
X119000000Y-139565238D01*
X119095238Y-139660476D01*
X119190476Y-139708095D01*
X118285714Y-140422380D02*
X117761904Y-139755714D01*
X118285714Y-139755714D02*
X117761904Y-140422380D01*
X117190476Y-139422380D02*
X117095238Y-139422380D01*
X117000000Y-139470000D01*
X116952380Y-139517619D01*
X116904761Y-139612857D01*
X116857142Y-139803333D01*
X116857142Y-140041428D01*
X116904761Y-140231904D01*
X116952380Y-140327142D01*
X117000000Y-140374761D01*
X117095238Y-140422380D01*
X117190476Y-140422380D01*
X117285714Y-140374761D01*
X117333333Y-140327142D01*
X117380952Y-140231904D01*
X117428571Y-140041428D01*
X117428571Y-139803333D01*
X117380952Y-139612857D01*
X117333333Y-139517619D01*
X117285714Y-139470000D01*
X117190476Y-139422380D01*
X115904761Y-140422380D02*
X116476190Y-140422380D01*
X116190476Y-140422380D02*
X116190476Y-139422380D01*
X116285714Y-139565238D01*
X116380952Y-139660476D01*
X116476190Y-139708095D01*
X115714285Y-140517619D02*
X114952380Y-140517619D01*
X114714285Y-140422380D02*
X114714285Y-139422380D01*
X114333333Y-139422380D01*
X114238095Y-139470000D01*
X114190476Y-139517619D01*
X114142857Y-139612857D01*
X114142857Y-139755714D01*
X114190476Y-139850952D01*
X114238095Y-139898571D01*
X114333333Y-139946190D01*
X114714285Y-139946190D01*
X113761904Y-139517619D02*
X113714285Y-139470000D01*
X113619047Y-139422380D01*
X113380952Y-139422380D01*
X113285714Y-139470000D01*
X113238095Y-139517619D01*
X113190476Y-139612857D01*
X113190476Y-139708095D01*
X113238095Y-139850952D01*
X113809523Y-140422380D01*
X113190476Y-140422380D01*
X112761904Y-140327142D02*
X112714285Y-140374761D01*
X112761904Y-140422380D01*
X112809523Y-140374761D01*
X112761904Y-140327142D01*
X112761904Y-140422380D01*
X111809523Y-139422380D02*
X112285714Y-139422380D01*
X112333333Y-139898571D01*
X112285714Y-139850952D01*
X112190476Y-139803333D01*
X111952380Y-139803333D01*
X111857142Y-139850952D01*
X111809523Y-139898571D01*
X111761904Y-139993809D01*
X111761904Y-140231904D01*
X111809523Y-140327142D01*
X111857142Y-140374761D01*
X111952380Y-140422380D01*
X112190476Y-140422380D01*
X112285714Y-140374761D01*
X112333333Y-140327142D01*
X110904761Y-139755714D02*
X110904761Y-140422380D01*
X111142857Y-139374761D02*
X111380952Y-140089047D01*
X110761904Y-140089047D01*
X110380952Y-140422380D02*
X110380952Y-139755714D01*
X110380952Y-139850952D02*
X110333333Y-139803333D01*
X110238095Y-139755714D01*
X110095238Y-139755714D01*
X110000000Y-139803333D01*
X109952380Y-139898571D01*
X109952380Y-140422380D01*
X109952380Y-139898571D02*
X109904761Y-139803333D01*
X109809523Y-139755714D01*
X109666666Y-139755714D01*
X109571428Y-139803333D01*
X109523809Y-139898571D01*
X109523809Y-140422380D01*
X109047619Y-140422380D02*
X109047619Y-139755714D01*
X109047619Y-139850952D02*
X109000000Y-139803333D01*
X108904761Y-139755714D01*
X108761904Y-139755714D01*
X108666666Y-139803333D01*
X108619047Y-139898571D01*
X108619047Y-140422380D01*
X108619047Y-139898571D02*
X108571428Y-139803333D01*
X108476190Y-139755714D01*
X108333333Y-139755714D01*
X108238095Y-139803333D01*
X108190476Y-139898571D01*
X108190476Y-140422380D01*
X107952380Y-140517619D02*
X107190476Y-140517619D01*
X107095238Y-139422380D02*
X106761904Y-140422380D01*
X106428571Y-139422380D01*
X105714285Y-140374761D02*
X105809523Y-140422380D01*
X106000000Y-140422380D01*
X106095238Y-140374761D01*
X106142857Y-140279523D01*
X106142857Y-139898571D01*
X106095238Y-139803333D01*
X106000000Y-139755714D01*
X105809523Y-139755714D01*
X105714285Y-139803333D01*
X105666666Y-139898571D01*
X105666666Y-139993809D01*
X106142857Y-140089047D01*
X105238095Y-140422380D02*
X105238095Y-139755714D01*
X105238095Y-139946190D02*
X105190476Y-139850952D01*
X105142857Y-139803333D01*
X105047619Y-139755714D01*
X104952380Y-139755714D01*
X104761904Y-139755714D02*
X104380952Y-139755714D01*
X104619047Y-139422380D02*
X104619047Y-140279523D01*
X104571428Y-140374761D01*
X104476190Y-140422380D01*
X104380952Y-140422380D01*
X104047619Y-140422380D02*
X104047619Y-139755714D01*
X104047619Y-139422380D02*
X104095238Y-139470000D01*
X104047619Y-139517619D01*
X104000000Y-139470000D01*
X104047619Y-139422380D01*
X104047619Y-139517619D01*
X103142857Y-140374761D02*
X103238095Y-140422380D01*
X103428571Y-140422380D01*
X103523809Y-140374761D01*
X103571428Y-140327142D01*
X103619047Y-140231904D01*
X103619047Y-139946190D01*
X103571428Y-139850952D01*
X103523809Y-139803333D01*
X103428571Y-139755714D01*
X103238095Y-139755714D01*
X103142857Y-139803333D01*
X102285714Y-140422380D02*
X102285714Y-139898571D01*
X102333333Y-139803333D01*
X102428571Y-139755714D01*
X102619047Y-139755714D01*
X102714285Y-139803333D01*
X102285714Y-140374761D02*
X102380952Y-140422380D01*
X102619047Y-140422380D01*
X102714285Y-140374761D01*
X102761904Y-140279523D01*
X102761904Y-140184285D01*
X102714285Y-140089047D01*
X102619047Y-140041428D01*
X102380952Y-140041428D01*
X102285714Y-139993809D01*
X101666666Y-140422380D02*
X101761904Y-140374761D01*
X101809523Y-140279523D01*
X101809523Y-139422380D01*
X115833333Y-143192380D02*
X116166666Y-142716190D01*
X116404761Y-143192380D02*
X116404761Y-142192380D01*
X116023809Y-142192380D01*
X115928571Y-142240000D01*
X115880952Y-142287619D01*
X115833333Y-142382857D01*
X115833333Y-142525714D01*
X115880952Y-142620952D01*
X115928571Y-142668571D01*
X116023809Y-142716190D01*
X116404761Y-142716190D01*
X115404761Y-142668571D02*
X115071428Y-142668571D01*
X114928571Y-143192380D02*
X115404761Y-143192380D01*
X115404761Y-142192380D01*
X114928571Y-142192380D01*
X114166666Y-142668571D02*
X114500000Y-142668571D01*
X114500000Y-143192380D02*
X114500000Y-142192380D01*
X114023809Y-142192380D01*
X113500000Y-142192380D02*
X113500000Y-142430476D01*
X113738095Y-142335238D02*
X113500000Y-142430476D01*
X113261904Y-142335238D01*
X113642857Y-142620952D02*
X113500000Y-142430476D01*
X113357142Y-142620952D01*
X112738095Y-142192380D02*
X112738095Y-142430476D01*
X112976190Y-142335238D02*
X112738095Y-142430476D01*
X112500000Y-142335238D01*
X112880952Y-142620952D02*
X112738095Y-142430476D01*
X112595238Y-142620952D01*
X134858095Y-137882380D02*
X134858095Y-136882380D01*
X134477142Y-136882380D01*
X134381904Y-136930000D01*
X134334285Y-136977619D01*
X134286666Y-137072857D01*
X134286666Y-137215714D01*
X134334285Y-137310952D01*
X134381904Y-137358571D01*
X134477142Y-137406190D01*
X134858095Y-137406190D01*
X133858095Y-137882380D02*
X133858095Y-137215714D01*
X133858095Y-136882380D02*
X133905714Y-136930000D01*
X133858095Y-136977619D01*
X133810476Y-136930000D01*
X133858095Y-136882380D01*
X133858095Y-136977619D01*
X133381904Y-137215714D02*
X133381904Y-137882380D01*
X133381904Y-137310952D02*
X133334285Y-137263333D01*
X133239047Y-137215714D01*
X133096190Y-137215714D01*
X133000952Y-137263333D01*
X132953333Y-137358571D01*
X132953333Y-137882380D01*
X132524761Y-137834761D02*
X132381904Y-137882380D01*
X132143809Y-137882380D01*
X132048571Y-137834761D01*
X132000952Y-137787142D01*
X131953333Y-137691904D01*
X131953333Y-137596666D01*
X132000952Y-137501428D01*
X132048571Y-137453809D01*
X132143809Y-137406190D01*
X132334285Y-137358571D01*
X132429523Y-137310952D01*
X132477142Y-137263333D01*
X132524761Y-137168095D01*
X132524761Y-137072857D01*
X132477142Y-136977619D01*
X132429523Y-136930000D01*
X132334285Y-136882380D01*
X132096190Y-136882380D01*
X131953333Y-136930000D01*
X131381904Y-137882380D02*
X131477142Y-137834761D01*
X131524761Y-137787142D01*
X131572380Y-137691904D01*
X131572380Y-137406190D01*
X131524761Y-137310952D01*
X131477142Y-137263333D01*
X131381904Y-137215714D01*
X131239047Y-137215714D01*
X131143809Y-137263333D01*
X131096190Y-137310952D01*
X131048571Y-137406190D01*
X131048571Y-137691904D01*
X131096190Y-137787142D01*
X131143809Y-137834761D01*
X131239047Y-137882380D01*
X131381904Y-137882380D01*
X130191428Y-137834761D02*
X130286666Y-137882380D01*
X130477142Y-137882380D01*
X130572380Y-137834761D01*
X130620000Y-137787142D01*
X130667619Y-137691904D01*
X130667619Y-137406190D01*
X130620000Y-137310952D01*
X130572380Y-137263333D01*
X130477142Y-137215714D01*
X130286666Y-137215714D01*
X130191428Y-137263333D01*
X129762857Y-137882380D02*
X129762857Y-136882380D01*
X129667619Y-137501428D02*
X129381904Y-137882380D01*
X129381904Y-137215714D02*
X129762857Y-137596666D01*
X128572380Y-137834761D02*
X128667619Y-137882380D01*
X128858095Y-137882380D01*
X128953333Y-137834761D01*
X129000952Y-137739523D01*
X129000952Y-137358571D01*
X128953333Y-137263333D01*
X128858095Y-137215714D01*
X128667619Y-137215714D01*
X128572380Y-137263333D01*
X128524761Y-137358571D01*
X128524761Y-137453809D01*
X129000952Y-137549047D01*
X128239047Y-137215714D02*
X127858095Y-137215714D01*
X128096190Y-136882380D02*
X128096190Y-137739523D01*
X128048571Y-137834761D01*
X127953333Y-137882380D01*
X127858095Y-137882380D01*
X127762857Y-137977619D02*
X127000952Y-137977619D01*
X126239047Y-137882380D02*
X126810476Y-137882380D01*
X126524761Y-137882380D02*
X126524761Y-136882380D01*
X126620000Y-137025238D01*
X126715238Y-137120476D01*
X126810476Y-137168095D01*
X125905714Y-137882380D02*
X125381904Y-137215714D01*
X125905714Y-137215714D02*
X125381904Y-137882380D01*
X124810476Y-136882380D02*
X124715238Y-136882380D01*
X124620000Y-136930000D01*
X124572380Y-136977619D01*
X124524761Y-137072857D01*
X124477142Y-137263333D01*
X124477142Y-137501428D01*
X124524761Y-137691904D01*
X124572380Y-137787142D01*
X124620000Y-137834761D01*
X124715238Y-137882380D01*
X124810476Y-137882380D01*
X124905714Y-137834761D01*
X124953333Y-137787142D01*
X125000952Y-137691904D01*
X125048571Y-137501428D01*
X125048571Y-137263333D01*
X125000952Y-137072857D01*
X124953333Y-136977619D01*
X124905714Y-136930000D01*
X124810476Y-136882380D01*
X123524761Y-137882380D02*
X124096190Y-137882380D01*
X123810476Y-137882380D02*
X123810476Y-136882380D01*
X123905714Y-137025238D01*
X124000952Y-137120476D01*
X124096190Y-137168095D01*
X123334285Y-137977619D02*
X122572380Y-137977619D01*
X122334285Y-137882380D02*
X122334285Y-136882380D01*
X121953333Y-136882380D01*
X121858095Y-136930000D01*
X121810476Y-136977619D01*
X121762857Y-137072857D01*
X121762857Y-137215714D01*
X121810476Y-137310952D01*
X121858095Y-137358571D01*
X121953333Y-137406190D01*
X122334285Y-137406190D01*
X121381904Y-136977619D02*
X121334285Y-136930000D01*
X121239047Y-136882380D01*
X121000952Y-136882380D01*
X120905714Y-136930000D01*
X120858095Y-136977619D01*
X120810476Y-137072857D01*
X120810476Y-137168095D01*
X120858095Y-137310952D01*
X121429523Y-137882380D01*
X120810476Y-137882380D01*
X120381904Y-137787142D02*
X120334285Y-137834761D01*
X120381904Y-137882380D01*
X120429523Y-137834761D01*
X120381904Y-137787142D01*
X120381904Y-137882380D01*
X119429523Y-136882380D02*
X119905714Y-136882380D01*
X119953333Y-137358571D01*
X119905714Y-137310952D01*
X119810476Y-137263333D01*
X119572380Y-137263333D01*
X119477142Y-137310952D01*
X119429523Y-137358571D01*
X119381904Y-137453809D01*
X119381904Y-137691904D01*
X119429523Y-137787142D01*
X119477142Y-137834761D01*
X119572380Y-137882380D01*
X119810476Y-137882380D01*
X119905714Y-137834761D01*
X119953333Y-137787142D01*
X118524761Y-137215714D02*
X118524761Y-137882380D01*
X118762857Y-136834761D02*
X119000952Y-137549047D01*
X118381904Y-137549047D01*
X118000952Y-137882380D02*
X118000952Y-137215714D01*
X118000952Y-137310952D02*
X117953333Y-137263333D01*
X117858095Y-137215714D01*
X117715238Y-137215714D01*
X117620000Y-137263333D01*
X117572380Y-137358571D01*
X117572380Y-137882380D01*
X117572380Y-137358571D02*
X117524761Y-137263333D01*
X117429523Y-137215714D01*
X117286666Y-137215714D01*
X117191428Y-137263333D01*
X117143809Y-137358571D01*
X117143809Y-137882380D01*
X116667619Y-137882380D02*
X116667619Y-137215714D01*
X116667619Y-137310952D02*
X116620000Y-137263333D01*
X116524761Y-137215714D01*
X116381904Y-137215714D01*
X116286666Y-137263333D01*
X116239047Y-137358571D01*
X116239047Y-137882380D01*
X116239047Y-137358571D02*
X116191428Y-137263333D01*
X116096190Y-137215714D01*
X115953333Y-137215714D01*
X115858095Y-137263333D01*
X115810476Y-137358571D01*
X115810476Y-137882380D01*
X115572380Y-137977619D02*
X114810476Y-137977619D01*
X114715238Y-136882380D02*
X114381904Y-137882380D01*
X114048571Y-136882380D01*
X113334285Y-137834761D02*
X113429523Y-137882380D01*
X113620000Y-137882380D01*
X113715238Y-137834761D01*
X113762857Y-137739523D01*
X113762857Y-137358571D01*
X113715238Y-137263333D01*
X113620000Y-137215714D01*
X113429523Y-137215714D01*
X113334285Y-137263333D01*
X113286666Y-137358571D01*
X113286666Y-137453809D01*
X113762857Y-137549047D01*
X112858095Y-137882380D02*
X112858095Y-137215714D01*
X112858095Y-137406190D02*
X112810476Y-137310952D01*
X112762857Y-137263333D01*
X112667619Y-137215714D01*
X112572380Y-137215714D01*
X112381904Y-137215714D02*
X112000952Y-137215714D01*
X112239047Y-136882380D02*
X112239047Y-137739523D01*
X112191428Y-137834761D01*
X112096190Y-137882380D01*
X112000952Y-137882380D01*
X111667619Y-137882380D02*
X111667619Y-137215714D01*
X111667619Y-136882380D02*
X111715238Y-136930000D01*
X111667619Y-136977619D01*
X111620000Y-136930000D01*
X111667619Y-136882380D01*
X111667619Y-136977619D01*
X110762857Y-137834761D02*
X110858095Y-137882380D01*
X111048571Y-137882380D01*
X111143809Y-137834761D01*
X111191428Y-137787142D01*
X111239047Y-137691904D01*
X111239047Y-137406190D01*
X111191428Y-137310952D01*
X111143809Y-137263333D01*
X111048571Y-137215714D01*
X110858095Y-137215714D01*
X110762857Y-137263333D01*
X109905714Y-137882380D02*
X109905714Y-137358571D01*
X109953333Y-137263333D01*
X110048571Y-137215714D01*
X110239047Y-137215714D01*
X110334285Y-137263333D01*
X109905714Y-137834761D02*
X110000952Y-137882380D01*
X110239047Y-137882380D01*
X110334285Y-137834761D01*
X110381904Y-137739523D01*
X110381904Y-137644285D01*
X110334285Y-137549047D01*
X110239047Y-137501428D01*
X110000952Y-137501428D01*
X109905714Y-137453809D01*
X109286666Y-137882380D02*
X109381904Y-137834761D01*
X109429523Y-137739523D01*
X109429523Y-136882380D01*
X123453333Y-140652380D02*
X123786666Y-140176190D01*
X124024761Y-140652380D02*
X124024761Y-139652380D01*
X123643809Y-139652380D01*
X123548571Y-139700000D01*
X123500952Y-139747619D01*
X123453333Y-139842857D01*
X123453333Y-139985714D01*
X123500952Y-140080952D01*
X123548571Y-140128571D01*
X123643809Y-140176190D01*
X124024761Y-140176190D01*
X123024761Y-140128571D02*
X122691428Y-140128571D01*
X122548571Y-140652380D02*
X123024761Y-140652380D01*
X123024761Y-139652380D01*
X122548571Y-139652380D01*
X121786666Y-140128571D02*
X122120000Y-140128571D01*
X122120000Y-140652380D02*
X122120000Y-139652380D01*
X121643809Y-139652380D01*
X121120000Y-139652380D02*
X121120000Y-139890476D01*
X121358095Y-139795238D02*
X121120000Y-139890476D01*
X120881904Y-139795238D01*
X121262857Y-140080952D02*
X121120000Y-139890476D01*
X120977142Y-140080952D01*
X120358095Y-139652380D02*
X120358095Y-139890476D01*
X120596190Y-139795238D02*
X120358095Y-139890476D01*
X120120000Y-139795238D01*
X120500952Y-140080952D02*
X120358095Y-139890476D01*
X120215238Y-140080952D01*
X132318095Y-137882380D02*
X132318095Y-136882380D01*
X131937142Y-136882380D01*
X131841904Y-136930000D01*
X131794285Y-136977619D01*
X131746666Y-137072857D01*
X131746666Y-137215714D01*
X131794285Y-137310952D01*
X131841904Y-137358571D01*
X131937142Y-137406190D01*
X132318095Y-137406190D01*
X131318095Y-137882380D02*
X131318095Y-137215714D01*
X131318095Y-136882380D02*
X131365714Y-136930000D01*
X131318095Y-136977619D01*
X131270476Y-136930000D01*
X131318095Y-136882380D01*
X131318095Y-136977619D01*
X130841904Y-137215714D02*
X130841904Y-137882380D01*
X130841904Y-137310952D02*
X130794285Y-137263333D01*
X130699047Y-137215714D01*
X130556190Y-137215714D01*
X130460952Y-137263333D01*
X130413333Y-137358571D01*
X130413333Y-137882380D01*
X129984761Y-137834761D02*
X129841904Y-137882380D01*
X129603809Y-137882380D01*
X129508571Y-137834761D01*
X129460952Y-137787142D01*
X129413333Y-137691904D01*
X129413333Y-137596666D01*
X129460952Y-137501428D01*
X129508571Y-137453809D01*
X129603809Y-137406190D01*
X129794285Y-137358571D01*
X129889523Y-137310952D01*
X129937142Y-137263333D01*
X129984761Y-137168095D01*
X129984761Y-137072857D01*
X129937142Y-136977619D01*
X129889523Y-136930000D01*
X129794285Y-136882380D01*
X129556190Y-136882380D01*
X129413333Y-136930000D01*
X128841904Y-137882380D02*
X128937142Y-137834761D01*
X128984761Y-137787142D01*
X129032380Y-137691904D01*
X129032380Y-137406190D01*
X128984761Y-137310952D01*
X128937142Y-137263333D01*
X128841904Y-137215714D01*
X128699047Y-137215714D01*
X128603809Y-137263333D01*
X128556190Y-137310952D01*
X128508571Y-137406190D01*
X128508571Y-137691904D01*
X128556190Y-137787142D01*
X128603809Y-137834761D01*
X128699047Y-137882380D01*
X128841904Y-137882380D01*
X127651428Y-137834761D02*
X127746666Y-137882380D01*
X127937142Y-137882380D01*
X128032380Y-137834761D01*
X128080000Y-137787142D01*
X128127619Y-137691904D01*
X128127619Y-137406190D01*
X128080000Y-137310952D01*
X128032380Y-137263333D01*
X127937142Y-137215714D01*
X127746666Y-137215714D01*
X127651428Y-137263333D01*
X127222857Y-137882380D02*
X127222857Y-136882380D01*
X127127619Y-137501428D02*
X126841904Y-137882380D01*
X126841904Y-137215714D02*
X127222857Y-137596666D01*
X126032380Y-137834761D02*
X126127619Y-137882380D01*
X126318095Y-137882380D01*
X126413333Y-137834761D01*
X126460952Y-137739523D01*
X126460952Y-137358571D01*
X126413333Y-137263333D01*
X126318095Y-137215714D01*
X126127619Y-137215714D01*
X126032380Y-137263333D01*
X125984761Y-137358571D01*
X125984761Y-137453809D01*
X126460952Y-137549047D01*
X125699047Y-137215714D02*
X125318095Y-137215714D01*
X125556190Y-136882380D02*
X125556190Y-137739523D01*
X125508571Y-137834761D01*
X125413333Y-137882380D01*
X125318095Y-137882380D01*
X125222857Y-137977619D02*
X124460952Y-137977619D01*
X123699047Y-137882380D02*
X124270476Y-137882380D01*
X123984761Y-137882380D02*
X123984761Y-136882380D01*
X124080000Y-137025238D01*
X124175238Y-137120476D01*
X124270476Y-137168095D01*
X123365714Y-137882380D02*
X122841904Y-137215714D01*
X123365714Y-137215714D02*
X122841904Y-137882380D01*
X122270476Y-136882380D02*
X122175238Y-136882380D01*
X122080000Y-136930000D01*
X122032380Y-136977619D01*
X121984761Y-137072857D01*
X121937142Y-137263333D01*
X121937142Y-137501428D01*
X121984761Y-137691904D01*
X122032380Y-137787142D01*
X122080000Y-137834761D01*
X122175238Y-137882380D01*
X122270476Y-137882380D01*
X122365714Y-137834761D01*
X122413333Y-137787142D01*
X122460952Y-137691904D01*
X122508571Y-137501428D01*
X122508571Y-137263333D01*
X122460952Y-137072857D01*
X122413333Y-136977619D01*
X122365714Y-136930000D01*
X122270476Y-136882380D01*
X120984761Y-137882380D02*
X121556190Y-137882380D01*
X121270476Y-137882380D02*
X121270476Y-136882380D01*
X121365714Y-137025238D01*
X121460952Y-137120476D01*
X121556190Y-137168095D01*
X120794285Y-137977619D02*
X120032380Y-137977619D01*
X119794285Y-137882380D02*
X119794285Y-136882380D01*
X119413333Y-136882380D01*
X119318095Y-136930000D01*
X119270476Y-136977619D01*
X119222857Y-137072857D01*
X119222857Y-137215714D01*
X119270476Y-137310952D01*
X119318095Y-137358571D01*
X119413333Y-137406190D01*
X119794285Y-137406190D01*
X118841904Y-136977619D02*
X118794285Y-136930000D01*
X118699047Y-136882380D01*
X118460952Y-136882380D01*
X118365714Y-136930000D01*
X118318095Y-136977619D01*
X118270476Y-137072857D01*
X118270476Y-137168095D01*
X118318095Y-137310952D01*
X118889523Y-137882380D01*
X118270476Y-137882380D01*
X117841904Y-137787142D02*
X117794285Y-137834761D01*
X117841904Y-137882380D01*
X117889523Y-137834761D01*
X117841904Y-137787142D01*
X117841904Y-137882380D01*
X116889523Y-136882380D02*
X117365714Y-136882380D01*
X117413333Y-137358571D01*
X117365714Y-137310952D01*
X117270476Y-137263333D01*
X117032380Y-137263333D01*
X116937142Y-137310952D01*
X116889523Y-137358571D01*
X116841904Y-137453809D01*
X116841904Y-137691904D01*
X116889523Y-137787142D01*
X116937142Y-137834761D01*
X117032380Y-137882380D01*
X117270476Y-137882380D01*
X117365714Y-137834761D01*
X117413333Y-137787142D01*
X115984761Y-137215714D02*
X115984761Y-137882380D01*
X116222857Y-136834761D02*
X116460952Y-137549047D01*
X115841904Y-137549047D01*
X115460952Y-137882380D02*
X115460952Y-137215714D01*
X115460952Y-137310952D02*
X115413333Y-137263333D01*
X115318095Y-137215714D01*
X115175238Y-137215714D01*
X115080000Y-137263333D01*
X115032380Y-137358571D01*
X115032380Y-137882380D01*
X115032380Y-137358571D02*
X114984761Y-137263333D01*
X114889523Y-137215714D01*
X114746666Y-137215714D01*
X114651428Y-137263333D01*
X114603809Y-137358571D01*
X114603809Y-137882380D01*
X114127619Y-137882380D02*
X114127619Y-137215714D01*
X114127619Y-137310952D02*
X114080000Y-137263333D01*
X113984761Y-137215714D01*
X113841904Y-137215714D01*
X113746666Y-137263333D01*
X113699047Y-137358571D01*
X113699047Y-137882380D01*
X113699047Y-137358571D02*
X113651428Y-137263333D01*
X113556190Y-137215714D01*
X113413333Y-137215714D01*
X113318095Y-137263333D01*
X113270476Y-137358571D01*
X113270476Y-137882380D01*
X113032380Y-137977619D02*
X112270476Y-137977619D01*
X112175238Y-136882380D02*
X111841904Y-137882380D01*
X111508571Y-136882380D01*
X110794285Y-137834761D02*
X110889523Y-137882380D01*
X111080000Y-137882380D01*
X111175238Y-137834761D01*
X111222857Y-137739523D01*
X111222857Y-137358571D01*
X111175238Y-137263333D01*
X111080000Y-137215714D01*
X110889523Y-137215714D01*
X110794285Y-137263333D01*
X110746666Y-137358571D01*
X110746666Y-137453809D01*
X111222857Y-137549047D01*
X110318095Y-137882380D02*
X110318095Y-137215714D01*
X110318095Y-137406190D02*
X110270476Y-137310952D01*
X110222857Y-137263333D01*
X110127619Y-137215714D01*
X110032380Y-137215714D01*
X109841904Y-137215714D02*
X109460952Y-137215714D01*
X109699047Y-136882380D02*
X109699047Y-137739523D01*
X109651428Y-137834761D01*
X109556190Y-137882380D01*
X109460952Y-137882380D01*
X109127619Y-137882380D02*
X109127619Y-137215714D01*
X109127619Y-136882380D02*
X109175238Y-136930000D01*
X109127619Y-136977619D01*
X109080000Y-136930000D01*
X109127619Y-136882380D01*
X109127619Y-136977619D01*
X108222857Y-137834761D02*
X108318095Y-137882380D01*
X108508571Y-137882380D01*
X108603809Y-137834761D01*
X108651428Y-137787142D01*
X108699047Y-137691904D01*
X108699047Y-137406190D01*
X108651428Y-137310952D01*
X108603809Y-137263333D01*
X108508571Y-137215714D01*
X108318095Y-137215714D01*
X108222857Y-137263333D01*
X107365714Y-137882380D02*
X107365714Y-137358571D01*
X107413333Y-137263333D01*
X107508571Y-137215714D01*
X107699047Y-137215714D01*
X107794285Y-137263333D01*
X107365714Y-137834761D02*
X107460952Y-137882380D01*
X107699047Y-137882380D01*
X107794285Y-137834761D01*
X107841904Y-137739523D01*
X107841904Y-137644285D01*
X107794285Y-137549047D01*
X107699047Y-137501428D01*
X107460952Y-137501428D01*
X107365714Y-137453809D01*
X106746666Y-137882380D02*
X106841904Y-137834761D01*
X106889523Y-137739523D01*
X106889523Y-136882380D01*
X120913333Y-140652380D02*
X121246666Y-140176190D01*
X121484761Y-140652380D02*
X121484761Y-139652380D01*
X121103809Y-139652380D01*
X121008571Y-139700000D01*
X120960952Y-139747619D01*
X120913333Y-139842857D01*
X120913333Y-139985714D01*
X120960952Y-140080952D01*
X121008571Y-140128571D01*
X121103809Y-140176190D01*
X121484761Y-140176190D01*
X120484761Y-140128571D02*
X120151428Y-140128571D01*
X120008571Y-140652380D02*
X120484761Y-140652380D01*
X120484761Y-139652380D01*
X120008571Y-139652380D01*
X119246666Y-140128571D02*
X119580000Y-140128571D01*
X119580000Y-140652380D02*
X119580000Y-139652380D01*
X119103809Y-139652380D01*
X118580000Y-139652380D02*
X118580000Y-139890476D01*
X118818095Y-139795238D02*
X118580000Y-139890476D01*
X118341904Y-139795238D01*
X118722857Y-140080952D02*
X118580000Y-139890476D01*
X118437142Y-140080952D01*
X117818095Y-139652380D02*
X117818095Y-139890476D01*
X118056190Y-139795238D02*
X117818095Y-139890476D01*
X117580000Y-139795238D01*
X117960952Y-140080952D02*
X117818095Y-139890476D01*
X117675238Y-140080952D01*
X129778095Y-137882380D02*
X129778095Y-136882380D01*
X129397142Y-136882380D01*
X129301904Y-136930000D01*
X129254285Y-136977619D01*
X129206666Y-137072857D01*
X129206666Y-137215714D01*
X129254285Y-137310952D01*
X129301904Y-137358571D01*
X129397142Y-137406190D01*
X129778095Y-137406190D01*
X128778095Y-137882380D02*
X128778095Y-137215714D01*
X128778095Y-136882380D02*
X128825714Y-136930000D01*
X128778095Y-136977619D01*
X128730476Y-136930000D01*
X128778095Y-136882380D01*
X128778095Y-136977619D01*
X128301904Y-137215714D02*
X128301904Y-137882380D01*
X128301904Y-137310952D02*
X128254285Y-137263333D01*
X128159047Y-137215714D01*
X128016190Y-137215714D01*
X127920952Y-137263333D01*
X127873333Y-137358571D01*
X127873333Y-137882380D01*
X127444761Y-137834761D02*
X127301904Y-137882380D01*
X127063809Y-137882380D01*
X126968571Y-137834761D01*
X126920952Y-137787142D01*
X126873333Y-137691904D01*
X126873333Y-137596666D01*
X126920952Y-137501428D01*
X126968571Y-137453809D01*
X127063809Y-137406190D01*
X127254285Y-137358571D01*
X127349523Y-137310952D01*
X127397142Y-137263333D01*
X127444761Y-137168095D01*
X127444761Y-137072857D01*
X127397142Y-136977619D01*
X127349523Y-136930000D01*
X127254285Y-136882380D01*
X127016190Y-136882380D01*
X126873333Y-136930000D01*
X126301904Y-137882380D02*
X126397142Y-137834761D01*
X126444761Y-137787142D01*
X126492380Y-137691904D01*
X126492380Y-137406190D01*
X126444761Y-137310952D01*
X126397142Y-137263333D01*
X126301904Y-137215714D01*
X126159047Y-137215714D01*
X126063809Y-137263333D01*
X126016190Y-137310952D01*
X125968571Y-137406190D01*
X125968571Y-137691904D01*
X126016190Y-137787142D01*
X126063809Y-137834761D01*
X126159047Y-137882380D01*
X126301904Y-137882380D01*
X125111428Y-137834761D02*
X125206666Y-137882380D01*
X125397142Y-137882380D01*
X125492380Y-137834761D01*
X125540000Y-137787142D01*
X125587619Y-137691904D01*
X125587619Y-137406190D01*
X125540000Y-137310952D01*
X125492380Y-137263333D01*
X125397142Y-137215714D01*
X125206666Y-137215714D01*
X125111428Y-137263333D01*
X124682857Y-137882380D02*
X124682857Y-136882380D01*
X124587619Y-137501428D02*
X124301904Y-137882380D01*
X124301904Y-137215714D02*
X124682857Y-137596666D01*
X123492380Y-137834761D02*
X123587619Y-137882380D01*
X123778095Y-137882380D01*
X123873333Y-137834761D01*
X123920952Y-137739523D01*
X123920952Y-137358571D01*
X123873333Y-137263333D01*
X123778095Y-137215714D01*
X123587619Y-137215714D01*
X123492380Y-137263333D01*
X123444761Y-137358571D01*
X123444761Y-137453809D01*
X123920952Y-137549047D01*
X123159047Y-137215714D02*
X122778095Y-137215714D01*
X123016190Y-136882380D02*
X123016190Y-137739523D01*
X122968571Y-137834761D01*
X122873333Y-137882380D01*
X122778095Y-137882380D01*
X122682857Y-137977619D02*
X121920952Y-137977619D01*
X121159047Y-137882380D02*
X121730476Y-137882380D01*
X121444761Y-137882380D02*
X121444761Y-136882380D01*
X121540000Y-137025238D01*
X121635238Y-137120476D01*
X121730476Y-137168095D01*
X120825714Y-137882380D02*
X120301904Y-137215714D01*
X120825714Y-137215714D02*
X120301904Y-137882380D01*
X119730476Y-136882380D02*
X119635238Y-136882380D01*
X119540000Y-136930000D01*
X119492380Y-136977619D01*
X119444761Y-137072857D01*
X119397142Y-137263333D01*
X119397142Y-137501428D01*
X119444761Y-137691904D01*
X119492380Y-137787142D01*
X119540000Y-137834761D01*
X119635238Y-137882380D01*
X119730476Y-137882380D01*
X119825714Y-137834761D01*
X119873333Y-137787142D01*
X119920952Y-137691904D01*
X119968571Y-137501428D01*
X119968571Y-137263333D01*
X119920952Y-137072857D01*
X119873333Y-136977619D01*
X119825714Y-136930000D01*
X119730476Y-136882380D01*
X118444761Y-137882380D02*
X119016190Y-137882380D01*
X118730476Y-137882380D02*
X118730476Y-136882380D01*
X118825714Y-137025238D01*
X118920952Y-137120476D01*
X119016190Y-137168095D01*
X118254285Y-137977619D02*
X117492380Y-137977619D01*
X117254285Y-137882380D02*
X117254285Y-136882380D01*
X116873333Y-136882380D01*
X116778095Y-136930000D01*
X116730476Y-136977619D01*
X116682857Y-137072857D01*
X116682857Y-137215714D01*
X116730476Y-137310952D01*
X116778095Y-137358571D01*
X116873333Y-137406190D01*
X117254285Y-137406190D01*
X116301904Y-136977619D02*
X116254285Y-136930000D01*
X116159047Y-136882380D01*
X115920952Y-136882380D01*
X115825714Y-136930000D01*
X115778095Y-136977619D01*
X115730476Y-137072857D01*
X115730476Y-137168095D01*
X115778095Y-137310952D01*
X116349523Y-137882380D01*
X115730476Y-137882380D01*
X115301904Y-137787142D02*
X115254285Y-137834761D01*
X115301904Y-137882380D01*
X115349523Y-137834761D01*
X115301904Y-137787142D01*
X115301904Y-137882380D01*
X114349523Y-136882380D02*
X114825714Y-136882380D01*
X114873333Y-137358571D01*
X114825714Y-137310952D01*
X114730476Y-137263333D01*
X114492380Y-137263333D01*
X114397142Y-137310952D01*
X114349523Y-137358571D01*
X114301904Y-137453809D01*
X114301904Y-137691904D01*
X114349523Y-137787142D01*
X114397142Y-137834761D01*
X114492380Y-137882380D01*
X114730476Y-137882380D01*
X114825714Y-137834761D01*
X114873333Y-137787142D01*
X113444761Y-137215714D02*
X113444761Y-137882380D01*
X113682857Y-136834761D02*
X113920952Y-137549047D01*
X113301904Y-137549047D01*
X112920952Y-137882380D02*
X112920952Y-137215714D01*
X112920952Y-137310952D02*
X112873333Y-137263333D01*
X112778095Y-137215714D01*
X112635238Y-137215714D01*
X112540000Y-137263333D01*
X112492380Y-137358571D01*
X112492380Y-137882380D01*
X112492380Y-137358571D02*
X112444761Y-137263333D01*
X112349523Y-137215714D01*
X112206666Y-137215714D01*
X112111428Y-137263333D01*
X112063809Y-137358571D01*
X112063809Y-137882380D01*
X111587619Y-137882380D02*
X111587619Y-137215714D01*
X111587619Y-137310952D02*
X111540000Y-137263333D01*
X111444761Y-137215714D01*
X111301904Y-137215714D01*
X111206666Y-137263333D01*
X111159047Y-137358571D01*
X111159047Y-137882380D01*
X111159047Y-137358571D02*
X111111428Y-137263333D01*
X111016190Y-137215714D01*
X110873333Y-137215714D01*
X110778095Y-137263333D01*
X110730476Y-137358571D01*
X110730476Y-137882380D01*
X110492380Y-137977619D02*
X109730476Y-137977619D01*
X109635238Y-136882380D02*
X109301904Y-137882380D01*
X108968571Y-136882380D01*
X108254285Y-137834761D02*
X108349523Y-137882380D01*
X108540000Y-137882380D01*
X108635238Y-137834761D01*
X108682857Y-137739523D01*
X108682857Y-137358571D01*
X108635238Y-137263333D01*
X108540000Y-137215714D01*
X108349523Y-137215714D01*
X108254285Y-137263333D01*
X108206666Y-137358571D01*
X108206666Y-137453809D01*
X108682857Y-137549047D01*
X107778095Y-137882380D02*
X107778095Y-137215714D01*
X107778095Y-137406190D02*
X107730476Y-137310952D01*
X107682857Y-137263333D01*
X107587619Y-137215714D01*
X107492380Y-137215714D01*
X107301904Y-137215714D02*
X106920952Y-137215714D01*
X107159047Y-136882380D02*
X107159047Y-137739523D01*
X107111428Y-137834761D01*
X107016190Y-137882380D01*
X106920952Y-137882380D01*
X106587619Y-137882380D02*
X106587619Y-137215714D01*
X106587619Y-136882380D02*
X106635238Y-136930000D01*
X106587619Y-136977619D01*
X106540000Y-136930000D01*
X106587619Y-136882380D01*
X106587619Y-136977619D01*
X105682857Y-137834761D02*
X105778095Y-137882380D01*
X105968571Y-137882380D01*
X106063809Y-137834761D01*
X106111428Y-137787142D01*
X106159047Y-137691904D01*
X106159047Y-137406190D01*
X106111428Y-137310952D01*
X106063809Y-137263333D01*
X105968571Y-137215714D01*
X105778095Y-137215714D01*
X105682857Y-137263333D01*
X104825714Y-137882380D02*
X104825714Y-137358571D01*
X104873333Y-137263333D01*
X104968571Y-137215714D01*
X105159047Y-137215714D01*
X105254285Y-137263333D01*
X104825714Y-137834761D02*
X104920952Y-137882380D01*
X105159047Y-137882380D01*
X105254285Y-137834761D01*
X105301904Y-137739523D01*
X105301904Y-137644285D01*
X105254285Y-137549047D01*
X105159047Y-137501428D01*
X104920952Y-137501428D01*
X104825714Y-137453809D01*
X104206666Y-137882380D02*
X104301904Y-137834761D01*
X104349523Y-137739523D01*
X104349523Y-136882380D01*
X118373333Y-140652380D02*
X118706666Y-140176190D01*
X118944761Y-140652380D02*
X118944761Y-139652380D01*
X118563809Y-139652380D01*
X118468571Y-139700000D01*
X118420952Y-139747619D01*
X118373333Y-139842857D01*
X118373333Y-139985714D01*
X118420952Y-140080952D01*
X118468571Y-140128571D01*
X118563809Y-140176190D01*
X118944761Y-140176190D01*
X117944761Y-140128571D02*
X117611428Y-140128571D01*
X117468571Y-140652380D02*
X117944761Y-140652380D01*
X117944761Y-139652380D01*
X117468571Y-139652380D01*
X116706666Y-140128571D02*
X117040000Y-140128571D01*
X117040000Y-140652380D02*
X117040000Y-139652380D01*
X116563809Y-139652380D01*
X116040000Y-139652380D02*
X116040000Y-139890476D01*
X116278095Y-139795238D02*
X116040000Y-139890476D01*
X115801904Y-139795238D01*
X116182857Y-140080952D02*
X116040000Y-139890476D01*
X115897142Y-140080952D01*
X115278095Y-139652380D02*
X115278095Y-139890476D01*
X115516190Y-139795238D02*
X115278095Y-139890476D01*
X115040000Y-139795238D01*
X115420952Y-140080952D02*
X115278095Y-139890476D01*
X115135238Y-140080952D01*
X127238095Y-137882380D02*
X127238095Y-136882380D01*
X126857142Y-136882380D01*
X126761904Y-136930000D01*
X126714285Y-136977619D01*
X126666666Y-137072857D01*
X126666666Y-137215714D01*
X126714285Y-137310952D01*
X126761904Y-137358571D01*
X126857142Y-137406190D01*
X127238095Y-137406190D01*
X126238095Y-137882380D02*
X126238095Y-137215714D01*
X126238095Y-136882380D02*
X126285714Y-136930000D01*
X126238095Y-136977619D01*
X126190476Y-136930000D01*
X126238095Y-136882380D01*
X126238095Y-136977619D01*
X125761904Y-137215714D02*
X125761904Y-137882380D01*
X125761904Y-137310952D02*
X125714285Y-137263333D01*
X125619047Y-137215714D01*
X125476190Y-137215714D01*
X125380952Y-137263333D01*
X125333333Y-137358571D01*
X125333333Y-137882380D01*
X124904761Y-137834761D02*
X124761904Y-137882380D01*
X124523809Y-137882380D01*
X124428571Y-137834761D01*
X124380952Y-137787142D01*
X124333333Y-137691904D01*
X124333333Y-137596666D01*
X124380952Y-137501428D01*
X124428571Y-137453809D01*
X124523809Y-137406190D01*
X124714285Y-137358571D01*
X124809523Y-137310952D01*
X124857142Y-137263333D01*
X124904761Y-137168095D01*
X124904761Y-137072857D01*
X124857142Y-136977619D01*
X124809523Y-136930000D01*
X124714285Y-136882380D01*
X124476190Y-136882380D01*
X124333333Y-136930000D01*
X123761904Y-137882380D02*
X123857142Y-137834761D01*
X123904761Y-137787142D01*
X123952380Y-137691904D01*
X123952380Y-137406190D01*
X123904761Y-137310952D01*
X123857142Y-137263333D01*
X123761904Y-137215714D01*
X123619047Y-137215714D01*
X123523809Y-137263333D01*
X123476190Y-137310952D01*
X123428571Y-137406190D01*
X123428571Y-137691904D01*
X123476190Y-137787142D01*
X123523809Y-137834761D01*
X123619047Y-137882380D01*
X123761904Y-137882380D01*
X122571428Y-137834761D02*
X122666666Y-137882380D01*
X122857142Y-137882380D01*
X122952380Y-137834761D01*
X123000000Y-137787142D01*
X123047619Y-137691904D01*
X123047619Y-137406190D01*
X123000000Y-137310952D01*
X122952380Y-137263333D01*
X122857142Y-137215714D01*
X122666666Y-137215714D01*
X122571428Y-137263333D01*
X122142857Y-137882380D02*
X122142857Y-136882380D01*
X122047619Y-137501428D02*
X121761904Y-137882380D01*
X121761904Y-137215714D02*
X122142857Y-137596666D01*
X120952380Y-137834761D02*
X121047619Y-137882380D01*
X121238095Y-137882380D01*
X121333333Y-137834761D01*
X121380952Y-137739523D01*
X121380952Y-137358571D01*
X121333333Y-137263333D01*
X121238095Y-137215714D01*
X121047619Y-137215714D01*
X120952380Y-137263333D01*
X120904761Y-137358571D01*
X120904761Y-137453809D01*
X121380952Y-137549047D01*
X120619047Y-137215714D02*
X120238095Y-137215714D01*
X120476190Y-136882380D02*
X120476190Y-137739523D01*
X120428571Y-137834761D01*
X120333333Y-137882380D01*
X120238095Y-137882380D01*
X120142857Y-137977619D02*
X119380952Y-137977619D01*
X118619047Y-137882380D02*
X119190476Y-137882380D01*
X118904761Y-137882380D02*
X118904761Y-136882380D01*
X119000000Y-137025238D01*
X119095238Y-137120476D01*
X119190476Y-137168095D01*
X118285714Y-137882380D02*
X117761904Y-137215714D01*
X118285714Y-137215714D02*
X117761904Y-137882380D01*
X117190476Y-136882380D02*
X117095238Y-136882380D01*
X117000000Y-136930000D01*
X116952380Y-136977619D01*
X116904761Y-137072857D01*
X116857142Y-137263333D01*
X116857142Y-137501428D01*
X116904761Y-137691904D01*
X116952380Y-137787142D01*
X117000000Y-137834761D01*
X117095238Y-137882380D01*
X117190476Y-137882380D01*
X117285714Y-137834761D01*
X117333333Y-137787142D01*
X117380952Y-137691904D01*
X117428571Y-137501428D01*
X117428571Y-137263333D01*
X117380952Y-137072857D01*
X117333333Y-136977619D01*
X117285714Y-136930000D01*
X117190476Y-136882380D01*
X115904761Y-137882380D02*
X116476190Y-137882380D01*
X116190476Y-137882380D02*
X116190476Y-136882380D01*
X116285714Y-137025238D01*
X116380952Y-137120476D01*
X116476190Y-137168095D01*
X115714285Y-137977619D02*
X114952380Y-137977619D01*
X114714285Y-137882380D02*
X114714285Y-136882380D01*
X114333333Y-136882380D01*
X114238095Y-136930000D01*
X114190476Y-136977619D01*
X114142857Y-137072857D01*
X114142857Y-137215714D01*
X114190476Y-137310952D01*
X114238095Y-137358571D01*
X114333333Y-137406190D01*
X114714285Y-137406190D01*
X113761904Y-136977619D02*
X113714285Y-136930000D01*
X113619047Y-136882380D01*
X113380952Y-136882380D01*
X113285714Y-136930000D01*
X113238095Y-136977619D01*
X113190476Y-137072857D01*
X113190476Y-137168095D01*
X113238095Y-137310952D01*
X113809523Y-137882380D01*
X113190476Y-137882380D01*
X112761904Y-137787142D02*
X112714285Y-137834761D01*
X112761904Y-137882380D01*
X112809523Y-137834761D01*
X112761904Y-137787142D01*
X112761904Y-137882380D01*
X111809523Y-136882380D02*
X112285714Y-136882380D01*
X112333333Y-137358571D01*
X112285714Y-137310952D01*
X112190476Y-137263333D01*
X111952380Y-137263333D01*
X111857142Y-137310952D01*
X111809523Y-137358571D01*
X111761904Y-137453809D01*
X111761904Y-137691904D01*
X111809523Y-137787142D01*
X111857142Y-137834761D01*
X111952380Y-137882380D01*
X112190476Y-137882380D01*
X112285714Y-137834761D01*
X112333333Y-137787142D01*
X110904761Y-137215714D02*
X110904761Y-137882380D01*
X111142857Y-136834761D02*
X111380952Y-137549047D01*
X110761904Y-137549047D01*
X110380952Y-137882380D02*
X110380952Y-137215714D01*
X110380952Y-137310952D02*
X110333333Y-137263333D01*
X110238095Y-137215714D01*
X110095238Y-137215714D01*
X110000000Y-137263333D01*
X109952380Y-137358571D01*
X109952380Y-137882380D01*
X109952380Y-137358571D02*
X109904761Y-137263333D01*
X109809523Y-137215714D01*
X109666666Y-137215714D01*
X109571428Y-137263333D01*
X109523809Y-137358571D01*
X109523809Y-137882380D01*
X109047619Y-137882380D02*
X109047619Y-137215714D01*
X109047619Y-137310952D02*
X109000000Y-137263333D01*
X108904761Y-137215714D01*
X108761904Y-137215714D01*
X108666666Y-137263333D01*
X108619047Y-137358571D01*
X108619047Y-137882380D01*
X108619047Y-137358571D02*
X108571428Y-137263333D01*
X108476190Y-137215714D01*
X108333333Y-137215714D01*
X108238095Y-137263333D01*
X108190476Y-137358571D01*
X108190476Y-137882380D01*
X107952380Y-137977619D02*
X107190476Y-137977619D01*
X107095238Y-136882380D02*
X106761904Y-137882380D01*
X106428571Y-136882380D01*
X105714285Y-137834761D02*
X105809523Y-137882380D01*
X106000000Y-137882380D01*
X106095238Y-137834761D01*
X106142857Y-137739523D01*
X106142857Y-137358571D01*
X106095238Y-137263333D01*
X106000000Y-137215714D01*
X105809523Y-137215714D01*
X105714285Y-137263333D01*
X105666666Y-137358571D01*
X105666666Y-137453809D01*
X106142857Y-137549047D01*
X105238095Y-137882380D02*
X105238095Y-137215714D01*
X105238095Y-137406190D02*
X105190476Y-137310952D01*
X105142857Y-137263333D01*
X105047619Y-137215714D01*
X104952380Y-137215714D01*
X104761904Y-137215714D02*
X104380952Y-137215714D01*
X104619047Y-136882380D02*
X104619047Y-137739523D01*
X104571428Y-137834761D01*
X104476190Y-137882380D01*
X104380952Y-137882380D01*
X104047619Y-137882380D02*
X104047619Y-137215714D01*
X104047619Y-136882380D02*
X104095238Y-136930000D01*
X104047619Y-136977619D01*
X104000000Y-136930000D01*
X104047619Y-136882380D01*
X104047619Y-136977619D01*
X103142857Y-137834761D02*
X103238095Y-137882380D01*
X103428571Y-137882380D01*
X103523809Y-137834761D01*
X103571428Y-137787142D01*
X103619047Y-137691904D01*
X103619047Y-137406190D01*
X103571428Y-137310952D01*
X103523809Y-137263333D01*
X103428571Y-137215714D01*
X103238095Y-137215714D01*
X103142857Y-137263333D01*
X102285714Y-137882380D02*
X102285714Y-137358571D01*
X102333333Y-137263333D01*
X102428571Y-137215714D01*
X102619047Y-137215714D01*
X102714285Y-137263333D01*
X102285714Y-137834761D02*
X102380952Y-137882380D01*
X102619047Y-137882380D01*
X102714285Y-137834761D01*
X102761904Y-137739523D01*
X102761904Y-137644285D01*
X102714285Y-137549047D01*
X102619047Y-137501428D01*
X102380952Y-137501428D01*
X102285714Y-137453809D01*
X101666666Y-137882380D02*
X101761904Y-137834761D01*
X101809523Y-137739523D01*
X101809523Y-136882380D01*
X115833333Y-140652380D02*
X116166666Y-140176190D01*
X116404761Y-140652380D02*
X116404761Y-139652380D01*
X116023809Y-139652380D01*
X115928571Y-139700000D01*
X115880952Y-139747619D01*
X115833333Y-139842857D01*
X115833333Y-139985714D01*
X115880952Y-140080952D01*
X115928571Y-140128571D01*
X116023809Y-140176190D01*
X116404761Y-140176190D01*
X115404761Y-140128571D02*
X115071428Y-140128571D01*
X114928571Y-140652380D02*
X115404761Y-140652380D01*
X115404761Y-139652380D01*
X114928571Y-139652380D01*
X114166666Y-140128571D02*
X114500000Y-140128571D01*
X114500000Y-140652380D02*
X114500000Y-139652380D01*
X114023809Y-139652380D01*
X113500000Y-139652380D02*
X113500000Y-139890476D01*
X113738095Y-139795238D02*
X113500000Y-139890476D01*
X113261904Y-139795238D01*
X113642857Y-140080952D02*
X113500000Y-139890476D01*
X113357142Y-140080952D01*
X112738095Y-139652380D02*
X112738095Y-139890476D01*
X112976190Y-139795238D02*
X112738095Y-139890476D01*
X112500000Y-139795238D01*
X112880952Y-140080952D02*
X112738095Y-139890476D01*
X112595238Y-140080952D01*
X79788095Y-129056666D02*
X79311904Y-129056666D01*
X79883333Y-129342380D02*
X79550000Y-128342380D01*
X79216666Y-129342380D01*
X78883333Y-129342380D02*
X78883333Y-128675714D01*
X78883333Y-128866190D02*
X78835714Y-128770952D01*
X78788095Y-128723333D01*
X78692857Y-128675714D01*
X78597619Y-128675714D01*
X77835714Y-129342380D02*
X77835714Y-128342380D01*
X77835714Y-129294761D02*
X77930952Y-129342380D01*
X78121428Y-129342380D01*
X78216666Y-129294761D01*
X78264285Y-129247142D01*
X78311904Y-129151904D01*
X78311904Y-128866190D01*
X78264285Y-128770952D01*
X78216666Y-128723333D01*
X78121428Y-128675714D01*
X77930952Y-128675714D01*
X77835714Y-128723333D01*
X76930952Y-128675714D02*
X76930952Y-129342380D01*
X77359523Y-128675714D02*
X77359523Y-129199523D01*
X77311904Y-129294761D01*
X77216666Y-129342380D01*
X77073809Y-129342380D01*
X76978571Y-129294761D01*
X76930952Y-129247142D01*
X76454761Y-129342380D02*
X76454761Y-128675714D01*
X76454761Y-128342380D02*
X76502380Y-128390000D01*
X76454761Y-128437619D01*
X76407142Y-128390000D01*
X76454761Y-128342380D01*
X76454761Y-128437619D01*
X75978571Y-128675714D02*
X75978571Y-129342380D01*
X75978571Y-128770952D02*
X75930952Y-128723333D01*
X75835714Y-128675714D01*
X75692857Y-128675714D01*
X75597619Y-128723333D01*
X75550000Y-128818571D01*
X75550000Y-129342380D01*
X74930952Y-129342380D02*
X75026190Y-129294761D01*
X75073809Y-129247142D01*
X75121428Y-129151904D01*
X75121428Y-128866190D01*
X75073809Y-128770952D01*
X75026190Y-128723333D01*
X74930952Y-128675714D01*
X74788095Y-128675714D01*
X74692857Y-128723333D01*
X74645238Y-128770952D01*
X74597619Y-128866190D01*
X74597619Y-129151904D01*
X74645238Y-129247142D01*
X74692857Y-129294761D01*
X74788095Y-129342380D01*
X74930952Y-129342380D01*
X74407142Y-129437619D02*
X73645238Y-129437619D01*
X73407142Y-129342380D02*
X73407142Y-128342380D01*
X72835714Y-129342380D01*
X72835714Y-128342380D01*
X71930952Y-129342380D02*
X71930952Y-128818571D01*
X71978571Y-128723333D01*
X72073809Y-128675714D01*
X72264285Y-128675714D01*
X72359523Y-128723333D01*
X71930952Y-129294761D02*
X72026190Y-129342380D01*
X72264285Y-129342380D01*
X72359523Y-129294761D01*
X72407142Y-129199523D01*
X72407142Y-129104285D01*
X72359523Y-129009047D01*
X72264285Y-128961428D01*
X72026190Y-128961428D01*
X71930952Y-128913809D01*
X71454761Y-128675714D02*
X71454761Y-129342380D01*
X71454761Y-128770952D02*
X71407142Y-128723333D01*
X71311904Y-128675714D01*
X71169047Y-128675714D01*
X71073809Y-128723333D01*
X71026190Y-128818571D01*
X71026190Y-129342380D01*
X70407142Y-129342380D02*
X70502380Y-129294761D01*
X70550000Y-129247142D01*
X70597619Y-129151904D01*
X70597619Y-128866190D01*
X70550000Y-128770952D01*
X70502380Y-128723333D01*
X70407142Y-128675714D01*
X70264285Y-128675714D01*
X70169047Y-128723333D01*
X70121428Y-128770952D01*
X70073809Y-128866190D01*
X70073809Y-129151904D01*
X70121428Y-129247142D01*
X70169047Y-129294761D01*
X70264285Y-129342380D01*
X70407142Y-129342380D01*
X69883333Y-129437619D02*
X69121428Y-129437619D01*
X68978571Y-128675714D02*
X68740476Y-129342380D01*
X68502380Y-128675714D01*
X68216666Y-128342380D02*
X67597619Y-128342380D01*
X67930952Y-128723333D01*
X67788095Y-128723333D01*
X67692857Y-128770952D01*
X67645238Y-128818571D01*
X67597619Y-128913809D01*
X67597619Y-129151904D01*
X67645238Y-129247142D01*
X67692857Y-129294761D01*
X67788095Y-129342380D01*
X68073809Y-129342380D01*
X68169047Y-129294761D01*
X68216666Y-129247142D01*
X67169047Y-129247142D02*
X67121428Y-129294761D01*
X67169047Y-129342380D01*
X67216666Y-129294761D01*
X67169047Y-129247142D01*
X67169047Y-129342380D01*
X66788095Y-129342380D02*
X66264285Y-128675714D01*
X66788095Y-128675714D02*
X66264285Y-129342380D01*
X73764285Y-126516666D02*
X73288095Y-126516666D01*
X73859523Y-126802380D02*
X73526190Y-125802380D01*
X73192857Y-126802380D01*
X72335714Y-126802380D02*
X72907142Y-126802380D01*
X72621428Y-126802380D02*
X72621428Y-125802380D01*
X72716666Y-125945238D01*
X72811904Y-126040476D01*
X72907142Y-126088095D01*
X128704166Y-134772380D02*
X129275595Y-134772380D01*
X128989880Y-134772380D02*
X128989880Y-133772380D01*
X129085119Y-133915238D01*
X129180357Y-134010476D01*
X129275595Y-134058095D01*
X127847023Y-134105714D02*
X127847023Y-134772380D01*
X128275595Y-134105714D02*
X128275595Y-134629523D01*
X128227976Y-134724761D01*
X128132738Y-134772380D01*
X127989880Y-134772380D01*
X127894642Y-134724761D01*
X127847023Y-134677142D01*
D12*
X128604166Y-135892857D02*
X128623214Y-135911904D01*
X128680357Y-135930952D01*
X128718452Y-135930952D01*
X128775595Y-135911904D01*
X128813690Y-135873809D01*
X128832738Y-135835714D01*
X128851785Y-135759523D01*
X128851785Y-135702380D01*
X128832738Y-135626190D01*
X128813690Y-135588095D01*
X128775595Y-135550000D01*
X128718452Y-135530952D01*
X128680357Y-135530952D01*
X128623214Y-135550000D01*
X128604166Y-135569047D01*
X128223214Y-135930952D02*
X128451785Y-135930952D01*
X128337500Y-135930952D02*
X128337500Y-135530952D01*
X128375595Y-135588095D01*
X128413690Y-135626190D01*
X128451785Y-135645238D01*
D11*
X128954166Y-125772380D02*
X129525595Y-125772380D01*
X129239880Y-125772380D02*
X129239880Y-124772380D01*
X129335119Y-124915238D01*
X129430357Y-125010476D01*
X129525595Y-125058095D01*
X128097023Y-125105714D02*
X128097023Y-125772380D01*
X128525595Y-125105714D02*
X128525595Y-125629523D01*
X128477976Y-125724761D01*
X128382738Y-125772380D01*
X128239880Y-125772380D01*
X128144642Y-125724761D01*
X128097023Y-125677142D01*
D12*
X128854166Y-126892857D02*
X128873214Y-126911904D01*
X128930357Y-126930952D01*
X128968452Y-126930952D01*
X129025595Y-126911904D01*
X129063690Y-126873809D01*
X129082738Y-126835714D01*
X129101785Y-126759523D01*
X129101785Y-126702380D01*
X129082738Y-126626190D01*
X129063690Y-126588095D01*
X129025595Y-126550000D01*
X128968452Y-126530952D01*
X128930357Y-126530952D01*
X128873214Y-126550000D01*
X128854166Y-126569047D01*
X128701785Y-126569047D02*
X128682738Y-126550000D01*
X128644642Y-126530952D01*
X128549404Y-126530952D01*
X128511309Y-126550000D01*
X128492261Y-126569047D01*
X128473214Y-126607142D01*
X128473214Y-126645238D01*
X128492261Y-126702380D01*
X128720833Y-126930952D01*
X128473214Y-126930952D01*
D11*
X128704166Y-132522380D02*
X129275595Y-132522380D01*
X128989880Y-132522380D02*
X128989880Y-131522380D01*
X129085119Y-131665238D01*
X129180357Y-131760476D01*
X129275595Y-131808095D01*
X127847023Y-131855714D02*
X127847023Y-132522380D01*
X128275595Y-131855714D02*
X128275595Y-132379523D01*
X128227976Y-132474761D01*
X128132738Y-132522380D01*
X127989880Y-132522380D01*
X127894642Y-132474761D01*
X127847023Y-132427142D01*
D12*
X128604166Y-133642857D02*
X128623214Y-133661904D01*
X128680357Y-133680952D01*
X128718452Y-133680952D01*
X128775595Y-133661904D01*
X128813690Y-133623809D01*
X128832738Y-133585714D01*
X128851785Y-133509523D01*
X128851785Y-133452380D01*
X128832738Y-133376190D01*
X128813690Y-133338095D01*
X128775595Y-133300000D01*
X128718452Y-133280952D01*
X128680357Y-133280952D01*
X128623214Y-133300000D01*
X128604166Y-133319047D01*
X128470833Y-133280952D02*
X128223214Y-133280952D01*
X128356547Y-133433333D01*
X128299404Y-133433333D01*
X128261309Y-133452380D01*
X128242261Y-133471428D01*
X128223214Y-133509523D01*
X128223214Y-133604761D01*
X128242261Y-133642857D01*
X128261309Y-133661904D01*
X128299404Y-133680952D01*
X128413690Y-133680952D01*
X128451785Y-133661904D01*
X128470833Y-133642857D01*
D11*
X128954166Y-123522380D02*
X129525595Y-123522380D01*
X129239880Y-123522380D02*
X129239880Y-122522380D01*
X129335119Y-122665238D01*
X129430357Y-122760476D01*
X129525595Y-122808095D01*
X128097023Y-122855714D02*
X128097023Y-123522380D01*
X128525595Y-122855714D02*
X128525595Y-123379523D01*
X128477976Y-123474761D01*
X128382738Y-123522380D01*
X128239880Y-123522380D01*
X128144642Y-123474761D01*
X128097023Y-123427142D01*
D12*
X128854166Y-124642857D02*
X128873214Y-124661904D01*
X128930357Y-124680952D01*
X128968452Y-124680952D01*
X129025595Y-124661904D01*
X129063690Y-124623809D01*
X129082738Y-124585714D01*
X129101785Y-124509523D01*
X129101785Y-124452380D01*
X129082738Y-124376190D01*
X129063690Y-124338095D01*
X129025595Y-124300000D01*
X128968452Y-124280952D01*
X128930357Y-124280952D01*
X128873214Y-124300000D01*
X128854166Y-124319047D01*
X128511309Y-124414285D02*
X128511309Y-124680952D01*
X128606547Y-124261904D02*
X128701785Y-124547619D01*
X128454166Y-124547619D01*
D11*
X128954167Y-121272380D02*
X129525596Y-121272380D01*
X129239881Y-121272380D02*
X129239881Y-120272380D01*
X129335120Y-120415238D01*
X129430358Y-120510476D01*
X129525596Y-120558095D01*
X128097024Y-120605714D02*
X128097024Y-121272380D01*
X128525596Y-120605714D02*
X128525596Y-121129523D01*
X128477977Y-121224761D01*
X128382739Y-121272380D01*
X128239881Y-121272380D01*
X128144643Y-121224761D01*
X128097024Y-121177142D01*
D12*
X128854167Y-122392857D02*
X128873215Y-122411904D01*
X128930358Y-122430952D01*
X128968453Y-122430952D01*
X129025596Y-122411904D01*
X129063691Y-122373809D01*
X129082739Y-122335714D01*
X129101786Y-122259523D01*
X129101786Y-122202380D01*
X129082739Y-122126190D01*
X129063691Y-122088095D01*
X129025596Y-122050000D01*
X128968453Y-122030952D01*
X128930358Y-122030952D01*
X128873215Y-122050000D01*
X128854167Y-122069047D01*
X128492262Y-122030952D02*
X128682739Y-122030952D01*
X128701786Y-122221428D01*
X128682739Y-122202380D01*
X128644643Y-122183333D01*
X128549405Y-122183333D01*
X128511310Y-122202380D01*
X128492262Y-122221428D01*
X128473215Y-122259523D01*
X128473215Y-122354761D01*
X128492262Y-122392857D01*
X128511310Y-122411904D01*
X128549405Y-122430952D01*
X128644643Y-122430952D01*
X128682739Y-122411904D01*
X128701786Y-122392857D01*
D11*
X64754761Y-142146904D02*
X64802380Y-142289761D01*
X64802380Y-142527857D01*
X64754761Y-142623095D01*
X64707142Y-142670714D01*
X64611904Y-142718333D01*
X64516666Y-142718333D01*
X64421428Y-142670714D01*
X64373809Y-142623095D01*
X64326190Y-142527857D01*
X64278571Y-142337380D01*
X64230952Y-142242142D01*
X64183333Y-142194523D01*
X64088095Y-142146904D01*
X63992857Y-142146904D01*
X63897619Y-142194523D01*
X63850000Y-142242142D01*
X63802380Y-142337380D01*
X63802380Y-142575476D01*
X63850000Y-142718333D01*
X63850000Y-143670714D02*
X63802380Y-143575476D01*
X63802380Y-143432619D01*
X63850000Y-143289761D01*
X63945238Y-143194523D01*
X64040476Y-143146904D01*
X64230952Y-143099285D01*
X64373809Y-143099285D01*
X64564285Y-143146904D01*
X64659523Y-143194523D01*
X64754761Y-143289761D01*
X64802380Y-143432619D01*
X64802380Y-143527857D01*
X64754761Y-143670714D01*
X64707142Y-143718333D01*
X64373809Y-143718333D01*
X64373809Y-143527857D01*
X64802380Y-144194523D02*
X64802380Y-144385000D01*
X64754761Y-144480238D01*
X64707142Y-144527857D01*
X64564285Y-144623095D01*
X64373809Y-144670714D01*
X63992857Y-144670714D01*
X63897619Y-144623095D01*
X63850000Y-144575476D01*
X63802380Y-144480238D01*
X63802380Y-144289761D01*
X63850000Y-144194523D01*
X63897619Y-144146904D01*
X63992857Y-144099285D01*
X64230952Y-144099285D01*
X64326190Y-144146904D01*
X64373809Y-144194523D01*
X64421428Y-144289761D01*
X64421428Y-144480238D01*
X64373809Y-144575476D01*
X64326190Y-144623095D01*
X64230952Y-144670714D01*
X63802380Y-145289761D02*
X63802380Y-145385000D01*
X63850000Y-145480238D01*
X63897619Y-145527857D01*
X63992857Y-145575476D01*
X64183333Y-145623095D01*
X64421428Y-145623095D01*
X64611904Y-145575476D01*
X64707142Y-145527857D01*
X64754761Y-145480238D01*
X64802380Y-145385000D01*
X64802380Y-145289761D01*
X64754761Y-145194523D01*
X64707142Y-145146904D01*
X64611904Y-145099285D01*
X64421428Y-145051666D01*
X64183333Y-145051666D01*
X63992857Y-145099285D01*
X63897619Y-145146904D01*
X63850000Y-145194523D01*
X63802380Y-145289761D01*
X59873333Y-141722380D02*
X59873333Y-142436666D01*
X59920952Y-142579523D01*
X60016190Y-142674761D01*
X60159047Y-142722380D01*
X60254285Y-142722380D01*
X58873333Y-142722380D02*
X59444761Y-142722380D01*
X59159047Y-142722380D02*
X59159047Y-141722380D01*
X59254285Y-141865238D01*
X59349523Y-141960476D01*
X59444761Y-142008095D01*
X73012380Y-141694523D02*
X72012380Y-141694523D01*
X72012380Y-142075476D01*
X72060000Y-142170714D01*
X72107619Y-142218333D01*
X72202857Y-142265952D01*
X72345714Y-142265952D01*
X72440952Y-142218333D01*
X72488571Y-142170714D01*
X72536190Y-142075476D01*
X72536190Y-141694523D01*
X72488571Y-142694523D02*
X72488571Y-143027857D01*
X73012380Y-143170714D02*
X73012380Y-142694523D01*
X72012380Y-142694523D01*
X72012380Y-143170714D01*
X73012380Y-144170714D02*
X72536190Y-143837380D01*
X73012380Y-143599285D02*
X72012380Y-143599285D01*
X72012380Y-143980238D01*
X72060000Y-144075476D01*
X72107619Y-144123095D01*
X72202857Y-144170714D01*
X72345714Y-144170714D01*
X72440952Y-144123095D01*
X72488571Y-144075476D01*
X72536190Y-143980238D01*
X72536190Y-143599285D01*
X73012380Y-144599285D02*
X72012380Y-144599285D01*
X73012380Y-145075476D02*
X72012380Y-145075476D01*
X72012380Y-145456428D01*
X72060000Y-145551666D01*
X72107619Y-145599285D01*
X72202857Y-145646904D01*
X72345714Y-145646904D01*
X72440952Y-145599285D01*
X72488571Y-145551666D01*
X72536190Y-145456428D01*
X72536190Y-145075476D01*
X72917142Y-146075476D02*
X72964761Y-146123095D01*
X73012380Y-146075476D01*
X72964761Y-146027857D01*
X72917142Y-146075476D01*
X73012380Y-146075476D01*
X68083333Y-141722380D02*
X68083333Y-142436666D01*
X68130952Y-142579523D01*
X68226190Y-142674761D01*
X68369047Y-142722380D01*
X68464285Y-142722380D01*
X67654761Y-141817619D02*
X67607142Y-141770000D01*
X67511904Y-141722380D01*
X67273809Y-141722380D01*
X67178571Y-141770000D01*
X67130952Y-141817619D01*
X67083333Y-141912857D01*
X67083333Y-142008095D01*
X67130952Y-142150952D01*
X67702380Y-142722380D01*
X67083333Y-142722380D01*
X115132739Y-114272380D02*
X115704167Y-114272380D01*
X115418453Y-114272380D02*
X115418453Y-113272380D01*
X115513691Y-113415238D01*
X115608929Y-113510476D01*
X115704167Y-113558095D01*
X114513691Y-113272380D02*
X114418453Y-113272380D01*
X114323215Y-113320000D01*
X114275596Y-113367619D01*
X114227977Y-113462857D01*
X114180358Y-113653333D01*
X114180358Y-113891428D01*
X114227977Y-114081904D01*
X114275596Y-114177142D01*
X114323215Y-114224761D01*
X114418453Y-114272380D01*
X114513691Y-114272380D01*
X114608929Y-114224761D01*
X114656548Y-114177142D01*
X114704167Y-114081904D01*
X114751786Y-113891428D01*
X114751786Y-113653333D01*
X114704167Y-113462857D01*
X114656548Y-113367619D01*
X114608929Y-113320000D01*
X114513691Y-113272380D01*
X113751786Y-114272380D02*
X113751786Y-113272380D01*
X113656548Y-113891428D02*
X113370834Y-114272380D01*
X113370834Y-113605714D02*
X113751786Y-113986666D01*
D12*
X114604167Y-115430952D02*
X114737501Y-115240476D01*
X114832739Y-115430952D02*
X114832739Y-115030952D01*
X114680358Y-115030952D01*
X114642262Y-115050000D01*
X114623215Y-115069047D01*
X114604167Y-115107142D01*
X114604167Y-115164285D01*
X114623215Y-115202380D01*
X114642262Y-115221428D01*
X114680358Y-115240476D01*
X114832739Y-115240476D01*
X114223215Y-115430952D02*
X114451786Y-115430952D01*
X114337501Y-115430952D02*
X114337501Y-115030952D01*
X114375596Y-115088095D01*
X114413691Y-115126190D01*
X114451786Y-115145238D01*
D11*
X115057738Y-120022379D02*
X115629166Y-120022379D01*
X115343452Y-120022379D02*
X115343452Y-119022379D01*
X115438690Y-119165237D01*
X115533928Y-119260475D01*
X115629166Y-119308094D01*
X114438690Y-119022379D02*
X114343452Y-119022379D01*
X114248214Y-119069999D01*
X114200595Y-119117618D01*
X114152976Y-119212856D01*
X114105357Y-119403332D01*
X114105357Y-119641427D01*
X114152976Y-119831903D01*
X114200595Y-119927141D01*
X114248214Y-119974760D01*
X114343452Y-120022379D01*
X114438690Y-120022379D01*
X114533928Y-119974760D01*
X114581547Y-119927141D01*
X114629166Y-119831903D01*
X114676785Y-119641427D01*
X114676785Y-119403332D01*
X114629166Y-119212856D01*
X114581547Y-119117618D01*
X114533928Y-119069999D01*
X114438690Y-119022379D01*
X113676785Y-120022379D02*
X113676785Y-119022379D01*
X113581547Y-119641427D02*
X113295833Y-120022379D01*
X113295833Y-119355713D02*
X113676785Y-119736665D01*
D12*
X114529166Y-121180951D02*
X114662500Y-120990475D01*
X114757738Y-121180951D02*
X114757738Y-120780951D01*
X114605357Y-120780951D01*
X114567261Y-120799999D01*
X114548214Y-120819046D01*
X114529166Y-120857141D01*
X114529166Y-120914284D01*
X114548214Y-120952379D01*
X114567261Y-120971427D01*
X114605357Y-120990475D01*
X114757738Y-120990475D01*
X114395833Y-120780951D02*
X114148214Y-120780951D01*
X114281547Y-120933332D01*
X114224404Y-120933332D01*
X114186309Y-120952379D01*
X114167261Y-120971427D01*
X114148214Y-121009522D01*
X114148214Y-121104760D01*
X114167261Y-121142856D01*
X114186309Y-121161903D01*
X114224404Y-121180951D01*
X114338690Y-121180951D01*
X114376785Y-121161903D01*
X114395833Y-121142856D01*
D11*
X109975595Y-124702619D02*
X109927976Y-124655000D01*
X109832738Y-124607380D01*
X109594642Y-124607380D01*
X109499404Y-124655000D01*
X109451785Y-124702619D01*
X109404166Y-124797857D01*
X109404166Y-124893095D01*
X109451785Y-125035952D01*
X110023214Y-125607380D01*
X109404166Y-125607380D01*
X109023214Y-124702619D02*
X108975595Y-124655000D01*
X108880357Y-124607380D01*
X108642261Y-124607380D01*
X108547023Y-124655000D01*
X108499404Y-124702619D01*
X108451785Y-124797857D01*
X108451785Y-124893095D01*
X108499404Y-125035952D01*
X109070833Y-125607380D01*
X108451785Y-125607380D01*
X107832738Y-124607380D02*
X107737500Y-124607380D01*
X107642261Y-124655000D01*
X107594642Y-124702619D01*
X107547023Y-124797857D01*
X107499404Y-124988333D01*
X107499404Y-125226428D01*
X107547023Y-125416904D01*
X107594642Y-125512142D01*
X107642261Y-125559761D01*
X107737500Y-125607380D01*
X107832738Y-125607380D01*
X107927976Y-125559761D01*
X107975595Y-125512142D01*
X108023214Y-125416904D01*
X108070833Y-125226428D01*
X108070833Y-124988333D01*
X108023214Y-124797857D01*
X107975595Y-124702619D01*
X107927976Y-124655000D01*
X107832738Y-124607380D01*
D12*
X108804166Y-123905952D02*
X108937500Y-123715476D01*
X109032738Y-123905952D02*
X109032738Y-123505952D01*
X108880357Y-123505952D01*
X108842261Y-123525000D01*
X108823214Y-123544047D01*
X108804166Y-123582142D01*
X108804166Y-123639285D01*
X108823214Y-123677380D01*
X108842261Y-123696428D01*
X108880357Y-123715476D01*
X109032738Y-123715476D01*
X108461309Y-123639285D02*
X108461309Y-123905952D01*
X108556547Y-123486904D02*
X108651785Y-123772619D01*
X108404166Y-123772619D01*
D11*
X115057738Y-122772380D02*
X115629166Y-122772380D01*
X115343452Y-122772380D02*
X115343452Y-121772380D01*
X115438690Y-121915238D01*
X115533928Y-122010476D01*
X115629166Y-122058095D01*
X114438690Y-121772380D02*
X114343452Y-121772380D01*
X114248214Y-121820000D01*
X114200595Y-121867619D01*
X114152976Y-121962857D01*
X114105357Y-122153333D01*
X114105357Y-122391428D01*
X114152976Y-122581904D01*
X114200595Y-122677142D01*
X114248214Y-122724761D01*
X114343452Y-122772380D01*
X114438690Y-122772380D01*
X114533928Y-122724761D01*
X114581547Y-122677142D01*
X114629166Y-122581904D01*
X114676785Y-122391428D01*
X114676785Y-122153333D01*
X114629166Y-121962857D01*
X114581547Y-121867619D01*
X114533928Y-121820000D01*
X114438690Y-121772380D01*
X113676785Y-122772380D02*
X113676785Y-121772380D01*
X113581547Y-122391428D02*
X113295833Y-122772380D01*
X113295833Y-122105714D02*
X113676785Y-122486666D01*
D12*
X114529166Y-123930952D02*
X114662500Y-123740476D01*
X114757738Y-123930952D02*
X114757738Y-123530952D01*
X114605357Y-123530952D01*
X114567261Y-123550000D01*
X114548214Y-123569047D01*
X114529166Y-123607142D01*
X114529166Y-123664285D01*
X114548214Y-123702380D01*
X114567261Y-123721428D01*
X114605357Y-123740476D01*
X114757738Y-123740476D01*
X114167261Y-123530952D02*
X114357738Y-123530952D01*
X114376785Y-123721428D01*
X114357738Y-123702380D01*
X114319642Y-123683333D01*
X114224404Y-123683333D01*
X114186309Y-123702380D01*
X114167261Y-123721428D01*
X114148214Y-123759523D01*
X114148214Y-123854761D01*
X114167261Y-123892857D01*
X114186309Y-123911904D01*
X114224404Y-123930952D01*
X114319642Y-123930952D01*
X114357738Y-123911904D01*
X114376785Y-123892857D01*
D11*
X129307737Y-118522380D02*
X129879165Y-118522380D01*
X129593451Y-118522380D02*
X129593451Y-117522380D01*
X129688689Y-117665238D01*
X129783927Y-117760476D01*
X129879165Y-117808095D01*
X128688689Y-117522380D02*
X128593451Y-117522380D01*
X128498213Y-117570000D01*
X128450594Y-117617619D01*
X128402975Y-117712857D01*
X128355356Y-117903333D01*
X128355356Y-118141428D01*
X128402975Y-118331904D01*
X128450594Y-118427142D01*
X128498213Y-118474761D01*
X128593451Y-118522380D01*
X128688689Y-118522380D01*
X128783927Y-118474761D01*
X128831546Y-118427142D01*
X128879165Y-118331904D01*
X128926784Y-118141428D01*
X128926784Y-117903333D01*
X128879165Y-117712857D01*
X128831546Y-117617619D01*
X128783927Y-117570000D01*
X128688689Y-117522380D01*
X127926784Y-118522380D02*
X127926784Y-117522380D01*
X127831546Y-118141428D02*
X127545832Y-118522380D01*
X127545832Y-117855714D02*
X127926784Y-118236666D01*
D12*
X128779165Y-119680952D02*
X128912499Y-119490476D01*
X129007737Y-119680952D02*
X129007737Y-119280952D01*
X128855356Y-119280952D01*
X128817260Y-119300000D01*
X128798213Y-119319047D01*
X128779165Y-119357142D01*
X128779165Y-119414285D01*
X128798213Y-119452380D01*
X128817260Y-119471428D01*
X128855356Y-119490476D01*
X129007737Y-119490476D01*
X128436308Y-119280952D02*
X128512499Y-119280952D01*
X128550594Y-119300000D01*
X128569641Y-119319047D01*
X128607737Y-119376190D01*
X128626784Y-119452380D01*
X128626784Y-119604761D01*
X128607737Y-119642857D01*
X128588689Y-119661904D01*
X128550594Y-119680952D01*
X128474403Y-119680952D01*
X128436308Y-119661904D01*
X128417260Y-119642857D01*
X128398213Y-119604761D01*
X128398213Y-119509523D01*
X128417260Y-119471428D01*
X128436308Y-119452380D01*
X128474403Y-119433333D01*
X128550594Y-119433333D01*
X128588689Y-119452380D01*
X128607737Y-119471428D01*
X128626784Y-119509523D01*
D11*
X115057738Y-117207379D02*
X115629166Y-117207379D01*
X115343452Y-117207379D02*
X115343452Y-116207379D01*
X115438690Y-116350237D01*
X115533928Y-116445475D01*
X115629166Y-116493094D01*
X114438690Y-116207379D02*
X114343452Y-116207379D01*
X114248214Y-116254999D01*
X114200595Y-116302618D01*
X114152976Y-116397856D01*
X114105357Y-116588332D01*
X114105357Y-116826427D01*
X114152976Y-117016903D01*
X114200595Y-117112141D01*
X114248214Y-117159760D01*
X114343452Y-117207379D01*
X114438690Y-117207379D01*
X114533928Y-117159760D01*
X114581547Y-117112141D01*
X114629166Y-117016903D01*
X114676785Y-116826427D01*
X114676785Y-116588332D01*
X114629166Y-116397856D01*
X114581547Y-116302618D01*
X114533928Y-116254999D01*
X114438690Y-116207379D01*
X113676785Y-117207379D02*
X113676785Y-116207379D01*
X113581547Y-116826427D02*
X113295833Y-117207379D01*
X113295833Y-116540713D02*
X113676785Y-116921665D01*
D12*
X114529166Y-118365951D02*
X114662500Y-118175475D01*
X114757738Y-118365951D02*
X114757738Y-117965951D01*
X114605357Y-117965951D01*
X114567261Y-117984999D01*
X114548214Y-118004046D01*
X114529166Y-118042141D01*
X114529166Y-118099284D01*
X114548214Y-118137379D01*
X114567261Y-118156427D01*
X114605357Y-118175475D01*
X114757738Y-118175475D01*
X114395833Y-117965951D02*
X114129166Y-117965951D01*
X114300595Y-118365951D01*
D11*
X109950594Y-121977619D02*
X109902975Y-121930000D01*
X109807737Y-121882380D01*
X109569641Y-121882380D01*
X109474403Y-121930000D01*
X109426784Y-121977619D01*
X109379165Y-122072857D01*
X109379165Y-122168095D01*
X109426784Y-122310952D01*
X109998213Y-122882380D01*
X109379165Y-122882380D01*
X108998213Y-121977619D02*
X108950594Y-121930000D01*
X108855356Y-121882380D01*
X108617260Y-121882380D01*
X108522022Y-121930000D01*
X108474403Y-121977619D01*
X108426784Y-122072857D01*
X108426784Y-122168095D01*
X108474403Y-122310952D01*
X109045832Y-122882380D01*
X108426784Y-122882380D01*
X107807737Y-121882380D02*
X107712499Y-121882380D01*
X107617260Y-121930000D01*
X107569641Y-121977619D01*
X107522022Y-122072857D01*
X107474403Y-122263333D01*
X107474403Y-122501428D01*
X107522022Y-122691904D01*
X107569641Y-122787142D01*
X107617260Y-122834761D01*
X107712499Y-122882380D01*
X107807737Y-122882380D01*
X107902975Y-122834761D01*
X107950594Y-122787142D01*
X107998213Y-122691904D01*
X108045832Y-122501428D01*
X108045832Y-122263333D01*
X107998213Y-122072857D01*
X107950594Y-121977619D01*
X107902975Y-121930000D01*
X107807737Y-121882380D01*
D12*
X108779165Y-121180952D02*
X108912499Y-120990476D01*
X109007737Y-121180952D02*
X109007737Y-120780952D01*
X108855356Y-120780952D01*
X108817260Y-120800000D01*
X108798213Y-120819047D01*
X108779165Y-120857142D01*
X108779165Y-120914285D01*
X108798213Y-120952380D01*
X108817260Y-120971428D01*
X108855356Y-120990476D01*
X109007737Y-120990476D01*
X108550594Y-120952380D02*
X108588689Y-120933333D01*
X108607737Y-120914285D01*
X108626784Y-120876190D01*
X108626784Y-120857142D01*
X108607737Y-120819047D01*
X108588689Y-120800000D01*
X108550594Y-120780952D01*
X108474403Y-120780952D01*
X108436308Y-120800000D01*
X108417260Y-120819047D01*
X108398213Y-120857142D01*
X108398213Y-120876190D01*
X108417260Y-120914285D01*
X108436308Y-120933333D01*
X108474403Y-120952380D01*
X108550594Y-120952380D01*
X108588689Y-120971428D01*
X108607737Y-120990476D01*
X108626784Y-121028571D01*
X108626784Y-121104761D01*
X108607737Y-121142857D01*
X108588689Y-121161904D01*
X108550594Y-121180952D01*
X108474403Y-121180952D01*
X108436308Y-121161904D01*
X108417260Y-121142857D01*
X108398213Y-121104761D01*
X108398213Y-121028571D01*
X108417260Y-120990476D01*
X108436308Y-120971428D01*
X108474403Y-120952380D01*
D11*
X126178571Y-129166666D02*
X125702380Y-129166666D01*
X126273809Y-129452380D02*
X125940476Y-128452380D01*
X125607142Y-129452380D01*
X125369047Y-128452380D02*
X124702380Y-128452380D01*
X125369047Y-129452380D01*
X124702380Y-129452380D01*
X123797619Y-129452380D02*
X124369047Y-129452380D01*
X124083333Y-129452380D02*
X124083333Y-128452380D01*
X124178571Y-128595238D01*
X124273809Y-128690476D01*
X124369047Y-128738095D01*
X122845238Y-129452380D02*
X123416666Y-129452380D01*
X123130952Y-129452380D02*
X123130952Y-128452380D01*
X123226190Y-128595238D01*
X123321428Y-128690476D01*
X123416666Y-128738095D01*
X121892857Y-129452380D02*
X122464285Y-129452380D01*
X122178571Y-129452380D02*
X122178571Y-128452380D01*
X122273809Y-128595238D01*
X122369047Y-128690476D01*
X122464285Y-128738095D01*
X121559523Y-128452380D02*
X120892857Y-128452380D01*
X121321428Y-129452380D01*
X120511904Y-129071428D02*
X119750000Y-129071428D01*
X118797619Y-128452380D02*
X119273809Y-128452380D01*
X119321428Y-128928571D01*
X119273809Y-128880952D01*
X119178571Y-128833333D01*
X118940476Y-128833333D01*
X118845238Y-128880952D01*
X118797619Y-128928571D01*
X118750000Y-129023809D01*
X118750000Y-129261904D01*
X118797619Y-129357142D01*
X118845238Y-129404761D01*
X118940476Y-129452380D01*
X119178571Y-129452380D01*
X119273809Y-129404761D01*
X119321428Y-129357142D01*
X118321428Y-129357142D02*
X118273809Y-129404761D01*
X118321428Y-129452380D01*
X118369047Y-129404761D01*
X118321428Y-129357142D01*
X118321428Y-129452380D01*
X117654761Y-128452380D02*
X117559523Y-128452380D01*
X117464285Y-128500000D01*
X117416666Y-128547619D01*
X117369047Y-128642857D01*
X117321428Y-128833333D01*
X117321428Y-129071428D01*
X117369047Y-129261904D01*
X117416666Y-129357142D01*
X117464285Y-129404761D01*
X117559523Y-129452380D01*
X117654761Y-129452380D01*
X117750000Y-129404761D01*
X117797619Y-129357142D01*
X117845238Y-129261904D01*
X117892857Y-129071428D01*
X117892857Y-128833333D01*
X117845238Y-128642857D01*
X117797619Y-128547619D01*
X117750000Y-128500000D01*
X117654761Y-128452380D01*
D13*
X121311904Y-123890476D02*
X121959523Y-123890476D01*
X122035714Y-123928571D01*
X122073809Y-123966666D01*
X122111904Y-124042857D01*
X122111904Y-124195238D01*
X122073809Y-124271428D01*
X122035714Y-124309523D01*
X121959523Y-124347619D01*
X121311904Y-124347619D01*
X121388095Y-124690476D02*
X121350000Y-124728571D01*
X121311904Y-124804761D01*
X121311904Y-124995238D01*
X121350000Y-125071428D01*
X121388095Y-125109523D01*
X121464285Y-125147619D01*
X121540476Y-125147619D01*
X121654761Y-125109523D01*
X122111904Y-124652380D01*
X122111904Y-125147619D01*
D11*
X125928571Y-138166666D02*
X125452380Y-138166666D01*
X126023809Y-138452380D02*
X125690476Y-137452380D01*
X125357142Y-138452380D01*
X125119047Y-137452380D02*
X124452380Y-137452380D01*
X125119047Y-138452380D01*
X124452380Y-138452380D01*
X123547619Y-138452380D02*
X124119047Y-138452380D01*
X123833333Y-138452380D02*
X123833333Y-137452380D01*
X123928571Y-137595238D01*
X124023809Y-137690476D01*
X124119047Y-137738095D01*
X122595238Y-138452380D02*
X123166666Y-138452380D01*
X122880952Y-138452380D02*
X122880952Y-137452380D01*
X122976190Y-137595238D01*
X123071428Y-137690476D01*
X123166666Y-137738095D01*
X121642857Y-138452380D02*
X122214285Y-138452380D01*
X121928571Y-138452380D02*
X121928571Y-137452380D01*
X122023809Y-137595238D01*
X122119047Y-137690476D01*
X122214285Y-137738095D01*
X121309523Y-137452380D02*
X120642857Y-137452380D01*
X121071428Y-138452380D01*
X120261904Y-138071428D02*
X119500000Y-138071428D01*
X119119047Y-137452380D02*
X118500000Y-137452380D01*
X118833333Y-137833333D01*
X118690476Y-137833333D01*
X118595238Y-137880952D01*
X118547619Y-137928571D01*
X118500000Y-138023809D01*
X118500000Y-138261904D01*
X118547619Y-138357142D01*
X118595238Y-138404761D01*
X118690476Y-138452380D01*
X118976190Y-138452380D01*
X119071428Y-138404761D01*
X119119047Y-138357142D01*
X118071428Y-138357142D02*
X118023809Y-138404761D01*
X118071428Y-138452380D01*
X118119047Y-138404761D01*
X118071428Y-138357142D01*
X118071428Y-138452380D01*
X117690476Y-137452380D02*
X117071428Y-137452380D01*
X117404761Y-137833333D01*
X117261904Y-137833333D01*
X117166666Y-137880952D01*
X117119047Y-137928571D01*
X117071428Y-138023809D01*
X117071428Y-138261904D01*
X117119047Y-138357142D01*
X117166666Y-138404761D01*
X117261904Y-138452380D01*
X117547619Y-138452380D01*
X117642857Y-138404761D01*
X117690476Y-138357142D01*
D13*
X121061904Y-132890476D02*
X121709523Y-132890476D01*
X121785714Y-132928571D01*
X121823809Y-132966666D01*
X121861904Y-133042857D01*
X121861904Y-133195238D01*
X121823809Y-133271428D01*
X121785714Y-133309523D01*
X121709523Y-133347619D01*
X121061904Y-133347619D01*
X121061904Y-133652380D02*
X121061904Y-134147619D01*
X121366666Y-133880952D01*
X121366666Y-133995238D01*
X121404761Y-134071428D01*
X121442857Y-134109523D01*
X121519047Y-134147619D01*
X121709523Y-134147619D01*
X121785714Y-134109523D01*
X121823809Y-134071428D01*
X121861904Y-133995238D01*
X121861904Y-133766666D01*
X121823809Y-133690476D01*
X121785714Y-133652380D01*
D11*
X104928571Y-123678571D02*
X104785714Y-123726190D01*
X104738095Y-123773809D01*
X104690476Y-123869047D01*
X104690476Y-124011904D01*
X104738095Y-124107142D01*
X104785714Y-124154761D01*
X104880952Y-124202380D01*
X105261904Y-124202380D01*
X105261904Y-123202380D01*
X104928571Y-123202380D01*
X104833333Y-123250000D01*
X104785714Y-123297619D01*
X104738095Y-123392857D01*
X104738095Y-123488095D01*
X104785714Y-123583333D01*
X104833333Y-123630952D01*
X104928571Y-123678571D01*
X105261904Y-123678571D01*
X103833333Y-123535714D02*
X103833333Y-124202380D01*
X104261904Y-123535714D02*
X104261904Y-124059523D01*
X104214285Y-124154761D01*
X104119047Y-124202380D01*
X103976190Y-124202380D01*
X103880952Y-124154761D01*
X103833333Y-124107142D01*
X103452380Y-123535714D02*
X102928571Y-123535714D01*
X103452380Y-124202380D01*
X102928571Y-124202380D01*
X102642857Y-123535714D02*
X102119047Y-123535714D01*
X102642857Y-124202380D01*
X102119047Y-124202380D01*
X101357142Y-124154761D02*
X101452380Y-124202380D01*
X101642857Y-124202380D01*
X101738095Y-124154761D01*
X101785714Y-124059523D01*
X101785714Y-123678571D01*
X101738095Y-123583333D01*
X101642857Y-123535714D01*
X101452380Y-123535714D01*
X101357142Y-123583333D01*
X101309523Y-123678571D01*
X101309523Y-123773809D01*
X101785714Y-123869047D01*
X100880952Y-124202380D02*
X100880952Y-123535714D01*
X100880952Y-123726190D02*
X100833333Y-123630952D01*
X100785714Y-123583333D01*
X100690476Y-123535714D01*
X100595238Y-123535714D01*
X100130952Y-132621428D02*
X99369047Y-132621428D01*
X99750000Y-133002380D02*
X99750000Y-132240476D01*
X103880952Y-137678571D02*
X103738095Y-137726190D01*
X103690476Y-137773809D01*
X103642857Y-137869047D01*
X103642857Y-138011904D01*
X103690476Y-138107142D01*
X103738095Y-138154761D01*
X103833333Y-138202380D01*
X104214285Y-138202380D01*
X104214285Y-137202380D01*
X103880952Y-137202380D01*
X103785714Y-137250000D01*
X103738095Y-137297619D01*
X103690476Y-137392857D01*
X103690476Y-137488095D01*
X103738095Y-137583333D01*
X103785714Y-137630952D01*
X103880952Y-137678571D01*
X104214285Y-137678571D01*
X103309523Y-137202380D02*
X102642857Y-137202380D01*
X103309523Y-138202380D01*
X102642857Y-138202380D01*
X101738095Y-138202380D02*
X102309523Y-138202380D01*
X102023809Y-138202380D02*
X102023809Y-137202380D01*
X102119047Y-137345238D01*
X102214285Y-137440476D01*
X102309523Y-137488095D01*
X101334761Y-139075476D02*
X101382380Y-139218333D01*
X101382380Y-139456428D01*
X101334761Y-139551666D01*
X101287142Y-139599285D01*
X101191904Y-139646904D01*
X101096666Y-139646904D01*
X101001428Y-139599285D01*
X100953809Y-139551666D01*
X100906190Y-139456428D01*
X100858571Y-139265952D01*
X100810952Y-139170714D01*
X100763333Y-139123095D01*
X100668095Y-139075476D01*
X100572857Y-139075476D01*
X100477619Y-139123095D01*
X100430000Y-139170714D01*
X100382380Y-139265952D01*
X100382380Y-139504047D01*
X100430000Y-139646904D01*
X101382380Y-140075476D02*
X100382380Y-140075476D01*
X100382380Y-140456428D01*
X100430000Y-140551666D01*
X100477619Y-140599285D01*
X100572857Y-140646904D01*
X100715714Y-140646904D01*
X100810952Y-140599285D01*
X100858571Y-140551666D01*
X100906190Y-140456428D01*
X100906190Y-140075476D01*
X101382380Y-141075476D02*
X100382380Y-141075476D01*
X100334761Y-142265952D02*
X101620476Y-141408809D01*
X101334761Y-142551666D02*
X101382380Y-142694523D01*
X101382380Y-142932619D01*
X101334761Y-143027857D01*
X101287142Y-143075476D01*
X101191904Y-143123095D01*
X101096666Y-143123095D01*
X101001428Y-143075476D01*
X100953809Y-143027857D01*
X100906190Y-142932619D01*
X100858571Y-142742142D01*
X100810952Y-142646904D01*
X100763333Y-142599285D01*
X100668095Y-142551666D01*
X100572857Y-142551666D01*
X100477619Y-142599285D01*
X100430000Y-142646904D01*
X100382380Y-142742142D01*
X100382380Y-142980238D01*
X100430000Y-143123095D01*
X100382380Y-143408809D02*
X100382380Y-143980238D01*
X101382380Y-143694523D02*
X100382380Y-143694523D01*
X100858571Y-144313571D02*
X100858571Y-144646904D01*
X101382380Y-144789761D02*
X101382380Y-144313571D01*
X100382380Y-144313571D01*
X100382380Y-144789761D01*
X101382380Y-145218333D02*
X100382380Y-145218333D01*
X100382380Y-145599285D01*
X100430000Y-145694523D01*
X100477619Y-145742142D01*
X100572857Y-145789761D01*
X100715714Y-145789761D01*
X100810952Y-145742142D01*
X100858571Y-145694523D01*
X100906190Y-145599285D01*
X100906190Y-145218333D01*
X101382380Y-146218333D02*
X100382380Y-146218333D01*
X100382380Y-146599285D01*
X100430000Y-146694523D01*
X100477619Y-146742142D01*
X100572857Y-146789761D01*
X100715714Y-146789761D01*
X100810952Y-146742142D01*
X100858571Y-146694523D01*
X100906190Y-146599285D01*
X100906190Y-146218333D01*
X100858571Y-147218333D02*
X100858571Y-147551666D01*
X101382380Y-147694523D02*
X101382380Y-147218333D01*
X100382380Y-147218333D01*
X100382380Y-147694523D01*
X101382380Y-148694523D02*
X100906190Y-148361190D01*
X101382380Y-148123095D02*
X100382380Y-148123095D01*
X100382380Y-148504047D01*
X100430000Y-148599285D01*
X100477619Y-148646904D01*
X100572857Y-148694523D01*
X100715714Y-148694523D01*
X100810952Y-148646904D01*
X100858571Y-148599285D01*
X100906190Y-148504047D01*
X100906190Y-148123095D01*
X92643333Y-141722380D02*
X92643333Y-142436666D01*
X92690952Y-142579523D01*
X92786190Y-142674761D01*
X92929047Y-142722380D01*
X93024285Y-142722380D01*
X91738571Y-142055714D02*
X91738571Y-142722380D01*
X91976666Y-141674761D02*
X92214761Y-142389047D01*
X91595714Y-142389047D01*
X84592380Y-142908809D02*
X83592380Y-142908809D01*
X83687619Y-143337380D02*
X83640000Y-143385000D01*
X83592380Y-143480238D01*
X83592380Y-143718333D01*
X83640000Y-143813571D01*
X83687619Y-143861190D01*
X83782857Y-143908809D01*
X83878095Y-143908809D01*
X84020952Y-143861190D01*
X84592380Y-143289761D01*
X84592380Y-143908809D01*
X84497142Y-144908809D02*
X84544761Y-144861190D01*
X84592380Y-144718333D01*
X84592380Y-144623095D01*
X84544761Y-144480238D01*
X84449523Y-144385000D01*
X84354285Y-144337380D01*
X84163809Y-144289761D01*
X84020952Y-144289761D01*
X83830476Y-144337380D01*
X83735238Y-144385000D01*
X83640000Y-144480238D01*
X83592380Y-144623095D01*
X83592380Y-144718333D01*
X83640000Y-144861190D01*
X83687619Y-144908809D01*
X78393333Y-141722380D02*
X78393333Y-142436666D01*
X78440952Y-142579523D01*
X78536190Y-142674761D01*
X78679047Y-142722380D01*
X78774285Y-142722380D01*
X78012380Y-141722380D02*
X77393333Y-141722380D01*
X77726666Y-142103333D01*
X77583809Y-142103333D01*
X77488571Y-142150952D01*
X77440952Y-142198571D01*
X77393333Y-142293809D01*
X77393333Y-142531904D01*
X77440952Y-142627142D01*
X77488571Y-142674761D01*
X77583809Y-142722380D01*
X77869523Y-142722380D01*
X77964761Y-142674761D01*
X78012380Y-142627142D01*
X113092380Y-142551666D02*
X112092380Y-142551666D01*
X112092380Y-142932619D01*
X112140000Y-143027857D01*
X112187619Y-143075476D01*
X112282857Y-143123095D01*
X112425714Y-143123095D01*
X112520952Y-143075476D01*
X112568571Y-143027857D01*
X112616190Y-142932619D01*
X112616190Y-142551666D01*
X112092380Y-143456428D02*
X113092380Y-143694523D01*
X112378095Y-143885000D01*
X113092380Y-144075476D01*
X112092380Y-144313571D01*
X113092380Y-145265952D02*
X112616190Y-144932619D01*
X113092380Y-144694523D02*
X112092380Y-144694523D01*
X112092380Y-145075476D01*
X112140000Y-145170714D01*
X112187619Y-145218333D01*
X112282857Y-145265952D01*
X112425714Y-145265952D01*
X112520952Y-145218333D01*
X112568571Y-145170714D01*
X112616190Y-145075476D01*
X112616190Y-144694523D01*
X106893333Y-141722380D02*
X106893333Y-142436666D01*
X106940952Y-142579523D01*
X107036190Y-142674761D01*
X107179047Y-142722380D01*
X107274285Y-142722380D01*
X105940952Y-141722380D02*
X106417142Y-141722380D01*
X106464761Y-142198571D01*
X106417142Y-142150952D01*
X106321904Y-142103333D01*
X106083809Y-142103333D01*
X105988571Y-142150952D01*
X105940952Y-142198571D01*
X105893333Y-142293809D01*
X105893333Y-142531904D01*
X105940952Y-142627142D01*
X105988571Y-142674761D01*
X106083809Y-142722380D01*
X106321904Y-142722380D01*
X106417142Y-142674761D01*
X106464761Y-142627142D01*
X122460476Y-115582380D02*
X122936666Y-115582380D01*
X122936666Y-114582380D01*
X122127142Y-115582380D02*
X122127142Y-114582380D01*
X121889047Y-114582380D01*
X121746190Y-114630000D01*
X121650952Y-114725238D01*
X121603333Y-114820476D01*
X121555714Y-115010952D01*
X121555714Y-115153809D01*
X121603333Y-115344285D01*
X121650952Y-115439523D01*
X121746190Y-115534761D01*
X121889047Y-115582380D01*
X122127142Y-115582380D01*
X120555714Y-115582380D02*
X120889047Y-115106190D01*
X121127142Y-115582380D02*
X121127142Y-114582380D01*
X120746190Y-114582380D01*
X120650952Y-114630000D01*
X120603333Y-114677619D01*
X120555714Y-114772857D01*
X120555714Y-114915714D01*
X120603333Y-115010952D01*
X120650952Y-115058571D01*
X120746190Y-115106190D01*
X121127142Y-115106190D01*
X121936666Y-120322380D02*
X122270000Y-119846190D01*
X122508095Y-120322380D02*
X122508095Y-119322380D01*
X122127142Y-119322380D01*
X122031904Y-119370000D01*
X121984285Y-119417619D01*
X121936666Y-119512857D01*
X121936666Y-119655714D01*
X121984285Y-119750952D01*
X122031904Y-119798571D01*
X122127142Y-119846190D01*
X122508095Y-119846190D01*
X121555714Y-119417619D02*
X121508095Y-119370000D01*
X121412857Y-119322380D01*
X121174761Y-119322380D01*
X121079523Y-119370000D01*
X121031904Y-119417619D01*
X120984285Y-119512857D01*
X120984285Y-119608095D01*
X121031904Y-119750952D01*
X121603333Y-120322380D01*
X120984285Y-120322380D01*
X109045238Y-119452380D02*
X109616666Y-119452380D01*
X109330952Y-119452380D02*
X109330952Y-118452380D01*
X109426190Y-118595238D01*
X109521428Y-118690476D01*
X109616666Y-118738095D01*
X108426190Y-118452380D02*
X108330952Y-118452380D01*
X108235714Y-118500000D01*
X108188095Y-118547619D01*
X108140476Y-118642857D01*
X108092857Y-118833333D01*
X108092857Y-119071428D01*
X108140476Y-119261904D01*
X108188095Y-119357142D01*
X108235714Y-119404761D01*
X108330952Y-119452380D01*
X108426190Y-119452380D01*
X108521428Y-119404761D01*
X108569047Y-119357142D01*
X108616666Y-119261904D01*
X108664285Y-119071428D01*
X108664285Y-118833333D01*
X108616666Y-118642857D01*
X108569047Y-118547619D01*
X108521428Y-118500000D01*
X108426190Y-118452380D01*
X107664285Y-119452380D02*
X107664285Y-118452380D01*
X107569047Y-119071428D02*
X107283333Y-119452380D01*
X107283333Y-118785714D02*
X107664285Y-119166666D01*
D14*
X108866666Y-116816666D02*
X109100000Y-116483333D01*
X109266666Y-116816666D02*
X109266666Y-116116666D01*
X109000000Y-116116666D01*
X108933333Y-116150000D01*
X108900000Y-116183333D01*
X108866666Y-116250000D01*
X108866666Y-116350000D01*
X108900000Y-116416666D01*
X108933333Y-116450000D01*
X109000000Y-116483333D01*
X109266666Y-116483333D01*
X108666666Y-116116666D02*
X108433333Y-116816666D01*
X108200000Y-116116666D01*
X107600000Y-116816666D02*
X108000000Y-116816666D01*
X107800000Y-116816666D02*
X107800000Y-116116666D01*
X107866666Y-116216666D01*
X107933333Y-116283333D01*
X108000000Y-116316666D01*
M02*
